<?xml version="1.0" encoding="UTF-8"?>
<!DOCTYPE svg PUBLIC "-//W3C//DTD SVG 1.1//EN" "http://www.w3.org/Graphics/SVG/1.1/DTD/svg11.dtd">
<!-- Creator: CorelDRAW 2019 (64-Bit) -->
<svg xmlns="http://www.w3.org/2000/svg" xml:space="preserve" width="1.9107in" height="0.324283in" version="1.1" style="shape-rendering:geometricPrecision; text-rendering:geometricPrecision; image-rendering:optimizeQuality; fill-rule:evenodd; clip-rule:evenodd"
viewBox="0 0 1380.05 234.22"
 xmlns:xlink="http://www.w3.org/1999/xlink">
 <defs>
  <style type="text/css">
   <![CDATA[
    .fil0 {fill:#1F1F1F;fill-rule:nonzero}
   ]]>
  </style>
 </defs>
 <g id="Layer_x0020_1">
  <metadata id="CorelCorpID_0Corel-Layer"/>
  <g id="_2330661023920">
   <path class="fil0" d="M5.14 26.64l0.03 -2.95c0.02,-0.9 0.03,-1.81 0.05,-2.75 0.01,-0.7 0.03,-1.41 0.05,-2.12 0.03,-1.38 0.07,-2.8 0.11,-4.27 0.88,0.11 1.79,0.21 2.72,0.32 0.62,0.05 1.25,0.1 1.89,0.15 0.77,0.05 1.54,0.1 2.33,0.15 3.13,0.15 6.36,0.3 9.6,0.46 6.49,0.19 13.02,0.12 18.83,-0.56 5.1,0.55 -2.46,1.19 -0.9,1.94 28.4,-1.6 24.34,-1.16 47.66,-3.3l19.87 1.27c-14.6,-1.45 4.05,-3.18 20.38,-4.59 -5.18,-0.7 -9.6,-1.32 -12.57,-1.61l26.07 -1.04c3.15,0.32 0.52,0.99 -3.75,1.79 1.78,-0.17 3.46,-0.34 4.78,-0.46 9.32,0.72 4.49,1.84 -2.19,2.92 -3.17,-0.41 -6.32,-0.81 -9.39,-1.2 -6.44,1.17 -12.46,2.48 -11.12,3.62 1.69,-0.22 4.96,-0.42 8.55,-0.53 -1.68,0.32 -2.76,0.61 -1.98,0.8 0.88,0.2 3.6,-0.22 7.87,-0.72l5.93 2.16 1.44 -0.86 34.1 1.35c24.4,-2.17 45.63,-5.38 84.35,-6.27 -9.61,1.59 -2.07,2.59 -2.59,4.46 -10.56,-1.98 -29.99,0.84 -50.06,0.44 10.47,0.21 8.17,1.11 5.51,1.42l35.8 -1.81c-0.81,1.54 7.6,1.16 16.95,1.79 -7.07,-3.03 26.68,-2.02 41.25,-2.95 0.9,1.02 -2.58,2.06 -20.36,1.81 19.61,2.29 25.33,-3.57 44.58,-1.62 -4.34,0.02 -6.68,-0.13 -8.39,0.39 10.13,-0.91 34.91,-0.19 29.08,0.7l-4.33 0.02c28.81,0.36 87.69,0.03 91.99,-2.55 0.29,0.33 -3.78,3.11 -5.52,3.63l51.4 -8.68c-4.53,2.22 12.86,7.49 -11.03,8.74 6.86,0.32 15.34,0.69 29.8,-0.1 -4.68,-0.32 -11.66,-3.2 -5.27,-3.41 17.55,2.47 12.18,1.32 33.82,3.42 -7.02,-0.47 0.78,-3.95 11.86,-3.84 -1.73,0.51 0.92,3.42 -3.13,3.79l27.59 -3.41c-6.89,0.61 -1.22,2.9 4.96,3.86 -2.87,-0.67 23.85,0.06 31.2,-0.28l-11.69 -0.8c31.15,0.52 30.77,-4.79 61.67,-4.61 -3.74,0.71 -9.24,4.34 6.47,4.77 7.2,-1.75 31.89,-8.4 59.23,-9.75l5.24 1 20.97 -1.14c-13.06,2.62 -49.71,8.15 -69.73,10.31 11.66,0.79 3.24,1.18 20.7,1.08 6.16,0.94 -9.51,1.42 -14.65,1.48l40.64 0.6c-1.81,-2.04 31.08,-2.04 29.53,-3.74l-44.14 2.11c-1.79,-2.03 25.52,-5.78 54.32,-5.43 7.33,0.82 -5.48,3.63 -4.88,4.31 3.74,-0.7 27.33,-1.34 29.98,-0.84l-12.22 1.09c16.03,0.77 26.16,-2.7 45.42,-0.75 6.65,0.13 19.85,2.62 21,1.42 -10.85,-2.33 -12.96,-9.52 -5.74,-11.27 2.33,0.16 34.91,2.23 42.5,3.37 10.95,1.83 -16.44,4.35 -7.11,5.91 0.4,-0.55 6.45,-1.24 8.97,-1.46 6.98,0.48 -2.89,1.73 12.28,1.48 2.53,-2.07 30.86,0.17 7.17,-1.75 14.84,-0.59 15.77,0.43 33.2,0.34 -5.55,-1.33 15.65,-4.54 30.51,-5.14 -0.88,0.53 2.46,1.22 4.08,1.53 30.43,0.19 46.76,1.13 75.13,1.15 2.62,0.5 16.3,1.1 10.48,1.99 4.08,-0.37 7.83,-1.07 16.58,-1.12 16.93,1.79 -19.51,0.28 -6.6,2.43 1.11,-1.2 22.63,-1.66 35.09,-2.41 -3.83,-1.85 -28.79,-0.36 -41.27,0.4 -0.06,-2.56 21.67,-5.24 51.32,-6.42 23.56,-0.63 10.21,1.65 14.31,1.3 44.26,0.44 37.71,-4.47 74.47,-2.62 14.58,1.63 0.66,3.24 3.89,4.42 -19.2,0.61 -29.47,-1.04 -42.48,-0.97l16.02 0.76c-6.11,0.55 -18.92,0.96 -25.9,0.49 12.22,1.46 74.78,0.28 108.93,1.63 6.07,-0.55 16.54,-1.11 11.58,-1.77l-10.8 0.23c-9.93,-1.31 20.33,-1.82 6.66,-2.43 14.49,-0.93 30.74,-2.38 51.15,-1.64l3.83 1.86c-0.44,-0.55 -13.34,-1.11 -19.07,-0.54 8.51,-0.83 31.29,2.52 40.61,0.09l-14.3 -1.29c14.55,-0.93 32.54,-2.91 50.62,-2.32 -8.23,-1.84 -4.17,0.2 -17.02,-1.94 11.14,2.67 -46.26,-0.11 -28.37,2.7 -13.19,-2.49 -22.82,-1.06 -40.06,-3.18 0.53,0.61 6.11,1.17 -9.08,0.87 -0.68,0.18 -2.3,0.41 -3.33,0.54 -0.46,-0.02 -0.63,-0.03 -1.02,-0.05 0.3,0.03 0.53,0.05 0.84,0.07 -0.66,0.09 -0.72,0.12 0.31,0.03 3.61,0.27 6.55,0.59 7.73,0.93 -7.54,1.41 -31.68,1.37 -39.84,2.1 -9.01,-0.29 3.77,-0.71 -1.15,-1.36l-12.19 1.09c-1.21,-1.36 -23.93,-2.26 -2.71,-3.05l-19.1 -0.07c-11.24,-0.76 -26.71,-1.06 -36.25,-0.49 -9.01,-0.29 -22.75,1.51 -14.91,0.44l-29.95 0.84 -0.28 -0.33c-29.56,-0.18 -60.84,2.25 -94.63,-0.21 -9.95,0.34 -20.24,0.76 -36.88,0.38l-3.25 -1.17c-12.77,0.41 -38.37,-1.18 -43.85,0.04 -13.78,-3.17 -62,-0.69 -84.47,-1.25l-0.85 1.54c-15.47,-0.09 -30.3,0.35 -49.49,0.97l1.18 1.36c-16.55,1.12 -42.55,-0.96 -68.73,-0.83 1.78,-0.51 8.42,-0.38 13.12,-0.07 -31.28,-3.07 -65.99,2.23 -94.36,-0.01 -7.07,0.5 -12.18,0.33 -17.14,-0.01 0.66,-0.02 1.25,-0.05 1.75,-0.07 -0.73,0 -1.8,-0.01 -2.9,-0.02 -3.13,-0.22 -6.34,-0.46 -9.82,-0.72 2.96,0.33 5.79,0.6 8.26,0.73 -5.45,0.03 -13.72,0.19 -21.82,0.54l-3.45 -1.46c-0.66,0.01 -1.19,0.02 -1.88,0.03 -7.95,-0.53 -6.39,0.69 -2.15,1.79 -4.08,0.24 -7.82,0.53 -10.72,0.88 -6.46,-2.35 -21.26,0.8 -30.08,-1.72 -5.47,1.22 -40.75,0.92 -45.07,3.5 -0.28,-0.33 -2.66,-0.49 1.71,-0.51 -9.04,-0.29 -18.07,-0.59 -26.17,0.14l-3.83 -1.86 -19.73 2.49c-11.98,-1.13 -16.95,-1.79 -5.05,-3.22 -28.73,2.2 -23.31,0.83 -47.76,3l1.19 -1.2c-8.74,0.05 -22.7,1.65 -27.97,0.66 -19.54,-2.28 -96.69,-0.32 -146.85,-2.44 9.73,3.53 -23.31,-1.58 -25.3,1.16 -2.92,-0.83 -9.92,-1.31 -1.79,-2.03 -25.6,0.82 -38.46,-1.33 -56.14,0.99 -2.93,-0.84 5.48,-1.22 2.87,-1.72 -2.05,0.18 -8.13,0.73 -10.8,0.23 -2.61,-0.5 3.75,-0.7 7.8,-1.07 -26.15,0.14 -28.79,2.72 -30.7,5.14 -13.25,-1.14 -19.86,-0.99 -29.43,0.6 -4.62,-0.79 -12.31,-1.62 3.94,-1.91 -9.14,-0.12 -55.84,-1.16 -56.77,0.78 -2.86,-0.49 -12.78,-0.14 -15.18,0.09 -10.25,-0.09 -15.83,-0.13 -21.37,-0.17 -5.69,0.02 -11.34,0.03 -21.71,0.06l6.2 0.32c-0.71,0.21 -1.42,0.38 -2.14,0.53 -0.36,0.07 -0.73,0.13 -1.09,0.19 -0.42,0.05 -0.83,0.11 -1.25,0.16 -1.86,0.18 -3.74,0.28 -5.76,0.31 -0.01,4.03 -0.01,8.28 -0.02,12.83l-0.04 6.25 3.02 0zm158.6 -13.44l0 0c-3.52,0.48 -8.97,0.24 -15.12,-0.32 4.46,-0.12 9.51,-0.06 15.12,0.32zm1035.41 -10.19l0 0c-0.2,0.03 -0.34,0.05 -0.51,0.07 -10.57,-0.57 -6.82,-0.34 0.51,-0.07zm21.94 0.64l0 0c2.21,-0.2 2.06,-0.41 1.12,-0.61 -1.53,0.37 -6.46,0.4 -12.07,0.29 1.56,0.38 4.4,0.65 10.95,0.32z"/>
   <path class="fil0" d="M5.14 207.58l0.03 2.95c0.02,0.89 0.03,1.81 0.05,2.75 0.01,0.7 0.03,1.4 0.05,2.12 0.03,1.38 0.07,2.8 0.11,4.27 0.88,-0.1 1.79,-0.21 2.72,-0.32 0.62,-0.05 1.25,-0.1 1.89,-0.15 0.77,-0.05 1.54,-0.1 2.33,-0.15 3.13,-0.15 6.36,-0.3 9.6,-0.46 6.49,-0.19 13.02,-0.12 18.83,0.56 5.1,-0.55 -2.46,-1.19 -0.9,-1.94 28.4,1.59 24.34,1.16 47.66,3.3l19.87 -1.27c-14.6,1.46 4.05,3.18 20.38,4.6 -5.18,0.7 -9.6,1.32 -12.57,1.61l26.07 1.04c3.15,-0.32 0.52,-0.98 -3.75,-1.79 1.78,0.17 3.46,0.34 4.78,0.46 9.32,-0.72 4.49,-1.84 -2.19,-2.92 -3.17,0.41 -6.32,0.81 -9.39,1.2 -6.44,-1.17 -12.46,-2.48 -11.12,-3.62 1.69,0.23 4.96,0.42 8.55,0.53 -1.68,-0.32 -2.76,-0.61 -1.98,-0.8 0.88,-0.2 3.6,0.22 7.87,0.72l5.93 -2.16 1.44 0.86 34.1 -1.35c24.4,2.17 45.63,5.38 84.35,6.27 -9.61,-1.59 -2.07,-2.59 -2.59,-4.47 -10.56,1.98 -29.99,-0.84 -50.06,-0.44 10.47,-0.21 8.17,-1.11 5.51,-1.42l35.8 1.81c-0.81,-1.54 7.6,-1.15 16.95,-1.79 -7.07,3.04 26.68,2.02 41.25,2.95 0.9,-1.02 -2.58,-2.06 -20.36,-1.81 19.61,-2.29 25.33,3.57 44.58,1.62 -4.34,-0.02 -6.68,0.13 -8.39,-0.39 10.13,0.91 34.91,0.19 29.08,-0.7l-4.33 -0.02c28.81,-0.36 87.69,-0.03 91.99,2.56 0.29,-0.34 -3.78,-3.11 -5.52,-3.63l51.4 8.68c-4.53,-2.22 12.86,-7.49 -11.03,-8.74 6.86,-0.32 15.34,-0.69 29.8,0.1 -4.68,0.32 -11.66,3.2 -5.27,3.41 17.55,-2.47 12.18,-1.32 33.82,-3.42 -7.02,0.47 0.78,3.95 11.86,3.84 -1.73,-0.52 0.92,-3.43 -3.13,-3.79l27.59 3.41c-6.89,-0.61 -1.22,-2.89 4.96,-3.86 -2.87,0.67 23.85,-0.06 31.2,0.27l-11.69 0.8c31.15,-0.52 30.77,4.79 61.67,4.61 -3.74,-0.71 -9.24,-4.34 6.47,-4.76 7.2,1.75 31.89,8.39 59.23,9.75l5.24 -1 20.97 1.14c-13.06,-2.62 -49.71,-8.15 -69.73,-10.31 11.66,-0.79 3.24,-1.18 20.7,-1.08 6.16,-0.94 -9.51,-1.42 -14.65,-1.48l40.64 -0.6c-1.81,2.04 31.08,2.04 29.53,3.74l-44.14 -2.11c-1.79,2.03 25.52,5.78 54.32,5.43 7.33,-0.81 -5.48,-3.63 -4.88,-4.31 3.74,0.7 27.33,1.34 29.98,0.84l-12.22 -1.09c16.03,-0.77 26.16,2.7 45.42,0.75 6.65,-0.13 19.85,-2.62 21,-1.42 -10.85,2.32 -12.96,9.52 -5.74,11.27 2.33,-0.16 34.91,-2.23 42.5,-3.37 10.95,-1.83 -16.44,-4.35 -7.11,-5.91 0.4,0.55 6.45,1.24 8.97,1.47 6.98,-0.48 -2.89,-1.73 12.28,-1.48 2.53,2.07 30.86,-0.17 7.17,1.75 14.84,0.59 15.77,-0.43 33.2,-0.34 -5.55,1.33 15.65,4.54 30.51,5.14 -0.88,-0.53 2.46,-1.22 4.08,-1.53 30.43,-0.19 46.76,-1.13 75.13,-1.14 2.62,-0.5 16.3,-1.1 10.48,-2 4.08,0.37 7.83,1.07 16.58,1.12 16.93,-1.79 -19.51,-0.28 -6.6,-2.43 1.11,1.2 22.63,1.66 35.09,2.41 -3.83,1.86 -28.79,0.36 -41.27,-0.4 -0.06,2.56 21.67,5.24 51.32,6.42 23.56,0.63 10.21,-1.65 14.31,-1.29 44.26,-0.45 37.71,4.47 74.47,2.62 14.58,-1.63 0.66,-3.24 3.89,-4.42 -19.2,-0.62 -29.47,1.03 -42.48,0.97l16.02 -0.77c-6.11,-0.55 -18.92,-0.96 -25.9,-0.49 12.22,-1.46 74.78,-0.27 108.93,-1.63 6.07,0.55 16.54,1.11 11.58,1.77l-10.8 -0.23c-9.93,1.31 20.33,1.82 6.66,2.43 14.49,0.92 30.74,2.38 51.15,1.64l3.83 -1.86c-0.44,0.55 -13.34,1.11 -19.07,0.54 8.51,0.83 31.29,-2.52 40.61,-0.09l-14.3 1.29c14.55,0.93 32.54,2.91 50.62,2.32 -8.23,1.84 -4.17,-0.21 -17.02,1.94 11.14,-2.67 -46.26,0.12 -28.37,-2.7 -13.19,2.49 -22.82,1.06 -40.06,3.18 0.53,-0.61 6.11,-1.17 -9.08,-0.87 -0.68,-0.18 -2.3,-0.41 -3.33,-0.54 -0.46,0.02 -0.63,0.03 -1.02,0.05 0.3,-0.03 0.53,-0.05 0.84,-0.07 -0.66,-0.09 -0.72,-0.11 0.31,-0.02 3.61,-0.28 6.55,-0.6 7.73,-0.93 -7.54,-1.41 -31.68,-1.37 -39.84,-2.1 -9.01,0.29 3.77,0.71 -1.15,1.36l-12.19 -1.09c-1.21,1.36 -23.93,2.26 -2.71,3.05l-19.1 0.07c-11.24,0.76 -26.71,1.06 -36.25,0.49 -9.01,0.29 -22.75,-1.51 -14.91,-0.44l-29.95 -0.84 -0.28 0.34c-29.56,0.18 -60.84,-2.25 -94.63,0.2 -9.95,-0.34 -20.24,-0.76 -36.88,-0.38l-3.25 1.17c-12.77,-0.41 -38.37,1.18 -43.85,-0.04 -13.78,3.17 -62,0.69 -84.47,1.25l-0.85 -1.54c-15.47,0.09 -30.3,-0.35 -49.49,-0.97l1.18 -1.36c-16.55,-1.12 -42.55,0.96 -68.73,0.83 1.78,0.52 8.42,0.38 13.12,0.07 -31.28,3.07 -65.99,-2.23 -94.36,0.01 -7.07,-0.5 -12.18,-0.33 -17.14,0.01 0.66,0.02 1.25,0.05 1.75,0.07 -0.73,0 -1.8,0.01 -2.9,0.02 -3.13,0.22 -6.34,0.46 -9.82,0.72 2.96,-0.33 5.79,-0.59 8.26,-0.72 -5.45,-0.03 -13.72,-0.2 -21.82,-0.54l-3.45 1.46c-0.66,-0.01 -1.19,-0.03 -1.88,-0.04 -7.95,0.53 -6.39,-0.69 -2.15,-1.79 -4.08,-0.24 -7.82,-0.53 -10.72,-0.88 -6.46,2.35 -21.26,-0.8 -30.08,1.71 -5.47,-1.22 -40.75,-0.92 -45.07,-3.5 -0.28,0.34 -2.66,0.49 1.71,0.52 -9.04,0.29 -18.07,0.58 -26.17,-0.14l-3.83 1.85 -19.73 -2.49c-11.98,1.13 -16.95,1.79 -5.05,3.22 -28.73,-2.2 -23.31,-0.83 -47.76,-3.01l1.19 1.2c-8.74,-0.05 -22.7,-1.65 -27.97,-0.66 -19.54,2.28 -96.69,0.32 -146.85,2.44 9.73,-3.53 -23.31,1.58 -25.3,-1.16 -2.92,0.84 -9.92,1.31 -1.79,2.03 -25.6,-0.82 -38.46,1.33 -56.14,-0.99 -2.93,0.84 5.48,1.22 2.87,1.72 -2.05,-0.18 -8.13,-0.73 -10.8,-0.22 -2.61,0.5 3.75,0.7 7.8,1.06 -26.15,-0.14 -28.79,-2.72 -30.7,-5.14 -13.25,1.15 -19.86,0.99 -29.43,-0.6 -4.62,0.79 -12.31,1.62 3.94,1.9 -9.14,0.12 -55.84,1.16 -56.77,-0.78 -2.86,0.49 -12.78,0.14 -15.18,-0.08 -10.25,0.08 -15.83,0.13 -21.37,0.17 -5.69,-0.02 -11.34,-0.03 -21.71,-0.06l6.2 -0.32c-0.71,-0.21 -1.42,-0.38 -2.14,-0.53 -0.36,-0.07 -0.73,-0.13 -1.09,-0.2 -0.42,-0.05 -0.83,-0.11 -1.25,-0.16 -1.86,-0.18 -3.74,-0.28 -5.76,-0.31 -0.01,-4.03 -0.01,-8.28 -0.02,-12.83l-0.04 -6.25 3.02 0zm158.6 13.44l0 0c-3.52,-0.48 -8.97,-0.24 -15.12,0.32 4.46,0.12 9.51,0.06 15.12,-0.32zm1035.41 10.19l0 0c-0.2,-0.03 -0.34,-0.05 -0.51,-0.07 -10.57,0.57 -6.82,0.34 0.51,0.07zm21.94 -0.64l0 0c2.21,0.2 2.06,0.41 1.12,0.61 -1.53,-0.37 -6.46,-0.4 -12.07,-0.29 1.56,-0.38 4.4,-0.65 10.95,-0.32z"/>
   <path class="fil0" d="M4.56 229.18c1.19,-14.28 3.02,-19.37 1.77,-44.17 -1.63,-14.58 -3.24,-0.66 -4.42,-3.89 -0.61,19.19 1.03,29.47 0.97,42.48l-0.77 -16.02c-0.45,5 -0.81,14.49 -0.66,21.6l-0.15 0c-0.95,-18.63 -0.06,-73.46 -1.3,-104.63 0.55,-6.07 1.11,-16.54 1.77,-11.58l-0.23 10.8c1.31,9.94 1.82,-20.34 2.43,-6.65 0.92,-14.5 2.38,-30.75 1.64,-51.15l-1.86 -3.83c0.55,0.43 1.11,13.34 0.54,19.07 0.83,-8.51 -2.52,-31.29 -0.09,-40.61l1.29 14.3c0.93,-14.55 2.91,-32.55 2.32,-50.62 1.84,8.23 -0.21,4.17 1.94,17.02 -2.67,-11.15 0.12,46.26 -2.7,28.36 2.5,13.19 1.06,22.83 3.18,40.06 -0.61,-0.53 -1.17,-6.1 -0.87,9.08 -0.18,0.69 -0.41,2.3 -0.54,3.33 0.03,0.46 0.03,0.63 0.05,1.02 -0.03,-0.3 -0.05,-0.53 -0.07,-0.83 -0.09,0.66 -0.11,0.72 -0.02,-0.32 -0.27,-3.61 -0.6,-6.55 -0.93,-7.73 -1.41,7.53 -1.37,31.68 -2.1,39.84 0.29,9.01 0.71,-3.77 1.36,1.15l-1.09 12.2c1.36,1.2 2.26,23.93 3.05,2.71l0.07 19.1c0.76,11.25 1.07,26.71 0.49,36.25 0.29,9.01 -1.51,22.76 -0.44,14.91l-0.24 8.76 -4.39 0zm3.73 -45.17l0 0c-0.03,0.2 -0.06,0.34 -0.07,0.51 0.57,10.57 0.34,6.82 0.07,-0.51zm-0.64 -21.94l0 0c0.2,-2.21 0.41,-2.06 0.61,-1.12 -0.37,1.53 -0.4,6.46 -0.29,12.07 -0.38,-1.56 -0.65,-4.39 -0.32,-10.95z"/>
   <path class="fil0" d="M1374.38 229.18c1.19,-14.28 3.02,-19.37 1.77,-44.17 -1.63,-14.58 -3.24,-0.66 -4.42,-3.89 -0.61,19.19 1.03,29.47 0.97,42.48l-0.77 -16.02c-0.45,5 -0.81,14.49 -0.66,21.6l-0.15 0c-0.95,-18.63 -0.06,-73.46 -1.3,-104.63 0.55,-6.07 1.11,-16.54 1.77,-11.58l-0.23 10.8c1.31,9.94 1.82,-20.34 2.43,-6.65 0.92,-14.5 2.38,-30.75 1.64,-51.15l-1.86 -3.83c0.55,0.43 1.11,13.34 0.54,19.07 0.83,-8.51 -2.52,-31.29 -0.09,-40.61l1.29 14.3c0.93,-14.55 2.91,-32.55 2.32,-50.62 1.84,8.23 -0.21,4.17 1.94,17.02 -2.67,-11.15 0.12,46.26 -2.7,28.36 2.5,13.19 1.06,22.83 3.18,40.06 -0.61,-0.53 -1.17,-6.1 -0.87,9.08 -0.18,0.69 -0.41,2.3 -0.54,3.33 0.03,0.46 0.03,0.63 0.05,1.02 -0.03,-0.3 -0.05,-0.53 -0.07,-0.83 -0.09,0.66 -0.11,0.72 -0.02,-0.32 -0.27,-3.61 -0.6,-6.55 -0.93,-7.73 -1.41,7.53 -1.37,31.68 -2.1,39.84 0.29,9.01 0.71,-3.77 1.36,1.15l-1.09 12.2c1.36,1.2 2.26,23.93 3.05,2.71l0.07 19.1c0.76,11.25 1.07,26.71 0.49,36.25 0.29,9.01 -1.51,22.76 -0.45,14.91l-0.24 8.76 -4.39 0zm3.73 -45.17l0 0c-0.03,0.2 -0.06,0.34 -0.07,0.51 0.57,10.57 0.34,6.82 0.07,-0.51zm-0.64 -21.94l0 0c0.2,-2.21 0.41,-2.06 0.61,-1.12 -0.37,1.53 -0.4,6.46 -0.29,12.07 -0.38,-1.56 -0.65,-4.39 -0.32,-10.95z"/>
  </g>
 </g>
</svg>
