<?xml version="1.0" encoding="UTF-8"?>
<!DOCTYPE svg PUBLIC "-//W3C//DTD SVG 1.1//EN" "http://www.w3.org/Graphics/SVG/1.1/DTD/svg11.dtd">
<!-- Creator: CorelDRAW 2019 (64-Bit) -->
<svg xmlns="http://www.w3.org/2000/svg" xml:space="preserve" width="6.1405in" height="1.97444in" version="1.1" style="shape-rendering:geometricPrecision; text-rendering:geometricPrecision; image-rendering:optimizeQuality; fill-rule:evenodd; clip-rule:evenodd"
viewBox="0 0 6329.7 2035.28"
 xmlns:xlink="http://www.w3.org/1999/xlink">
 <defs>
  <style type="text/css">
   <![CDATA[
    .fil0 {fill:black;fill-rule:nonzero}
    .fil1 {fill:#1F1F1F;fill-rule:nonzero}
   ]]>
  </style>
 </defs>
 <g id="Layer_x0020_1">
  <metadata id="CorelCorpID_0Corel-Layer"/>
  <g id="_2330545625104">
   <g>
    <g>
     <path class="fil0" d="M441.58 590.18c-1.17,-0.17 -2.3,-0.7 -3.21,-1.59 -2.28,-2.24 -2.33,-5.9 -0.09,-8.18l116.58 -119.08c2.23,-2.28 5.9,-2.33 8.19,-0.09 2.28,2.24 2.32,5.9 0.08,8.18l-116.58 119.08c-1.34,1.37 -3.21,1.93 -4.97,1.68z"/>
     <path class="fil0" d="M443.31 650.78c-1.6,-0.23 -3.1,-1.13 -4.04,-2.6 -1.72,-2.69 -0.95,-6.27 1.75,-7.99 64.73,-41.58 134.37,-75.58 206.99,-101.05 3.02,-1.06 6.31,0.53 7.37,3.55 1.06,3.02 -0.53,6.31 -3.54,7.37 -71.76,25.17 -140.59,58.77 -204.57,99.87 -1.22,0.78 -2.62,1.05 -3.95,0.86z"/>
     <path class="fil0" d="M509.89 721.45c-1.94,-0.28 -3.68,-1.53 -4.5,-3.47 -1.25,-2.94 0.13,-6.34 3.06,-7.58 42.86,-18.19 87.91,-30.99 133.92,-38.05 3.14,-0.49 6.11,1.68 6.59,4.84 0.49,3.15 -1.68,6.11 -4.84,6.59 -45.06,6.92 -89.19,19.46 -131.15,37.26 -1.01,0.43 -2.07,0.55 -3.08,0.4z"/>
    </g>
    <g>
     <path class="fil0" d="M617.63 1677.74c-25.03,-3.62 -49.11,-9.87 -71.16,-18.18 -110.06,-41.48 -194.37,-129.74 -255.53,-201.99 -64.04,-75.66 -122.31,-157.15 -173.19,-242.23 -43.58,-72.86 -95.75,-170.51 -112.48,-279.81 -16.92,-110.5 7.42,-216.1 66.77,-289.72 51.84,-64.32 132.66,-101.6 210.91,-97.3 48.82,2.67 66.15,14.14 84.27,55.72 18.31,42.03 35.81,87.49 39.79,135.13 4.41,52.81 -10.19,122.77 -64.38,160.78 -8.81,6.18 -18.48,11.36 -27.82,16.37 -18.28,9.8 -35.55,19.05 -46.28,34.93 -17.22,25.48 -13.83,62.33 10.37,112.64 43.95,91.39 100.87,175.71 169.2,250.64 15.38,16.86 33.64,35.78 55.85,46.85 23.43,11.69 48.54,12.57 67.18,2.39 9.57,-5.23 17.32,-13.12 25.54,-21.48 6.44,-6.55 13.1,-13.32 20.84,-18.88 49.61,-35.6 117.09,-8.18 163.52,15.54 45.78,23.39 96.36,52.51 117.07,102.25 24.62,59.13 -3.1,125.87 -41.5,165.79 -63.35,65.88 -156.27,82.56 -238.96,70.58zm-315.68 -1115.88l0 0c-5.8,-0.84 -12.29,-1.41 -19.63,-1.81 -74.6,-4.1 -151.73,31.54 -201.28,93.01 -57.31,71.1 -80.76,173.42 -64.34,280.71 16.43,107.32 67.94,203.68 110.97,275.63 50.57,84.53 108.47,165.52 172.1,240.69 60.25,71.19 143.21,158.1 250.77,198.63 91.35,34.42 218.83,32.43 297.71,-49.59 35.77,-37.2 61.76,-99.03 39.15,-153.32 -19.2,-46.12 -67.7,-73.93 -111.65,-96.39 -43.74,-22.35 -107.05,-48.36 -151.51,-16.44 -6.93,4.97 -12.95,11.1 -19.33,17.59 -8.44,8.59 -17.17,17.48 -28.25,23.53 -21.96,12 -51.07,11.18 -77.88,-2.19 -23.98,-11.96 -43.15,-31.77 -59.24,-49.41 -69.08,-75.76 -126.64,-161.02 -171.08,-253.43 -26.13,-54.34 -29.24,-94.94 -9.52,-124.13 12.33,-18.24 31.68,-28.62 50.39,-38.65 9.05,-4.85 18.4,-9.87 26.65,-15.64 50.19,-35.19 63.64,-100.74 59.49,-150.34 -3.63,-43.42 -18.17,-83.95 -38.87,-131.47 -13.72,-31.48 -25.19,-42.71 -54.67,-46.98zm-225.42 87.57l0 0 0.06 0.01 -0.06 -0.01z"/>
     <g>
      <path class="fil0" d="M354.38 825.58c-19.1,-2.77 -36.11,-20.16 -47.39,-48.89 -27.4,-69.79 -30.02,-147.6 -7.4,-219.08 0.97,-3.05 4.2,-4.75 7.26,-3.77 3.05,0.96 4.74,4.21 3.77,7.26 -21.83,68.97 -19.29,144.03 7.14,211.36 5.07,12.92 19.46,42.85 43.11,41.92 11.1,-0.45 22.27,-8.55 28.45,-20.67 6.4,-12.52 7.34,-27.55 7.45,-39.25 0.41,-46.12 -11.72,-91.51 -35.11,-131.27 -4.87,-8.27 -9.35,-12.22 -13.7,-12.06 -7.15,0.24 -11.19,11.46 -12.6,16.27 -14.28,48.78 -8.85,102.52 14.9,147.45 1.49,2.83 0.41,6.32 -2.41,7.82 -2.83,1.49 -6.33,0.41 -7.82,-2.41 -25.15,-47.56 -30.9,-104.47 -15.77,-156.11 4.53,-15.49 12.81,-24.22 23.3,-24.59 13.33,-0.43 21.42,13.25 24.07,17.76 24.45,41.56 37.15,89.02 36.71,137.23 -0.11,12.97 -1.21,29.73 -8.71,44.41 -8.06,15.77 -23.08,26.36 -38.29,26.96 -2.34,0.09 -4.66,-0.03 -6.95,-0.36z"/>
      <path class="fil0" d="M353.18 882.47c-1.63,-0.24 -3.22,-0.65 -4.74,-1.24 -11.79,-4.62 -18.55,-15.96 -24.08,-27.52 -44.63,-93.17 -63.73,-196.84 -55.23,-299.81 0.27,-3.19 3.06,-5.55 6.24,-5.29 3.24,0.33 5.55,3.06 5.29,6.24 -8.33,100.93 10.39,202.54 54.13,293.86 4.2,8.78 9.4,18.42 17.86,21.75 3.73,1.45 9.14,0.44 12.54,-2.39 1.45,-1.21 3.07,-3.19 2.57,-5.76 -0.61,-3.14 1.44,-6.18 4.58,-6.78 3.14,-0.61 6.17,1.44 6.78,4.57 1.21,6.25 -1.16,12.4 -6.52,16.86 -5.4,4.5 -12.73,6.49 -19.43,5.52z"/>
     </g>
     <g>
      <path class="fil0" d="M879.78 1484.41c-4.04,-0.58 -8.08,-1.53 -12.05,-2.57 -91.73,-24.27 -174.22,-88.18 -220.63,-170.95 -1.56,-2.79 -0.57,-6.31 2.22,-7.88 2.78,-1.57 6.31,-0.58 7.88,2.22 44.91,80.09 124.73,141.93 213.5,165.42 9.65,2.56 19.66,4.42 27.51,0.75 3.78,-1.76 6.97,-5.99 7.76,-10.28 0.36,-1.95 0.37,-4.7 -1.62,-6.76 -2.22,-2.3 -2.16,-5.96 0.14,-8.18 2.3,-2.22 5.96,-2.16 8.18,0.14 4.23,4.37 5.89,10.37 4.68,16.9 -1.47,7.99 -7.07,15.32 -14.25,18.67 -7.41,3.46 -15.37,3.68 -23.32,2.53z"/>
      <path class="fil0" d="M832.78 1422.12c-32,-4.63 -62.78,-19.71 -85.82,-42.3 -5.37,-5.27 -13.01,-13.48 -17.22,-23.88 -4.4,-10.84 -4.24,-22.24 0.41,-31.27 1.47,-2.84 4.95,-3.96 7.79,-2.49 2.84,1.46 3.96,4.95 2.49,7.79 -3.06,5.94 -3.06,14.02 0.02,21.62 2.59,6.39 7.23,12.73 14.61,19.96 23.77,23.31 56.45,37.92 89.7,40.21 3.19,0.17 5.6,2.97 5.38,6.16 -0.21,3.19 -2.97,5.6 -6.16,5.38 -3.74,-0.25 -7.48,-0.65 -11.2,-1.19z"/>
     </g>
     <g>
      <path class="fil0" d="M124.57 1144.2c-1.83,-0.26 -3.5,-1.4 -4.37,-3.19 -27.89,-57.15 -59.06,-123.94 -75.91,-193.48 -18.23,-75.29 -17.4,-147.04 2.41,-207.51 23.47,-71.58 74.9,-128.48 137.59,-152.22 3,-1.13 6.33,0.37 7.46,3.36 1.13,2.99 -0.37,6.33 -3.36,7.46 -59.45,22.5 -108.31,76.71 -130.69,145 -19.15,58.42 -19.89,127.98 -2.17,201.18 16.57,68.41 47.44,134.53 75.06,191.13 1.4,2.87 0.21,6.34 -2.66,7.74 -1.09,0.53 -2.26,0.69 -3.36,0.53z"/>
      <g>
       <path class="fil0" d="M803.49 1574.59c-2.01,-0.29 -3.81,-1.64 -4.58,-3.66 -1.14,-2.98 0.35,-6.33 3.33,-7.47 15.77,-6.03 28.07,-19.96 32.1,-36.35 0.77,-3.11 3.93,-4.92 7,-4.24 3.1,0.77 5,3.9 4.24,7 -4.92,20.02 -19.94,37.02 -39.2,44.39 -0.95,0.37 -1.95,0.46 -2.89,0.32z"/>
       <path class="fil0" d="M672.54 1627.9c-19.91,-2.89 -39.17,-9.88 -55.96,-21 -2.66,-1.77 -3.39,-5.36 -1.63,-8.02 1.77,-2.67 5.35,-3.39 8.02,-1.63 41.35,27.4 99.24,27.53 140.73,0.34 2.67,-1.77 6.25,-1.01 8.01,1.66 1.76,2.67 1.01,6.26 -1.66,8.01 -28.42,18.63 -63.89,25.5 -97.51,20.63z"/>
      </g>
     </g>
    </g>
   </g>
   <g>
    <path class="fil0" d="M221.54 1369.02l-1.26 -0.18c-3.25,-4.35 -6.48,-8.72 -9.68,-13.1l12.6 1.83c3.16,0.46 5.35,3.39 4.89,6.55 -0.46,3.16 -3.39,5.36 -6.55,4.9z"/>
    <path class="fil0" d="M1357.02 1914.27c-0.94,-7.97 -3.29,-15.71 -7.15,-22.71 -5.87,-10.62 -15.06,-19.21 -25.81,-25.08 3.18,24.65 0,45.35 -9.46,61.54 -10.69,18.32 -34,33.59 -57.85,27.36 -22.64,-5.9 -38.27,-31.73 -34.13,-56.38 3.71,-22.12 21.35,-41.45 44.94,-49.25 13.34,-4.41 27.65,-4.7 41.16,-1.57 -13.97,-53.19 -55.23,-99.06 -107.23,-117.36 -22,-7.76 -45.62,-10.45 -68.88,-8.48 3.24,7.36 6.06,14.93 8.44,22.66 12.37,40.28 13.09,96.58 -22,133.8 -18.03,19.13 -46.49,28.97 -74.26,25.68 -23.18,-2.69 -41.67,-14.17 -51.97,-32.15 -22,-38.39 -0.19,-85.84 29.37,-113.68 25.52,-24.03 58.45,-39.67 93.01,-45.68 -25.3,-47.28 -69.11,-84.12 -120.78,-99.9 -63.98,-19.51 -136.02,-5.52 -188.02,36.55 -2.49,2.02 -6.13,1.62 -8.13,-0.86 -2.01,-2.48 -1.63,-6.13 0.86,-8.14 54.95,-44.46 131.08,-59.26 198.67,-38.62 55.93,17.07 103.16,57.52 129.55,109.24 26.27,-2.82 53.07,-0.11 77.98,8.65 57.83,20.36 103.23,72.63 116.27,132.43 16,6.64 29.91,18.28 38.39,33.63 2.93,5.3 5.14,10.92 6.66,16.72l1.06 -1.18 -10.7 12.77zm-57.04 -55.83l0 0c-9.68,-1.4 -19.57,-0.75 -28.79,2.29 -19.26,6.37 -34.2,22.52 -37.16,40.18 -3.14,18.67 8.84,38.89 25.64,43.27 15.93,4.13 35.2,-5.32 44.94,-22 8.32,-14.26 10.94,-33.02 7.77,-55.77 -0.25,-1.77 -0.52,-3.54 -0.83,-5.3 -3.78,-1.21 -7.66,-2.12 -11.57,-2.68zm-179.41 -134.67l0 0c-33.59,5.17 -65.73,20.03 -90.45,43.31 -27.2,25.62 -45.29,68.02 -27.26,99.51 8.43,14.72 23.77,24.02 43.29,26.41 23.83,2.82 49.14,-5.86 64.47,-22.13 31.69,-33.62 30.77,-85.3 19.35,-122.46 -2.59,-8.44 -5.74,-16.66 -9.41,-24.63z"/>
   </g>
  </g>
  <g id="_2330545655824">
   <path class="fil1" d="M1356.95 96.04l0.1 -10.64c0.06,-3.22 0.11,-6.53 0.16,-9.91 0.06,-2.52 0.11,-5.07 0.17,-7.65 0.12,-4.96 0.25,-10.09 0.38,-15.38 3.17,0.37 6.44,0.75 9.82,1.14 2.23,0.18 4.5,0.35 6.79,0.55 2.76,0.17 5.56,0.35 8.38,0.52 11.27,0.55 22.92,1.1 34.62,1.67 23.39,0.7 46.93,0.44 67.88,-2.02 18.39,1.97 -8.87,4.28 -3.25,7 102.37,-5.75 87.76,-4.19 171.81,-11.91l71.61 4.59c-52.62,-5.24 14.61,-11.45 73.48,-16.56 -18.66,-2.52 -34.61,-4.76 -45.32,-5.81l93.97 -3.75c11.35,1.14 1.89,3.55 -13.51,6.47 6.41,-0.61 12.48,-1.21 17.22,-1.67 33.6,2.59 16.18,6.62 -7.9,10.53 -11.44,-1.47 -22.8,-2.92 -33.85,-4.32 -23.2,4.23 -44.92,8.95 -40.09,13.05 6.11,-0.81 17.87,-1.51 30.81,-1.91 -6.07,1.16 -9.95,2.19 -7.13,2.89 3.18,0.72 12.99,-0.81 28.36,-2.59l21.37 7.79 5.18 -3.09 122.93 4.87c87.96,-7.83 164.47,-19.39 304.08,-22.61 -34.64,5.72 -7.44,9.34 -9.33,16.1 -38.09,-7.15 -108.13,3.05 -180.47,1.6 37.75,0.75 29.45,3.99 19.85,5.11l129.04 -6.53c-2.91,5.55 27.41,4.16 61.11,6.44 -25.48,-10.94 96.19,-7.28 148.69,-10.63 3.26,3.66 -9.32,7.43 -73.39,6.53 70.68,8.25 91.33,-12.85 160.71,-5.86 -15.65,0.09 -24.08,-0.46 -30.26,1.4 36.53,-3.27 125.86,-0.68 104.84,2.52l-15.61 0.07c103.84,1.29 316.12,0.09 331.61,-9.21 1.03,1.21 -13.61,11.21 -19.89,13.09l185.29 -31.29c-16.33,8 46.34,27 -39.78,31.51 24.72,1.14 55.31,2.48 107.44,-0.35 -16.86,-1.14 -42.04,-11.54 -18.99,-12.28 63.27,8.9 43.93,4.76 121.92,12.35 -25.29,-1.71 2.8,-14.23 42.75,-13.84 -6.23,1.86 3.34,12.35 -11.27,13.66l99.44 -12.3c-24.82,2.22 -4.38,10.44 17.87,13.9 -10.33,-2.41 85.97,0.22 112.49,-0.99l-42.15 -2.87c112.29,1.89 110.91,-17.26 222.3,-16.62 -13.49,2.54 -33.31,15.64 23.34,17.17 25.95,-6.29 114.95,-30.26 213.5,-35.13l18.91 3.62 75.6 -4.1c-47.08,9.45 -179.22,29.39 -251.37,37.15 42.01,2.85 11.7,4.26 74.62,3.9 22.23,3.38 -34.3,5.13 -52.81,5.33l146.51 2.17c-6.53,-7.35 112.03,-7.37 106.44,-13.49l-159.12 7.61c-6.45,-7.33 92.01,-20.84 195.81,-19.56 26.4,2.94 -19.75,13.09 -17.6,15.53 13.47,-2.52 98.53,-4.83 108.07,-3.03l-44.04 3.92c57.79,2.76 94.3,-9.74 163.75,-2.72 23.97,0.46 71.57,9.45 75.72,5.11 -39.09,-8.38 -46.74,-34.32 -20.68,-40.62 8.4,0.57 125.86,8.03 153.22,12.15 39.47,6.58 -59.25,15.68 -25.65,21.32 1.45,-2 23.24,-4.48 32.33,-5.29 25.17,1.73 -10.43,6.23 44.27,5.33 9.13,-7.46 111.25,0.61 25.87,-6.32 53.5,-2.13 56.86,1.56 119.69,1.21 -20.01,-4.8 56.4,-16.36 110.01,-18.51 -3.16,1.91 8.87,4.38 14.7,5.5 109.68,0.68 168.55,4.06 270.82,4.12 9.43,1.8 58.77,3.97 37.76,7.19 14.7,-1.34 28.22,-3.86 59.77,-4.03 61.05,6.45 -70.33,1.01 -23.8,8.75 3.98,-4.32 81.59,-5.99 126.51,-8.68 -13.82,-6.69 -103.8,-1.29 -148.79,1.43 -0.21,-9.24 78.11,-18.88 185,-23.16 84.96,-2.28 36.83,5.97 51.57,4.67 159.57,1.6 135.95,-16.12 268.45,-9.45 52.58,5.88 2.37,11.67 14.03,15.92 -69.21,2.22 -106.24,-3.73 -153.14,-3.49l57.74 2.76c-22,1.97 -68.21,3.44 -93.37,1.75 44.06,5.26 269.58,0.99 392.69,5.88 21.87,-1.97 59.63,-4.01 41.76,-6.38l-38.95 0.83c-35.81,-4.74 73.31,-6.56 24,-8.77 52.25,-3.34 110.83,-8.58 184.39,-5.9l13.82 6.71c-1.57,-1.98 -48.08,-3.99 -68.76,-1.95 30.67,-2.98 112.8,9.08 146.4,0.3l-51.56 -4.65c52.46,-3.36 117.32,-10.48 182.5,-8.36 -29.67,-6.62 -15.03,0.75 -61.35,-7 40.16,9.63 -166.77,-0.42 -102.26,9.72 -47.53,-8.99 -82.27,-3.81 -144.41,-11.47 1.92,2.22 22,4.23 -32.72,3.13 -2.46,0.64 -8.29,1.47 -12,1.95 -1.68,-0.09 -2.26,-0.11 -3.69,-0.17 1.09,0.11 1.91,0.17 3.02,0.26 -2.37,0.33 -2.59,0.42 1.13,0.09 13.03,0.99 23.6,2.15 27.88,3.35 -27.16,5.09 -114.19,4.93 -143.62,7.57 -32.48,-1.06 13.58,-2.54 -4.15,-4.91l-43.96 3.93c-4.36,-4.89 -86.27,-8.16 -9.78,-11.01l-68.86 -0.24c-40.53,-2.74 -96.3,-3.84 -130.69,-1.77 -32.47,-1.06 -82.03,5.44 -53.74,1.6l-107.98 3.03 -1 -1.21c-106.55,-0.64 -219.34,8.11 -341.15,-0.75 -35.88,1.23 -72.94,2.76 -132.94,1.36l-11.7 -4.23c-46.05,1.47 -138.3,-4.25 -158.09,0.15 -49.69,-11.43 -223.53,-2.48 -304.52,-4.52l-3.05 5.55c-55.75,-0.31 -109.21,1.27 -178.42,3.49l4.25 4.89c-59.67,4.03 -153.4,-3.47 -247.78,-2.98 6.42,-1.86 30.36,-1.38 47.29,-0.24 -112.75,-11.08 -237.89,8.05 -340.15,-0.02 -25.48,1.8 -43.93,1.19 -61.8,-0.04 2.37,-0.09 4.5,-0.18 6.33,-0.26 -2.61,0 -6.5,-0.04 -10.47,-0.06 -11.26,-0.81 -22.84,-1.67 -35.4,-2.59 10.68,1.19 20.88,2.15 29.78,2.61 -19.65,0.11 -49.45,0.7 -78.67,1.95l-12.45 -5.26c-2.37,0.04 -4.28,0.09 -6.75,0.13 -28.67,-1.93 -23.05,2.5 -7.76,6.47 -14.71,0.86 -28.19,1.91 -38.64,3.16 -23.29,-8.49 -76.65,2.87 -108.43,-6.18 -19.7,4.41 -146.89,3.31 -162.45,12.61 -1,-1.21 -9.61,-1.78 6.17,-1.86 -32.57,-1.06 -65.12,-2.11 -94.34,0.5l-13.82 -6.69 -71.12 8.99c-43.2,-4.08 -61.11,-6.44 -18.21,-11.6 -103.59,7.94 -84.06,2.98 -172.16,10.83l4.3 -4.32c-31.5,0.17 -81.83,5.96 -100.82,2.39 -70.44,-8.23 -348.56,-1.14 -529.39,-8.79 35.08,12.74 -84.04,-5.7 -91.21,4.16 -10.54,-3 -35.73,-4.71 -6.44,-7.32 -92.29,2.96 -138.65,-4.78 -202.37,3.55 -10.57,-3.03 19.75,-4.41 10.35,-6.21 -7.39,0.66 -29.31,2.61 -38.92,0.81 -9.4,-1.8 13.51,-2.52 28.12,-3.84 -94.27,0.5 -103.81,9.8 -110.66,18.51 -47.77,-4.12 -71.61,-3.56 -106.1,2.17 -16.64,-2.85 -44.38,-5.84 14.19,-6.87 -32.95,-0.41 -201.29,-4.16 -204.65,2.81 -10.32,-1.78 -46.06,-0.5 -54.74,0.31 -36.97,-0.31 -57.08,-0.46 -77.03,-0.62 -20.53,0.07 -40.9,0.11 -78.26,0.22l22.37 1.14c-2.54,0.75 -5.11,1.38 -7.73,1.91 -1.31,0.24 -2.61,0.48 -3.94,0.7 -1.5,0.19 -3,0.39 -4.53,0.59 -6.71,0.66 -13.47,1.01 -20.77,1.12 -0.02,14.52 -0.04,29.85 -0.06,46.25l-0.15 22.54 10.89 0zm571.72 -48.44l0 0c-12.69,1.73 -32.33,0.86 -54.5,-1.14 16.09,-0.42 34.3,-0.22 54.5,1.14zm3732.57 -36.74l0 0c-0.73,0.11 -1.24,0.2 -1.83,0.26 -38.09,-2.04 -24.58,-1.23 1.83,-0.26zm79.1 2.31l0 0c7.95,-0.73 7.41,-1.47 4.05,-2.22 -5.52,1.34 -23.29,1.42 -43.52,1.05 5.62,1.38 15.85,2.35 39.47,1.16z"/>
   <path class="fil1" d="M1356.98 2035.28l0.1 -10.67c0.06,-3.23 0.11,-6.56 0.16,-9.95 0.06,-2.53 0.11,-5.08 0.17,-7.67 0.12,-4.97 0.25,-10.12 0.38,-15.42 3.18,0.37 6.46,0.75 9.85,1.14 2.24,0.17 4.51,0.35 6.82,0.55 2.77,0.18 5.58,0.35 8.41,0.53 11.3,0.55 22.99,1.1 34.72,1.67 23.47,0.71 47.08,0.44 68.09,-2.02 18.45,1.98 -8.9,4.29 -3.26,7.02 102.68,-5.76 88.02,-4.2 172.34,-11.95l71.83 4.6c-52.78,-5.26 14.65,-11.48 73.72,-16.61 -18.72,-2.53 -34.71,-4.77 -45.46,-5.83l94.27 -3.76c11.38,1.14 1.89,3.57 -13.55,6.49 6.43,-0.62 12.52,-1.21 17.28,-1.67 33.7,2.59 16.23,6.64 -7.93,10.56 -11.47,-1.47 -22.87,-2.93 -33.95,-4.33 -23.27,4.24 -45.06,8.97 -40.21,13.09 6.13,-0.82 17.93,-1.52 30.9,-1.92 -6.09,1.16 -9.98,2.2 -7.16,2.91 3.19,0.73 13.04,-0.82 28.45,-2.6l21.43 7.81 5.19 -3.1 123.32 4.88c88.23,-7.85 164.97,-19.44 305.01,-22.68 -34.74,5.74 -7.47,9.37 -9.36,16.15 -38.21,-7.18 -108.46,3.06 -181.03,1.6 37.87,0.75 29.54,4.01 19.91,5.13l129.44 -6.55c-2.92,5.56 27.49,4.18 61.3,6.47 -25.56,-10.98 96.49,-7.3 149.15,-10.67 3.28,3.67 -9.35,7.46 -73.61,6.55 70.9,8.27 91.61,-12.89 161.2,-5.87 -15.7,0.09 -24.16,-0.46 -30.35,1.41 36.65,-3.28 126.25,-0.68 105.17,2.53l-15.66 0.06c104.16,1.3 317.1,0.09 332.64,-9.24 1.04,1.21 -13.65,11.24 -19.95,13.13l185.86 -31.4c-16.38,8.03 46.49,27.08 -39.9,31.61 24.8,1.14 55.49,2.48 107.77,-0.35 -16.92,-1.14 -42.17,-11.57 -19.05,-12.32 63.46,8.93 44.07,4.77 122.29,12.38 -25.36,-1.71 2.81,-14.28 42.88,-13.88 -6.26,1.87 3.34,12.39 -11.31,13.7l99.75 -12.34c-24.89,2.22 -4.4,10.47 17.93,13.95 -10.36,-2.42 86.24,0.22 112.83,-0.99l-42.28 -2.88c112.63,1.89 111.25,-17.31 222.98,-16.68 -13.53,2.55 -33.41,15.69 23.42,17.22 26.03,-6.31 115.3,-30.36 214.17,-35.24l18.97 3.63 75.83 -4.12c-47.23,9.48 -179.77,29.48 -252.14,37.27 42.14,2.86 11.73,4.27 74.86,3.91 22.29,3.39 -34.4,5.15 -52.97,5.35l146.96 2.18c-6.55,-7.37 112.37,-7.39 106.77,-13.53l-159.61 7.63c-6.47,-7.35 92.29,-20.9 196.42,-19.63 26.48,2.95 -19.81,13.14 -17.65,15.58 13.51,-2.53 98.83,-4.84 108.4,-3.04l-44.17 3.94c57.96,2.77 94.6,-9.76 164.25,-2.73 24.05,0.46 71.8,9.48 75.95,5.13 -39.21,-8.4 -46.88,-34.43 -20.74,-40.74 8.43,0.57 126.25,8.05 153.7,12.19 39.59,6.6 -59.43,15.73 -25.73,21.38 1.45,-2 23.32,-4.49 32.43,-5.3 25.24,1.74 -10.46,6.25 44.4,5.34 9.16,-7.48 111.6,0.62 25.95,-6.34 53.66,-2.13 57.04,1.56 120.06,1.21 -20.07,-4.82 56.58,-16.41 110.35,-18.57 -3.17,1.92 8.9,4.4 14.74,5.52 110.02,0.68 169.07,4.07 271.66,4.14 9.46,1.8 58.95,3.98 37.88,7.22 14.75,-1.34 28.31,-3.87 59.95,-4.05 61.23,6.47 -70.55,1.01 -23.88,8.78 3.99,-4.33 81.84,-6.01 126.9,-8.71 -13.86,-6.71 -104.12,-1.3 -149.25,1.43 -0.21,-9.26 78.35,-18.94 185.58,-23.23 85.21,-2.29 36.93,5.98 51.73,4.68 160.06,1.61 136.37,-16.17 269.27,-9.48 52.75,5.9 2.38,11.7 14.07,15.97 -69.42,2.22 -106.57,-3.74 -153.62,-3.49l57.92 2.77c-22.07,1.98 -68.42,3.45 -93.67,1.76 44.2,5.28 270.41,0.99 393.91,5.9 21.93,-1.98 59.81,-4.03 41.89,-6.4l-39.07 0.83c-35.92,-4.75 73.53,-6.57 24.07,-8.8 52.41,-3.34 111.17,-8.6 184.95,-5.92l13.87 6.73c-1.57,-1.98 -48.23,-4.01 -68.97,-1.96 30.76,-2.99 113.15,9.11 146.85,0.31l-51.72 -4.66c52.62,-3.36 117.68,-10.52 183.06,-8.38 -29.76,-6.64 -15.07,0.75 -61.54,-7.02 40.28,9.65 -167.29,-0.42 -102.57,9.74 -47.68,-9.02 -82.52,-3.83 -144.86,-11.51 1.92,2.22 22.07,4.24 -32.82,3.15 -2.47,0.64 -8.32,1.47 -12.04,1.96 -1.68,-0.09 -2.27,-0.11 -3.7,-0.18 1.09,0.11 1.91,0.18 3.02,0.26 -2.37,0.33 -2.59,0.42 1.13,0.09 13.07,0.99 23.68,2.15 27.97,3.36 -27.25,5.11 -114.55,4.95 -144.07,7.59 -32.58,-1.06 13.62,-2.55 -4.16,-4.93l-44.09 3.94c-4.37,-4.91 -86.54,-8.19 -9.81,-11.05l-69.07 -0.24c-40.66,-2.75 -96.6,-3.85 -131.09,-1.78 -32.57,-1.06 -82.28,5.45 -53.9,1.6l-108.32 3.04 -1 -1.21c-106.88,-0.64 -220.01,8.14 -342.21,-0.75 -35.99,1.23 -73.16,2.77 -133.35,1.36l-11.74 -4.24c-46.19,1.47 -138.73,-4.27 -158.58,0.15 -49.84,-11.46 -224.21,-2.49 -305.46,-4.53l-3.06 5.57c-55.92,-0.31 -109.55,1.27 -178.97,3.5l4.26 4.9c-59.85,4.05 -153.88,-3.47 -248.54,-2.99 6.44,-1.87 30.45,-1.38 47.44,-0.24 -113.09,-11.11 -238.62,8.08 -341.2,-0.02 -25.56,1.81 -44.07,1.19 -61.99,-0.04 2.39,-0.09 4.52,-0.17 6.35,-0.26 -2.62,0 -6.51,-0.04 -10.5,-0.06 -11.29,-0.82 -22.91,-1.67 -35.51,-2.6 10.71,1.19 20.95,2.16 29.87,2.62 -19.71,0.11 -49.61,0.71 -78.92,1.96l-12.48 -5.28c-2.38,0.04 -4.29,0.09 -6.78,0.13 -28.76,-1.94 -23.12,2.51 -7.78,6.49 -14.76,0.86 -28.28,1.92 -38.76,3.17 -23.36,-8.51 -76.89,2.88 -108.77,-6.21 -19.76,4.42 -147.34,3.32 -162.95,12.65 -1,-1.21 -9.64,-1.78 6.19,-1.87 -32.67,-1.06 -65.33,-2.11 -94.63,0.51l-13.86 -6.71 -71.34 9.02c-43.33,-4.09 -61.3,-6.46 -18.27,-11.64 -103.91,7.96 -84.32,2.99 -172.69,10.87l4.31 -4.33c-31.59,0.17 -82.08,5.98 -101.13,2.4 -70.66,-8.25 -349.64,-1.14 -531.03,-8.82 35.19,12.78 -84.31,-5.72 -91.49,4.18 -10.57,-3.02 -35.84,-4.73 -6.46,-7.35 -92.57,2.97 -139.08,-4.79 -202.99,3.56 -10.6,-3.04 19.81,-4.42 10.38,-6.23 -7.41,0.66 -29.4,2.62 -39.04,0.82 -9.43,-1.8 13.55,-2.53 28.21,-3.85 -94.55,0.51 -104.13,9.83 -111,18.57 -47.92,-4.14 -71.83,-3.56 -106.43,2.18 -16.68,-2.86 -44.51,-5.85 14.24,-6.89 -33.05,-0.42 -201.91,-4.18 -205.29,2.82 -10.35,-1.78 -46.2,-0.5 -54.9,0.31 -37.09,-0.31 -57.26,-0.46 -77.27,-0.62 -20.59,0.07 -41.02,0.11 -78.51,0.22l22.44 1.14c-2.55,0.75 -5.13,1.39 -7.75,1.92 -1.31,0.24 -2.62,0.48 -3.95,0.7 -1.5,0.2 -3.02,0.4 -4.55,0.6 -6.73,0.66 -13.51,1.01 -20.83,1.12 -0.02,14.57 -0.04,29.94 -0.06,46.39l-0.15 22.62 10.92 0zm573.49 -48.59l0 0c-12.73,1.74 -32.43,0.86 -54.67,-1.14 16.14,-0.42 34.41,-0.22 54.67,1.14zm3744.09 -36.85l0 0c-0.73,0.11 -1.24,0.2 -1.83,0.26 -38.21,-2.05 -24.65,-1.23 1.83,-0.26zm79.35 2.31l0 0c7.98,-0.73 7.43,-1.47 4.06,-2.22 -5.54,1.34 -23.36,1.43 -43.66,1.06 5.64,1.38 15.9,2.35 39.59,1.16z"/>
   <path class="fil1" d="M1338.7 1975.71l4.2 -0.04c1.27,-0.02 2.59,-0.04 3.92,-0.06 1,-0.02 2,-0.04 3.03,-0.07 1.96,-0.05 3.99,-0.1 6.08,-0.15 -0.15,-1.25 -0.3,-2.55 -0.45,-3.88 -0.07,-0.88 -0.14,-1.78 -0.22,-2.69 -0.07,-1.09 -0.14,-2.2 -0.21,-3.32 -0.22,-4.45 -0.43,-9.06 -0.66,-13.69 -0.28,-9.25 -0.17,-18.56 0.8,-26.84 -0.78,-7.27 -1.69,3.51 -2.76,1.29 2.27,-40.48 1.66,-34.7 4.71,-67.94l-1.81 -28.32c2.07,20.81 4.53,-5.77 6.55,-29.06 0.99,7.38 1.88,13.68 2.3,17.92l1.48 -37.16c-0.45,-4.49 -1.4,-0.75 -2.56,5.34 0.24,-2.53 0.47,-4.93 0.66,-6.81 -1.02,-13.29 -2.62,-6.4 -4.16,3.12 0.58,4.52 1.15,9.02 1.71,13.38 -1.68,9.18 -3.54,17.76 -5.16,15.85 0.32,-2.41 0.6,-7.07 0.75,-12.18 -0.46,2.4 -0.87,3.93 -1.14,2.82 -0.29,-1.26 0.32,-5.14 1.02,-11.22l-3.08 -8.45 1.22 -2.05 -1.93 -48.61c3.1,-34.78 7.67,-65.03 8.94,-120.24 -2.26,13.7 -3.7,2.94 -6.37,3.69 2.83,15.06 -1.21,42.75 -0.63,71.37 -0.3,-14.93 -1.58,-11.64 -2.02,-7.85l2.59 -51.03c-2.2,1.15 -1.65,-10.84 -2.55,-24.16 4.33,10.07 2.88,-38.04 4.2,-58.8 -1.45,-1.29 -2.94,3.69 -2.59,29.02 -3.26,-27.95 5.09,-36.11 2.32,-63.55 -0.04,6.19 0.18,9.52 -0.56,11.97 1.29,-14.45 0.27,-49.77 -1,-41.46l-0.02 6.17c-0.51,-41.07 -0.04,-125.01 3.64,-131.13 -0.47,-0.41 -4.43,5.38 -5.17,7.87l12.37 -73.27c-3.17,6.46 -10.67,-18.32 -12.46,15.73 -0.45,-9.77 -0.98,-21.87 0.14,-42.48 0.45,6.67 4.56,16.62 4.85,7.51 -3.52,-25.02 -1.88,-17.37 -4.88,-48.21 0.68,10 5.63,-1.11 5.47,-16.91 -0.74,2.47 -4.89,-1.32 -5.41,4.46l4.87 -39.33c-0.88,9.82 -4.13,1.73 -5.5,-7.07 0.95,4.08 -0.09,-34 0.39,-44.48l1.14 16.67c-0.74,-44.4 6.83,-43.86 6.57,-87.91 -1.01,5.34 -6.18,13.17 -6.79,-9.23 2.49,-10.26 11.97,-45.46 13.89,-84.43l-1.43 -7.48 1.62 -29.9c-3.74,18.62 -11.62,70.87 -14.69,99.4 -1.12,-16.61 -1.68,-4.63 -1.54,-29.51 -1.34,-8.79 -2.03,13.56 -2.11,20.88l-0.86 -57.93c2.91,2.58 2.91,-44.3 5.33,-42.09l-3.01 62.92c2.9,2.55 8.24,-36.38 7.74,-77.43 -1.16,-10.44 -5.18,7.81 -6.14,6.96 1,-5.33 1.91,-38.96 1.2,-42.73l-1.55 17.41c-1.09,-22.85 3.85,-37.29 1.08,-64.75 -0.18,-9.48 -3.74,-28.3 -2.02,-29.94 3.31,15.46 13.57,18.48 16.06,8.18 -0.23,-3.32 -3.17,-49.77 -4.81,-60.59 -2.6,-15.61 -6.2,23.43 -8.43,10.14 0.79,-0.57 1.77,-9.19 2.09,-12.79 -0.69,-9.95 -2.46,4.12 -2.11,-17.5 2.95,-3.61 -0.24,-43.99 2.5,-10.23 0.84,-21.15 -0.61,-22.48 -0.47,-47.33 1.9,7.91 6.47,-22.3 7.32,-43.5 -0.75,1.25 -1.73,-3.51 -2.18,-5.82 -0.27,-43.37 -1.6,-66.65 -1.63,-107.09 -0.71,-3.73 -1.57,-23.24 -2.84,-14.93 0.53,-5.81 1.53,-11.16 1.59,-23.63 -2.55,-24.14 -0.4,27.81 -3.46,9.41 1.71,-1.57 2.37,-32.26 3.43,-50.03 2.65,5.47 0.51,41.05 -0.56,58.84 3.65,0.08 7.47,-30.89 9.16,-73.16 0.9,-33.59 -2.36,-14.56 -1.85,-20.39 -0.63,-63.1 6.37,-53.76 3.74,-106.15 -2.33,-20.79 -4.61,-0.94 -6.3,-5.55 -0.88,27.37 1.47,42.01 1.38,60.55l-1.09 -22.83c-0.78,8.7 -1.36,26.97 -0.69,36.93 -2.08,-17.42 -0.39,-106.6 -2.33,-155.29 0.78,-8.64 1.59,-23.57 2.52,-16.51l-0.33 15.4c1.87,14.16 2.59,-28.99 3.47,-9.49 1.32,-20.66 3.39,-43.83 2.33,-72.92l-2.65 -5.46c0.78,0.62 1.58,19.01 0.78,27.19 1.18,-12.13 -3.59,-44.6 -0.12,-57.89l1.84 20.39c1.33,-20.75 4.14,-46.39 3.3,-72.17 2.62,11.73 -0.3,5.95 2.76,24.26 -3.81,-15.88 0.17,65.95 -3.84,40.44 3.56,18.8 1.51,32.53 4.53,57.1 -0.87,-0.76 -1.67,-8.7 -1.24,12.94 -0.25,0.97 -0.58,3.28 -0.77,4.74 0.03,0.67 0.04,0.9 0.07,1.46 -0.04,-0.43 -0.07,-0.75 -0.11,-1.19 -0.13,0.94 -0.16,1.02 -0.03,-0.44 -0.39,-5.15 -0.85,-9.33 -1.33,-11.03 -2.01,10.74 -1.95,45.15 -3,56.79 0.42,12.84 1.01,-5.37 1.94,1.64l-1.55 17.39c1.93,1.72 3.22,34.11 4.35,3.87l0.1 27.23c1.08,16.03 1.52,38.08 0.7,51.68 0.41,12.84 -2.15,32.44 -0.63,21.25l-1.2 42.7 0.48 0.39c0.25,42.13 -3.21,86.73 0.29,134.9 -0.48,14.19 -1.09,28.84 -0.54,52.57l1.67 4.63c-0.58,18.21 1.68,54.69 -0.06,62.51 4.52,19.65 0.98,88.39 1.79,120.41l-2.19 1.21c0.12,22.04 -0.5,43.18 -1.38,70.55l-1.94 -1.68c-1.59,23.59 1.37,60.66 1.18,97.98 0.74,-2.54 0.55,-12 0.1,-18.7 4.38,44.58 -3.19,94.07 0.01,134.51 -0.71,10.07 -0.47,17.37 0.02,24.44 0.04,-0.94 0.07,-1.78 0.11,-2.5 0,1.03 0.02,2.57 0.02,4.14 0.32,4.45 0.66,9.03 1.02,14 -0.47,-4.22 -0.85,-8.26 -1.03,-11.77 -0.04,7.77 -0.28,19.56 -0.77,31.11l2.08 4.92c-0.02,0.94 -0.04,1.7 -0.05,2.67 0.76,11.33 -0.99,9.11 -2.56,3.06 -0.34,5.82 -0.75,11.15 -1.25,15.28 3.36,9.21 -1.14,30.31 2.44,42.88 -1.74,7.79 -1.31,58.08 -4.98,64.24 0.47,0.39 0.7,3.8 0.73,-2.44 0.42,12.88 0.83,25.75 -0.2,37.3l2.65 5.46 -3.56 28.12c1.61,17.09 2.55,24.17 4.59,7.2 -3.14,40.96 -1.18,33.24 -4.29,68.08l1.71 -1.7c-0.07,12.45 -2.36,32.36 -0.95,39.87 3.25,27.86 0.45,137.83 3.48,209.34 -5.04,-13.87 2.26,33.23 -1.65,36.07 1.19,4.17 1.87,14.13 2.9,2.55 -1.17,36.49 1.89,54.83 -1.4,80.03 1.2,4.18 1.74,-7.81 2.46,-4.09 -0.26,2.93 -1.03,11.59 -0.32,15.39 0.71,3.72 0.99,-5.34 1.52,-11.12 -0.2,37.28 -3.88,41.05 -7.32,43.76 1.63,18.89 1.4,28.31 -0.86,41.95 1.13,6.58 2.31,17.55 2.72,-5.61 0.17,13.03 1.65,79.6 -1.11,80.93 0.7,4.08 0.2,18.21 -0.12,21.65 0.12,14.62 0.18,22.57 0.24,30.46 -0.03,8.12 -0.04,16.17 -0.09,30.95l-0.45 -8.85c-0.29,1.01 -0.54,2.02 -0.75,3.05 -0.09,0.52 -0.19,1.03 -0.28,1.56 -0.08,0.59 -0.16,1.19 -0.24,1.79 -0.26,2.65 -0.4,5.32 -0.44,8.21 -5.74,0.01 -11.8,0.02 -18.29,0.02l-8.92 0.06 0 -4.31zm19.16 -226.08l0 0c-0.69,5.02 -0.34,12.79 0.45,21.55 0.17,-6.36 0.09,-13.56 -0.45,-21.55zm14.52 -1475.98l0 0c-0.04,0.29 -0.08,0.49 -0.1,0.72 0.81,15.06 0.49,9.72 0.1,-0.72zm-0.91 -31.28l0 0c0.29,-3.15 0.58,-2.93 0.88,-1.6 -0.53,2.18 -0.56,9.21 -0.42,17.21 -0.54,-2.22 -0.93,-6.27 -0.46,-15.6z"/>
   <path class="fil1" d="M6291.73 21.74l4.21 0.04c1.27,0.02 2.58,0.04 3.92,0.06 0.99,0.02 2,0.04 3.02,0.07 1.96,0.04 3.99,0.1 6.08,0.15 -0.15,1.25 -0.29,2.55 -0.45,3.88 -0.07,0.88 -0.14,1.78 -0.22,2.69 -0.07,1.09 -0.14,2.2 -0.21,3.31 -0.22,4.46 -0.43,9.07 -0.66,13.69 -0.28,9.25 -0.17,18.56 0.8,26.84 -0.78,7.27 -1.69,-3.51 -2.77,-1.29 2.27,40.48 1.66,34.7 4.71,67.94l-1.81 28.31c2.07,-20.81 4.53,5.78 6.55,29.06 1,-7.38 1.88,-13.68 2.3,-17.92l1.49 37.16c-0.45,4.48 -1.4,0.75 -2.56,-5.34 0.24,2.54 0.48,4.94 0.66,6.81 -1.02,13.29 -2.62,6.4 -4.16,-3.13 0.58,-4.52 1.15,-9.01 1.71,-13.38 -1.67,-9.17 -3.54,-17.76 -5.16,-15.85 0.32,2.41 0.6,7.07 0.75,12.18 -0.46,-2.4 -0.86,-3.93 -1.14,-2.82 -0.28,1.26 0.32,5.14 1.03,11.21l-3.08 8.45 1.22 2.05 -1.92 48.61c3.1,34.78 7.67,65.04 8.94,120.24 -2.26,-13.7 -3.69,-2.94 -6.36,-3.69 2.82,-15.06 -1.21,-42.76 -0.63,-71.37 -0.3,14.93 -1.58,11.64 -2.02,7.85l2.58 51.03c-2.19,-1.15 -1.65,10.84 -2.55,24.17 4.33,-10.07 2.88,38.04 4.21,58.8 -1.45,1.29 -2.94,-3.68 -2.59,-29.02 -3.26,27.95 5.08,36.11 2.31,63.55 -0.03,-6.18 0.18,-9.52 -0.55,-11.96 1.29,14.45 0.27,49.77 -1,41.46l-0.03 -6.17c-0.51,41.06 -0.03,125 3.64,131.13 -0.48,0.41 -4.43,-5.38 -5.18,-7.86l12.38 73.26c-3.17,-6.45 -10.68,18.33 -12.46,-15.73 -0.45,9.77 -0.98,21.87 0.14,42.48 0.45,-6.67 4.56,-16.63 4.86,-7.51 -3.52,25.02 -1.88,17.37 -4.88,48.21 0.67,-10 5.62,1.11 5.47,16.9 -0.74,-2.46 -4.88,1.32 -5.4,-4.46l4.86 39.32c-0.87,-9.81 -4.13,-1.73 -5.49,7.07 0.95,-4.09 -0.09,34 0.39,44.48l1.14 -16.67c-0.75,44.4 6.83,43.86 6.57,87.9 -1.01,-5.33 -6.18,-13.17 -6.79,9.23 2.49,10.26 11.97,45.45 13.9,84.43l-1.43 7.48 1.62 29.89c-3.74,-18.62 -11.62,-70.87 -14.69,-99.4 -1.13,16.61 -1.68,4.62 -1.55,29.51 -1.34,8.79 -2.03,-13.56 -2.11,-20.88l-0.86 57.93c2.9,-2.58 2.91,44.3 5.33,42.09l-3.01 -62.92c2.9,-2.55 8.24,36.39 7.74,77.43 -1.16,10.44 -5.17,-7.81 -6.14,-6.96 1,5.32 1.91,38.96 1.2,42.73l-1.55 -17.41c-1.09,22.85 3.85,37.29 1.08,64.75 -0.18,9.48 -3.74,28.3 -2.02,29.94 3.31,-15.46 13.57,-18.48 16.06,-8.18 -0.22,3.32 -3.17,49.77 -4.8,60.59 -2.6,15.61 -6.2,-23.43 -8.43,-10.14 0.79,0.57 1.77,9.19 2.09,12.78 -0.69,9.96 -2.46,-4.12 -2.11,17.51 2.95,3.61 -0.24,43.99 2.5,10.23 0.84,21.16 -0.62,22.49 -0.48,47.33 1.9,-7.91 6.47,22.3 7.32,43.5 -0.75,-1.25 -1.74,3.51 -2.18,5.81 -0.27,43.38 -1.6,66.65 -1.63,107.09 -0.71,3.73 -1.57,23.24 -2.84,14.93 0.53,5.81 1.53,11.16 1.59,23.63 -2.55,24.14 -0.4,-27.81 -3.46,-9.41 1.71,1.57 2.37,32.26 3.44,50.03 2.64,-5.47 0.51,-41.05 -0.56,-58.84 3.65,-0.09 7.46,30.88 9.16,73.16 0.9,33.59 -2.36,14.56 -1.85,20.39 -0.63,63.1 6.38,53.76 3.74,106.15 -2.33,20.79 -4.61,0.94 -6.29,5.55 -0.88,-27.37 1.47,-42.01 1.38,-60.56l-1.09 22.83c-0.78,-8.7 -1.36,-26.97 -0.69,-36.92 -2.08,17.42 -0.39,106.6 -2.33,155.28 0.78,8.65 1.59,23.58 2.52,16.52l-0.33 -15.41c1.87,-14.16 2.59,28.99 3.47,9.49 1.32,20.66 3.39,43.83 2.33,72.91l-2.65 5.47c0.78,-0.62 1.58,-19.01 0.77,-27.19 1.18,12.13 -3.59,44.6 -0.12,57.89l1.84 -20.39c1.33,20.74 4.15,46.39 3.3,72.16 2.62,-11.73 -0.29,-5.94 2.77,-24.26 -3.81,15.88 0.17,-65.95 -3.84,-40.44 3.56,-18.79 1.51,-32.53 4.54,-57.1 -0.88,0.76 -1.68,8.7 -1.24,-12.94 -0.25,-0.97 -0.58,-3.28 -0.77,-4.75 0.04,-0.66 0.04,-0.89 0.07,-1.46 -0.04,0.43 -0.07,0.75 -0.1,1.19 -0.13,-0.93 -0.17,-1.02 -0.04,0.45 -0.39,5.15 -0.85,9.33 -1.33,11.03 -2.01,-10.74 -1.95,-45.16 -2.99,-56.79 0.41,-12.84 1.01,5.37 1.94,-1.64l-1.55 -17.38c1.94,-1.72 3.23,-34.11 4.35,-3.87l0.09 -27.23c1.08,-16.03 1.52,-38.08 0.7,-51.68 0.42,-12.84 -2.15,-32.44 -0.63,-21.25l-1.2 -42.7 0.48 -0.4c0.25,-42.13 -3.21,-86.73 0.3,-134.9 -0.49,-14.18 -1.1,-28.84 -0.54,-52.57l1.68 -4.63c-0.58,-18.21 1.68,-54.69 -0.06,-62.51 4.52,-19.65 0.98,-88.39 1.79,-120.42l-2.2 -1.21c0.12,-22.05 -0.5,-43.19 -1.38,-70.55l-1.93 1.68c-1.59,-23.6 1.37,-60.66 1.18,-97.98 0.74,2.54 0.55,12 0.1,18.7 4.38,-44.58 -3.18,-94.07 0.01,-134.5 -0.71,-10.08 -0.47,-17.37 0.02,-24.44 0.04,0.94 0.07,1.78 0.11,2.5 0,-1.03 0.02,-2.57 0.02,-4.14 0.32,-4.45 0.66,-9.03 1.03,-14 -0.47,4.22 -0.85,8.26 -1.03,11.78 -0.04,-7.77 -0.28,-19.56 -0.77,-31.11l2.08 -4.92c-0.02,-0.94 -0.04,-1.69 -0.05,-2.67 0.76,-11.34 -0.99,-9.11 -2.56,-3.07 -0.34,-5.82 -0.75,-11.15 -1.25,-15.28 3.36,-9.21 -1.14,-30.31 2.45,-42.88 -1.75,-7.79 -1.31,-58.08 -4.99,-64.24 0.47,-0.4 0.7,-3.8 0.74,2.44 0.41,-12.88 0.83,-25.75 -0.2,-37.3l2.65 -5.47 -3.56 -28.12c1.62,-17.08 2.55,-24.17 4.59,-7.2 -3.14,-40.96 -1.18,-33.24 -4.28,-68.08l1.71 1.7c-0.07,-12.45 -2.36,-32.36 -0.95,-39.87 3.25,-27.86 0.45,-137.84 3.48,-209.34 -5.04,13.87 2.25,-33.23 -1.65,-36.07 1.19,-4.17 1.86,-14.13 2.9,-2.55 -1.17,-36.5 1.89,-54.83 -1.41,-80.03 1.2,-4.18 1.75,7.81 2.46,4.09 -0.26,-2.92 -1.03,-11.59 -0.32,-15.39 0.71,-3.72 1,5.34 1.52,11.12 -0.2,-37.28 -3.88,-41.05 -7.32,-43.76 1.63,-18.89 1.41,-28.32 -0.86,-41.95 1.13,-6.58 2.31,-17.55 2.72,5.61 0.16,-13.03 1.65,-79.6 -1.11,-80.93 0.7,-4.08 0.2,-18.21 -0.12,-21.64 0.12,-14.62 0.18,-22.57 0.24,-30.46 -0.02,-8.12 -0.04,-16.17 -0.09,-30.95l-0.45 8.85c-0.3,-1.01 -0.55,-2.02 -0.75,-3.06 -0.1,-0.52 -0.19,-1.03 -0.28,-1.56 -0.08,-0.59 -0.15,-1.19 -0.23,-1.79 -0.26,-2.65 -0.4,-5.33 -0.44,-8.21 -5.74,-0.01 -11.81,-0.02 -18.29,-0.02l-8.92 -0.06 0 4.31zm19.16 226.08l0 0c-0.69,-5.02 -0.34,-12.78 0.45,-21.55 0.16,6.36 0.09,13.56 -0.45,21.55zm14.52 1475.99l0 0c-0.04,-0.29 -0.08,-0.49 -0.11,-0.72 0.81,-15.06 0.49,-9.72 0.11,0.72zm-0.91 31.28l0 0c0.28,3.15 0.58,2.93 0.87,1.6 -0.53,-2.18 -0.56,-9.21 -0.41,-17.21 -0.55,2.22 -0.93,6.27 -0.46,15.61z"/>
  </g>
 </g>
</svg>
