<?xml version="1.0" encoding="UTF-8"?>
<!DOCTYPE svg PUBLIC "-//W3C//DTD SVG 1.1//EN" "http://www.w3.org/Graphics/SVG/1.1/DTD/svg11.dtd">
<!-- Creator: CorelDRAW 2019 (64-Bit) -->
<svg xmlns="http://www.w3.org/2000/svg" xml:space="preserve" width="0.0833386in" height="0.0824488in" version="1.1" style="shape-rendering:geometricPrecision; text-rendering:geometricPrecision; image-rendering:optimizeQuality; fill-rule:evenodd; clip-rule:evenodd"
viewBox="0 0 2.63 2.6"
 xmlns:xlink="http://www.w3.org/1999/xlink">
 <defs>
  <style type="text/css">
   <![CDATA[
    .fil0 {fill:black;fill-rule:nonzero}
   ]]>
  </style>
 </defs>
 <g id="Layer_x0020_1">
  <metadata id="CorelCorpID_0Corel-Layer"/>
  <g id="_2330546859872">
   <path class="fil0" d="M0.83 0.44c0,0.02 0.01,0.03 0.03,0.03 0.01,0 0.02,0 0.02,0 0.01,0 0.03,0 0.04,0 0.01,0 0.03,0 0.04,0 0.01,0 0.02,-0 0.03,0l0.01 0c0.02,0 0.05,0 0.07,0.01 0,0 0.01,0 0.01,0 0.01,0 0.01,0 0.02,0 0,0 0.01,0 0.01,-0 0,-0 0,-0 0,-0 0,0 0.01,0 0.02,0 0,0 0.01,-0 0.02,-0 0.02,-0.01 0.02,-0.03 0.03,-0.05 0,-0.02 0,-0.05 0,-0.07 -0,-0.01 -0,-0.02 -0,-0.03 0,-0.02 0,-0.04 -0.01,-0.06 -0,-0 -0,-0.01 -0,-0.01 -0,-0.01 -0,-0.01 -0,-0.02 0,-0 -0,-0.01 -0,-0.02 -0.01,-0.01 -0.02,-0.02 -0.03,-0.02 -0.01,-0 -0.03,-0 -0.04,-0l-0.01 0c-0.01,0 -0.02,0 -0.03,0 -0.01,0 -0.01,0 -0.02,0l-0.01 0c-0.01,0 -0.03,0 -0.05,0l-0.01 0c-0,0 -0.01,0 -0.01,0l-0.02 0c-0.01,0 -0.02,-0 -0.02,-0 -0.02,-0.01 -0.03,-0.01 -0.05,-0 -0.01,0 -0.01,0 -0.01,0.01 -0.02,0.02 -0.01,0.04 -0.01,0.06 0,0 0,0.01 0,0.01 0,0 0,0.01 0,0.01 0,0.01 0,0.01 0,0.02 -0,0 -0,0.01 -0,0.01 -0,0.01 -0,0.01 -0,0.02 -0,0.01 -0,0.02 -0,0.03l0 0.02 -0 0c-0,0.01 -0,0.01 0,0.02 0,0 0,0.01 0,0.01zm0.06 -0.06l0 0c-0,-0.01 -0,-0.02 0,-0.03 0,-0 0,-0.01 0,-0.01 0,-0.01 0,-0.01 0,-0.02 0,-0.01 0,-0.02 0,-0.02 -0,-0 -0,-0.01 -0,-0.01 0,-0 -0,-0.01 -0,-0.01 0,-0 -0,-0 -0,-0 0.02,0.01 0.03,0.01 0.04,0.01l0.02 0c0.01,0 0.02,-0 0.03,-0l0.01 -0c0.01,-0 0.03,-0 0.04,-0l0.01 -0c0.01,-0 0.02,-0 0.03,-0 0.01,-0 0.01,-0 0.02,-0l0.01 -0c0,-0 0.01,-0 0.01,-0 0,0 0,0 0,0.01 0,0.01 0,0.01 0,0.02 0,0.01 0,0.02 0,0.04 0,0.01 0,0.02 0,0.03 0,0.02 0,0.04 -0,0.06 -0,0 -0.01,0 -0.01,0 -0,0 -0,0 -0,0 -0,-0 -0.01,-0 -0.01,-0 -0.01,-0 -0.01,-0 -0.02,-0 -0.02,-0 -0.04,-0 -0.07,-0.01l-0.02 -0c-0.01,-0 -0.02,-0 -0.03,-0 -0,0 -0.01,0 -0.01,0 -0.01,0 -0.02,0 -0.03,-0 -0.01,-0 -0.03,-0 -0.04,-0 0,-0 0,-0 0,-0.01l-0 -0.02z"/>
   <path class="fil0" d="M1.58 0.27c0,-0.01 0,-0.03 -0,-0.04 -0,-0.01 -0.01,-0.02 -0.02,-0.02 -0.01,-0 -0.03,-0 -0.04,-0l-0.01 0c-0.02,0 -0.04,0 -0.07,0.01 -0.02,0 -0.03,0 -0.05,0 -0.04,-0 -0.07,-0 -0.12,0.01 -0.01,-0 -0.02,0 -0.03,0.01 -0.02,0.02 -0.02,0.05 -0.02,0.09l0 0.01 -0 0.08c-0,0.01 -0,0.02 0,0.04 0,0.02 0,0.04 0.02,0.06 0.01,0.01 0.02,0.01 0.03,0.01 0.01,0 0.02,-0 0.03,-0.01 0,-0 0,-0 0,-0 0,-0 0.01,-0 0.01,-0 0.01,-0 0.01,-0 0.02,-0l0 -0c0.01,-0 0.01,-0 0.01,-0 0.02,0 0.03,0 0.05,0l0.09 0c0,0 0.01,0 0.01,0 0.01,0 0.03,0 0.04,-0 0.01,-0 0.02,-0.01 0.02,-0.02 0.01,-0.03 0.01,-0.07 0.01,-0.1 -0,-0.01 -0,-0.02 -0,-0.03l0 -0.07c0,-0 0,-0.01 0,-0.01zm-0.06 -0l0 0c-0,0.01 -0,0.01 -0,0.02l0 0.07c0,0.01 0,0.02 0,0.03 0,0.02 0,0.04 -0,0.06 -0,-0 -0,-0 -0.01,-0 -0.01,-0 -0.01,-0 -0.02,-0l-0.09 0c-0.02,0 -0.03,0 -0.05,-0 -0.01,0 -0.02,0 -0.03,0l-0 0c-0,0 -0.01,0 -0.01,0 -0.01,0 -0.01,0 -0.02,0 -0,0 -0,0 -0.01,0 -0,-0 -0,-0 -0,-0 -0,-0.01 -0,-0.02 0,-0.03l0 -0.08 -0 -0.01c-0,-0.02 -0,-0.03 0,-0.03 0.04,-0.01 0.07,-0.01 0.11,-0.01 0.02,0 0.05,0 0.07,-0.01 0.01,-0 0.03,-0.01 0.05,-0.01 0,-0 0,-0 0.01,-0 0,0 0,0 -0,0z"/>
   <path class="fil0" d="M0.81 0.81c0,0.02 0.01,0.03 0.03,0.03 0.01,0 0.02,0 0.02,0 0.01,0 0.03,0 0.04,0 0.01,0 0.03,0 0.04,0 0.01,0 0.02,-0 0.03,0l0.02 0c0.02,0 0.05,0 0.07,0.01 0,0 0.01,0 0.01,0 0.01,0 0.01,0 0.02,0 0,0 0.01,0 0.01,-0 0,0 0,-0 0,-0 0,0 0.01,0 0.02,0 0,0 0.01,-0 0.02,-0 0.02,-0.01 0.02,-0.03 0.03,-0.05 0,-0.02 0,-0.05 0,-0.07 -0,-0.01 -0,-0.02 -0,-0.03 0,-0.02 0,-0.04 -0.01,-0.06 -0,-0 -0,-0.01 -0,-0.01 -0,-0.01 -0,-0.01 -0,-0.02 -0,-0.01 -0,-0.01 -0,-0.02 -0.01,-0.01 -0.02,-0.02 -0.03,-0.02 -0.01,-0 -0.03,-0 -0.04,-0l-0.01 0c-0.01,0 -0.02,0 -0.03,0 -0.01,0 -0.01,0 -0.02,0l-0.01 0c-0.01,0 -0.03,0 -0.05,0l-0.01 0c-0,0 -0.01,0 -0.01,0l-0.02 0c-0.01,0 -0.02,-0 -0.02,-0 -0.02,-0.01 -0.03,-0.01 -0.05,-0 -0.01,0 -0.01,0 -0.01,0.01 -0.02,0.02 -0.01,0.04 -0.01,0.06 0,0 0,0.01 0,0.01 0,0 0,0.01 0,0.01 0,0.01 0,0.01 0,0.02 -0,0 -0,0.01 -0,0.01 -0,0.01 -0,0.01 -0,0.02 -0,0.01 -0,0.02 0,0.03l0 0.02 -0 0c-0,0.01 -0,0.01 0,0.02 0,0 0,0.01 0,0.01zm0.1 -0.16l0 0 0.02 0c-0.01,0 -0.01,0.01 -0.02,0.01 -0,0 -0.01,0.01 -0.01,0.01 -0,0 -0.01,0 -0.01,0.01 -0.01,0 -0.01,0.01 -0.02,0.01l-0 0c0,-0.01 0,-0.01 0,-0.02 -0,-0 -0,-0.01 -0,-0.01 0,-0 -0,-0.01 -0,-0.01 0,-0 -0,-0 -0,-0 0.02,0.01 0.03,0.01 0.04,0.01zm-0.05 0.1l0 0c-0,-0 0,-0.01 0,-0.01 0,-0 0.01,-0 0.01,-0.01 0,-0 0.01,-0 0.01,-0.01l0.01 -0.01c0.01,-0 0.01,-0.01 0.02,-0.01 0,-0 0.01,-0.01 0.01,-0.01 0,-0 0.01,-0 0.01,-0.01 0,-0 0,-0 0,-0l-0 0c-0,0.01 -0.01,0.02 -0.01,0.03 0,0.01 0.01,0.01 0.01,0.02 0.01,0.01 0.03,-0 0.03,-0 0.01,-0.01 0.02,-0.01 0.03,-0.02 0,-0 0,-0 0.01,-0l-0 0c-0,0.01 -0,0.01 -0,0.02 0,0.01 0.01,0.02 0.02,0.02 0,0 0,0 0.01,0 0.01,0 0.02,-0.01 0.03,-0.02 0,-0 0,-0 0,-0l0.01 -0c0.01,-0 0.01,-0.01 0.02,-0.01 0.01,-0.01 0.01,-0.02 0,-0.03 -0.01,-0.01 -0.02,-0.01 -0.03,-0 -0,0 -0,0 -0.01,0 0,-0 0,-0 0,-0 0,-0.01 0,-0.01 -0,-0.02 -0,-0.01 -0.01,-0.01 -0.01,-0.01 -0.01,-0 -0.01,-0 -0.02,0 -0.01,0.01 -0.02,0.01 -0.03,0.02 0,-0.01 0,-0.01 0,-0.02 -0,-0 -0,-0.01 -0,-0.01 0.01,-0 0.01,-0 0.02,-0l0.01 -0c0.01,-0 0.02,-0 0.03,-0 0.01,-0 0.01,-0 0.02,-0l0.01 -0c0,-0 0.01,-0 0.01,-0 0,0 0,0 0,0.01 0,0.01 0,0.01 0,0.02 0,0.01 0,0.02 0,0.04 0,0.01 0,0.02 0,0.03 0,0.02 0,0.04 -0,0.06 -0,0 -0.01,0 -0.01,0 -0,0 -0,0 -0,0 -0,-0 -0.01,-0 -0.01,-0 -0.01,-0 -0.01,-0 -0.02,-0 -0.02,-0 -0.04,-0 -0.07,-0.01l-0.02 -0c-0.01,-0 -0.02,-0 -0.03,-0 -0,0 -0.01,0 -0.01,0 -0.01,0 -0.02,0 -0.03,-0 -0.01,-0 -0.03,-0 -0.04,-0 0,-0 0,-0 0,-0.01l-0 -0.02z"/>
   <path class="fil0" d="M1.57 0.63c0,-0.01 0,-0.03 -0,-0.04 -0,-0.01 -0.01,-0.02 -0.02,-0.02 -0.01,-0 -0.03,-0 -0.04,-0l-0.01 0c-0.02,0 -0.04,0 -0.07,0.01 -0.02,0 -0.03,0 -0.05,0 -0.04,-0 -0.07,-0 -0.12,0.01 -0.01,-0 -0.02,0 -0.03,0.01 -0.02,0.02 -0.02,0.05 -0.02,0.09l0 0.01 0 0.08c-0,0.01 -0,0.02 0,0.04 0,0.03 0.01,0.04 0.02,0.06 0.01,0.01 0.02,0.01 0.03,0.01 0.01,0 0.02,-0 0.03,-0.01 0,-0 0,-0 0,-0 0,-0 0.01,-0 0.01,-0 0.01,-0 0.01,-0 0.02,-0l0 -0c0.01,-0 0.01,-0 0.01,-0 0.02,0 0.03,0 0.05,0l0.09 0c0,0 0.01,0 0.01,0 0.01,0 0.03,0 0.04,-0 0.01,-0 0.02,-0.01 0.02,-0.02 0.01,-0.03 0.01,-0.07 0.01,-0.1 -0,-0.01 -0,-0.02 -0,-0.03l0 -0.07c0,-0 0,-0.01 0,-0.01zm-0.3 0.01l0 0c0.02,-0 0.04,-0.01 0.06,-0.01 -0,0 -0,0 -0.01,0l-0.01 0c-0.01,0.01 -0.02,0.01 -0.03,0.02l-0 0c-0.01,0 -0.01,0.01 -0.02,0.01l-0 -0.01c-0,-0.02 -0,-0.03 0,-0.03zm0.24 -0.02l0 0c-0,0.01 -0,0.01 -0,0.02l0 0.07c0,0.01 0,0.02 0,0.03 0,0.02 0,0.04 -0,0.06 -0,-0 -0.01,-0 -0.01,-0 -0.01,-0 -0.01,-0 -0.02,-0l-0.09 0c-0.02,0 -0.03,0 -0.05,0 -0.01,0 -0.02,0 -0.03,0l-0 0c-0,0 -0.01,0 -0.01,0 -0.01,0 -0.01,0 -0.02,0 -0,0 -0,0 -0.01,0 -0,-0 -0,-0 -0,-0 -0,-0.01 -0,-0.02 0,-0.03l0 -0.04c0,-0 0,-0 0.01,-0.01 0,-0 0.01,-0 0.01,-0 0,-0 0,-0 0,-0 0.01,-0.01 0.02,-0.01 0.03,-0.02l-0 0.01c-0,0.01 -0.01,0.02 -0.01,0.03 -0,0 -0,0 -0,0.01 -0,0 -0,0 -0,0.01 -0,0.01 -0,0.01 -0,0.02 0,0.01 0.01,0.01 0.01,0.01 0.02,0.01 0.03,-0 0.04,-0.01 0,-0 0.01,-0.01 0.01,-0.01 0.01,-0.01 0.01,-0.01 0.02,-0.01l0.01 -0c0,-0 0,-0 0.01,-0 -0,0.01 -0,0.02 -0,0.04 0,0.01 0.01,0.01 0.01,0.02 0,0 0.01,0 0.01,0 0.01,0 0.02,-0.01 0.03,-0.02 0,-0 0,-0 0.01,-0.01 0.01,-0 0.01,-0.01 0.02,-0.02 0.01,-0.01 0.01,-0.02 -0,-0.03 -0.01,-0 -0.01,-0.01 -0.02,-0 0,-0.01 0.01,-0.02 0.01,-0.03 0,-0.01 -0,-0.01 -0,-0.02 -0,-0 -0.01,-0.01 -0.02,-0.01 -0.01,-0 -0.02,0.01 -0.03,0.01l-0 0c-0.01,0.01 -0.02,0.02 -0.04,0.02l-0.01 0c-0,0 -0,0 -0,0 0,-0 0,-0.01 0.01,-0.01 0,-0.01 0.01,-0.01 0.01,-0.02 0,-0.01 0.01,-0.02 0,-0.03 -0,-0 -0,-0.01 -0.01,-0.01 0,0 0,0 0,0 0.02,0 0.05,0 0.07,-0.01 0.01,-0 0.03,-0.01 0.05,-0.01 0,0 0,-0 0.01,-0 -0,0 -0,0 -0,0z"/>
   <path class="fil0" d="M1.15 1.07c0,-0.02 0,-0.04 -0.01,-0.06 -0,-0 -0,-0.01 -0,-0.01 -0,-0.01 -0,-0.01 -0,-0.02 0,-0.01 -0,-0.01 -0,-0.02 -0.01,-0.01 -0.02,-0.02 -0.03,-0.02 -0.01,-0 -0.03,-0 -0.04,-0l-0.01 0c-0.01,0 -0.02,0 -0.03,0 -0.01,0 -0.01,0 -0.02,0l-0.01 0c-0.01,0 -0.03,0 -0.05,0l-0.01 0c-0,0 -0.01,0 -0.01,0l-0.02 0c-0.01,0 -0.02,0 -0.02,-0 -0.02,-0.01 -0.03,-0.01 -0.05,-0 -0.01,0 -0.01,0 -0.01,0.01 -0.02,0.02 -0.01,0.04 -0.01,0.06 0,0 0,0.01 0,0.01 0,0 0,0.01 0,0.01 0,0.01 0,0.01 0,0.02 -0,0 -0,0.01 -0,0.01 -0,0.01 -0,0.01 -0,0.02 -0,0.01 -0,0.02 -0,0.03l0 0.02 -0 0c-0,0.01 -0,0.01 0,0.02 0,0 0,0.01 0,0.01 0,0.02 0.01,0.03 0.03,0.03 0.01,0 0.02,0 0.02,0 0.01,0 0.03,0 0.04,0 0.01,0 0.03,0 0.04,0 0.01,-0 0.02,-0 0.03,0l0.02 0c0.02,0 0.05,0 0.07,0.01 0,0 0.01,0 0.01,0 0.01,0 0.01,0 0.02,0 0,0 0.01,0 0.01,-0 0,0 0,-0 0,-0 0,0 0.01,0 0.02,0 0,0 0.01,-0 0.02,-0 0.02,-0.01 0.02,-0.03 0.03,-0.05 0,-0.02 0,-0.05 0,-0.07 -0,-0.01 -0,-0.02 -0,-0.03zm-0.25 -0.05l0 0 0.02 0c0,0 0.01,-0 0.01,-0 -0,0 -0.01,0 -0.01,0.01 -0,0 -0,0 -0,0 -0,0 -0,0 -0.01,0 -0.01,0.01 -0.02,0.01 -0.03,0.02 -0.01,0.01 -0.02,0.01 -0.03,0.02 -0,0 -0,0 -0,0 0,-0 0,-0 0,-0.01 0,-0.01 0,-0.02 0,-0.02 -0,-0 -0,-0.01 -0,-0.01 0,-0 -0,-0.01 -0,-0.01 -0,-0 -0,-0 -0,-0 0.02,0.01 0.03,0.01 0.04,0.01zm0.19 0.14l0 0c-0,0 -0.01,0 -0.01,0 -0,0 -0,0 -0,0 -0,-0 -0.01,-0 -0.01,-0 -0.01,-0 -0.01,-0 -0.02,-0 -0.02,-0 -0.04,-0 -0.07,-0.01l-0.02 -0c-0.01,-0 -0.02,-0 -0.03,-0 -0,0 -0.01,0 -0.01,0 -0.01,0 -0.02,0 -0.03,-0 -0.01,-0 -0.03,-0 -0.04,-0 0,-0 0,-0 0,-0.01l-0 -0.02c0,-0 0,-0 0,-0 0,0 0.01,0 0.01,0 0.01,-0 0.01,-0 0.01,-0.01 0,-0 0,-0 0,-0 0,-0 0,-0 0,-0 -0,0.01 -0,0.01 0,0.02 0,0.01 0.01,0.01 0.02,0.01 0,0 0,0 0,0 0.01,0 0.02,-0.01 0.03,-0.02l0.01 -0.01c0.01,-0.01 0.02,-0.01 0.02,-0.02 0,-0 0,-0 0,-0 -0,0 -0,0 -0,0.01 -0,0.01 -0,0.02 0,0.02 0,0.01 0.01,0.01 0.02,0.01 0.03,-0 0.05,-0.02 0.07,-0.04 0.01,-0.01 0.01,-0.02 -0,-0.03 -0.01,-0.01 -0.02,-0.01 -0.03,0 -0.01,0.01 -0.01,0.01 -0.02,0.02 0,-0 0,-0 0,-0 0,-0.01 0,-0.02 0,-0.03 -0,-0.01 -0,-0.01 -0.01,-0.01 -0,-0 -0.01,-0 -0.02,-0 -0.01,0 -0.02,0.01 -0.02,0.01 -0,0 -0.01,0.01 -0.01,0.01 -0,0 -0,0 -0,0 0,-0.01 0,-0.01 -0,-0.02 -0,-0.01 -0.01,-0.01 -0.01,-0.01 -0,-0 -0,-0 -0.01,-0 0,-0 0.01,-0 0.01,-0l0.01 -0c0.01,-0 0.03,-0 0.04,-0l0.01 -0c0.01,-0 0.02,-0 0.03,-0 0.01,-0 0.01,-0 0.02,-0l0.01 -0c0,-0 0.01,-0 0.01,-0 0,0 0,0 0,0.01 0,0.01 0,0.01 0,0.02 0,0.01 0,0.02 0,0.04 0,0.01 0,0.02 0,0.03 0,0.02 0,0.04 -0,0.06z"/>
   <path class="fil0" d="M1.56 1c0,-0.01 0,-0.03 -0,-0.04 -0,-0.01 -0.01,-0.02 -0.02,-0.02 -0.01,-0 -0.03,-0 -0.04,-0l-0.01 0c-0.02,0 -0.04,0 -0.07,0.01 -0.02,0 -0.03,0 -0.05,0 -0.04,-0 -0.07,-0 -0.12,0.01 -0.01,-0 -0.02,0 -0.03,0.01 -0.02,0.02 -0.02,0.05 -0.02,0.09l0 0.01 -0 0.08c-0,0.01 -0,0.02 0,0.04 0,0.02 0,0.04 0.02,0.06 0.01,0.01 0.02,0.01 0.03,0.01 0.01,0 0.02,-0 0.03,-0.01 0,-0 0,-0 0,-0 0,-0 0.01,-0 0.01,-0 0.01,-0 0.01,-0 0.02,-0l0 -0c0.01,-0 0.01,-0 0.01,-0 0.02,0 0.03,0 0.05,0l0.09 0c0,0 0.01,0 0.01,0 0.01,0 0.03,0 0.04,-0 0.01,-0 0.02,-0.01 0.02,-0.02 0.01,-0.03 0.01,-0.07 0.01,-0.1 -0,-0.01 -0,-0.02 -0,-0.03l0 -0.07c0,-0 0,-0.01 0,-0.01zm-0.06 0.17l0 0c-0,-0 -0.01,-0 -0.01,-0 -0.01,-0 -0.01,-0 -0.02,-0l-0.09 0c-0.02,0 -0.03,0 -0.05,0 -0.01,-0 -0.02,0 -0.03,0l-0 0c-0,0 -0.01,0 -0.01,0 -0.01,0 -0.01,0 -0.02,0 -0,0 -0,0 -0.01,0 -0,-0 -0,-0 -0,-0 -0,-0.01 -0,-0.02 0,-0.03 0,0.01 0.01,0.01 0.02,0.01 0,0 0.01,-0 0.01,-0 0.01,-0.01 0.02,-0.01 0.02,-0.02 0,-0 0,-0 0.01,-0.01 0.01,-0.01 0.01,-0.01 0.02,-0.02 0,0 0,0 0,0 0,0.01 0.01,0.01 0.01,0.02 0.01,0 0.02,0 0.04,-0 0.01,-0 0.02,-0.01 0.04,-0.02 0,-0 0.01,-0 0.01,-0.01 0.01,-0.01 0.02,-0.01 0.03,-0.01l0.01 -0c0,0 0,0 0.01,0 0,-0 0.01,-0 0.01,-0 0,0.01 0,0.01 0,0.02 0,0.02 0,0.04 -0,0.06zm0 -0.17l0 0c-0,0.01 -0,0.01 -0,0.02l0 0.03c0,0 0,0 -0,0 -0.01,-0.01 -0.02,-0 -0.03,0l-0.01 0c-0.01,0 -0.02,0.01 -0.04,0.01 -0,0 -0.01,0 -0.01,0.01 -0.01,0 -0.01,0.01 -0.02,0.01 0,-0.01 0.01,-0.02 0.01,-0.02 0,-0.01 -0,-0.01 -0,-0.02 -0,-0 -0.01,-0.01 -0.02,-0.01 -0.01,-0 -0.02,0.01 -0.03,0.01 -0.01,0 -0.01,0.01 -0.02,0.01 -0,-0 -0,-0.01 -0.01,-0.01 -0.01,-0.01 -0.02,-0.01 -0.03,0 -0.02,0.02 -0.03,0.04 -0.03,0.05l-0 0c-0,0 -0,0 -0,0.01l0 -0.06 -0 -0.01c-0,-0.02 -0,-0.03 0,-0.03 0.04,-0.01 0.07,-0.01 0.11,-0.01 0.02,0 0.05,0 0.07,-0.01 0.01,-0 0.03,-0.01 0.05,-0.01 0,-0 0,-0 0.01,-0 0,0 0,0 -0,0z"/>
   <path class="fil0" d="M1.14 1.43c0,-0.02 0,-0.04 -0.01,-0.06 -0,-0 -0,-0.01 -0,-0.01 -0,-0.01 -0,-0.01 -0,-0.02 -0,-0.01 -0,-0.01 -0,-0.02 -0.01,-0.01 -0.02,-0.02 -0.03,-0.02 -0.01,-0 -0.03,-0 -0.04,-0l-0.01 0c-0.01,0 -0.02,0 -0.03,0 -0.01,0 -0.01,0 -0.02,0l-0.01 0c-0.01,0 -0.03,0 -0.05,0l-0.01 0c-0,0 -0.01,0 -0.01,0l-0.02 0c-0.01,0 -0.02,0 -0.02,-0 -0.02,-0.01 -0.03,-0.01 -0.05,-0 -0.01,0 -0.01,0 -0.01,0.01 -0.02,0.02 -0.01,0.04 -0.01,0.06 0,0 0,0.01 0,0.01 0,0 0,0.01 0,0.01 0,0.01 0,0.01 0,0.02 -0,0 -0,0.01 -0,0.01 -0,0.01 -0,0.01 -0,0.02 -0,0.01 -0,0.02 -0,0.03l0 0.02 -0 0c-0,0.01 -0,0.01 0,0.02 0,0 0,0.01 0,0.01 0,0.02 0.01,0.03 0.03,0.03 0.01,0 0.02,0 0.02,0 0.01,0 0.03,0 0.04,0 0.01,0 0.03,0 0.04,0 0.01,-0 0.02,-0 0.03,0l0.02 0c0.02,0 0.05,0 0.07,0.01 0,0 0.01,0 0.01,0 0.01,0 0.01,0 0.02,0 0,0 0.01,0 0.01,-0 0,0 0,-0 0,-0 0,0 0.01,0 0.02,0 0,0 0.01,-0 0.02,-0 0.02,-0.01 0.02,-0.03 0.03,-0.05 0,-0.02 0,-0.05 0,-0.07 -0,-0.01 -0,-0.02 -0,-0.03zm-0.06 0.09l0 0c-0,0 -0.01,0 -0.01,0 -0,0 -0,0 -0,0 -0,-0 -0.01,-0 -0.01,-0 -0.01,-0 -0.01,-0 -0.02,-0 -0.02,-0 -0.04,-0 -0.07,-0.01l-0.02 -0c-0.01,-0 -0.02,-0 -0.03,-0 -0,0 -0.01,0 -0.01,0 -0.01,0 -0.02,0 -0.03,-0 -0.01,-0 -0.03,-0 -0.04,-0 0,-0 0,-0 0,-0.01l-0 -0.02c-0,-0.01 -0,-0.02 0,-0.03 0,-0 0,-0.01 0,-0.01 0,-0.01 0,-0.01 0,-0.02 0,-0.01 0,-0.02 0,-0.02 -0,-0 -0,-0.01 -0,-0.01 0,-0 -0,-0.01 -0,-0.01 0,-0 -0,-0 -0,-0 0.02,0.01 0.03,0.01 0.04,0.01l0.02 0c0.01,-0 0.02,-0 0.03,-0l0 -0c-0,0 -0.01,0.01 -0.01,0.01 -0,0 -0.01,0.01 -0.02,0.01 -0,0 -0.01,0.01 -0.01,0.01 -0,-0.01 -0.01,-0.02 -0.02,-0.02 -0.01,-0 -0.02,0 -0.03,0.02 -0,0.01 -0,0.01 -0.01,0.02 -0,0.01 -0.01,0.02 -0.01,0.02 -0,0.01 -0,0.02 0,0.03 0,0.01 0.01,0.01 0.01,0.01 0.01,0 0.01,0 0.02,-0 0.01,-0.01 0.02,-0.02 0.03,-0.02l0.01 -0.01c0,-0 0.01,-0 0.01,-0.01 -0,0.01 -0,0.01 -0,0.02 -0,0.01 0,0.01 0.01,0.02 0.01,0.01 0.01,0.01 0.02,0.01 0.01,0 0.03,-0.01 0.04,-0.02 0.01,-0.01 0.02,-0.01 0.03,-0.02l0.01 -0c0,-0 0.01,-0.01 0.01,-0.01 -0,0.01 -0,0.01 -0,0.02 0,0.01 0.01,0.02 0.02,0.02 0.01,0 0.02,-0.01 0.02,-0.02 0,-0.01 0,-0.01 0,-0.02 0,-0.01 0,-0.03 -0,-0.04 -0,-0.01 -0.01,-0.01 -0.01,-0.02 -0.01,-0 -0.02,-0 -0.02,0 -0.01,0.01 -0.02,0.01 -0.02,0.02 -0.01,0 -0.02,0.01 -0.02,0.02l-0.01 0.01c-0,0 -0,0 -0.01,0.01 0,-0.01 0,-0.01 0.01,-0.02 0,-0 0,-0.01 0,-0.02 -0,-0.01 -0,-0.01 -0.01,-0.02 0.01,-0 0.01,-0 0.02,-0l0.01 -0c0.01,-0 0.02,-0 0.03,-0 0.01,-0 0.01,-0 0.02,-0l0.01 -0c0,-0 0.01,-0 0.01,-0 0,0 0,0 0,0.01 0,0.01 0,0.01 0,0.02 0,0.01 0,0.02 0,0.04 0,0.01 0,0.02 0,0.03 0,0.02 0,0.04 -0,0.06z"/>
   <path class="fil0" d="M1.54 1.36c0,-0.01 0,-0.03 -0,-0.04 -0,-0.01 -0.01,-0.02 -0.02,-0.02 -0.01,-0 -0.03,-0 -0.04,-0l-0.01 0c-0.02,0 -0.04,0 -0.07,0.01 -0.02,0 -0.03,0 -0.05,0 -0.04,-0 -0.07,-0 -0.12,0.01 -0.01,-0 -0.02,0 -0.03,0.01 -0.02,0.02 -0.02,0.05 -0.02,0.09l0 0.01 -0 0.08c-0,0.01 -0,0.02 0,0.04 0,0.02 0,0.04 0.02,0.06 0.01,0.01 0.02,0.01 0.03,0.01 0.01,0 0.02,-0 0.03,-0.01 0,-0 0,-0 0,-0 0,-0 0.01,-0 0.01,-0 0.01,-0 0.01,-0 0.02,-0l0 -0c0.01,-0 0.01,-0 0.01,-0 0.02,0 0.03,0 0.05,0l0.09 0c0,0 0.01,0 0.01,0 0.01,0 0.03,0 0.04,-0 0.01,-0 0.02,-0.01 0.02,-0.02 0.01,-0.03 0.01,-0.07 0.01,-0.1 -0,-0.01 -0,-0.02 -0,-0.03l0 -0.07c0,-0 0,-0.01 0,-0.01zm-0.06 -0l0 0c-0,0.01 -0,0.01 -0,0.02l0 0.07c0,0.01 0,0.02 0,0.03 0,0.02 0,0.04 -0,0.06 -0,-0 -0.01,-0 -0.01,-0 -0.01,-0 -0.01,-0 -0.02,-0l-0.09 0c-0.02,0 -0.03,0 -0.05,-0 -0.01,-0 -0.02,0 -0.03,0l-0 0c-0,0 -0.01,0 -0.01,0 -0.01,0 -0.01,0 -0.02,0 -0,0 -0,0 -0.01,0 -0,-0 -0,-0 -0,-0 -0,-0.01 -0,-0.02 0,-0.03l0 -0.08 -0 -0.01c-0,-0.02 -0,-0.03 0,-0.03 0.04,-0.01 0.07,-0.01 0.11,-0.01 0.02,0 0.05,0 0.07,-0.01 0.01,-0 0.03,-0.01 0.05,-0.01 0,-0 0,-0 0.01,-0 -0,0 -0,0 -0,0z"/>
   <path class="fil0" d="M1.13 1.8c0,-0.02 0,-0.04 -0.01,-0.06 -0,-0 -0,-0.01 -0,-0.01 -0,-0.01 -0,-0.01 -0,-0.02 0,-0 -0,-0.01 -0,-0.02 -0.01,-0.01 -0.02,-0.02 -0.03,-0.02 -0.01,-0 -0.03,-0 -0.04,-0l-0.01 0c-0.01,0 -0.02,0 -0.03,0 -0.01,0 -0.01,0 -0.02,0l-0.01 0c-0.01,0 -0.03,0 -0.05,0l-0.01 0c-0,0 -0.01,0 -0.01,0l-0.02 0c-0.01,0 -0.02,0 -0.02,-0 -0.02,-0.01 -0.03,-0.01 -0.05,-0 -0.01,0 -0.01,0 -0.01,0.01 -0.02,0.02 -0.01,0.04 -0.01,0.06 0,0 0,0.01 0,0.01 0,0 0,0.01 0,0.01 0,0.01 0,0.01 0,0.02 -0,0 -0,0.01 -0,0.01 -0,0.01 -0,0.01 -0,0.02 -0,0.01 -0,0.02 -0,0.03l0 0.02 -0 0c-0,0.01 -0,0.01 0,0.02 0,0 0,0.01 0,0.01 0,0.02 0.01,0.03 0.03,0.03 0.01,0 0.02,0 0.02,0 0.01,0 0.03,0 0.04,0 0.01,0 0.03,0 0.04,0 0.01,0 0.02,-0 0.03,0l0.02 0c0.02,0 0.05,0 0.07,0.01 0,0 0.01,0 0.01,0 0.01,0 0.01,0 0.02,0 0,0 0.01,0 0.01,-0 0,0 0,-0 0,-0 0,0 0.01,0 0.02,0 0,0 0.01,-0 0.02,-0 0.02,-0.01 0.02,-0.03 0.03,-0.05 0,-0.02 0,-0.05 0,-0.07 -0,-0.01 -0,-0.02 -0,-0.03zm-0.06 0.09l0 0c-0,0 -0.01,0 -0.01,0 -0,0 -0,0 -0,0 -0,-0 -0.01,-0 -0.01,-0 -0.01,-0 -0.01,-0 -0.02,-0 -0.02,-0 -0.04,-0 -0.07,-0.01l-0.02 -0c-0.01,-0 -0.02,-0 -0.03,-0 -0,0 -0.01,0 -0.01,0 -0.01,0 -0.02,0 -0.03,-0 -0.01,-0 -0.03,-0 -0.04,-0 0,-0 0,-0 0,-0.01l-0 -0.02c-0,-0.01 -0,-0.02 0,-0.03 0,-0 0,-0.01 0,-0.01 0,-0.01 0,-0.01 0,-0.02 0,-0.01 0,-0.02 0,-0.02 -0,-0 -0,-0.01 -0,-0.01 0,-0 -0,-0.01 -0,-0.01 -0,-0 -0,-0 -0,-0 0.02,0.01 0.03,0.01 0.04,0.01l0.02 0c0.01,-0 0.02,-0 0.03,-0l0.01 -0c0.01,-0 0.03,-0 0.04,-0l0.01 -0c0.01,-0 0.02,-0 0.03,-0 0.01,-0 0.01,-0 0.02,-0l0.01 -0c0,-0 0.01,-0 0.01,-0 0,0 0,0 0,0.01 0,0.01 0,0.01 0,0.02 0,0.01 0,0.02 0,0.04 0,0.01 0,0.02 0,0.03 0,0.02 0,0.04 -0,0.06z"/>
   <path class="fil0" d="M1.53 1.73c0,-0.01 0,-0.03 -0,-0.04 -0,-0.01 -0.01,-0.02 -0.02,-0.02 -0.01,-0 -0.03,-0 -0.04,-0l-0.01 0c-0.02,0 -0.04,0 -0.07,0.01 -0.02,0 -0.03,0 -0.05,0 -0.04,-0 -0.07,-0 -0.12,0.01 -0.01,-0 -0.02,0 -0.03,0.01 -0.02,0.02 -0.02,0.05 -0.02,0.09l0 0.01 -0 0.08c-0,0.01 -0,0.02 0,0.04 0,0.03 0.01,0.04 0.02,0.06 0.01,0.01 0.02,0.01 0.03,0.01 0.01,0 0.02,-0 0.03,-0.01 0,-0 0,-0 0,-0 0,-0 0.01,-0 0.01,-0 0.01,-0 0.01,-0 0.02,-0l0 -0c0.01,-0 0.01,-0 0.01,-0 0.02,0 0.03,0 0.05,0l0.09 0c0,0 0.01,0 0.01,0 0.01,0 0.03,0 0.04,-0 0.01,-0 0.02,-0.01 0.02,-0.02 0.01,-0.03 0.01,-0.07 0.01,-0.1 -0,-0.01 -0,-0.02 -0,-0.03l0 -0.07c0,-0 0,-0.01 0,-0.01zm-0.06 -0l0 0c-0,0.01 -0,0.01 -0,0.02l0 0.07c0,0.01 0,0.02 0,0.03 0,0.02 0,0.04 -0,0.06 -0,-0 -0,-0 -0.01,-0 -0.01,-0 -0.01,-0 -0.02,-0l-0.09 0c-0.02,0 -0.03,0 -0.05,-0 -0.01,-0 -0.02,0 -0.03,0l-0 0c-0,0 -0.01,0 -0.01,0 -0.01,0 -0.01,0 -0.02,0 -0,0 -0,0 -0.01,0 -0,-0 -0,-0 -0,-0 -0,-0.01 -0,-0.02 0,-0.03l0 -0.08 -0 -0.01c-0,-0.02 -0,-0.03 0,-0.03 0.04,-0.01 0.07,-0.01 0.11,-0.01 0.02,0 0.05,0 0.07,-0.01 0.01,-0 0.03,-0.01 0.05,-0.01l0.01 -0c0,0 0,0 -0,0z"/>
   <path class="fil0" d="M1.12 2.16c0,-0.02 0,-0.04 -0.01,-0.06 -0,-0 -0,-0.01 -0,-0.01 -0,-0.01 -0,-0.01 -0,-0.02 -0,-0.01 -0,-0.01 -0,-0.02 -0.01,-0.01 -0.02,-0.02 -0.03,-0.02 -0.01,-0 -0.03,-0 -0.04,-0l-0.01 0c-0.01,0 -0.02,0 -0.03,0 -0.01,0 -0.01,0 -0.02,0l-0.01 0c-0.01,0 -0.03,0 -0.05,0l-0.01 0c-0,0 -0.01,0 -0.01,0l-0.02 0c-0.01,0 -0.02,0 -0.02,-0 -0.02,-0.01 -0.03,-0.01 -0.05,-0 -0.01,0 -0.01,0 -0.01,0.01 -0.02,0.02 -0.01,0.04 -0.01,0.06 0,0 0,0.01 0,0.01 0,0 0,0.01 0,0.01 0,0.01 0,0.01 0,0.02 -0,0 -0,0.01 -0,0.01 -0,0.01 -0,0.01 -0,0.02 -0,0.01 -0,0.02 -0,0.03l0 0.02 -0 0c-0,0.01 -0,0.01 0,0.02 0,0 0,0.01 0,0.01 0,0.02 0.01,0.03 0.03,0.03 0.01,0 0.02,0 0.02,0 0.01,0 0.03,0 0.04,0 0.01,0 0.03,0 0.04,0 0.01,-0 0.02,-0 0.03,0l0.02 0c0.02,0 0.05,0 0.07,0.01 0,0 0.01,0 0.01,0 0.01,0 0.01,0 0.02,0 0,0 0.01,0 0.01,-0 0,0 0,-0 0,-0 0,0 0.01,0 0.02,0 0,0 0.01,-0 0.02,-0 0.02,-0.01 0.02,-0.03 0.03,-0.05 0,-0.02 0,-0.05 0,-0.07 -0,-0.01 -0,-0.02 -0,-0.03zm-0.06 0.09l0 0c-0,0 -0.01,0 -0.01,0 -0,0 -0,0 -0,0 -0,-0 -0.01,-0 -0.01,-0 -0.01,-0 -0.01,-0 -0.02,-0 -0.02,-0 -0.04,-0 -0.07,-0.01l-0.02 -0c-0.01,-0 -0.02,-0 -0.03,-0 -0,0 -0.01,0 -0.01,0 -0.01,0 -0.02,0 -0.03,-0 -0.01,-0 -0.03,-0 -0.04,-0 0,-0 0,-0 0,-0.01l-0 -0.02c-0,-0.01 -0,-0.02 0,-0.03 0,-0 0,-0.01 0,-0.01 0,-0.01 0,-0.01 0,-0.02 0,-0.01 0,-0.02 0,-0.02 -0,-0 -0,-0.01 -0,-0.01 0,-0 -0,-0.01 -0,-0.01 0,-0 -0,-0 -0,-0 0.02,0.01 0.03,0.01 0.04,0.01l0.02 0c0.01,0 0.02,-0 0.03,-0l0.01 -0c0.01,-0 0.03,-0 0.04,-0l0.01 -0c0.01,-0 0.02,-0 0.03,-0 0.01,-0 0.01,-0 0.02,-0l0.01 -0c0,-0 0.01,-0 0.01,-0 0,0 0,0 0,0.01 0,0.01 0,0.01 0,0.02 0,0.01 0,0.02 0,0.04 0,0.01 0,0.02 0,0.03 0,0.02 0,0.04 -0,0.06z"/>
   <path class="fil0" d="M1.52 2.09c0,-0.01 0,-0.03 -0,-0.04 -0,-0.01 -0.01,-0.02 -0.02,-0.02 -0.01,-0 -0.03,-0 -0.04,-0l-0.01 0c-0.02,0 -0.04,0 -0.07,0.01 -0.02,0 -0.03,0 -0.05,0 -0.04,-0 -0.07,-0 -0.12,0.01 -0.01,-0 -0.02,0 -0.03,0.01 -0.02,0.02 -0.02,0.05 -0.02,0.09l0 0.01 -0 0.08c-0,0.01 -0,0.02 0,0.04 0,0.02 0,0.04 0.02,0.06 0.01,0.01 0.02,0.01 0.03,0.01 0.01,0 0.02,-0 0.03,-0.01 0,-0 0,-0 0,-0 0,-0 0.01,-0 0.01,-0 0.01,-0 0.01,-0 0.02,-0l0 -0c0.01,-0 0.01,-0 0.01,-0 0,0 0,0 0,0 0.02,0 0.03,0 0.05,0l0.09 0c0,0 0.01,0 0.01,0 0.01,0 0.03,0 0.04,-0 0.01,-0 0.02,-0.01 0.02,-0.02 0.01,-0.03 0.01,-0.07 0.01,-0.1 -0,-0.01 -0,-0.02 -0,-0.03l0 -0.07c0,-0 0,-0.01 0,-0.01zm-0.06 -0l0 0c-0,0.01 -0,0.01 -0,0.02l0 0.07c0,0.01 0,0.02 0,0.03 0,0.02 0,0.04 -0,0.06 -0,-0 -0,-0 -0.01,-0 -0.01,-0 -0.01,-0 -0.02,-0l-0.09 0c-0.02,0 -0.03,0 -0.05,0 -0,0 -0,0 -0,0 -0.01,0 -0.02,0 -0.03,0l-0 0c-0,0 -0.01,0 -0.01,0 -0.01,0 -0.01,0 -0.02,0 -0,0 -0,0 -0.01,0 -0,-0 -0,-0 -0,-0 -0,-0.01 -0,-0.02 0,-0.03l0 -0.08 -0 -0.01c-0,-0.02 -0,-0.03 0,-0.03 0.04,-0.01 0.07,-0.01 0.11,-0.01 0.02,0 0.05,0 0.07,-0.01 0.01,-0 0.03,-0.01 0.05,-0.01l0.01 -0c0,0 -0,0 -0,0z"/>
   <path class="fil0" d="M1.43 1.4c-0.01,0 -0.02,0.01 -0.02,0.01l-0.02 0.01c0,-0 0,-0 0,-0 0,-0.01 0,-0.02 0,-0.03 -0,-0.01 -0,-0.01 -0.01,-0.02 -0.01,-0 -0.01,-0 -0.02,-0 -0.01,0 -0.01,0.01 -0.02,0.01 -0,-0 -0,-0.01 -0.01,-0.01 -0.01,-0.01 -0.02,-0 -0.03,0.01 -0,0 -0,0.01 -0.01,0.01 -0,0.01 -0,0.01 -0.01,0.02 -0,0 -0,0.01 -0.01,0.01 -0,0 -0.01,0.01 -0.01,0.02 -0.01,0.02 -0.01,0.04 0,0.05 0.01,0.01 0.02,0.01 0.03,-0 0.01,-0 0.01,-0.01 0.02,-0.02l0 -0c-0,0.01 -0,0.02 0,0.02 0,0.01 0.01,0.01 0.02,0.01 0,0 0,-0 0.01,-0 0.01,-0 0.01,-0.01 0.02,-0.01l0 -0c0.01,-0.01 0.02,-0.01 0.03,-0.02l0.01 -0c-0,0.01 -0,0.01 0,0.02 0,0.01 0.01,0.01 0.02,0.01 0.01,0 0.02,-0.01 0.02,-0.02 0,-0 0,-0.01 -0,-0.01 0,-0 0,-0 0,-0l0 -0.01c0,-0 0,-0.01 0,-0.01 0,-0.01 0,-0.02 0,-0.02 -0,-0.01 -0,-0.01 -0.01,-0.02 -0.01,-0 -0.01,-0.01 -0.02,-0z"/>
   <path class="fil0" d="M2.57 2.44c-0,-0 -0,-0.01 -0,-0.01 -0,-0 -0,-0.02 -0,-0.02 0,-0.01 0,-0.01 0,-0.02 -0,-0.01 0,-0.02 0,-0.03 0,-0.01 0,-0.03 0,-0.04 -0,-0.04 -0,-0.08 0,-0.12l0 -1.24c0,-0.01 0,-0.03 0,-0.04 0,-0.04 0,-0.09 -0.01,-0.13 -0,-0.01 -0.01,-0.02 -0.03,-0.02 -0.05,-0 -0.1,-0 -0.15,-0 -0.03,0 -0.07,0 -0.1,0 -0.02,0 -0.04,0 -0.06,-0 -0.03,-0 -0.06,-0 -0.09,-0 -0.02,0 -0.03,-0 -0.05,-0 -0.01,-0 -0.03,-0 -0.04,-0 -0.04,-0 -0.09,-0 -0.13,-0 -0.02,0 -0.04,0 -0.07,0 -0.02,0 -0.05,-0 -0.07,-0 -0.01,-0 -0.03,-0 -0.04,-0l0 -0.18 0 -0.04c0,-0.02 -0,-0.05 0,-0.07 0,-0.02 -0,-0.04 -0,-0.06 -0,-0.01 -0,-0.02 -0,-0.03 -0,-0 -0,-0.01 -0,-0.01 0,-0.01 0,-0.02 -0,-0.03 -0,-0 -0,-0.01 -0,-0.01 -0,-0.01 -0,-0.02 -0,-0.02l-0 -0.02c-0,-0.02 -0,-0.04 -0,-0.07 0,-0.02 -0,-0.03 -0,-0.05 -0,-0.02 -0,-0.04 -0,-0.05 0,-0.01 0,-0.02 -0,-0.02 -0.01,-0.03 -0.05,-0.03 -0.07,-0.03 -0.03,-0 -0.05,-0 -0.08,0 -0.05,0 -0.09,0 -0.14,0 -0.06,0 -0.12,0 -0.18,-0 -0.01,-0 -0.01,-0 -0.02,-0 -0.01,-0 -0.02,-0 -0.03,-0 -0.01,-0 -0.02,-0 -0.03,0 -0.01,0 -0.02,0 -0.03,0 -0.04,-0 -0.09,-0.01 -0.13,-0.01 -0.08,-0.02 -0.16,-0.02 -0.26,-0.02 -0.03,-0 -0.05,-0 -0.08,-0 -0.01,0 -0.02,0 -0.02,0.01 -0.01,0.01 -0.01,0.01 -0.01,0.02l-0 0.01c0,0.01 -0,0.01 0,0.02 0,0.01 0,0.02 0,0.03 0,0.01 0,0.01 0,0.02 0,0.03 0,0.05 0,0.08 -0,0.01 -0,0.03 -0,0.04l0 0.66c-0.02,-0 -0.03,-0 -0.05,-0 -0.01,0 -0.02,0 -0.03,0l-0.24 -0c-0.03,-0 -0.07,-0 -0.1,0 -0.01,0 -0.02,0 -0.03,0 -0.01,0 -0.01,0 -0.02,0 -0.01,-0 -0.03,-0 -0.04,-0l-0.04 0 -0 -0c-0.01,-0 -0.02,-0 -0.03,0 -0.03,0.01 -0.03,0.05 -0.03,0.06l0 0c0,0 -0,0.01 -0,0.01 -0,0.01 -0,0.02 0,0.04 0,0.01 0,0.01 0,0.02 0,0.01 0,0.02 0.01,0.03 0,0.01 0,0.02 0,0.03 0,0.01 0,0.02 0,0.03 0,0.01 0,0.02 0.01,0.04 0,0.01 0,0.02 0.01,0.03 0,0.01 0,0.03 0,0.04 0,0.02 0,0.03 0.01,0.04 0,0.01 0,0.01 0,0.02 0.01,0.06 0.01,0.12 0.01,0.18l0 1c0,0 0,0.01 0,0.01 -0.02,0 -0.05,0 -0.07,0.02 -0.03,0.02 -0.03,0.07 -0,0.09 0.01,0.01 0.03,0.02 0.05,0.02 0.01,0 0.02,-0 0.03,-0.01 0,0 0,0 0,0 0.01,-0 0.01,-0 0.02,0l1.04 0c0.02,0 0.03,0 0.05,0 0.04,0 0.09,0 0.14,-0 0.02,-0 0.05,-0 0.08,-0 0.01,0 0.03,0 0.04,0l0.07 -0c0.04,0 0.08,-0 0.12,0 0.01,-0 0.03,-0 0.04,-0 0.01,-0 0.01,-0 0.02,-0 0.01,-0 0.02,-0 0.03,-0l0.04 0c0.04,0 0.09,0 0.13,-0 0.03,-0 0.06,-0 0.1,-0 0.01,-0 0.02,-0 0.03,-0 0.01,-0 0.01,-0 0.02,-0l0.03 0c0.01,0 0.02,-0 0.04,-0 0.01,-0 0.01,-0 0.02,-0 0,0 0.01,0 0.01,0 0.01,0 0.01,0 0.02,0 0.01,-0 0.02,-0 0.03,-0 0.01,-0 0.01,-0 0.02,-0 0.03,0 0.06,0 0.09,-0.01 0.02,-0 0.05,-0 0.07,-0 0.01,0 0.02,0 0.03,0l0.16 0c0.04,0 0.06,-0.03 0.06,-0.06 0,-0.03 -0.03,-0.06 -0.06,-0.06zm-2.12 0.01l0 0c-0,0 -0,-0 -0,-0 -0,-0 -0,-0 -0.01,-0l-0.01 0c-0.01,0 -0.01,0 -0.02,-0 -0.01,-0 -0.02,-0 -0.03,-0l-0.01 -0c-0.01,-0 -0.02,-0 -0.03,0 -0,0 -0,0 -0.01,0 -0,0 -0.01,0 -0.01,0 -0,0 -0.01,0 -0.01,0 -0,0 -0,0 -0.01,0l-0.01 0c-0.01,0 -0.02,0.01 -0.03,0 0,0 -0,-0 -0,-0 -0,-0 -0,-0.01 -0.01,-0.01 -0,-0 -0,-0 -0,-0 -0,-0 -0,-0.01 -0,-0.01 -0,-0.01 -0,-0.01 -0.01,-0.02 -0,-0 -0,-0.01 -0,-0.01 -0,-0 -0,-0.01 -0,-0.01 -0,-0.01 -0,-0.02 -0,-0.03 0,-0 0,-0.01 0,-0.01 -0,-0.01 0,-0.03 0,-0.04l0 -0.02c0,-0.01 0,-0.01 0,-0.02l0 -0c0,-0 0,-0 0,-0 0.02,-0.01 0.05,-0.01 0.08,-0.01l0.08 0c0,-0 0.01,-0 0.01,0l0 0c0,0 0,0 0,0 0,0 0,0.01 0,0.01 0,0 0,0 0,0.01 0,0.01 0,0.01 0,0.02 0,0 0,0 0,0.01 0,0 0,0.01 0,0.01 0,0.01 0,0.01 0,0.02l0 0.01c0,0.01 0,0.01 0,0.02 0,0 0,0.01 0,0.01 0,0 0,0 0,0.01 0,0 0,0.01 0,0.01 0,0 0,0.01 0,0.01l0 0.01c0,0.01 0,0.02 0,0.03 -0,0 -0,0 -0,0zm0.2 -1.38l0 0 -0 0c-0,0.01 -0.01,0.01 -0.01,0.03 -0,0.01 0,0.02 0,0.02 0,0.01 0,0.02 -0,0.02 -0,0 -0,0 -0,0.01 -0,0.01 -0,0.01 -0,0.02 -0,0.01 -0,0.02 -0,0.03 -0,0.01 -0,0.01 -0,0.02 -0,0.01 -0,0.02 -0,0.03l0 0c0,0.02 0,0.04 0,0.05l0 0.28 -0 0.01c-0,0.01 -0,0.03 0,0.04 0,0.01 0,0.02 0,0.03l-0 0.03c-0,0.04 -0,0.09 0,0.13 0,0.01 0,0.03 0,0.04 -0,0.01 -0,0.02 -0,0.02l0 0.31c-0.01,0.04 -0.01,0.08 -0.01,0.12 0,0.01 0,0.02 0,0.03l0 0.11c0,0.01 0,0.01 0,0.02 0,0 0,0 0,0.01l-0.15 0c0,-0 0,-0 0,-0.01 0,-0.02 0,-0.04 -0,-0.05l-0 -0.01c-0,-0 -0,-0.01 -0,-0.01 -0,-0 -0,-0 -0,-0.01 0,-0 0,-0.01 -0,-0.01 -0,-0 -0,-0.01 -0,-0.01 -0,-0.01 -0,-0.01 -0,-0.02l-0 -0.01c-0,-0.01 -0,-0.02 -0,-0.02 -0,-0 -0,-0 -0,-0.01 0,-0.01 -0,-0.01 -0,-0.02 -0,-0 -0,-0.01 -0,-0.01 0,-0 -0,-0.01 -0,-0.01 -0,-0 -0,-0.01 0,-0.01 0,-0.01 0,-0.02 -0,-0.02 -0.01,-0.01 -0.02,-0.01 -0.03,-0.01l-0 -0c-0.01,-0 -0.01,-0 -0.02,-0l-0.08 0c-0.04,0 -0.08,0 -0.11,0.01 -0.01,0 -0.01,0.01 -0.01,0.01 -0,0.01 -0,0.02 -0,0.02l0 0c-0,0 -0,0.01 -0,0.01 -0,0 -0,0.01 -0,0.01l-0 0.01c-0,0.01 -0,0.03 -0,0.05 0,0 -0,0.01 -0,0.01 -0,0.01 -0,0.02 0,0.04l0 0.01c0,0.01 0,0.01 0,0.02 0,0.01 0,0.02 0.01,0.03 0,0 0,0.01 0.01,0.02l-0.01 0 -0.07 0c0,-0 0,-0 0,-0 -0,-0 -0,-0.01 -0,-0.01l0 -1c-0,-0.06 -0,-0.12 -0.01,-0.19 -0,-0.01 -0,-0.01 -0,-0.02 -0,-0.01 -0,-0.02 -0.01,-0.03 -0,-0.02 -0,-0.03 -0,-0.05 -0,-0.01 -0,-0.02 -0,-0.03 -0,-0.01 -0,-0.02 -0.01,-0.04 -0,-0.01 -0,-0.02 -0,-0.02 -0,-0.01 -0,-0.03 -0.01,-0.04 -0,-0.01 -0,-0.02 -0,-0.02 -0,-0.01 -0,-0.01 -0,-0.02 -0,-0.01 -0,-0.02 -0,-0.03 0,-0 0,-0.01 0,-0.01 -0,-0 -0,-0 -0,-0l0.04 0c0.01,-0 0.03,-0 0.04,0 0.01,0 0.02,-0 0.03,-0 0.01,-0 0.01,-0 0.02,-0 0.03,-0 0.07,-0 0.1,-0l0.24 0c0.01,0 0.02,-0 0.03,-0 0.02,-0 0.03,-0 0.05,0l0 0.13zm1.04 1.39l0 0c-0.01,0 -0.02,0 -0.03,0 -0.01,0 -0.02,0 -0.03,0 -0.04,-0 -0.08,-0 -0.12,0l-0.07 0c-0.01,0 -0.02,-0 -0.04,-0 -0.03,-0 -0.06,-0 -0.09,0 -0.04,0 -0.08,0 -0.12,0 -0.02,-0 -0.03,-0 -0.05,-0l-0.43 0c-0,-0 -0,-0.01 -0,-0.01 0,-0.01 0,-0.01 -0,-0.02 -0,-0.01 -0,-0.01 -0,-0.02l-0 -0.01c-0,-0.01 -0,-0.02 -0,-0.02 -0,-0.01 -0,-0.01 -0,-0.02 -0,-0.01 -0,-0.02 0,-0.03 0,-0.01 0,-0.01 0,-0.02l0 -0.14 0 -0.01c0,-0.02 0.01,-0.04 0.01,-0.06 -0,-0.02 -0,-0.05 -0,-0.07l0 -0.98c0,-0.01 0,-0.01 0,-0.02 0,-0 0,-0.01 0,-0.01 0,-0.01 0,-0.02 0,-0.02 0,-0.01 0,-0.01 0,-0.02 0,-0.02 0.01,-0.04 -0,-0.09 -0,-0.01 -0,-0.01 -0.01,-0.01l0 -0.67c0,-0.01 0,-0.03 0,-0.04 0,-0.03 0,-0.06 -0,-0.08 -0,-0.01 -0,-0.02 -0,-0.02 -0,-0 -0,-0.01 -0,-0.01 0.02,0 0.03,0 0.05,0 0.1,0 0.18,0.01 0.25,0.02 0.04,0.01 0.09,0.01 0.14,0.02 0.01,0 0.02,0 0.03,-0 0.01,-0 0.02,-0 0.03,-0 0.01,0 0.01,0 0.02,0 0.01,0 0.02,0 0.03,0 0.06,0 0.12,0 0.18,0 0.05,-0 0.09,-0 0.14,-0 0.03,-0 0.05,-0 0.08,0 0,0 0,0 0,0 0,0 0,0 0.01,0 -0,0.02 0,0.04 0,0.06 0,0.02 0,0.03 0,0.04 -0,0.03 0,0.05 0,0.07l0 0.02c0,0.01 0,0.02 0.01,0.03 0,0 0,0.01 0,0.01 0,0.01 0,0.01 0,0.02 -0,0.01 -0,0.01 0,0.02 0,0.01 0,0.02 0,0.03 0,0.02 0,0.03 0,0.05 0,0.02 0,0.05 0,0.07l0 0.23c-0,0 -0,0 -0,0 -0.01,0.02 -0.01,0.05 -0.01,0.07 -0,0 0,0.01 -0,0.01 -0.01,0.03 -0.01,0.06 -0.01,0.08l0 0.92c0,0.01 -0,0.01 -0,0.02 -0,0.02 -0,0.04 0,0.06l0 0.01c0,0.02 0.01,0.03 0.01,0.04 0,0.01 0,0.01 0,0.02 0,0.01 0,0.01 0,0.02l-0 0.03 0 0.07 0 0.03 0 0.02c0,0.02 0,0.03 0,0.05 -0,0.01 0,0.03 0,0.04 0,0.01 0,0.02 0,0.03 -0,0 0,0.01 0,0.01 0,0.02 0,0.04 -0,0.06 0,0.04 0,0.07 0.01,0.1 -0,0 -0.01,0 -0.01,0zm0.82 -1.55l0 0c-0,0.01 -0,0.03 -0,0.04l0 1.24c-0,0.04 -0,0.08 0,0.12 0,0.01 -0,0.02 -0,0.03 -0,0.01 -0,0.03 -0,0.04 0,0 -0,0.01 -0,0.01 -0,0.01 -0,0.01 -0,0.02l-0 0c-0.02,0 -0.03,0 -0.05,0l-0.01 -0c-0.01,0 -0.02,0 -0.03,0 -0,0 -0.01,0 -0.01,0l-0.02 0c-0.01,0 -0.01,0 -0.02,0 -0.01,-0 -0.01,-0 -0.02,-0 -0.01,-0 -0.01,-0 -0.02,-0 -0.01,-0 -0.02,-0 -0.03,0 -0.01,0 -0.01,0 -0.02,0 -0.01,-0 -0.01,-0 -0.02,-0 -0.01,-0 -0.02,-0 -0.03,-0 -0.03,0 -0.06,0 -0.09,0l-0.35 -0c-0.01,-0 -0.02,-0 -0.03,0 0,-0.01 0,-0.02 0,-0.03 0,-0.01 0,-0.01 0,-0.02 -0,-0.02 -0,-0.03 -0.01,-0.04 -0,-0.01 -0,-0.02 -0,-0.02 0,-0.02 0,-0.03 0,-0.05l0 -1.44c0.01,0 0.03,0 0.04,0 0.02,0 0.05,0 0.07,0 0.02,0 0.05,-0 0.07,-0 0.04,-0 0.08,-0 0.13,0 0.01,0 0.02,0 0.04,0 0.02,0 0.04,0 0.05,0 0.03,-0 0.05,-0 0.08,0 0.02,0 0.05,0 0.07,0 0.03,-0 0.07,-0 0.1,-0 0.04,-0 0.08,-0 0.12,-0 0,0.03 0,0.06 0,0.08z"/>
   <path class="fil0" d="M2.08 1.1l0 -0.1c0,-0.01 0,-0.01 0,-0.02 -0,-0.01 -0,-0.04 -0.04,-0.04 -0.01,-0 -0.01,0 -0.02,0l-0.01 0c-0,0 -0.01,0 -0.01,0 -0.01,0 -0.02,0 -0.02,-0 -0.02,-0 -0.03,-0 -0.05,-0 -0.01,0 -0.02,0 -0.02,-0 -0,-0 -0.01,-0 -0.02,-0 -0.01,0 -0.01,0 -0.04,-0 -0.01,-0 -0.02,0 -0.02,0.01 -0.01,0 -0.01,0.01 -0.01,0.02 -0,0.02 -0,0.05 -0,0.07l0 0.03c0,0.01 0,0.02 -0,0.03 0,0 -0,0 -0,0.01 -0,0.01 -0,0.01 -0,0.02l0 0.01c0,0 0,0.01 -0,0.01 -0,0.01 0,0.02 0.01,0.03 0.01,0.01 0.03,0.01 0.05,0.01l0.01 0c0.01,0 0.02,0 0.03,0l0.13 -0c0,0 0,0 0.01,-0 0,0 0.01,0 0.01,0 0,0 0,-0 0,-0 0.04,-0 0.03,-0.05 0.03,-0.07 -0,-0 -0,-0.01 -0,-0.01zm-0.18 0.01l0 0c-0.01,0 -0.02,0 -0.02,-0l-0 -0c0,-0 0,-0 0,-0 0,-0 0,-0.01 0,-0.02 0,-0.01 0,-0.02 0,-0.03l-0 -0.03c-0,-0.01 -0,-0.02 0,-0.03 0.01,0 0.01,0 0.02,0 0,0 0.01,0 0.01,0 0.01,0 0.02,0 0.03,0 0.01,-0 0.03,-0 0.04,0 0.01,0 0.02,0 0.03,0 0,-0 0.01,-0 0.01,-0l0.01 -0 0 0.09c0,0 0,0.01 0,0.01 0,0 0,0 0,0l-0.12 0z"/>
   <path class="fil0" d="M2.41 1.1l0 -0.1c0,-0.01 0,-0.01 0,-0.02 -0,-0.01 -0,-0.04 -0.04,-0.04 -0.01,-0 -0.01,0 -0.02,0l-0.01 0c-0,0 -0.01,0 -0.01,0 -0.01,0 -0.02,0 -0.02,-0 -0.02,-0 -0.03,-0 -0.05,-0 -0.01,0 -0.02,0 -0.02,-0 -0,-0 -0.01,-0 -0.02,-0 -0.01,0 -0.01,0 -0.04,-0 -0.01,-0 -0.02,0 -0.02,0.01 -0.01,0 -0.01,0.01 -0.01,0.02 -0,0.02 -0,0.05 -0,0.07l0 0.03c0,0.01 0,0.02 0,0.03 -0,0 -0,0 -0,0.01 -0,0.01 -0,0.01 -0,0.02l-0 0.01c0,0 0,0.01 -0,0.01 -0,0.01 0,0.02 0.01,0.03 0.01,0.01 0.03,0.01 0.05,0.01l0.01 0c0.01,0 0.02,0 0.03,0l0.13 -0c0,0 0,0 0.01,-0 0,0 0.01,0 0.01,0 0,0 0,-0 0,-0 0.04,-0 0.03,-0.05 0.03,-0.07 -0,-0 -0,-0.01 -0,-0.01zm-0.18 0.01l0 0c-0.01,0 -0.02,0 -0.02,-0l-0 -0c0,-0 0,-0 0,-0 0,-0 0,-0.01 0,-0.02 0,-0.01 0,-0.02 0,-0.03l-0 -0.03c0,-0.01 -0,-0.02 0,-0.03 0.01,0 0.01,0 0.02,0 0,0 0.01,0 0.01,0 0.01,0 0.02,0 0.03,0 0.01,-0 0.03,-0 0.04,0 0.01,0 0.02,0 0.03,0 0,-0 0.01,-0 0.01,-0l0.01 -0 0 0.09c0,0 0,0.01 0,0.01 0,0 0,0 0,0l-0.12 0z"/>
   <path class="fil0" d="M2.08 1.38l0 -0.1c0,-0.01 0,-0.01 0,-0.02 -0,-0.01 -0,-0.04 -0.04,-0.04 -0.01,-0 -0.01,0 -0.02,0l-0.01 0c-0,0 -0.01,0 -0.01,0 -0.01,0 -0.02,0 -0.02,-0 -0.02,-0 -0.03,-0 -0.05,-0 -0.01,0 -0.02,0 -0.02,-0 -0,-0 -0.01,-0 -0.02,-0 -0.01,0 -0.01,0 -0.04,-0 -0.01,-0 -0.02,0 -0.02,0.01 -0.01,0 -0.01,0.01 -0.01,0.02 -0,0.02 -0,0.05 -0,0.07l0 0.03c0,0.01 0,0.02 -0,0.03 0,0 -0,0 -0,0.01 -0,0.01 -0,0.01 -0,0.02l0 0.01c0,0 0,0.01 -0,0.01 -0,0.01 0,0.02 0.01,0.03 0.01,0.01 0.03,0.01 0.05,0.01l0.01 0c0.01,0 0.02,0 0.03,0l0.13 -0c0,0 0,0 0.01,-0 0,0 0.01,0 0.01,0 0,0 0,-0 0,-0 0.04,-0 0.03,-0.05 0.03,-0.07 -0,-0 -0,-0.01 -0,-0.01zm-0.14 0.01l0 0 -0.04 -0 -0.01 0c-0.01,0 -0.02,0 -0.02,-0l-0 -0c0,-0 0,-0 0,-0 0,-0 0,-0.01 0,-0.02 0,-0.01 0,-0.02 0,-0.03l-0 -0.03c-0,-0.01 -0,-0.02 0,-0.03 0.01,0 0.01,0 0.02,0 0,0 0.01,0 0.01,0 0.01,0 0.02,0 0.03,0 0.01,-0 0.03,-0 0.04,0 0.01,0 0.02,0 0.03,0 0,-0 0.01,-0 0.01,-0l0.01 0 0 0.09c0,0 0,0.01 0,0.01 0,0 0,0 0,0l-0.08 0z"/>
   <path class="fil0" d="M2.41 1.38l0 -0.1c0,-0.01 0,-0.01 0,-0.02 -0,-0.01 -0,-0.04 -0.04,-0.04 -0.01,-0 -0.01,0 -0.02,0l-0.01 0c-0,0 -0.01,0 -0.01,0 -0.01,0 -0.02,0 -0.02,-0 -0.02,-0 -0.03,-0 -0.05,-0 -0.01,0 -0.02,0 -0.02,-0 -0,-0 -0.01,-0 -0.02,-0 -0.01,0 -0.01,0 -0.04,-0 -0.01,-0 -0.02,0 -0.02,0.01 -0.01,0 -0.01,0.01 -0.01,0.02 -0,0.02 -0,0.05 -0,0.07l0 0.03c0,0.01 0,0.02 0,0.03 -0,0 -0,0 -0,0.01 -0,0.01 -0,0.01 -0,0.02l-0 0.01c0,0 0,0.01 -0,0.01 -0,0.01 0,0.02 0.01,0.03 0.01,0.01 0.03,0.01 0.05,0.01l0.01 0c0.01,0 0.02,0 0.03,0l0.13 -0c0,0 0,0 0.01,-0 0,0 0.01,0 0.01,0 0,0 0,-0 0,-0 0.04,-0 0.03,-0.05 0.03,-0.07 -0,-0 -0,-0.01 -0,-0.01zm-0.14 0.01l0 0 -0.04 -0 -0.01 0c-0.01,0 -0.02,0 -0.02,-0l-0 -0c0,-0 0,-0 0,-0 0,-0 0,-0.01 0,-0.02 0,-0.01 0,-0.02 0,-0.03l-0 -0.03c0,-0.01 -0,-0.02 0,-0.03 0.01,0 0.01,0 0.02,0 0,0 0.01,0 0.01,0 0.01,0 0.02,0 0.03,0 0.01,-0 0.03,-0 0.04,0 0.01,0 0.02,0 0.03,0 0,-0 0.01,-0 0.01,-0l0.01 0 0 0.09c0,0 0,0.01 0,0.01 0,0 0,0 0,0l-0.08 0z"/>
   <path class="fil0" d="M2.08 1.66l0 -0.1c0,-0.01 0,-0.01 0,-0.02 -0,-0.01 -0,-0.04 -0.04,-0.04 -0.01,-0 -0.01,0 -0.02,0l-0.01 0c-0,0 -0.01,0 -0.01,0 -0.01,0 -0.02,0 -0.02,-0 -0.02,-0 -0.03,-0 -0.05,-0 -0.01,0 -0.02,0 -0.02,-0 -0,-0 -0.01,-0 -0.02,-0 -0.01,-0 -0.01,0 -0.04,-0 -0.01,-0 -0.02,0 -0.02,0.01 -0.01,0 -0.01,0.01 -0.01,0.02 -0,0.02 -0,0.05 -0,0.07l0 0.03c0,0.01 0,0.02 -0,0.03 0,0 -0,0 -0,0.01 -0,0.01 -0,0.01 -0,0.02l0 0.01c0,0 0,0.01 -0,0.01 -0,0.01 0,0.02 0.01,0.03 0.01,0.01 0.03,0.01 0.05,0.01l0.01 0c0.01,0 0.02,0 0.03,0l0.13 0c0,0 0,-0 0.01,-0 0,0 0.01,0 0.01,0 0,0 0,-0 0,-0 0.04,-0 0.03,-0.05 0.03,-0.07 -0,-0 -0,-0.01 -0,-0.01zm-0.14 0.01l0 0 -0.04 -0 -0.01 0c-0.01,0 -0.02,0 -0.02,-0l-0 -0c0,-0 0,-0 0,-0 0,-0 0,-0.01 0,-0.02 0,-0.01 0,-0.02 0,-0.03l-0 -0.03c-0,-0.01 -0,-0.02 0,-0.03 0.01,0 0.01,0 0.02,0 0,0 0.01,0 0.01,0 0.01,0 0.02,0 0.03,0 0.01,-0 0.03,-0 0.04,0 0.01,0 0.02,0 0.03,0 0,-0 0.01,-0 0.01,-0l0.01 0 0 0.09c0,0 0,0.01 0,0.01 0,0 0,0 0,0l-0.08 0z"/>
   <path class="fil0" d="M2.41 1.66l0 -0.1c0,-0.01 0,-0.01 0,-0.02 -0,-0.01 -0,-0.04 -0.04,-0.04 -0.01,-0 -0.01,0 -0.02,0l-0.01 0c-0,0 -0.01,0 -0.01,0 -0.01,0 -0.02,0 -0.02,-0 -0.02,-0 -0.03,-0 -0.05,-0 -0.01,0 -0.02,0 -0.02,-0 -0,-0 -0.01,-0 -0.02,-0 -0.01,0 -0.01,0 -0.04,-0 -0.01,-0 -0.02,0 -0.02,0.01 -0.01,0 -0.01,0.01 -0.01,0.02 -0,0.02 -0,0.05 -0,0.07l0 0.03c0,0.01 0,0.02 0,0.03 -0,0 -0,0 -0,0.01 -0,0.01 -0,0.01 -0,0.02l-0 0.01c0,0 0,0.01 -0,0.01 -0,0.01 0,0.02 0.01,0.03 0.01,0.01 0.03,0.01 0.05,0.01l0.01 0c0.01,0 0.02,0 0.03,0l0.13 0c0,0 0,-0 0.01,-0 0,0 0.01,0 0.01,0 0,0 0,-0 0,-0 0.04,-0 0.03,-0.05 0.03,-0.07 -0,-0 -0,-0.01 -0,-0.01zm-0.14 0.01l0 0 -0.04 -0 -0.01 0c-0.01,0 -0.02,0 -0.02,-0l-0 -0c0,-0 0,-0 0,-0 0,-0 0,-0.01 0,-0.02 0,-0.01 0,-0.02 0,-0.03l-0 -0.03c0,-0.01 -0,-0.02 0,-0.03 0.01,0 0.01,0 0.02,0 0,0 0.01,0 0.01,0 0.01,0 0.02,0 0.03,0 0.01,-0 0.03,-0 0.04,0 0.01,0 0.02,0 0.03,0 0,-0 0.01,-0 0.01,-0l0.01 0 0 0.09c0,0 0,0.01 0,0.01 0,0 0,0 0,0l-0.08 0z"/>
   <path class="fil0" d="M2.08 1.93l0 -0.1c0,-0.01 0,-0.01 0,-0.02 -0,-0.01 -0,-0.04 -0.04,-0.04 -0.01,-0 -0.01,0 -0.02,0l-0.01 0c-0,0 -0.01,0 -0.01,0 -0.01,0 -0.02,0 -0.02,-0 -0.01,-0 -0.03,-0 -0.05,-0 -0.01,0 -0.02,0 -0.02,-0 -0,-0 -0.01,-0 -0.02,-0 -0.01,-0 -0.01,0 -0.04,-0 -0.01,-0 -0.02,0 -0.02,0.01 -0.01,0 -0.01,0.01 -0.01,0.02 -0,0.02 -0,0.05 -0,0.07l0 0.03c0,0.01 0,0.02 -0,0.03 0,0 -0,0 -0,0.01 -0,0.01 -0,0.01 -0,0.02l0 0.01c0,0 0,0.01 -0,0.01 -0,0.01 0,0.02 0.01,0.03 0.01,0.01 0.03,0.01 0.05,0.01l0.01 0c0.01,0 0.02,0 0.03,0l0.01 0 0.05 0 0.02 0 0.04 0c0,0 0,-0 0.01,-0 0,0 0.01,0 0.01,0 0,0 0,-0 0,-0 0.04,-0 0.03,-0.05 0.03,-0.07 -0,-0 -0,-0.01 -0,-0.01zm-0.17 0.01l0 0 -0.01 0c-0.01,0 -0.02,0 -0.02,-0l-0 -0c0,-0 0,-0 0,-0.01 0,-0 0,-0.01 0,-0.02 0,-0.01 0,-0.02 0,-0.03l-0 -0.03c-0,-0.01 -0,-0.02 0,-0.03 0.01,0 0.01,0 0.02,0 0,0 0.01,0 0.01,0 0.01,0 0.02,0 0.03,0 0.01,-0 0.03,-0 0.04,0 0.01,0 0.02,0 0.03,0 0,-0 0.01,-0 0.01,-0l0.01 0 0 0.09c0,0 0,0.01 0,0.01 0,0 0,0 0,0l-0.11 0z"/>
   <path class="fil0" d="M2.41 1.93l0 -0.1c0,-0.01 0,-0.01 0,-0.02 -0,-0.01 -0,-0.04 -0.04,-0.04 -0.01,-0 -0.01,0 -0.02,0l-0.01 0c-0,0 -0.01,0 -0.01,0 -0.01,0 -0.02,0 -0.02,-0 -0.02,-0 -0.03,-0 -0.05,-0 -0.01,0 -0.02,0 -0.02,-0 -0,-0 -0.01,-0 -0.02,-0 -0.01,-0 -0.01,0 -0.04,-0 -0.01,-0 -0.02,0 -0.02,0.01 -0.01,0 -0.01,0.01 -0.01,0.02 -0,0.02 -0,0.05 -0,0.07l0 0.03c0,0.01 0,0.02 0,0.03 -0,0 -0,0 -0,0.01 -0,0.01 -0,0.01 -0,0.02l-0 0.01c0,0 0,0.01 -0,0.01 -0,0.01 0,0.02 0.01,0.03 0.01,0.01 0.03,0.01 0.05,0.01l0.01 0c0.01,0 0.02,0 0.03,0l0.01 0 0.05 0 0.02 0 0.04 0c0,0 0,-0 0.01,-0 0,0 0.01,0 0.01,0 0,0 0,-0 0,-0 0.04,-0 0.03,-0.05 0.03,-0.07 -0,-0 -0,-0.01 -0,-0.01zm-0.17 0.01l0 0 -0.01 0c-0.01,0 -0.02,0 -0.02,-0l-0 -0c0,-0 0,-0 0,-0.01 0,-0 0,-0.01 0,-0.02 0,-0.01 0,-0.02 0,-0.03l-0 -0.03c0,-0.01 -0,-0.02 0,-0.03 0.01,0 0.01,0 0.02,0 0,0 0.01,0 0.01,0 0.01,0 0.02,0 0.03,0 0.01,-0 0.03,-0 0.04,0 0.01,0 0.02,0 0.03,0 0,-0 0.01,-0 0.01,-0l0.01 0 0 0.09c0,0 0,0.01 0,0.01 0,0 0,0 0,0l-0.11 0z"/>
   <path class="fil0" d="M2.08 2.21l0 -0.1c0,-0.01 0,-0.01 0,-0.02 -0,-0.01 -0,-0.04 -0.04,-0.04 -0.01,-0 -0.01,0 -0.02,0l-0.01 0c-0,0 -0.01,0 -0.01,0 -0.01,0 -0.02,0 -0.02,-0 -0.02,-0 -0.03,-0 -0.05,-0 -0.01,0 -0.02,0 -0.02,-0 -0,-0 -0.01,-0 -0.02,-0 -0.01,0 -0.01,0 -0.04,-0 -0.01,-0 -0.02,0 -0.02,0.01 -0.01,0 -0.01,0.01 -0.01,0.02 -0,0.02 -0,0.05 -0,0.07l0 0.03c0,0.01 0,0.02 -0,0.03 0,0 -0,0.01 -0,0.01 -0,0.01 -0,0.01 -0,0.02l0 0.01c0,0 0,0.01 -0,0.01 -0,0.01 0,0.02 0.01,0.03 0.01,0.01 0.03,0.01 0.05,0.01l0.01 0c0.01,0 0.02,0 0.03,0l0.09 0 0.04 0c0,0 0,-0 0.01,-0 0,0 0.01,0 0.01,0 0,0 0,0 0,-0 0.04,-0 0.03,-0.05 0.03,-0.07 -0,-0 -0,-0.01 -0,-0.01zm-0.18 0.01l0 0c-0.01,0 -0.02,0 -0.02,-0l-0 -0c0,-0 0,-0 0,-0.01 0,-0 0,-0.01 0,-0.02 0,-0.01 0,-0.02 0,-0.03l-0 -0.03c-0,-0.01 -0,-0.02 0,-0.03 0.01,0 0.01,0 0.02,0 0,0 0.01,0 0.01,0 0.01,0 0.02,0 0.03,0 0.01,-0 0.03,-0 0.04,0 0.01,0 0.02,0 0.03,0 0,-0 0.01,-0 0.01,-0l0.01 -0 0 0.09c0,0 0,0.01 0,0.01 0,0 0,0 0,0l-0.12 0z"/>
   <path class="fil0" d="M2.41 2.21l0 -0.1c0,-0.01 0,-0.01 0,-0.02 -0,-0.01 -0,-0.04 -0.04,-0.04 -0.01,-0 -0.01,0 -0.02,0l-0.01 0c-0,0 -0.01,0 -0.01,0 -0.01,0 -0.02,0 -0.02,-0 -0.02,-0 -0.03,-0 -0.05,-0 -0.01,0 -0.02,0 -0.02,-0 -0,-0 -0.01,-0 -0.02,-0 -0.01,0 -0.01,0 -0.04,-0 -0.01,-0 -0.02,0 -0.02,0.01 -0.01,0 -0.01,0.01 -0.01,0.02 -0,0.02 -0,0.05 -0,0.07l0 0.03c0,0.01 0,0.02 0,0.03 -0,0 -0,0.01 -0,0.01 -0,0.01 -0,0.01 -0,0.02l-0 0.01c0,0 0,0.01 -0,0.01 -0,0.01 0,0.02 0.01,0.03 0.01,0.01 0.03,0.01 0.05,0.01l0.01 0c0.01,0 0.02,0 0.03,0l0.09 0 0.04 0c0,0 0,-0 0.01,-0 0,0 0.01,0 0.01,0 0,0 0,0 0,-0 0.04,-0 0.03,-0.05 0.03,-0.07 -0,-0 -0,-0.01 -0,-0.01zm-0.18 0.01l0 0c-0.01,0 -0.02,0 -0.02,-0l-0 -0c0,-0 0,-0 0,-0.01 0,-0 0,-0.01 0,-0.02 0,-0.01 0,-0.02 0,-0.03l-0 -0.03c0,-0.01 -0,-0.02 0,-0.03 0.01,0 0.01,0 0.02,0 0,0 0.01,0 0.01,0 0.01,0 0.02,0 0.03,0 0.01,-0 0.03,-0 0.04,0 0.01,0 0.02,0 0.03,0 0,-0 0.01,-0 0.01,-0l0.01 -0 0 0.09c0,0 0,0.01 0,0.01 0,0 0,0 0,0l-0.12 0z"/>
   <path class="fil0" d="M0.2 1.21c0,0.01 0,0.01 0,0.02 0,0.01 0,0.02 0.01,0.03 0,0 0,0.01 0.01,0.02 0,0 0,0.01 0.01,0.01 0,0 0,0.01 0.01,0.01 0.01,0.01 0.02,0.01 0.02,0.01 0.01,0 0.02,0 0.02,0 0.01,0 0.03,-0 0.04,-0.01l0.01 -0c0,-0 0.01,-0 0.01,-0 0,-0 0,-0 0,-0 0,-0 0.01,-0 0.01,-0 0,-0 0.01,-0 0.01,-0 0.01,-0 0.01,-0 0.02,-0l0.01 0c0.01,0 0.02,0 0.02,0 0.01,0 0.02,0 0.03,0l0.01 0c0.01,0 0.02,0 0.03,-0.01 0,-0 0.01,-0.01 0.01,-0.01 0.01,-0 0.01,-0.01 0.01,-0.02 0,-0.02 0,-0.04 -0,-0.06l-0 -0.01c-0,-0 -0,-0.01 -0,-0.01 -0,-0 0,-0 0,-0 0,-0 -0,-0.01 -0,-0.01 -0,-0.01 -0,-0.01 -0,-0.02 -0,-0 -0,-0.01 -0,-0.01l-0 -0.01c-0,-0.01 -0,-0.02 -0,-0.02 -0,-0 -0,-0 -0,-0.01 -0,-0.01 -0,-0.01 -0,-0.02 -0,-0 -0,-0.01 -0,-0.01 0,-0 -0,-0.01 -0,-0.01 -0,-0 -0,-0.01 -0,-0.01 0,-0.01 0,-0.02 -0.01,-0.03 -0.01,-0.01 -0.03,-0.02 -0.04,-0.02 -0.01,-0 -0.01,-0 -0.02,-0l-0.08 0c-0.04,0 -0.08,0 -0.12,0.01 -0.01,0 -0.02,0.01 -0.02,0.02 -0,0.01 -0,0.02 -0,0.03l0 0c-0,0 -0,0.01 -0,0.01 -0,0 -0,0.01 -0,0.01l-0 0.01c-0,0.02 -0,0.03 -0,0.05 0,0 0,0.01 -0,0.01 -0,0.01 -0,0.02 0,0.04l0 0.01zm0.06 -0.04l0 0c0,-0 0,-0.01 0,-0.01 0,-0.01 0,-0.02 0,-0.04l0 -0.02c0,-0.01 0,-0.01 0,-0.02 0.02,-0 0.05,-0 0.07,-0l0.02 0 0.05 0 0.01 -0c0,0 0,-0 0.01,-0 0,0 0,0 0,0 0,0 0,0 0,0.01 0,0.01 0,0.02 0,0.02 0,0 0,0 0,0.01 0,0 0,0.01 0,0.01 0,0.01 0,0.01 0,0.02l0 0.01c0,0.01 0,0.01 0,0.02 0,0 0,0.01 0,0.01 0,0 0,0 0,0 0,0 0,0.01 0,0.01 0,0 0,0.01 0,0.01l0 0.01c0,0.01 0,0.01 0,0.02l-0.01 0c-0.01,0 -0.01,0 -0.02,-0 -0.01,-0 -0.02,-0 -0.03,-0l-0.01 -0c-0.01,-0 -0.02,-0 -0.03,0l-0.01 0c-0,0 -0.01,0 -0.01,0 -0.01,0 -0.01,0 -0.02,0 -0,0 -0,0 -0,0l-0.01 0c-0.01,0 -0.02,0 -0.02,0 -0,-0 -0,-0 -0,-0.01 -0,-0 -0,-0.01 -0,-0.01 -0,-0 -0,-0.01 -0.01,-0.02 -0,-0 -0,-0.01 -0,-0.01 -0,-0 -0,-0.01 -0,-0.01 -0,-0.01 -0,-0.02 -0,-0.03z"/>
   <path class="fil0" d="M0.5 1.6c-0,-0 -0,-0.01 -0,-0.01 -0,-0 0,-0 0,-0 0,-0 -0,-0.01 -0,-0.01 -0,-0.01 -0,-0.01 -0,-0.02 -0,-0 -0,-0.01 -0,-0.01l-0 -0.01c-0,-0.01 -0,-0.02 -0,-0.02 -0,-0 -0,-0 -0,-0.01 -0,-0.01 -0,-0.01 -0,-0.02 -0,-0 -0,-0.01 -0,-0.01 0,-0 -0,-0.01 -0,-0.01 -0,-0 -0,-0.01 -0,-0.01 0,-0.01 0,-0.02 -0.01,-0.03 -0.01,-0.01 -0.03,-0.02 -0.04,-0.02 -0.01,-0 -0.01,-0 -0.02,-0l-0.08 0c-0.04,0 -0.08,0 -0.12,0.01 -0.01,0 -0.02,0.01 -0.02,0.02 -0,0.01 -0,0.02 -0,0.03l0 0c-0,0 -0,0.01 -0,0.01 -0,0 -0,0.01 -0,0.01l-0 0.01c-0,0.02 -0,0.03 -0,0.05 0,0 0,0.01 -0,0.01 -0,0.01 -0,0.02 0,0.04l0 0.01c0,0.01 0,0.01 0,0.02 0,0.01 0,0.02 0.01,0.03 0,0 0,0.01 0.01,0.02 0,0 0,0.01 0.01,0.01 0,0 0,0.01 0.01,0.01 0.01,0.01 0.02,0.01 0.02,0.01 0.01,0 0.02,0 0.02,0 0.01,0 0.03,-0 0.04,-0.01l0.01 -0c0,-0 0.01,-0 0.01,-0 0,-0 0,-0 0,-0 0,-0 0.01,-0 0.01,-0 0,-0 0.01,-0 0.01,-0 0.01,-0 0.01,-0 0.02,-0l0.01 0c0.01,0 0.02,0 0.02,0 0.01,0 0.02,0 0.03,0l0.01 0c0.01,0 0.02,0 0.03,-0.01 0,-0 0.01,-0.01 0.01,-0.01 0.01,-0 0.01,-0.01 0.01,-0.02 0,-0.02 0,-0.04 -0,-0.06l-0 -0.01zm-0.06 0.04l0 0c-0.01,0 -0.01,0 -0.02,-0 -0.01,-0 -0.02,-0 -0.03,-0l-0.01 -0c-0.01,-0 -0.02,-0 -0.03,0l-0.01 0c-0,0 -0.01,0 -0.01,0 -0.01,0 -0.01,0 -0.02,0 -0,0 -0,0 -0,0l-0.01 0c-0.01,0 -0.02,0 -0.02,0 -0,-0 -0,-0 -0,-0.01 -0,-0 -0,-0.01 -0,-0.01 -0,-0 -0,-0.01 -0.01,-0.02 -0,-0 -0,-0.01 -0,-0.01 -0,-0 -0,-0.01 -0,-0.01 -0,-0.01 -0,-0.02 -0,-0.03 0,-0 0,-0.01 0,-0.01 0,-0.01 0,-0.02 0,-0.04l0 -0.02c0,-0.01 0,-0.01 0,-0.02 0.02,-0 0.05,-0 0.07,-0l0.02 0 0.05 0 0.01 -0c0,0 0,-0 0.01,-0 0,0 0,0 0,0 0,0 0,0 0,0.01 0,0.01 0,0.02 0,0.02 0,0 0,0 0,0.01 0,0 0,0.01 0,0.01 0,0.01 0,0.01 0,0.02l0 0.01c0,0.01 0,0.01 0,0.02 0,0 0,0.01 0,0.01 0,0 0,0 0,0 0,0 0,0.01 0,0.01 0,0 0,0.01 0,0.01l0 0.01c0,0.01 0,0.01 0,0.02l-0.01 0z"/>
   <path class="fil0" d="M0.5 2c-0,-0 -0,-0 -0,-0.01 -0,-0 0,-0 0,-0 0,-0 -0,-0.01 -0,-0.01 -0,-0.01 -0,-0.01 -0,-0.02 -0,-0 -0,-0.01 -0,-0.01l-0 -0.01c-0,-0.01 -0,-0.02 -0,-0.02 -0,-0 -0,-0 -0,-0.01 -0,-0.01 -0,-0.01 -0,-0.02 -0,-0 -0,-0.01 -0,-0.01 0,-0 -0,-0.01 -0,-0.01 -0,-0 -0,-0.01 -0,-0.01 0,-0.01 0,-0.02 -0.01,-0.03 -0.01,-0.01 -0.03,-0.02 -0.04,-0.02 -0.01,-0 -0.01,-0 -0.02,-0l-0.08 0c-0.04,0 -0.08,0 -0.12,0.01 -0.01,0 -0.02,0.01 -0.02,0.02 -0,0.01 -0,0.02 -0,0.03l0 0c-0,0 -0,0.01 -0,0.01 -0,0 -0,0.01 -0,0.01l-0 0.01c-0,0.02 -0,0.03 -0,0.05 0,0 0,0.01 -0,0.01 -0,0.01 -0,0.02 0,0.04l0 0.01c0,0.01 0,0.01 0,0.02 0,0.01 0,0.02 0.01,0.03 0,0 0,0.01 0.01,0.02 0,0 0,0.01 0.01,0.01 0,0 0,0.01 0.01,0.01 0.01,0.01 0.02,0.01 0.02,0.01 0.01,0 0.02,0 0.02,0 0.01,0 0.03,-0 0.04,-0.01l0.01 -0c0,-0 0.01,-0 0.01,-0 0,-0 0,-0 0,-0 0,-0 0,-0 0.01,-0 0,-0 0.01,-0 0.01,-0 0.01,-0 0.01,-0 0.02,-0l0.01 0c0.01,0 0.02,0 0.02,0 0.01,0 0.02,0 0.03,0l0.01 0c0.01,0 0.02,0 0.03,-0.01 0,-0 0.01,-0.01 0.01,-0.01 0.01,-0 0.01,-0.01 0.01,-0.02 0,-0.02 0,-0.04 -0,-0.06l-0 -0.01zm-0.06 0.04l0 0c-0.01,0 -0.01,0 -0.02,-0 -0.01,-0 -0.02,-0 -0.03,-0l-0.01 -0c-0.01,-0 -0.02,-0 -0.03,0 -0,0 -0,0 -0.01,0 -0,0 -0.01,0 -0.01,0 -0.01,0 -0.01,0 -0.02,0 -0,0 -0,0 -0,0l-0.01 0c-0.01,0 -0.02,0 -0.02,0 -0,-0 -0,-0 -0,-0.01 -0,-0 -0,-0.01 -0,-0.01 -0,-0 -0,-0.01 -0.01,-0.02 -0,-0 -0,-0.01 -0,-0.01 -0,-0 -0,-0.01 -0,-0.01 -0,-0.01 -0,-0.02 -0,-0.03 0,-0 0,-0.01 0,-0.01 0,-0.01 0,-0.02 0,-0.04l0 -0.02c0,-0.01 0,-0.01 0,-0.02 0.02,-0 0.05,-0 0.07,-0l0.02 0 0.05 0 0.01 -0c0,0 0,-0 0.01,0 0,0 0,0 0,0 0,0 0,0 0,0.01 0,0.01 0,0.02 0,0.02 0,0 0,0 0,0.01 0,0 0,0.01 0,0.01 0,0.01 0,0.01 0,0.02l0 0.01c0,0.01 0,0.01 0,0.02 0,0 0,0.01 0,0.01 0,0 0,0 0,0 0,0 0,0.01 0,0.01 0,0 0,0.01 0,0.01l0 0.01c0,0.01 0,0.01 0,0.02l-0.01 0z"/>
  </g>
 </g>
</svg>
