<?xml version="1.0" encoding="UTF-8"?>
<!DOCTYPE svg PUBLIC "-//W3C//DTD SVG 1.1//EN" "http://www.w3.org/Graphics/SVG/1.1/DTD/svg11.dtd">
<!-- Creator: CorelDRAW 2019 (64-Bit) -->
<svg xmlns="http://www.w3.org/2000/svg" xml:space="preserve" width="0.0833346in" height="0.0542283in" version="1.1" style="shape-rendering:geometricPrecision; text-rendering:geometricPrecision; image-rendering:optimizeQuality; fill-rule:evenodd; clip-rule:evenodd"
viewBox="0 0 0.94 0.61"
 xmlns:xlink="http://www.w3.org/1999/xlink">
 <defs>
  <style type="text/css">
   <![CDATA[
    .fil0 {fill:black;fill-rule:nonzero}
   ]]>
  </style>
 </defs>
 <g id="Layer_x0020_1">
  <metadata id="CorelCorpID_0Corel-Layer"/>
  <g id="_2330663264112">
   <path class="fil0" d="M0.94 0.58c0,-0 -0,-0.01 -0,-0.01 -0,-0 -0,-0.01 0,-0.01 0,-0 0,-0 0,-0.01l-0 -0.34c0,-0.01 0,-0.02 0,-0.04 0,-0 0,-0 0,-0.01 0,-0 0,-0.01 0,-0.01 -0,-0.01 -0,-0.01 -0,-0.02 -0,-0 -0,-0.01 -0,-0.01 -0,-0.01 -0,-0.02 -0,-0.03 -0,-0.02 -0.01,-0.04 -0,-0.05 0,-0.01 -0,-0.02 -0.02,-0.02 -0.01,-0 -0.02,-0.01 -0.03,-0.01 -0.01,-0 -0.01,-0 -0.02,-0 -0,-0 -0.01,-0 -0.01,-0 -0.01,-0 -0.02,-0 -0.03,-0 -0,0 -0.01,0 -0.01,0l-0.06 0c-0.02,0 -0.03,-0 -0.05,-0 -0.02,-0 -0.03,-0 -0.05,-0l-0.01 0c-0.01,0 -0.02,0 -0.03,-0 -0.01,-0 -0.02,0 -0.03,0 -0.01,0 -0.01,0 -0.02,0 -0.01,0 -0.02,0 -0.02,0 -0.01,0 -0.02,0 -0.03,0 -0.01,-0 -0.02,-0 -0.04,-0l-0.15 0c-0.04,0 -0.09,-0 -0.13,-0 -0,-0 -0.01,-0 -0.01,-0 -0.05,-0 -0.11,-0 -0.16,-0 -0,-0 -0,-0 -0,-0 -0,0 -0,0 -0,0 -0,-0 -0,-0 -0,-0 -0,-0 -0.01,0 -0.01,0 -0,0 -0,0 -0,0.01 0,0 -0,0.01 -0,0.01 -0,0.01 -0,0.02 0,0.03 0,0 0,0.01 0,0.01 0,0.01 0,0.02 0,0.03 -0,0.02 -0,0.04 -0,0.06l0 0.41c0,0 -0,0.01 -0,0.01 -0,0.01 -0,0.02 0,0.03 0,0.01 0,0.01 0.01,0.01 0,0 0.01,0 0.01,0 0,0 0.01,-0 0.01,-0 0.01,-0 0.02,-0 0.03,-0.01l0.01 -0c0.01,-0 0.02,-0 0.03,-0 0,0 0.01,0 0.01,0l0.14 0c0,0 0.01,0 0.01,0 0.01,0 0.02,0 0.03,-0 0.01,-0 0.01,-0 0.02,-0 0.01,-0 0.01,-0 0.02,-0l0.16 0 0.11 0c0,0 0.01,0 0.01,0 0,0 0.01,0 0.01,0 0.01,-0 0.01,-0 0.02,-0 0,-0 0.01,-0 0.01,-0 0.01,-0 0.01,-0 0.02,0 0,0 0.01,0 0.01,0l0.19 0c0,0 0.01,-0 0.01,-0 0.01,-0 0.03,-0 0.04,0 0,0 0.01,0 0.01,0 0,-0 0.01,-0 0.01,-0.01 0,-0 0,-0.01 -0,-0.01zm-0.8 -0.53l0 0c0.01,-0 0.01,-0 0.02,-0.01 0,-0 0,-0 0.01,-0 0,-0 0.01,-0 0.01,-0l0 -0c0,-0 0,-0 0,-0 0.01,0 0.03,0 0.04,0 -0,0 -0.01,0 -0.01,0l-0.01 0c-0.01,0.01 -0.02,0.01 -0.03,0.01 -0,0 -0,0 -0.01,0 -0,0 -0.01,0 -0.01,0 -0.01,0 -0.01,0.01 -0.01,0.01 0,0.01 0.01,0.01 0.01,0.01 0,0 0,0 0,0 0.01,-0 0.01,-0 0.02,-0 0,-0 0,-0 0,-0 0.01,-0 0.02,-0.01 0.04,-0.01l0.01 -0c0.01,-0.01 0.02,-0.01 0.03,-0.01 0.01,-0 0.01,-0.01 0.01,-0.01 0.02,0 0.04,0 0.05,0l0.01 0c-0,0 -0.01,0 -0.01,0.01 -0,0 -0.01,0 -0.01,0.01l-0 0c-0.01,0 -0.02,0.01 -0.03,0.01 -0.01,0 -0.01,0.01 -0.02,0.01 -0.01,0 -0.01,0.01 -0.02,0.01 -0.01,0.01 -0.03,0.02 -0.04,0.02 -0,0 -0,0 -0,0 -0.01,0 -0.01,0.01 -0.01,0.01 0,0 0,0.01 0.01,0.01 0,0 0,0 0,0 0,0 0,-0 0.01,-0 0.01,-0.01 0.02,-0.02 0.04,-0.02 0.01,-0 0.01,-0.01 0.02,-0.01 0.01,-0 0.01,-0.01 0.02,-0.01 0.01,-0 0.02,-0.01 0.02,-0.01l0 -0c0,-0 0.01,-0 0.01,-0.01 0,-0 0.01,-0 0.01,-0.01 0,-0 0,-0 0.01,-0 0,-0 0,-0 0,-0 0.01,-0 0.01,-0.01 0.01,-0.01l0.04 0c-0,0 -0.01,0 -0.01,0.01 -0,0 -0,0 -0,0 -0.01,0.01 -0.02,0.01 -0.03,0.02 -0.01,0 -0.01,0.01 -0.02,0.01 -0.01,0.01 -0.02,0.02 -0.03,0.03 -0,0 -0.01,0.01 -0.01,0.01 -0.01,0 -0.01,0.01 -0.02,0.01 -0,0 -0.01,0.01 -0.01,0.01 -0,0 -0,0 -0.01,0 -0,0 -0,0 -0,0 -0.01,0 -0.01,0.01 -0.01,0.02 -0,0.01 0,0.01 0.01,0.01 0,0 0,0 0,0 0,0 0.01,-0 0.01,-0.01 0,-0 0,-0 0.01,-0 0,-0 0,-0 0.01,-0 0,-0 0,-0 0.01,-0 0,-0 0.01,-0.01 0.01,-0.01 0,-0 0.01,-0.01 0.01,-0.01 0,-0 0.01,-0.01 0.01,-0.01 0.01,-0.01 0.02,-0.02 0.03,-0.02 0.01,-0 0.01,-0.01 0.02,-0.01 0.01,-0.01 0.02,-0.01 0.03,-0.02 0,-0 0,-0 0.01,-0 0,-0 0,-0 0.01,-0 0.01,0 0.01,-0 0.01,-0.01 0,-0 -0,-0.01 -0.01,-0.01l0.06 0c0.01,-0 0.01,0 0.02,0 -0,0 -0.01,0 -0.01,0.01 -0,0 -0,0 -0,0l-0 0c-0.01,0 -0.01,0.01 -0.02,0.01 -0.02,0.01 -0.04,0.02 -0.06,0.04 -0.02,0.01 -0.03,0.02 -0.04,0.04 -0.01,0.01 -0.03,0.02 -0.04,0.03 -0,0 -0.01,0 -0.01,0.01 -0.01,0 -0.01,0.01 -0.02,0.01 -0,0 -0.01,0.01 -0.01,0.01 -0,0 -0,0.01 0,0.02 0,0 0,0 0.01,0 0,0 0.01,-0 0.01,-0 0,-0 0,-0 0,-0 0.01,-0 0.01,-0.01 0.02,-0.01 0,-0 0,-0 0.01,-0.01 0.01,-0.01 0.03,-0.02 0.04,-0.03 0.01,-0.01 0.03,-0.02 0.04,-0.04 0.02,-0.02 0.04,-0.03 0.06,-0.04 0.01,-0 0.01,-0.01 0.02,-0.01l0 -0c0,-0 0,-0 0.01,-0 0,-0 0,-0 0,-0 0.01,-0 0.01,-0.01 0.01,-0.01 -0,-0 -0,-0.01 -0.01,-0.01 0,0 0,0 0.01,0 0.01,0 0.02,-0 0.03,-0 0.01,-0 0.01,-0 0.02,-0 0.01,-0 0.02,-0 0.02,-0 0.01,-0 0.02,-0 0.02,-0 0.01,0 0.02,0 0.03,0l0.01 -0c0.02,0 0.03,0 0.05,0 0.02,0 0.03,0 0.05,0l0.03 0c-0,0 -0,0 -0.01,0 -0.01,0.01 -0.02,0.01 -0.03,0.02 -0,0 -0.01,0.01 -0.01,0.01 0,-0 0,-0.01 -0,-0.01 -0,-0.01 -0.01,-0.01 -0.01,-0 -0.01,0 -0.02,0.01 -0.02,0.01 -0.01,0.01 -0.02,0.01 -0.03,0.02 -0.01,0.01 -0.03,0.02 -0.04,0.03 -0,0 -0.01,0.01 -0.01,0.01l-0.01 0.01c-0,0 -0.01,0.01 -0.01,0.01 -0,0 -0.01,0 -0.01,0.01 -0.02,0.01 -0.03,0.03 -0.05,0.04 -0.01,0.01 -0.02,0.01 -0.02,0.02 -0.01,0.01 -0.03,0.02 -0.04,0.03l-0.01 0.01c-0,0 -0.01,0.01 -0.01,0.01l-0 0c-0,0 -0,0 -0.01,0.01 -0,0 -0,0 -0,0 -0,0 -0,0 -0,0 -0,0 -0.01,0.01 -0.01,0.01 0,0 0.01,0.01 0.01,0.01 0,0 0,-0 0,-0 0.01,-0 0.01,-0.01 0.01,-0.01 0,-0 0,-0 0,-0 0,-0 0,-0 0.01,-0.01l0 -0c0,-0 0.01,-0.01 0.01,-0.01l0.01 -0.01c0.01,-0.01 0.03,-0.02 0.04,-0.03 0.01,-0.01 0.02,-0.01 0.02,-0.02 0.01,-0.01 0.03,-0.02 0.04,-0.04 0,-0 0.01,-0 0.01,-0.01 0,-0 0.01,-0.01 0.01,-0.01l0.01 -0.01c0,-0 0.01,-0.01 0.01,-0.01 0.02,-0.01 0.03,-0.02 0.04,-0.03 0.01,-0.01 0.02,-0.01 0.03,-0.02 0,-0 0.01,-0 0.01,-0 -0,0 -0,0 -0.01,0 -0.01,0.01 -0.01,0.01 -0.02,0.02 -0.01,0.01 -0.02,0.01 -0.03,0.02l-0 0c-0.01,0.01 -0.02,0.01 -0.03,0.02 -0.01,0.01 -0.03,0.02 -0.04,0.03 -0.01,0.01 -0.02,0.01 -0.02,0.02l-0 0c-0,0 -0.01,0.01 -0.01,0.01 -0,0 -0.01,0.01 -0.01,0.01 -0.02,0.01 -0.03,0.03 -0.04,0.04 -0,0 -0.01,0 -0.01,0.01 -0.01,0.01 -0.01,0.01 -0.02,0.01 -0.01,0 -0.01,0.01 -0.01,0.01 0,0 0.01,0.01 0.01,0.01 0,0 0,-0 0,-0 0.01,-0 0.02,-0.01 0.03,-0.02 0,-0 0.01,-0 0.01,-0.01 0.02,-0.01 0.03,-0.02 0.05,-0.04 0,-0 0.01,-0.01 0.01,-0.01 0.01,-0 0.01,-0.01 0.02,-0.01l0 -0c0.01,-0.01 0.02,-0.01 0.02,-0.02 0.01,-0.01 0.02,-0.02 0.03,-0.02 -0,0 -0.01,0.01 -0.01,0.01l-0.01 0.01c-0.01,0.01 -0.02,0.01 -0.03,0.02 -0.01,0 -0.01,0.01 -0.02,0.02 -0.01,0.01 -0.01,0.01 -0.02,0.01 -0,0 -0.01,0.01 -0.01,0.01 -0,0 -0,0 -0.01,0 -0,0 -0.01,0 -0.01,0.01l-0 0c-0,0 -0.01,0 -0.01,0.01 -0.01,0 -0.01,0.01 -0.02,0.01 -0,0 -0,0 -0,0 -0,0 -0,0 -0,0 -0,0 -0,0 -0,0 -0,0 -0,0 -0.01,0 -0,0 -0.01,0.01 -0.01,0.01 -0,0 -0,0 -0,0l-0 0c-0.01,0.01 -0.01,0.01 -0.02,0.02 -0,0.01 0,0.01 0.01,0.01 0,0 0,0 0,0 0,0 0.01,-0 0.01,-0.01 0,-0 0.01,-0.01 0.01,-0.01l0 -0c0,-0 0,-0 0,-0 0,-0 0,-0 0.01,-0.01 0,-0 0,-0 0,-0 0,-0 0,-0 0.01,-0 0,-0 0,-0 0.01,-0.01 0,-0 0,-0 0,-0 0,-0 0.01,-0.01 0.01,-0.01 0,-0 0.01,-0 0.01,-0.01l0 -0c0,-0 0,-0 0.01,-0.01 0,-0 0.01,-0.01 0.01,-0.01 0,-0 0,-0 0,-0 0.01,-0 0.01,-0.01 0.02,-0.02 0.01,-0.01 0.01,-0.01 0.02,-0.01 0.01,-0.01 0.02,-0.01 0.03,-0.02l0.01 -0.01c0.01,-0.01 0.02,-0.02 0.04,-0.03 0,-0 0.01,-0 0.01,-0.01 0,-0 0,-0 0.01,-0.01 0,-0 0.01,-0.01 0.01,-0.01 0,-0 0.01,-0 0.01,-0.01 0,-0 0,-0 0,-0 0,-0 0,-0 0.01,-0.01 0,-0 0.01,-0.01 0.01,-0.01 0,-0 0,-0 0,-0 0.01,-0.01 0.02,-0.01 0.03,-0.02 0.02,-0.01 0.03,-0.02 0.05,-0.03 0,-0 0.01,-0.01 0,-0.02 -0,-0 -0.01,-0.01 -0.02,-0 -0.01,0.01 -0.03,0.02 -0.04,0.03 -0.01,0.01 -0.02,0.01 -0.03,0.02 -0,0 -0,0 -0.01,0 -0,0 -0.01,0 -0.01,0.01 -0,0 -0,0 -0.01,0 0,-0 0.01,-0.01 0.01,-0.01 0.01,-0.01 0.01,-0.01 0.02,-0.01 0.01,-0 0.01,-0.01 0.02,-0.01 0.01,-0.01 0.02,-0.01 0.03,-0.02 0,-0 0.01,-0 0.01,-0.01 0,-0 0,-0 0,-0 0,-0 0,-0 0,-0 0,-0 0.01,-0 0.01,-0.01 0,-0 0,-0 0,-0 0,-0 0.01,-0 0.01,-0 0.01,-0 0.02,-0 0.02,0 0,0 0.01,0 0.01,0 0.01,0 0.01,0 0.02,0 0.01,0 0.01,0 0.01,0 -0,0 -0,0 -0,0 -0,0 -0,0 -0,0 -0,0 -0,0 -0.01,0.01 -0,0 -0,0.01 -0.01,0.01 -0,0 -0.01,0.01 -0.01,0.01 -0.01,0 -0.01,0.01 -0.02,0.01 -0,0 -0.01,0 -0.01,0.01 -0,0 -0.01,0 -0.01,0.01 -0,0 -0,0 -0.01,0 -0,0 -0.01,0 -0.01,0.01 -0.01,0.01 -0.02,0.01 -0.02,0.02 -0,0 -0.01,0.01 -0.01,0.01 -0,0 -0.01,0.01 -0.01,0.01l-0.01 0.01c-0,0 -0.01,0.01 -0.02,0.01 -0,0 -0.01,0.01 -0.01,0.01 -0,0 -0.01,0.01 -0.01,0.01 -0.01,0 -0.01,0.01 -0.02,0.02l-0 0c-0,0 -0.01,0.01 -0.01,0.01 -0,0 -0.01,0.01 -0.01,0.01 -0.01,0.01 -0.01,0.01 -0.02,0.02l-0 0c-0.01,0.01 -0.01,0.01 -0.02,0.02 -0,0 -0.01,0.01 -0.01,0.01 -0,0 -0,0 -0.01,0.01 -0.01,0.01 -0.01,0.01 -0.02,0.01 -0,0 -0,0 -0.01,0 -0,0 -0.01,0.01 -0.01,0.01 -0,0 -0,0 -0.01,0l-0 0c-0.01,0 -0.01,0.01 -0.02,0.01 -0,0 -0.01,0.01 -0.01,0.01 -0.01,0.01 -0.02,0.01 -0.03,0.02 -0,0 -0.01,0 -0.01,0.01 -0.01,0 -0.01,0.01 -0.02,0.01l-0 0c-0,0 -0.01,0 -0.01,0 -0,-0 -0,-0 -0,-0 -0,-0 -0,-0 -0,-0 -0,-0 -0,-0 -0.01,-0.01 -0,-0 -0,-0 -0,-0 -0,-0 -0.01,-0.01 -0.01,-0.01 -0,-0 -0.01,-0 -0.01,-0.01 -0,-0 -0.01,-0.01 -0.01,-0.01 -0,-0 -0.01,-0.01 -0.01,-0.01 -0,-0 -0.01,-0.01 -0.01,-0.01l-0 -0c-0,-0 -0.01,-0.01 -0.02,-0.01 -0.01,-0 -0.01,-0.01 -0.02,-0.02 -0,-0 -0.01,-0.01 -0.02,-0.01 -0,-0 -0.01,-0 -0.01,-0.01 -0,-0 -0.01,-0.01 -0.01,-0.01 -0,-0 -0.01,-0.01 -0.01,-0.01 -0,-0 -0.01,-0.01 -0.01,-0.01 -0,-0 -0.01,-0.01 -0.01,-0.01 -0.01,-0.01 -0.02,-0.01 -0.03,-0.02 -0.01,-0.01 -0.01,-0.01 -0.02,-0.02 -0.01,-0.01 -0.02,-0.01 -0.03,-0.02 -0,-0 -0,-0 -0,-0 -0,-0 -0,-0 -0.01,-0.01 -0,-0 -0.01,-0 -0.01,-0.01l-0 -0c-0.01,-0 -0.01,-0.01 -0.02,-0.01 -0,-0 -0.01,-0 -0.01,-0.01 -0,-0 -0.01,-0 -0.01,-0.01 -0,-0 -0,-0 -0,-0 -0,-0 -0,-0 -0,-0 -0,-0 -0,-0 -0.01,-0.01 -0,-0 -0.01,-0 -0.01,-0.01 -0.01,-0.01 -0.01,-0.01 -0.02,-0.02l-0 -0c-0,-0 -0,-0 -0.01,-0.01 -0,-0 -0,-0 -0,-0 0,0 0,0 0.01,0 0,0 0.01,-0 0.01,-0.01 0,-0 0.01,-0 0.01,-0.01 0,-0 0,-0 0,-0 0.01,-0 0.01,-0 0.02,-0.01zm-0.02 -0.02l0 0c-0,0 -0,0 -0,0 -0,0 -0,0 -0,0 -0.01,0 -0.02,0.01 -0.02,0.01 -0,0 -0,0.01 0,0.01 -0,-0 -0,-0 -0,-0 -0,-0 -0,-0 -0,-0 -0,-0 -0.01,-0.01 -0.01,-0.01 -0,-0 -0.01,-0 -0.01,-0.01 -0,-0 -0.01,-0.01 -0.01,-0.01 0.02,0 0.05,0 0.07,0zm-0.09 0.53l0 0c0,-0 0,-0 0,-0.01l-0 -0.41c-0,-0.02 -0,-0.04 0,-0.06 0,-0.01 -0,-0.02 -0,-0.03 -0,-0 -0,-0.01 -0,-0.01 -0,-0 -0,-0.01 -0,-0.02 0,0 0,0 0,0 0,0 0.01,0.01 0.01,0.01 0,0 0.01,0.01 0.01,0.01 0,0 0.01,0.01 0.01,0.01 0,0 0.01,0.01 0.01,0.01 0,0 0.01,0 0.01,0.01 0,0 0,0 0,0 0,0 0.01,0 0.01,0.01l0 0c0.01,0.01 0.01,0.01 0.02,0.02 0,0 0.01,0 0.01,0.01 0,0 0,0 0,0 0,0 0,0 0.01,0.01 0,0 0,0 0.01,0 0,0 0,0 0.01,0 0,0 0.01,0.01 0.01,0.01 0.01,0 0.01,0.01 0.02,0.01l0 0c0,0 0.01,0.01 0.01,0.01 0,0 0,0 0,0 0,0 0,0 0,0 0.01,0.01 0.02,0.01 0.02,0.02 0.01,0.01 0.02,0.01 0.02,0.02 0.01,0.01 0.02,0.01 0.03,0.02 0,0 0.01,0.01 0.01,0.01 0,0 0.01,0.01 0.01,0.01 0,0 0.01,0.01 0.02,0.01 0,0 0.01,0.01 0.01,0.01 0,0 0.01,0.01 0.01,0.01 0,0 0.01,0.01 0.01,0.01 0,0 0,0 0.01,0.01 -0,0 -0,0 -0,0 -0,0 -0,0 -0,0 -0,0 -0.01,0 -0.01,0.01 -0,0 -0,0 -0.01,0 -0,0 -0.01,0 -0.01,0 -0,0 -0,0 -0.01,0.01 -0,0 -0.01,0.01 -0.01,0.01l-0 0c-0.01,0.01 -0.03,0.02 -0.04,0.03 -0.01,0 -0.01,0.01 -0.02,0.01l-0.01 0.01c-0,0 -0.01,0 -0.01,0.01 -0,0 -0,0 -0,0 -0,0 -0,0 -0,0 -0,0 -0.01,0.01 -0.01,0.01 -0,0 -0,0 -0.01,0.01 -0.01,0 -0.01,0.01 -0.02,0.01 -0,0 -0.01,0.01 -0.01,0.01 -0,0 -0.01,0.01 -0.01,0.01 -0,0 -0.01,0.01 -0.01,0.01 -0,0 -0.01,0.01 -0.01,0.01 -0,0 -0,0 -0,0 -0,0 -0,0 -0.01,0.01 -0,0 -0.01,0 -0.01,0.01 -0,0 -0.01,0 -0.01,0.01 -0,0 -0,0 -0.01,0.01 -0,0 -0,0 -0.01,0.01 -0,0 -0.01,0.01 -0.01,0.01 -0.01,0.01 -0.02,0.02 -0.03,0.04 -0,0 -0,0.01 -0.01,0.01 -0,0 -0.01,0.01 -0.01,0.01l-0 0c-0,0 -0,0 -0.01,0.01zm0.86 0.01l0 0c-0,0 -0.01,0 -0.01,0l-0.19 0c-0,0 -0.01,-0 -0.01,-0 -0.01,-0 -0.02,-0 -0.02,0 -0.01,0 -0.01,0 -0.02,0 -0.01,0 -0.01,0 -0.02,0 -0,0 -0.01,0 -0.01,-0 -0,-0 -0.01,-0 -0.01,-0l-0.19 -0 -0.07 0c-0.01,0 -0.02,0 -0.02,0 -0.01,0 -0.01,0 -0.02,0 -0.01,0 -0.02,0 -0.02,0 -0,-0 -0.01,-0 -0.01,-0l-0.14 0c-0,0 -0.01,-0 -0.01,-0 -0.01,-0 -0.02,-0 -0.03,0l-0.01 0c-0.01,0 -0.02,0 -0.03,0.01 0,-0 0,-0.01 0.01,-0.01 0,-0 0,-0.01 0.01,-0.01l0 -0c0,-0 0,-0 0.01,-0.01 0,-0 0.01,-0.01 0.01,-0.01 0.01,-0.01 0.02,-0.02 0.03,-0.03 0,-0 0.01,-0.01 0.01,-0.01 0,-0 0.01,-0 0.01,-0.01 0,-0 0.01,-0.01 0.01,-0.01 0,-0 0,-0 0.01,-0.01 0,-0 0,-0 0.01,-0 0,-0 0.01,-0 0.01,-0.01 0,-0 0,-0 0.01,-0 0,-0 0,-0 0.01,-0.01 0.01,-0 0.01,-0.01 0.02,-0.01 0,-0 0.01,-0.01 0.01,-0.01 0,-0 0.01,-0.01 0.01,-0.01 0.01,-0 0.01,-0.01 0.02,-0.01 0,-0 0.01,-0 0.01,-0.01 0,-0 0.01,-0.01 0.01,-0.01 0,-0 0.01,-0 0.01,-0.01 0,-0 0,-0 0,-0 0,-0 0,-0 0.01,-0 0,-0 0,-0 0,-0l0.01 -0c0.01,-0 0.01,-0.01 0.02,-0.01 0.01,-0.01 0.03,-0.02 0.04,-0.03l0 -0c0,-0 0.01,-0.01 0.01,-0.01 0,-0 0,-0 0.01,-0.01 0,-0 0,-0 0,-0 0,-0 0.01,-0 0.01,-0.01 0,-0 0,-0 0,-0 0,-0 0,-0 0.01,-0 0,-0 0,-0 0,-0 0,-0 0,-0 0,-0 0,0 0.01,0.01 0.01,0.01l0 0c0,0 0.01,0.01 0.01,0.01 0,0 0.01,0.01 0.01,0.01 0,0 0.01,0.01 0.02,0.01 0,0 0.01,0.01 0.01,0.01 0,0 0.01,0 0.01,0.01 0,0 0,0 0,0 0,0 0.01,0.01 0.01,0.01l0 0c0,0 0,0 0.01,0 0,0 0.01,0 0.01,0 0.01,0 0.01,-0 0.02,-0.01l0 -0c0,-0 0.01,-0 0.02,-0.01 0,-0 0.01,-0 0.01,-0.01 0.01,-0.01 0.02,-0.01 0.03,-0.02 0,-0 0.01,-0.01 0.01,-0.01 0,-0 0.01,-0.01 0.01,-0.01l0 -0c0,-0 0,-0 0,-0 0,0 0,0 0,0 0,0 0,0 0,0 0,0.01 0.01,0.01 0.01,0.02 0,0 0,0 0.01,0.01 0,0 0,0 0,0 0,0 0.01,0.01 0.01,0.01l0 0c0,0 0.01,0 0.01,0.01 0,0 0.01,0.01 0.01,0.01 0,0 0.01,0.01 0.01,0.01 0,0 0.01,0.01 0.01,0.01l0 0c0.01,0 0.01,0.01 0.02,0.01 0,0 0,0 0,0 0,0 0,0 0.01,0.01 0,0 0,0 0,0 0,0 0,0 0,0 0.01,0.01 0.02,0.01 0.03,0.02 0,0 0.01,0 0.01,0.01 0,0 0,0 0.01,0 0,0 0.01,0 0.01,0.01 0,0 0,0 0,0 0,0 0,0 0.01,0 0.01,0 0.01,0.01 0.02,0.01 0,0 0,0 0.01,0 0,0 0,0 0.01,0 0,0 0,0 0.01,0 0,0 0,0 0,0 0,0 0,0 0.01,0 0,0 0.01,0 0.01,0 0,0 0,0 0,0 0,0 0,0 0.01,0 0.01,0 0.01,0.01 0.02,0.01 0.01,0 0.01,0.01 0.02,0.01 0.01,0 0.01,0.01 0.02,0.01 0,0 0,0 0,0.01 0,0 0,0 0.01,0.01 0,0 0,0 0,0 0,0 0,0 0.01,0.01 -0.01,-0 -0.02,-0 -0.03,-0zm0.03 -0.4l0 0c-0,0 -0,0 -0,0.01 -0,0.01 -0,0.02 0,0.04l0 0.02 0 0.3 0 0.01c-0,-0 -0,-0 -0,-0.01 -0.01,-0.01 -0.01,-0.01 -0.02,-0.02 -0.01,-0 -0.01,-0.01 -0.02,-0.01 -0.01,-0 -0.01,-0.01 -0.02,-0.01 -0,-0 -0,-0 -0,-0 -0,-0 -0,-0 -0,-0 -0,-0 -0.01,-0 -0.01,-0.01 -0,-0 -0,-0 -0,-0 -0,-0 -0,-0 -0.01,-0 -0,-0 -0,-0 -0,-0 -0,-0 -0,-0 -0.01,-0 -0,-0 -0,-0 -0.01,-0 -0.01,-0 -0.01,-0.01 -0.02,-0.01 -0,-0 -0.01,-0 -0.01,-0.01 -0,-0 -0,-0 -0,-0 -0,-0 -0,-0 -0.01,-0 -0,-0 -0,-0 -0.01,-0.01 -0,-0 -0.01,-0 -0.01,-0.01 -0.01,-0.01 -0.02,-0.01 -0.03,-0.02 -0,-0 -0.01,-0 -0.01,-0 -0,-0 -0,-0 -0,-0 -0,-0 -0,-0 -0,-0 -0,-0 -0,-0 -0.01,-0.01 -0.01,-0 -0.01,-0.01 -0.02,-0.01l-0 -0c-0,-0 -0.01,-0.01 -0.01,-0.01 -0,-0 -0.01,-0 -0.01,-0.01 -0,-0 -0.01,-0 -0.01,-0.01 -0,-0 -0.01,-0.01 -0.01,-0.01l-0 -0c-0,-0 -0.01,-0.01 -0.01,-0.01 -0,-0 -0,-0 -0,-0 -0,-0 -0,-0 -0.01,-0.01 -0,-0 -0.01,-0.01 -0.01,-0.01 -0,-0 -0,-0 -0,-0 -0,-0 -0,-0 -0,-0 0,-0 -0,-0 -0,-0 0,-0 0,-0 0.01,-0 0.01,-0 0.01,-0.01 0.02,-0.02 0,-0 0,-0 0.01,-0.01 0,-0 0.01,-0.01 0.01,-0.01 0.01,-0.01 0.01,-0.01 0.02,-0.02l0 -0.01c0.01,-0.01 0.01,-0.01 0.02,-0.02 0.01,-0 0.01,-0.01 0.02,-0.02 0,-0 0.01,-0.01 0.01,-0.01l0 -0c0.01,-0 0.01,-0.01 0.02,-0.01 0,-0 0.01,-0.01 0.01,-0.01 0,-0 0.01,-0.01 0.01,-0.01 0.01,-0 0.01,-0.01 0.02,-0.01l0.01 -0.01c0,-0 0.01,-0.01 0.01,-0.01 0,-0 0.01,-0.01 0.01,-0.01 0.01,-0.01 0.01,-0.01 0.02,-0.02 0,-0 0.01,-0 0.01,-0.01 0,-0 0,-0 0.01,-0 0,-0 0,-0 0.01,-0 0,-0 0.01,-0.01 0.01,-0.01 0.01,-0 0.01,-0.01 0.02,-0.01 0,-0 0.01,-0.01 0.01,-0.01 0,-0 0.01,-0.01 0.01,-0.01 0,-0 0,-0 0.01,-0.01 0,-0 0,-0 0,-0 0,0.01 0,0.03 0,0.04 0,0.01 0,0.02 0,0.03 0,0.01 0,0.01 0,0.02 0,0.01 0,0.01 0,0.01 0,0 0,0.01 -0,0.01z"/>
   <path class="fil0" d="M0.35 0.23c0,0 0,0 0,-0 0.01,-0 0.01,-0 0.01,-0.01 0,-0 0,-0 0,-0 0,-0 0.01,-0 0.01,-0.01 0,-0 0,-0 0.01,-0 0.02,-0.01 0.04,-0.02 0.05,-0.04l0.03 -0.02c0.03,-0.02 0.05,-0.04 0.08,-0.05 0.01,-0 0.01,-0.01 0.02,-0.01 0.01,-0 0.02,-0.01 0.02,-0.01l0 -0c0,-0 0.01,-0.01 0.01,-0.01 0.01,-0 0.01,-0.01 0.01,-0.01 -0,-0.01 -0.01,-0.01 -0.01,-0.01 -0.01,0 -0.02,0 -0.02,0.01l-0 0c-0.01,0 -0.01,0.01 -0.02,0.01 -0.01,0 -0.01,0.01 -0.02,0.01 -0.03,0.02 -0.06,0.04 -0.08,0.05l-0.03 0.02c-0.02,0.01 -0.03,0.02 -0.05,0.04 -0,0 -0,0 -0.01,0 -0,0 -0.01,0 -0.01,0.01 -0,0 -0,0 -0,0 -0,0 -0,0 -0,0 -0.01,0 -0.01,0.01 -0.01,0.01 0,0.01 0.01,0.01 0.01,0.01z"/>
   <path class="fil0" d="M0.57 0.1c-0,0 -0.01,0.01 -0.01,0.01 -0,0 -0,0 -0.01,0 -0,0 -0.01,0 -0.01,0.01 -0,0 -0.01,0.01 -0.01,0.01 -0.02,0.02 -0.04,0.03 -0.06,0.04l-0.01 0.01c-0.02,0.02 -0.04,0.03 -0.07,0.04 -0.01,0 -0.01,0.01 -0.02,0.01l-0 0c-0,0 -0,0 -0,0 -0,0 -0.01,0 -0.01,0.01 -0,0 -0,0.01 0,0.02 0,0 0,0 0.01,0 0,0 0.01,-0 0.01,-0 0,-0 0,-0 0.01,-0.01 0,-0 0,-0 0,-0l0 -0c0.01,-0 0.01,-0.01 0.02,-0.01 0.03,-0.01 0.05,-0.03 0.07,-0.04l0.01 -0.01c0.02,-0.01 0.04,-0.03 0.06,-0.05 0,-0 0.01,-0.01 0.01,-0.01 0,-0 0.01,-0 0.01,-0.01 0,-0 0,-0 0.01,-0.01 0,-0 0.01,-0.01 0.01,-0.01 0.01,-0.01 0.02,-0.01 0.03,-0.02 0.01,-0.01 0.03,-0.02 0.04,-0.03 0.01,-0 0.01,-0.01 0.02,-0.01 0,-0 0,-0 0.01,-0.01l0 -0c0,-0 0,-0 0,-0 0,-0 0,-0 0.01,-0 0,-0 0,-0.01 0,-0.02 -0,-0 -0.01,-0 -0.02,-0 -0,0 -0,0 -0,0 -0,0 -0,0 -0.01,0l-0 0c-0,0 -0,0 -0.01,0 -0.01,0 -0.01,0.01 -0.02,0.01 -0.01,0.01 -0.02,0.02 -0.04,0.03 -0.01,0.01 -0.02,0.01 -0.03,0.02z"/>
  </g>
 </g>
</svg>
