<?xml version="1.0" encoding="UTF-8"?>
<!DOCTYPE svg PUBLIC "-//W3C//DTD SVG 1.1//EN" "http://www.w3.org/Graphics/SVG/1.1/DTD/svg11.dtd">
<!-- Creator: CorelDRAW 2019 (64-Bit) -->
<svg xmlns="http://www.w3.org/2000/svg" xml:space="preserve" width="0.0557953in" height="0.0845787in" version="1.1" style="shape-rendering:geometricPrecision; text-rendering:geometricPrecision; image-rendering:optimizeQuality; fill-rule:evenodd; clip-rule:evenodd"
viewBox="0 0 2.47 3.75"
 xmlns:xlink="http://www.w3.org/1999/xlink">
 <defs>
  <style type="text/css">
   <![CDATA[
    .fil0 {fill:black;fill-rule:nonzero}
   ]]>
  </style>
 </defs>
 <g id="Layer_x0020_1">
  <metadata id="CorelCorpID_0Corel-Layer"/>
  <g id="_2316320581104">
   <g>
    <path class="fil0" d="M0.06 2.61l-0.06 0 0 0 -0 -0.07 -0 -0.07 0 -0.06 0.01 -0.06 0.01 -0.06 0.01 -0.06 0.02 -0.06 0.02 -0.06 0.02 -0.06 0.02 -0.06 0.03 -0.05 0.03 -0.05 0.03 -0.05 0.03 -0.05 0.04 -0.05 0.04 -0.05 0.04 -0.04 0.04 -0.04 0.04 -0.04 0.05 -0.04 0.05 -0.04 0.05 -0.03 0.05 -0.03 0.05 -0.03 0.05 -0.03 0.05 -0.02 0.06 -0.02 0.06 -0.02 0.06 -0.01 0.06 -0.01 0.06 -0.01 0.06 -0.01 0 0.06 -0.06 0.01 -0.06 0.01 -0.06 0.01 -0.06 0.01 -0.05 0.02 -0.05 0.02 -0.05 0.02 -0.05 0.02 -0.05 0.03 -0.05 0.03 -0.05 0.03 -0.05 0.03 -0.04 0.04 -0.04 0.04 -0.04 0.04 -0.04 0.04 -0.04 0.04 -0.03 0.05 -0.03 0.05 -0.03 0.05 -0.03 0.05 -0.03 0.05 -0.02 0.05 -0.02 0.05 -0.02 0.06 -0.01 0.06 -0.01 0.06 -0.01 0.06 -0.01 0.06 -0 0.06 0 0.06 0 0.06 0 0zm1.28 1.08l0 0.06 0 0 -0.07 0 -0.07 0 -0.07 -0 -0.06 -0.01 -0.06 -0.01 -0.06 -0.01 -0.06 -0.02 -0.06 -0.02 -0.06 -0.02 -0.06 -0.02 -0.05 -0.03 -0.05 -0.03 -0.05 -0.03 -0.05 -0.03 -0.05 -0.04 -0.05 -0.04 -0.04 -0.04 -0.04 -0.04 -0.04 -0.04 -0.04 -0.05 -0.04 -0.05 -0.03 -0.05 -0.03 -0.05 -0.03 -0.05 -0.03 -0.05 -0.02 -0.05 -0.02 -0.06 -0.02 -0.06 -0.01 -0.06 -0.01 -0.06 -0.01 -0.06 -0.01 -0.06 0.06 -0 0.01 0.06 0.01 0.06 0.01 0.06 0.01 0.05 0.02 0.05 0.02 0.05 0.02 0.05 0.02 0.05 0.03 0.05 0.03 0.05 0.03 0.05 0.03 0.05 0.04 0.04 0.04 0.04 0.04 0.04 0.04 0.04 0.04 0.04 0.05 0.03 0.05 0.03 0.05 0.03 0.05 0.03 0.05 0.03 0.05 0.02 0.05 0.02 0.06 0.02 0.06 0.01 0.06 0.01 0.06 0.01 0.06 0.01 0.06 0 0.06 -0 0.06 -0 0 0zm1.08 -1.27l0.06 -0 0 0 0 0.07 0 0.07 -0 0.06 -0.01 0.06 -0.01 0.06 -0.01 0.06 -0.02 0.06 -0.02 0.06 -0.02 0.06 -0.02 0.06 -0.03 0.05 -0.03 0.05 -0.03 0.05 -0.03 0.05 -0.04 0.05 -0.04 0.05 -0.04 0.04 -0.04 0.04 -0.04 0.04 -0.05 0.04 -0.05 0.04 -0.05 0.03 -0.05 0.03 -0.05 0.03 -0.05 0.03 -0.05 0.02 -0.06 0.02 -0.06 0.02 -0.06 0.02 -0.06 0.01 -0.06 0.01 -0.06 0.01 -0 -0.06 0.06 -0.01 0.06 -0.01 0.06 -0.01 0.06 -0.01 0.05 -0.02 0.05 -0.02 0.05 -0.02 0.05 -0.02 0.05 -0.03 0.05 -0.03 0.05 -0.03 0.05 -0.03 0.04 -0.04 0.04 -0.04 0.04 -0.04 0.04 -0.04 0.04 -0.04 0.03 -0.05 0.03 -0.05 0.03 -0.05 0.03 -0.05 0.02 -0.05 0.02 -0.05 0.02 -0.05 0.02 -0.06 0.01 -0.06 0.01 -0.06 0.01 -0.06 0.01 -0.06 0 -0.06 -0 -0.06 -0 -0.06 0 0zm-1.27 -1.08l-0 -0.06 0 0 0.07 -0 0.07 0 0.06 0 0.06 0.01 0.06 0.01 0.06 0.01 0.06 0.02 0.06 0.02 0.06 0.02 0.06 0.02 0.05 0.03 0.05 0.03 0.05 0.03 0.05 0.03 0.05 0.04 0.05 0.04 0.04 0.04 0.04 0.04 0.04 0.04 0.04 0.05 0.03 0.05 0.03 0.05 0.03 0.05 0.03 0.05 0.03 0.05 0.02 0.05 0.02 0.06 0.02 0.06 0.01 0.06 0.01 0.06 0.01 0.06 0.01 0.06 -0.06 0 -0.01 -0.06 -0.01 -0.06 -0.01 -0.06 -0.01 -0.06 -0.02 -0.05 -0.02 -0.05 -0.02 -0.05 -0.02 -0.05 -0.03 -0.05 -0.03 -0.05 -0.03 -0.05 -0.03 -0.04 -0.04 -0.04 -0.04 -0.04 -0.04 -0.04 -0.04 -0.04 -0.04 -0.04 -0.04 -0.03 -0.05 -0.03 -0.05 -0.03 -0.05 -0.03 -0.05 -0.03 -0.05 -0.02 -0.05 -0.02 -0.06 -0.02 -0.06 -0.01 -0.06 -0.01 -0.06 -0.01 -0.06 -0.01 -0.06 -0 -0.06 0 -0.06 0 0 0z"/>
   </g>
   <g>
    <path class="fil0" d="M0.89 1.85l0 -0.06 0 0 0.02 0 0.02 -0 0.01 -0 0.01 -0 0.01 -0 0.01 -0 0.01 -0 0.01 -0 0.01 -0 0.01 -0 0.01 -0 0.01 -0 0.01 -0 0.01 -0 0.01 -0 0.01 -0 0.01 -0 0.01 -0 0.01 -0 0.01 -0 0.01 -0 0.01 -0 0.01 -0.01 0.01 -0.01 0.01 -0.01 0.01 -0.01 0.01 -0.01 0.01 -0.01 0.01 -0.01 0.01 -0.01 0.01 -0 0.01 -0.01 0.02 0.05 -0.01 0 -0.01 0 -0.01 0 -0.01 0 -0.01 0 -0.01 0 -0.01 0 -0.01 0 -0.01 0 -0.01 0 -0.01 0 -0.01 0 -0.01 0.01 -0.01 0 -0.01 0 -0.01 0.01 -0.01 0 -0.01 0 -0.01 0 -0.01 0 -0.01 0 -0.01 0 -0.01 0 -0.01 0 -0.01 0 -0.01 0 -0.01 0 -0.01 0 -0.02 0 -0.02 0 -0.02 0 -0.02 0 0 0zm-0.19 0.18l-0.05 -0.02 0 0 0 -0.01 0 -0.01 0 -0.01 0 -0.01 0 -0.01 0 -0.01 0 -0.01 0 -0.01 0 -0.01 0 -0.01 0 -0.01 0 -0.01 0.01 -0.01 0.01 -0.01 0.01 -0.01 0.01 -0.01 0.01 -0.01 0.01 -0.01 0.01 -0.01 0.01 -0.01 0.01 -0.01 0.01 -0 0.01 -0 0.01 -0 0.01 -0 0.01 -0 0.01 -0 0.01 -0 0.01 -0 0.01 -0 0.01 -0 0.01 0 -0 0.06 -0.01 0 -0.01 0 -0.01 0 -0.01 0 -0.01 0 -0.01 0 -0.01 0 -0.01 0 -0.01 0 -0.01 0 -0.01 0 -0.01 0 -0.01 0 -0 0 -0 0 -0 0 -0 0 -0 0.01 -0 0.01 -0 0.01 -0 0.01 -0 0.01 -0 0.01 -0 0.01 -0 0.01 -0 0.01 -0 0.01 -0 0.01 -0 0.01 -0 0.01 -0 0.01 -0 0.01 0 0zm-0.2 0.22l-0.05 -0.03 0 0 0.01 -0.01 0.01 -0.01 0.01 -0.01 0.01 -0.01 0.01 -0.01 0.01 -0.01 0.01 -0.01 0.01 -0.01 0.01 -0.01 0.01 -0.01 0.01 -0.01 0.01 -0.01 0.01 -0.01 0.01 -0.01 0.01 -0 0.01 -0 0.01 -0 0.01 -0 0.01 -0.01 0.01 -0.01 0.01 -0.01 0.01 -0.01 0.01 -0.01 0.01 -0.01 0.01 -0.01 0.01 -0.01 0 -0.01 0 -0.01 0 -0.01 0 -0.01 0 -0.01 0 -0.01 0.05 0.02 -0 0.01 -0 0.01 -0.01 0.01 -0.01 0.01 -0.01 0.01 -0.01 0.01 -0.01 0.01 -0.01 0.01 -0.01 0.01 -0.01 0.01 -0.01 0.01 -0.01 0.01 -0.01 0.01 -0.01 0.01 -0.01 0.01 -0.01 0.01 -0.01 0.01 -0.01 0.01 -0.01 0 -0.01 0 -0.01 0 -0.01 0.01 -0.01 0 -0.01 0 -0.01 0.01 -0.01 0.01 -0.01 0.01 -0.01 0.01 -0 0.01 -0 0.01 -0 0.01 -0 0.01 0 0zm-0.05 -0.03l0 0 0 0 0 0zm0.07 0.36l-0.05 -0.01 0 0 0 -0.01 0 -0.01 0 -0.01 0 -0.01 0 -0.01 -0 -0.01 -0 -0.01 -0 -0.01 -0 -0.01 -0 -0.01 -0 -0.01 -0 -0.01 -0 -0.01 -0 -0.01 -0 -0.01 -0 -0.01 -0 -0.01 -0 -0.01 -0 -0.01 -0 -0.01 -0 -0.01 -0 -0.01 -0 -0.01 -0 -0.01 -0 -0.01 0 -0.01 0 -0.01 0 -0.01 0 -0.01 0 -0.01 0.01 -0.01 0.01 -0.01 0.05 0.03 -0 0.01 -0 0.01 -0 0.01 -0 0.01 -0 0.01 -0 0.01 -0 0.01 0 0.01 0 0.01 0 0.01 0 0.01 0 0.01 0 0.01 0 0.01 0 0.01 0 0.01 0 0.01 0 0.01 0 0.01 0 0.01 0 0.01 0 0.01 0 0.01 0 0.01 0 0.01 0 0.01 0 0.01 -0 0.01 -0 0.01 -0 0.01 -0 0.01 -0 0.02 0 0zm0 0l0 0 0 0 0 0zm0.03 0.25l-0.03 0.04 -0 0 -0.01 -0.01 -0.01 -0.01 -0.01 -0.01 -0.01 -0.01 -0.01 -0.01 -0.01 -0.01 -0.01 -0.01 -0.01 -0.01 -0.01 -0.01 -0 -0.01 -0 -0.01 -0 -0.01 -0 -0.01 -0 -0.01 -0 -0.01 -0 -0.01 0 -0.01 0 -0.01 0 -0.01 0 -0.01 0 -0.01 0 -0.01 0 -0.01 0 -0.01 0 -0.01 0 -0.01 0 -0.01 0 -0.01 0 -0.01 0 -0.01 0 -0.01 0 -0.01 0.05 0.01 -0 0.01 -0 0.01 -0 0.01 -0 0.01 -0 0.01 -0 0.01 -0 0.01 -0 0.01 -0 0.01 -0 0.01 -0 0.01 -0 0.01 -0 0.01 -0 0.01 -0 0.01 -0 0.01 0 0.01 0 0.01 0 0.01 0 0.01 0 0.01 0 0.01 0 0.01 0 0.01 0 0.01 0 0.01 0.01 0.01 0.01 0.01 0.01 0.01 0.01 0.01 0.01 0.01 0.01 0.01 -0 0zm0.18 0.25l-0.05 0.02 0 0 -0.01 -0.02 -0.01 -0.01 -0.01 -0.01 -0 -0.01 -0 -0.01 -0 -0.01 -0 -0.01 -0 -0.01 -0 -0.01 -0 -0.01 -0 -0.01 -0 -0.01 -0 -0.01 -0 -0 -0 -0 -0 -0 -0 -0 -0 -0 -0 -0 -0 -0 -0 -0 -0 -0 -0 -0 -0.01 -0 -0.01 -0.01 -0.01 -0.01 -0.01 -0.01 -0.01 -0.01 -0.01 -0.01 -0.01 -0.01 -0.01 -0.01 -0.01 -0.01 0.03 -0.04 0.01 0.01 0.01 0.01 0.01 0.01 0.01 0.01 0.01 0.01 0.01 0.01 0.01 0.01 0.01 0.01 0.01 0.01 0.01 0.01 0.01 0.01 0 0.01 0 0.01 0 0.01 0 0.01 0 0.01 0 0.01 0 0.01 0 0.01 0 0.01 0 0.01 0 0.01 0 0.01 0 0.01 0 0.01 0 0.01 0 0.01 0 0.01 0 0.01 0.01 0.01 0.01 0.01 0.01 0.01 0 0zm0.09 0.08l-0.01 0.05 -0 0 -0 -0 -0.01 -0 -0.01 -0 -0.01 -0 -0 -0 -0 -0 -0 -0 -0 -0 -0 -0 -0 -0 -0 -0 -0 -0 -0 -0 -0 -0 -0 -0 -0 -0 -0 -0 -0 -0 -0 -0 -0 -0 -0 -0 -0 -0 -0 -0 -0 -0 -0 -0 -0 -0 -0 -0 -0 -0 -0 -0 -0 -0 -0 -0 -0 -0 0.05 -0.02 0 0 0 0 0 0 0 0 0 0 0 0 0 0 0 0 0 0 0 0 0 0 0 0 0 0 0 0 0 0 0 0 0 0 0 0 0 0 0 0 0 0 0 0 0 0 0 0 0 0 0 0 0 0 0 0 0 0 0 0 0 0 0 0 -0 0zm-0.01 0.05l-0 0 -0.01 -0 0.01 0zm0.21 -0.04l-0.02 0.05 -0 0 -0 -0 -0 -0 -0 -0 -0.01 -0 -0.01 -0 -0.01 -0 -0.01 -0 -0.01 -0 -0.01 -0 -0.01 -0 -0.01 -0 -0.01 0 -0.01 0 -0.01 0 -0.01 0 -0.01 0 -0.01 0 -0.01 0 -0.01 0 -0.01 0 -0.01 0 -0.01 -0 -0.01 -0 -0.01 -0 -0.01 -0 -0.01 -0 -0.01 -0 -0.01 -0 -0.01 -0 -0.01 -0 -0.01 -0 -0.01 -0 0.01 -0.05 0.01 0 0 0 0.01 0 0.01 0 0.01 0 0.01 0 0.01 0 0.01 0 0.01 0 0.01 0 0.01 0 0.01 0 0.01 0 0.01 0 0.01 0 0.01 0 0.01 -0 0.01 0 0.01 0 0.01 0 0.01 0 0.01 0 0.01 0 0.01 0 0.01 0 0.01 0 0.01 0 0.01 0 0.01 0 0.01 0 0.01 0 0.01 0 -0 0zm-0.02 0.05l-0 0 -0.03 -0.01 0.03 0.01zm0.29 0.05l0.02 0.05 0 0 -0.01 0.01 -0.01 0 -0.01 0 -0.01 0 -0.01 0 -0.01 0 -0.01 -0 -0.01 -0 -0.01 -0 -0.01 -0 -0.01 -0 -0.01 -0 -0.01 -0 -0.01 -0.01 -0.01 -0.01 -0.01 -0.01 -0.01 -0.01 -0.01 -0.01 -0.01 -0.01 -0.01 -0.01 -0.01 -0.01 -0.01 -0.01 -0.01 -0.01 -0.01 -0.01 -0.01 -0.01 -0.01 -0.01 -0.01 -0 -0.01 -0 -0.01 -0 -0.01 -0 -0.01 -0 -0.01 -0 0.02 -0.05 0.01 0 0.01 0 0.01 0 0.01 0.01 0.01 0.01 0.01 0.01 0.01 0.01 0.01 0.01 0.01 0.01 0.01 0.01 0.01 0.01 0.01 0.01 0.01 0.01 0.01 0.01 0.01 0.01 0.01 0 0.01 0 0.01 0 0.01 0 0.01 0 0.01 0 0.01 0 0.01 0 0.01 0 0.01 0 0.01 0 0.01 -0 0.01 -0 0.01 -0 0.01 -0 0.01 -0 0.01 -0 0 0zm0.3 -0.11l0 0.06 0 0 -0.02 0 -0.02 0 -0.02 0 -0.02 0 -0.01 0 -0.01 0 -0.01 0 -0.01 0 -0.01 0 -0.01 0 -0.01 0 -0.01 0 -0 0 -0 0 -0 0 -0 0 -0 0 -0 0 -0 0 -0 0 -0 0 -0 0 -0.01 0.01 -0.01 0.01 -0.01 0.01 -0.01 0.01 -0.01 0.01 -0.01 0.01 -0.01 0.01 -0.01 0.01 -0.01 0.01 -0.01 0.01 -0.02 -0.05 0.01 -0 0.01 -0 0.01 -0 0.01 -0 0.01 -0 0.01 -0 0.01 -0 0 -0 0 -0 0 -0 0 -0 0 -0 0 -0 0 -0 0.01 -0 0.01 -0 0.01 -0 0.01 -0 0.01 -0 0.01 -0 0.01 -0 0.01 -0 0.01 -0 0.01 -0 0.01 -0 0.01 -0 0.01 -0 0.02 -0 0.02 -0 0.02 -0 0.02 -0 0.02 -0 0 0zm-0 0l-0 0 0 0 -0 0zm0.18 -0.19l0.05 0.02 0 0 -0 0.01 -0 0.01 -0 0.01 -0 0.01 -0 0.01 -0 0.01 -0 0.01 -0 0.01 -0 0.01 -0 0.01 -0 0.01 -0 0.01 -0 0.01 -0.01 0.01 -0.01 0.01 -0.01 0.01 -0.01 0.01 -0.01 0.01 -0.01 0.01 -0.01 0.01 -0.01 0.01 -0.01 0.01 -0.01 0 -0.01 0 -0.01 0 -0.01 0 -0.01 0 -0.01 0 -0.01 0 -0.01 0 -0.01 0 -0.01 0 -0 -0.06 0.01 -0 0.01 -0 0.01 -0 0.01 -0 0.01 -0 0.01 -0 0.01 -0 0.01 -0 0.01 -0 0.01 -0 0.01 -0 0.01 -0 0.01 -0 0 -0 0 -0.01 0 -0.01 0 -0.01 0 -0.01 0 -0.01 0 -0.01 0 -0.01 0 -0.01 0 -0.01 0 -0.01 0 -0.01 0 -0.01 0 -0.01 0 -0.01 0 -0.01 0 -0.01 0 -0.01 0 -0.01 0 0zm0.2 -0.22l0.05 0.02 0 0 -0.01 0.01 -0.01 0.01 -0.01 0.01 -0.01 0.01 -0.01 0.01 -0.01 0.01 -0.01 0.01 -0.01 0.01 -0.01 0.01 -0.01 0.01 -0.01 0.01 -0.01 0.01 -0.01 0.01 -0.01 0.01 -0.01 0 -0.01 0.01 -0.01 0 -0.01 0 -0.01 0.01 -0.01 0 -0.01 0.01 -0.01 0 -0.01 0.01 -0.01 0.01 -0.01 0.01 -0.01 0.01 -0 0.01 -0 0.01 -0 0.01 -0 0.01 -0 0.01 -0 0.01 -0.05 -0.02 0 -0.01 0.01 -0.01 0.01 -0.01 0.01 -0.01 0.01 -0.01 0.01 -0.01 0.01 -0.01 0.01 -0.01 0.01 -0.01 0.01 -0.01 0.01 -0.01 0.01 -0.01 0.01 -0.01 0.01 -0.01 0.01 -0.01 0.01 -0.01 0.01 -0.01 0.01 -0 0.01 -0 0.01 -0 0.01 -0 0.01 -0 0.01 -0 0.01 -0.01 0.01 -0.01 0.01 -0.01 0 -0.01 0 -0.01 0 -0.01 0 -0.01 0 -0.01 0 -0.01 0 0zm-0.02 -0.32l0.05 0.01 0 0 -0 0.01 -0 0.01 -0 0.01 -0 0.01 0 0.01 0 0.01 0 0.01 0 0.01 0 0.01 0 0.01 0 0.01 0 0.01 0 0.01 0 0.01 0 0.01 0 0.01 0 0.01 0 0.01 0 0.01 0 0.01 0 0.01 0 0.01 0 0.01 0 0.01 0 0.01 0 0.01 -0 0.01 -0 0.01 -0 0.01 -0 0.01 -0 0.01 -0.01 0.01 -0.05 -0.02 0 -0.01 0 -0.01 0 -0.01 0 -0.01 0 -0.01 0 -0.01 0 -0.01 -0 -0.01 -0 -0.01 -0 -0.01 -0 -0.01 -0 -0.01 -0 -0.01 -0 -0.01 -0 -0.01 -0 -0.01 -0 -0.01 -0 -0.01 -0 -0.01 -0 -0.01 -0 -0.01 -0 -0.01 -0 -0.01 -0 -0.01 -0 -0.01 -0 -0.01 -0 -0.01 -0 -0.01 0 -0.01 0 -0.01 0 -0.01 0 -0.01 0 0zm-0.03 -0.25l0.03 -0.04 0 0 0.01 0.01 0.01 0.01 0.01 0.01 0.01 0.01 0.01 0.01 0.01 0.01 0.01 0.01 0.01 0.01 0 0.01 0 0.01 0 0.01 0 0.01 0 0.01 0 0.01 0 0.01 0 0.01 -0 0.01 -0 0.01 -0 0.01 -0 0.01 -0 0.01 -0 0.01 -0 0.01 -0 0.01 -0 0.01 -0 0.01 -0 0.01 -0 0.01 -0 0.01 -0 0.01 -0 0.01 -0 0.01 -0.05 -0.01 0 -0.01 0 -0.01 0 -0.01 0 -0.01 0 -0.01 0 -0.01 0 -0.01 0 -0.01 0 -0.01 0 -0.01 0 -0.01 0 -0.01 0 -0.01 0 -0.01 0 -0.01 0 -0.01 0 -0.01 -0 -0.01 -0 -0.01 -0 -0.01 -0 -0.01 -0 -0.01 -0 -0.01 -0 -0.01 -0 -0.01 -0 -0.01 -0.01 -0.01 -0.01 -0.01 -0.01 -0.01 -0.01 -0.01 -0.01 -0.01 -0.01 -0.01 0 0zm-0.18 -0.25l0.05 -0.02 0 0 0.01 0.02 0.01 0.02 0.01 0.01 0.01 0.01 0 0.01 0 0.01 0 0.01 0 0.01 0 0.01 0 0.01 0 0.01 0 0.01 0 0.01 0 0 0 0 0 0 0 0 0 0 0 0 0 0 0 0 0 0 0 0 0.01 0 0.01 0.01 0.01 0.01 0.01 0.01 0.01 0.01 0.01 0.01 0.01 0.01 0.01 0.01 0.01 0.01 -0.03 0.04 -0.01 -0.01 -0.01 -0.01 -0.01 -0.01 -0.01 -0.01 -0.01 -0.01 -0.01 -0.01 -0.01 -0.01 -0.01 -0.01 -0.01 -0.01 -0.01 -0.01 -0.01 -0 -0 -0 -0 -0 -0 -0.01 -0 -0.01 -0 -0.01 -0 -0.01 -0 -0.01 -0 -0.01 -0 -0.01 -0 -0.01 -0 -0.01 -0 -0.01 -0 -0.01 -0 -0.01 -0 -0.01 -0 -0.01 -0 -0.01 -0 -0.01 -0.01 -0.01 -0.01 -0.01 -0.01 -0.02 0 0zm0.05 -0.02l0 0 -0.03 -0.06 0.03 0.06zm-0.33 -0.08l0.01 -0.05 0 0 0.01 0 0.01 0 0.01 0 0.01 0 0.01 0 0.01 0 0.01 0 0.01 0 0.01 0 0.01 -0 0.01 -0 0.01 -0 0.01 0 0.01 0 0.01 0 0.01 0 0.01 0 0.01 0 0.01 0 0.01 0 0.01 0 0.01 0 0.01 0.01 0.01 0.01 0.01 0.01 0.01 0.01 0.01 0.01 0.01 0.01 0.01 0.01 0.01 0.01 0.01 0.01 0.01 0.02 -0.05 0.02 -0.01 -0.01 -0.01 -0.01 -0.01 -0.01 -0.01 -0.01 -0.01 -0.01 -0.01 -0.01 -0.01 -0.01 -0.01 -0 -0.01 -0 -0.01 -0 -0.01 -0 -0.01 -0 -0.01 -0 -0.01 -0 -0.01 -0 -0.01 -0 -0.01 -0 -0.01 -0 -0.01 -0 -0.01 0 -0.01 0 -0.01 0 -0.01 0 -0.01 0 -0.01 0 -0.01 -0 -0.01 -0 -0.01 -0 -0.01 -0 -0.01 -0 -0.01 -0 -0.01 -0 0 0zm0 0l0 0 0 0 0 0zm-0.27 -0.11l-0.02 -0.05 0 0 0.01 -0 0.01 -0 0.01 -0 0.01 -0 0.01 -0 0.01 0 0.01 0 0.01 0 0.01 0 0.01 0 0.01 0 0.01 0 0.01 0.01 0.01 0.01 0.01 0.01 0.01 0.01 0.01 0.01 0.01 0.01 0.01 0.01 0.01 0.01 0.01 0.01 0.01 0.01 0.01 0.01 0.01 0.01 0.01 0.01 0.01 0 0.01 0 0.01 0 0.01 0 0.01 0 0.01 0 0.01 0 -0.01 0.05 -0.01 -0 -0.01 -0 -0.01 -0 -0.01 -0.01 -0.01 -0.01 -0.01 -0.01 -0.01 -0.01 -0.01 -0.01 -0.01 -0.01 -0.01 -0.01 -0.01 -0.01 -0.01 -0.01 -0.01 -0.01 -0.01 -0.01 -0.01 -0.01 -0.01 -0.01 -0.01 -0.01 -0.01 -0 -0.01 -0 -0.01 -0 -0.01 -0 -0.01 -0 -0.01 -0 -0.01 -0 -0.01 -0 -0.01 -0 -0.01 -0 -0.01 0 -0.01 0 -0.01 0 -0.01 0 -0.01 0 0 0z"/>
   </g>
   <g>
    <path class="fil0" d="M0.53 1.31l0.03 0.05 -0 0 -0 0 -0 0 -0 0 -0 0 -0 0 -0 0 -0 0 -0 0 -0 0 -0 0 -0.01 0 -0.01 0 -0 0 -0.01 0 -0.01 0 -0.01 0 -0 0 -0.01 0 -0.01 0 -0 0 -0 0 -0 0 -0 0 -0 0 -0 0 -0 0 -0 0 -0 0 -0 0 -0 0 -0 0 -0 0 -0.01 -0.05 -0 0 -0 0 0 -0 0 -0 0 -0 0 -0 0 -0 0 -0 0 -0 0 -0 0 -0 0 -0 0 -0 0.01 -0 0 -0 0.01 -0 0.01 -0 0 -0 0.01 -0 0.01 -0 0 -0 0 -0 0 -0 0 -0 0 -0 0 -0 0 -0 0 -0 0 -0 0 -0 0 -0 0 -0 -0 0zm0.03 0.05l-0 0 -0.01 0.01 0.01 -0.01zm0.11 -0.11l0.06 0 -0.01 0.02 -0 0 -0.01 0 -0 0 -0 0 -0 0 -0.01 0 -0 0 -0.01 0 -0.01 0 -0 0 -0 0 -0.01 0 -0.01 0 -0.01 0 -0.01 0 -0.01 0 -0.01 0 -0 0 -0.01 0 -0 0 -0.01 0 -0 0 -0 0 -0 0 -0 0 -0.01 0 -0 0 -0 0 -0 0 -0 0 -0 0 -0 0 -0.03 -0.05 0.01 -0 0.01 -0 0 -0 0 -0 0.01 -0 0.01 -0 0 -0 0.01 -0 0.01 -0 0.01 -0 0 -0 0 -0 0.01 -0 0 -0 0 -0 0.01 -0 0 -0 0.01 -0 0 -0 0 -0 0 -0 0 -0 0 -0 0 -0 0 -0 0 -0 0 -0 0 -0 0 -0 0 -0 0 -0 0 -0 -0.01 0.02zm0.06 0l-0 0.01 -0.01 0.01 0.01 -0.02zm-0.05 -0.37l0.06 0 0 0 -0 0.01 -0 0.01 0 0.01 -0 0.01 0 0.01 0 0.01 0 0.01 0 0.01 0 0.01 0 0.01 0 0.01 0 0.01 0 0.01 0 0.01 0 0.01 0 0.01 0 0.01 -0 0.01 0 0.01 -0 0.01 0 0.01 -0 0.01 -0 0.01 -0 0.01 -0 0.01 -0 0.01 -0 0.01 -0 0.01 -0 0.01 -0 0.01 -0 0.01 -0 0.01 -0.06 -0 0 -0.01 0 -0.01 0 -0.01 0 -0.01 0 -0.01 0 -0.01 0 -0.01 0 -0.01 0 -0.01 0 -0.01 0 -0.01 0 -0.01 0 -0.01 0 -0.01 0 -0.01 0 -0.01 0 -0.01 0 -0.01 0 -0.01 -0 -0.01 0 -0.01 0 -0.01 0 -0.01 0 -0.01 0 -0.01 0 -0.01 0 -0.01 0 -0.01 0 -0.01 0 -0.01 0 -0.01 0 -0.01 0 0zm0 0l0 0 0 0 0 0zm0.07 -0.31l0.05 0.03 0 0 -0.01 0.01 -0.01 0.01 -0 0.01 -0 0.01 -0 0.01 -0 0.01 -0 0.01 -0 0.01 -0 0.01 -0 0.01 -0 0.01 -0 0.01 -0 0.01 -0 0.01 -0 0.01 -0 0.01 -0 0.01 -0 0.01 -0 0.01 -0 0.01 -0 0.01 -0 0.01 -0 0.01 -0 0.01 -0 0.01 -0 0.01 -0 0.01 -0 0.01 -0 0.01 -0 0.01 -0 0.01 -0 0.01 -0.06 -0 0 -0.01 0 -0.01 0 -0.01 0 -0.01 0 -0.01 0 -0.01 0 -0.01 0 -0.01 0 -0.01 0 -0.01 0 -0.01 0 -0.01 0 -0.01 0 -0.01 0 -0.01 0 -0.01 0 -0.01 0 -0.01 0 -0.01 0 -0.01 0 -0.01 0 -0.01 0 -0.01 0 -0.01 0 -0.01 0 -0.01 0 -0.01 0 -0.01 0 -0.01 0 -0.01 0.01 -0.01 0.01 -0.01 0 0zm0.98 -0.01l-0.05 0.03 0 0 -0.02 -0.03 -0.02 -0.03 -0.02 -0.03 -0.02 -0.02 -0.03 -0.02 -0.03 -0.02 -0.03 -0.02 -0.03 -0.02 -0.03 -0.01 -0.03 -0.01 -0.03 -0.01 -0.03 -0.01 -0.03 -0.01 -0.03 -0 -0.03 -0 -0.03 -0 -0.03 0 -0.03 0 -0.03 0.01 -0.03 0.01 -0.03 0.01 -0.03 0.01 -0.03 0.01 -0.03 0.02 -0.03 0.02 -0.03 0.02 -0.03 0.02 -0.02 0.02 -0.02 0.03 -0.02 0.03 -0.02 0.03 -0.02 0.03 -0.05 -0.03 0.02 -0.04 0.02 -0.03 0.02 -0.03 0.03 -0.03 0.03 -0.03 0.03 -0.02 0.03 -0.02 0.03 -0.02 0.03 -0.02 0.03 -0.01 0.03 -0.01 0.03 -0.01 0.04 -0.01 0.04 -0.01 0.04 -0 0.04 -0 0.04 0 0.04 0 0.04 0.01 0.04 0.01 0.03 0.01 0.03 0.01 0.03 0.01 0.03 0.02 0.03 0.02 0.03 0.02 0.03 0.02 0.03 0.03 0.03 0.03 0.02 0.03 0.02 0.03 0.02 0.03 0 0zm0.06 0.67l-0.03 0.05 -0.01 -0.02 -0 -0.02 -0 -0.02 0 -0.02 0 -0.02 0 -0.02 0 -0.02 0 -0.02 0 -0.02 0 -0.02 0 -0.02 0 -0.02 0 -0.02 0 -0.02 -0 -0.02 -0 -0.02 -0 -0.02 -0 -0.02 -0 -0.02 -0 -0.02 -0 -0.02 -0 -0.02 -0 -0.02 -0 -0.02 -0 -0.02 -0 -0.02 -0 -0.02 -0.01 -0.02 -0.01 -0.02 -0.01 -0.02 -0.01 -0.02 -0.01 -0.02 -0.01 -0.02 0.05 -0.03 0.01 0.02 0.01 0.02 0.01 0.02 0.01 0.02 0.01 0.02 0.01 0.02 0.01 0.02 0 0.02 0 0.02 0 0.02 0 0.02 0 0.02 0 0.02 0 0.02 0 0.02 0 0.02 0 0.02 0 0.02 0 0.02 0 0.02 -0 0.02 -0 0.02 -0 0.02 -0 0.02 -0 0.02 -0 0.02 -0 0.02 -0 0.02 -0 0.02 0 0.02 0 0.02 0 0.02 -0.01 -0.02zm-0.03 0.05l-0.01 -0.01 -0 -0.02 0.01 0.02zm0.21 0.12l-0.21 -0.12 0.03 -0.05 0.21 0.12 0 0 -0.03 0.05zm0.03 -0.05l0 0 0 0 -0 -0zm0.03 0.06l0.06 -0 -0.03 0.03 -0 0 -0 0 -0 0 -0 0 -0 0 -0 0 -0 0 -0 0 -0 -0 -0 -0 -0 -0 -0 -0 -0 -0 -0 -0 -0 -0 -0 -0 -0 -0 -0 -0 -0 -0 -0 -0 -0 -0 -0 -0 -0 -0 -0 -0 -0 -0 -0 -0 -0 -0 -0 -0 -0 -0 -0 -0 -0 -0 -0.01 -0 0.03 -0.05 0.01 0 0 0 0 0 0 0 0 0 0 0 0 0 0 0 0 0 0 0 0 0 0 0 0 0 0 0 0 0 -0 -0 -0 -0 0 0 -0 -0 -0 -0 -0 -0 -0 -0 0 0 -0 -0 -0 0 0 0 0 0 0 0 0 0 0 0 0 -0 0 0 -0.03 0.03zm0.06 -0l0 0.03 -0.03 0 0.03 -0.03zm-0.16 -0.96l0.05 -0.03 0 0 0.01 0.03 0.01 0.03 0.01 0.03 0.01 0.03 0.01 0.03 0.01 0.03 0.01 0.03 0.01 0.03 0.01 0.03 0.01 0.03 0 0.03 0 0.03 0 0.03 0 0.03 0 0.03 0 0.03 0 0.03 0 0.03 0 0.03 0 0.03 -0 0.03 -0 0.03 -0 0.03 -0 0.03 -0 0.03 -0 0.03 -0 0.03 -0 0.03 -0 0.03 -0 0.03 0 0.03 0 0.03 -0.06 0 -0 -0.03 -0 -0.03 0 -0.03 0 -0.03 0 -0.03 0 -0.03 0 -0.03 0 -0.03 0 -0.03 0 -0.03 0 -0.03 0 -0.03 -0 -0.03 -0 -0.03 -0 -0.03 -0 -0.03 -0 -0.03 -0 -0.03 -0 -0.03 -0 -0.03 -0 -0.03 -0 -0.03 -0.01 -0.03 -0.01 -0.03 -0.01 -0.03 -0.01 -0.03 -0.01 -0.03 -0.01 -0.03 -0.01 -0.03 -0.01 -0.03 -0.01 -0.03 -0.01 -0.03 0 0zm-1.47 0.42l-0.06 -0 0 0 0.01 -0.09 0.01 -0.08 0.02 -0.08 0.02 -0.07 0.03 -0.07 0.03 -0.06 0.04 -0.06 0.04 -0.06 0.05 -0.05 0.05 -0.05 0.05 -0.04 0.06 -0.04 0.06 -0.03 0.06 -0.03 0.06 -0.02 0.06 -0.02 0.06 -0.01 0.07 -0.01 0.07 -0 0.07 0 0.07 0.01 0.06 0.01 0.06 0.02 0.06 0.02 0.06 0.03 0.06 0.03 0.06 0.04 0.05 0.04 0.05 0.05 0.05 0.05 0.04 0.06 0.04 0.06 -0.05 0.03 -0.04 -0.06 -0.04 -0.05 -0.04 -0.05 -0.05 -0.04 -0.05 -0.04 -0.05 -0.03 -0.05 -0.03 -0.06 -0.03 -0.06 -0.02 -0.06 -0.02 -0.06 -0.01 -0.06 -0.01 -0.06 -0 -0.06 0 -0.06 0.01 -0.06 0.01 -0.06 0.02 -0.06 0.02 -0.06 0.02 -0.05 0.03 -0.05 0.03 -0.05 0.04 -0.05 0.04 -0.04 0.05 -0.04 0.05 -0.04 0.06 -0.03 0.06 -0.03 0.06 -0.02 0.07 -0.02 0.07 -0.01 0.08 -0 0.08 0 0zm-0.04 0.53l0.01 0.05 -0.03 -0.02 -0 -0.01 -0 -0.01 -0 -0.01 -0 -0.02 -0 -0.02 -0 -0.02 -0 -0.02 -0 -0.02 -0 -0.02 -0 -0.02 0 -0.02 0 -0.02 0 -0.02 0 -0.02 0 -0.02 0 -0.02 0 -0.02 0 -0.02 0 -0.02 0 -0.02 0 -0.02 0 -0.02 0 -0.02 0 -0.02 0 -0.02 0 -0.02 0 -0.02 0 -0.02 0 -0.02 0 -0.01 0 -0.01 0 -0.01 0.06 0 -0 0.01 -0 0.01 -0 0.01 -0 0.02 -0 0.02 -0 0.02 -0 0.02 -0 0.02 -0 0.02 -0 0.02 -0 0.02 -0 0.02 -0 0.02 -0 0.02 -0 0.02 -0 0.02 -0 0.02 -0 0.02 -0 0.02 -0 0.02 0 0.02 0 0.02 0 0.02 0 0.02 0 0.02 0 0.02 0 0.02 0 0.01 0 0.01 0 0.01 0 0.01 0 0.01 -0.03 -0.02zm0.01 0.05l-0.03 0.01 -0 -0.03 0.03 0.02z"/>
   </g>
   <g>
    <path class="fil0" d="M1.33 2.99l0.01 0.05 0 0 -0.06 0.01 -0.06 0 -0.06 -0 -0.06 -0.01 -0.05 -0.01 -0.05 -0.02 -0.05 -0.02 -0.04 -0.03 -0.04 -0.03 -0.04 -0.04 -0.03 -0.04 -0.03 -0.04 -0.02 -0.04 -0.02 -0.05 -0.02 -0.05 -0.01 -0.05 -0.01 -0.05 -0 -0.05 0 -0.05 0 -0.05 0.01 -0.05 0.01 -0.05 0.02 -0.05 0.02 -0.05 0.03 -0.04 0.03 -0.04 0.04 -0.04 0.04 -0.03 0.05 -0.03 0.05 -0.03 0.06 -0.02 0.06 -0.02 0.01 0.05 -0.06 0.02 -0.05 0.02 -0.05 0.02 -0.04 0.03 -0.04 0.03 -0.03 0.03 -0.03 0.04 -0.03 0.04 -0.02 0.04 -0.02 0.04 -0.01 0.04 -0.01 0.04 -0 0.04 -0 0.05 0 0.05 0.01 0.04 0.01 0.04 0.01 0.04 0.02 0.04 0.02 0.04 0.03 0.04 0.03 0.04 0.03 0.03 0.03 0.03 0.04 0.03 0.04 0.02 0.04 0.02 0.05 0.01 0.05 0.01 0.05 0 0.05 -0 0.06 -0.01 0 0zm0.2 -0.87l0.03 -0.04 0 0 0.03 0.03 0.03 0.03 0.03 0.03 0.03 0.03 0.02 0.03 0.02 0.04 0.02 0.04 0.01 0.04 0.01 0.04 0.01 0.04 0 0.04 0 0.04 -0 0.04 -0 0.04 -0.01 0.04 -0.01 0.04 -0.01 0.04 -0.01 0.03 -0.02 0.03 -0.02 0.03 -0.02 0.03 -0.02 0.03 -0.02 0.03 -0.03 0.03 -0.03 0.03 -0.03 0.02 -0.03 0.02 -0.03 0.02 -0.04 0.02 -0.04 0.01 -0.04 0.01 -0.04 0.01 -0.01 -0.05 0.04 -0.01 0.03 -0.01 0.03 -0.01 0.03 -0.01 0.03 -0.02 0.03 -0.02 0.03 -0.02 0.02 -0.02 0.02 -0.02 0.02 -0.03 0.02 -0.03 0.02 -0.03 0.02 -0.03 0.01 -0.03 0.01 -0.03 0.01 -0.03 0.01 -0.03 0.01 -0.03 0 -0.03 0 -0.03 -0 -0.03 -0 -0.03 -0.01 -0.03 -0.01 -0.03 -0.01 -0.03 -0.01 -0.03 -0.02 -0.03 -0.02 -0.03 -0.02 -0.03 -0.03 -0.03 -0.03 -0.03 -0.03 -0.03 0 0zm-0.38 -0.09l-0.01 -0.05 0 0 0.01 -0 0.02 -0 0.02 -0 0.01 -0 0.02 -0 0.01 -0 0.01 0 0.01 0 0.01 0 0.01 0 0.01 0 0.01 0 0.01 0 0.01 0 0.01 0 0.01 0 0.01 0 0.01 0 0.01 0 0.01 0 0.01 0 0.01 0.01 0.01 0.01 0.01 0.01 0.01 0.01 0.01 0.01 0.01 0.01 0.01 0.01 0.01 0.01 0.01 0.01 0.01 0.01 0.01 0.01 -0.03 0.04 -0.01 -0.01 -0.01 -0.01 -0.01 -0.01 -0.01 -0.01 -0.01 -0.01 -0.01 -0.01 -0.01 -0.01 -0.01 -0.01 -0.01 -0.01 -0.01 -0.01 -0.01 -0 -0.01 -0 -0.01 -0 -0.01 -0 -0.01 -0 -0.01 -0 -0.01 -0 -0.01 -0 -0.01 -0 -0.01 -0 -0.01 -0 -0.01 -0 -0.01 -0 -0.01 -0 -0.01 -0 -0.01 0 -0.01 0 -0.01 0 -0.01 0 -0.01 0 -0.01 0 -0.01 0 0 0z"/>
   </g>
   <g>
    <path class="fil0" d="M1.29 2.85l0.01 0.05 0 0 -0.05 0.01 -0.05 0 -0.04 -0 -0.04 -0.01 -0.04 -0.01 -0.04 -0.02 -0.03 -0.02 -0.03 -0.02 -0.03 -0.03 -0.03 -0.03 -0.02 -0.03 -0.02 -0.03 -0.02 -0.03 -0.01 -0.03 -0.01 -0.04 -0.01 -0.04 -0 -0.04 -0 -0.04 0 -0.04 0.01 -0.04 0.01 -0.04 0.01 -0.04 0.02 -0.03 0.02 -0.03 0.02 -0.03 0.03 -0.03 0.03 -0.03 0.03 -0.02 0.04 -0.02 0.04 -0.02 0.04 -0.01 0.05 -0.01 0.01 0.05 -0.04 0.01 -0.04 0.01 -0.03 0.01 -0.03 0.02 -0.03 0.02 -0.02 0.02 -0.02 0.02 -0.02 0.03 -0.02 0.03 -0.01 0.03 -0.01 0.03 -0.01 0.03 -0 0.03 -0 0.03 0 0.03 0 0.03 0.01 0.03 0.01 0.03 0.01 0.03 0.01 0.03 0.02 0.03 0.02 0.03 0.02 0.02 0.02 0.02 0.03 0.02 0.03 0.02 0.03 0.01 0.03 0.01 0.04 0.01 0.04 0 0.04 -0 0.04 -0 0 0zm0.29 -0.4l0.05 -0.01 0 0 0 0.02 0 0.02 0 0.02 -0 0.02 -0 0.02 -0 0.02 -0 0.02 -0 0.02 -0.01 0.02 -0.01 0.02 -0.01 0.02 -0.01 0.02 -0.01 0.02 -0.01 0.02 -0.01 0.02 -0.01 0.02 -0.01 0.01 -0.01 0.01 -0.01 0.01 -0.01 0.01 -0.01 0.01 -0.01 0.01 -0.02 0.01 -0.02 0.01 -0.02 0.01 -0.02 0.01 -0.02 0.01 -0.02 0.01 -0.02 0.01 -0.02 0.01 -0.02 0 -0.02 0 -0.01 -0.05 0.02 -0 0.02 -0 0.02 -0 0.02 -0.01 0.01 -0.01 0.01 -0.01 0.01 -0.01 0.01 -0.01 0.01 -0.01 0.01 -0.01 0.01 -0.01 0.01 -0.01 0.01 -0.01 0.01 -0.01 0.01 -0.01 0.01 -0.01 0.01 -0.01 0.01 -0.01 0.01 -0.01 0.01 -0.01 0.01 -0.01 0.01 -0.02 0.01 -0.02 0 -0.02 0 -0.02 0 -0.02 0 -0.02 0 -0.02 0 -0.02 -0 -0.02 -0 -0.02 -0 -0.02 0 0zm-0.39 -0.29l-0.01 -0.05 0 0 0.02 -0 0.02 -0 0.02 -0 0.02 0 0.02 0 0.02 0 0.02 0 0.02 0 0.02 0.01 0.02 0.01 0.02 0.01 0.02 0.01 0.02 0.01 0.02 0.01 0.02 0.01 0.02 0.01 0.01 0.01 0.01 0.01 0.01 0.01 0.01 0.01 0.01 0.01 0.01 0.02 0.01 0.02 0.01 0.02 0.01 0.02 0.01 0.02 0.01 0.02 0.01 0.02 0.01 0.02 0.01 0.02 0 0.02 0 0.02 -0.05 0.01 -0 -0.02 -0 -0.02 -0 -0.02 -0.01 -0.02 -0.01 -0.01 -0.01 -0.01 -0.01 -0.01 -0.01 -0.01 -0.01 -0.01 -0.01 -0.01 -0.01 -0.01 -0.01 -0.01 -0.01 -0.01 -0.01 -0.01 -0.01 -0.01 -0.01 -0.01 -0.01 -0.01 -0.01 -0.01 -0.01 -0.01 -0.01 -0.01 -0.01 -0.01 -0.02 -0.01 -0.02 -0.01 -0.02 -0.01 -0.02 -0 -0.02 -0 -0.02 -0 -0.02 -0 -0.02 -0 -0.02 0 -0.02 0 -0.02 0 0 0z"/>
   </g>
   <path class="fil0" d="M1.11 2.3l0.28 0 0 0c-0.02,0.03 -0.03,0.04 -0.03,0.04l-0.07 0c0.01,0.01 0.02,0.03 0.02,0.04l0.08 0c0,0 0,0 0,0 -0.02,0.03 -0.03,0.04 -0.03,0.04l-0.05 0c-0,0.01 -0.01,0.03 -0.02,0.05 -0.02,0.02 -0.03,0.03 -0.05,0.04 -0.03,0.01 -0.05,0.02 -0.08,0.02l0 0c0,0 0.06,0.07 0.17,0.2l-0.07 0c-0.11,-0.13 -0.16,-0.19 -0.16,-0.19l0 -0.04 0 -0c0.01,0 0.02,0 0.03,0 0.06,0 0.1,-0.02 0.11,-0.06 0,-0.01 0,-0.01 0,-0.02l-0.17 0c-0,0 -0,-0 -0,-0 0.02,-0.03 0.03,-0.04 0.03,-0.04l0.13 0 0 -0c-0.01,-0.02 -0.02,-0.03 -0.04,-0.04 -0.02,-0.01 -0.03,-0.01 -0.04,-0.01l-0.07 0 0 -0c0.02,-0.03 0.03,-0.04 0.03,-0.04z"/>
  </g>
 </g>
</svg>
