<?xml version="1.0" encoding="UTF-8"?>
<!DOCTYPE svg PUBLIC "-//W3C//DTD SVG 1.1//EN" "http://www.w3.org/Graphics/SVG/1.1/DTD/svg11.dtd">
<!-- Creator: CorelDRAW 2019 (64-Bit) -->
<svg xmlns="http://www.w3.org/2000/svg" xml:space="preserve" width="0.0836181in" height="0.0716969in" version="1.1" style="shape-rendering:geometricPrecision; text-rendering:geometricPrecision; image-rendering:optimizeQuality; fill-rule:evenodd; clip-rule:evenodd"
viewBox="0 0 1.18 1.01"
 xmlns:xlink="http://www.w3.org/1999/xlink">
 <defs>
  <style type="text/css">
   <![CDATA[
    .fil0 {fill:black;fill-rule:nonzero}
   ]]>
  </style>
 </defs>
 <g id="Layer_x0020_1">
  <metadata id="CorelCorpID_0Corel-Layer"/>
  <g id="_2330627197152">
   <g>
    <path class="fil0" d="M0.51 0.09l-0.37 0 0 -0.01 0.37 0 0 0 0 0.01zm0.07 0.06l-0.01 0 0 0 -0 -0 -0 -0 -0 -0 -0 -0 -0 -0 -0 -0 -0 -0 -0 -0 -0 -0 -0 -0 -0 -0 -0 -0 -0 -0 -0 -0 -0 -0 -0 -0 -0 -0 -0 -0 -0 -0 -0 -0 -0 -0 -0 -0 -0 -0 -0 -0 -0 -0 -0 -0 -0 -0 -0 -0 -0 -0 -0 -0 -0 -0 -0 -0 0 -0.01 0 0 0 0 0 0 0 0 0 0 0 0 0 0 0 0 0 0 0 0 0 0 0 0 0 0 0 0 0 0 0 0 0 0 0 0 0 0 0 0 0 0 0 0 0 0 0 0 0 0 0 0 0 0 0 0 0 0 0 0 0 0 0 0 0 0zm-0.01 0.12l0 -0.12 0.01 0 0 0.12 -0.01 0zm-0.43 0.71l0.17 0 0 0.01 -0.17 0 0 0 0 -0.01zm-0.07 -0.06l0.01 0 0 0 0 0 0 0 0 0 0 0 0 0 0 0 0 0 0 0 0 0 0 0 0 0 0 0 0 0 0 0 0 0 0 0 0 0 0 0 0 0 0 0 0 0 0 0 0 0 0 0 0 0 0 0 0 0 0 0 0 0 0 0 0 0 0 0 0 0.01 -0 -0 -0 -0 -0 -0 -0 -0 -0 -0 -0 -0 -0 -0 -0 -0 -0 -0 -0 -0 -0 -0 -0 -0 -0 -0 -0 -0 -0 -0 -0 -0 -0 -0 -0 -0 -0 -0 -0 -0 -0 -0 -0 -0 -0 -0 -0 -0 -0 -0 -0 -0 -0 -0 -0 -0 -0 -0 -0 -0 -0 -0 -0 -0 0 0zm0.01 -0.26l0 0.26 -0.01 0 0 -0.26 0.01 0zm0 -0.51l0 0.31 -0.01 0 0 -0.31 0 0 0.01 0zm0.06 -0.07l0 0.01 -0 0 -0 0 -0 0 -0 0 -0 0 -0 0 -0 0 -0 0 -0 0 -0 0 -0 0 -0 0 -0 0 -0 0 -0 0 -0 0 -0 0 -0 0 -0 0 -0 0 -0 0 -0 0 -0 0 -0 0 -0 0 -0 0 -0 0 -0 0 -0 0 -0 0 -0 0 -0 0 -0.01 0 0 -0 0 -0 0 -0 0 -0 0 -0 0 -0 0 -0 0 -0 0 -0 0 -0 0 -0 0 -0 0 -0 0 -0 0 -0 0 -0 0 -0 0 -0 0 -0 0 -0 0 -0 0 -0 0 -0 0 -0 0 -0 0 -0 0 -0 0 -0 0 -0 0 -0 0 -0 0 -0z"/>
   </g>
   <g>
    <path class="fil0" d="M0.21 0.66l0.19 0.32 -0.01 0 -0.19 -0.32 0.01 -0zm0.02 -0.09l0 0.01 0 0 -0 0 -0 0 -0 0 -0 0 -0 0 -0 0 -0 0 -0 0 -0 0 -0 0 -0 0 -0 0 -0 0 -0 0 -0 0 -0 0 -0 0 -0 0 -0 0 -0 0 -0 0 0 0 0 0 0 0 0 0 0 0 0 0 0 0 0 0 0 0 0 0 0 0 -0.01 0 -0 -0 -0 -0 -0 -0 -0 -0 -0 -0 -0 -0 -0 -0 -0 -0 -0 -0 -0 -0 0 -0 0 -0 0 -0 0 -0 0 -0 0 -0 0 -0 0 -0 0 -0 0 -0 0 -0 0 -0 0 -0 0 -0 0 -0 0 -0 0 -0 0 -0 0 -0 0 -0 0 -0 0 -0 0 0zm0.67 -0.38l-0.67 0.39 -0 -0.01 0.67 -0.39 0 0.01zm0.09 0.02l-0.01 0 0 0 -0 -0 -0 -0 -0 -0 -0 -0 -0 -0 -0 -0 -0 -0 -0 -0 -0 -0 -0 -0 -0 -0 -0 -0 -0 -0 -0 -0 -0 -0 -0 -0 -0 -0 -0 -0 -0 -0 -0 -0 -0 -0 -0 0 -0 0 -0 0 -0 0 -0 0 -0 0 -0 0 -0 0 -0 0 -0 0 -0 0 -0 -0.01 0 -0 0 -0 0 -0 0 -0 0 -0 0 -0 0 -0 0 -0 0 -0 0 -0 0 -0 0 0 0 0 0 0 0 0 0 0 0 0 0 0 0 0 0 0 0 0 0 0 0 0 0 0 0 0 0 0 0 0 0 0 0 0 0 0 0 0 0 0 0 0zm0.18 0.33l-0.19 -0.32 0.01 -0 0.19 0.32 -0.01 0zm-0.02 0.09l-0 -0.01 0 0 0 -0 0 -0 0 -0 0 -0 0 -0 0 -0 0 -0 0 -0 0 -0 0 -0 0 -0 0 -0 0 -0 0 -0 0 -0 0 -0 0 -0 0 -0 0 -0 0 -0 0 -0 0 -0 -0 -0 -0 -0 -0 -0 -0 -0 -0 -0 -0 -0 -0 -0 -0 -0 -0 -0 -0 -0 0.01 -0 0 0 0 0 0 0 0 0 0 0 0 0 0 0 0 0 0 0 0 0 0 0 -0 0 -0 0 -0 0 -0 0 -0 0 -0 0 -0 0 -0 0 -0 0 -0 0 -0 0 -0 0 -0 0 -0 0 -0 0 -0 0 -0 0 -0 0 -0 0 -0 0 -0 0 0 0zm-0.23 0.13l0.23 -0.13 0 0.01 -0.23 0.13 -0 -0.01zm-0.44 0.26l0.27 -0.16 0 0.01 -0.27 0.16 0 0 -0 -0.01zm-0.09 -0.02l0.01 -0 0 0 0 0 0 0 0 0 0 0 0 0 0 0 0 0 0 0 0 0 0 0 0 0 0 0 0 0 0 0 0 0 0 0 0 0 0 0 0 0 0 0 0 0 0 -0 0 -0 0 -0 0 -0 0 -0 0 -0 0 -0 0 -0 0 -0 0 -0 0 0.01 -0 0 -0 0 -0 0 -0 0 -0 0 -0 0 -0 0 -0 0 -0 0 -0 0 -0 0 -0 -0 -0 -0 -0 -0 -0 -0 -0 -0 -0 -0 -0 -0 -0 -0 -0 -0 -0 -0 -0 -0 -0 -0 -0 -0 -0 -0 -0 -0 -0 -0 -0 -0 -0 -0 -0 -0 -0 -0 -0 -0z"/>
   </g>
   <g>
    <path class="fil0" d="M0.19 0.21l-0 0.29 -0.01 -0 0 -0.29 0 -0 0 0zm-0.01 -0l0 -0 0 0 -0 0zm0.28 0l-0.28 0 0 -0.01 0.28 0 0 0 -0 0zm0 -0.01l0 0 0 0 -0 -0zm-0 0.14l-0 -0.13 0.01 -0 0 0.13 -0.01 0z"/>
   </g>
   <g>
    <polygon class="fil0" points="0.19,0.21 0.12,0.14 0.12,0.14 0.19,0.21 "/>
   </g>
   <g>
    <polygon class="fil0" points="0.47,0.21 0.46,0.21 0.53,0.14 0.53,0.14 "/>
   </g>
   <g>
    <path class="fil0" d="M0.18 0.84l0 -0.1 0.01 0 -0 0.1 -0 0 -0 -0zm0 0l-0 0 0 -0 0 0zm0.05 0l-0.05 -0 0 -0.01 0.05 0 0 0.01z"/>
   </g>
   <g>
    <polygon class="fil0" points="0.19,0.84 0.14,0.9 0.13,0.9 0.18,0.83 "/>
   </g>
   <g>
    <path class="fil0" d="M0.87 0.32l-0.48 0.28 -0 -0.01 0.48 -0.28 0 0.01zm0.05 0.01l-0.01 0 0 0 -0 -0 -0 -0 -0 -0 -0 -0 -0 -0 -0 -0 -0 -0 -0 -0 -0 -0 -0 -0 -0 -0 -0 -0 -0 -0 -0 -0 -0 -0 -0 -0 -0 -0 -0 -0 -0 -0 -0 -0 -0 -0 -0 -0 -0 0 -0 0 -0 0 -0 0 -0 0 -0 0 -0 0 -0 0 -0 0 -0 0 -0 -0.01 0 -0 0 -0 0 -0 0 -0 0 -0 0 -0 0 -0 0 -0 0 -0 0 -0 0 0 0 0 0 0 0 0 0 0 0 0 0 0 0 0 0 0 0 0 0 0 0 0 0 0 0 0 0 0 0 0 0 0 0 0 0 0 0 0 0 0 0 0 0 0zm0.1 0.2l-0.11 -0.2 0.01 -0 0.11 0.2 0 0 -0.01 0zm-0.01 0.05l-0 -0.01 0 0 0 -0 0 -0 0 -0 0 -0 0 -0 0 -0 0 -0 0 -0 0 -0 0 -0 0 -0 0 -0 0 -0 0 -0 0 -0 0 -0 0 -0 0 -0 0 -0 0 -0 0 -0 0 -0 0 -0 -0 -0 -0 -0 -0 -0 -0 -0 -0 -0 -0 -0 -0 -0 -0 -0 -0 -0 0.01 -0 0 0 0 0 0 0 0 0 0 0 0 0 0 0 0 0 0 0 0 0 -0 0 -0 0 -0 0 -0 0 -0 0 -0 0 -0 0 -0 0 -0 0 -0 0 -0 0 -0 0 -0 0 -0 0 -0 0 -0 0 -0 0 -0 0 -0 0 -0 0 -0 0 -0 0 0 0zm-0.48 0.26l0.48 -0.27 0 0.01 -0.48 0.27 -0 -0.01zm-0.05 -0.01l0.01 -0 0 0 0 0 0 0 0 0 0 0 0 0 0 0 0 0 0 0 0 0 0 0 0 0 0 0 0 0 0 0 0 0 0 0 0 0 0 0 0 0 0 0 0 0 0 0 0 0 0 -0 0 -0 0 -0 0 -0 0 -0 0 -0 0 -0 0 -0 0 -0 0 0.01 -0 0 -0 0 -0 0 -0 0 -0 0 -0 0 -0 0 -0 0 -0 0 -0 0 -0 -0 -0 -0 -0 -0 -0 -0 -0 -0 -0 -0 -0 -0 -0 -0 -0 -0 -0 -0 -0 -0 -0 -0 -0 -0 -0 -0 -0 -0 -0 -0 -0 -0 -0 -0 -0 -0 -0 -0 -0 -0 -0 -0 0 0zm-0.11 -0.19l0.11 0.18 -0.01 0 -0.11 -0.18 0 0 0.01 -0zm0.01 -0.05l0 0.01 0 0 -0 0 -0 0 -0 0 -0 0 -0 0 -0 0 -0 0 -0 0 -0 0 -0 0 -0 0 -0 0 -0 0 -0 0 -0 0 -0 0 -0 0 -0 0 -0 0 -0 0 -0 0 -0 0 0 0 0 0 0 0 0 0 0 0 0 0 0 0 0 0 0 0 0 0 -0.01 0 -0 -0 -0 -0 -0 -0 -0 -0 -0 -0 -0 -0 -0 -0 -0 -0 -0 -0 0 -0 0 -0 0 -0 0 -0 0 -0 0 -0 0 -0 0 -0 0 -0 0 -0 0 -0 0 -0 0 -0 0 -0 0 -0 0 -0 0 -0 0 -0 0 -0 0 -0 0 -0 0 -0 0 -0 0 0z"/>
   </g>
   <g>
    <polygon class="fil0" points="0.36,0.63 0.27,0.61 0.27,0.6 0.36,0.62 "/>
   </g>
   <g>
    <polygon class="fil0" points="0.5,0.86 0.48,0.95 0.47,0.94 0.49,0.85 "/>
   </g>
   <g>
    <polygon class="fil0" points="1.12,0.56 1.12,0.57 1.02,0.56 1.02,0.55 "/>
   </g>
   <g>
    <polygon class="fil0" points="0.92,0.23 0.92,0.23 0.91,0.32 0.9,0.32 "/>
   </g>
   <path class="fil0" d="M0.13 0.55l0.03 0.01 -0.03 0.01c-0.02,0.01 -0.03,0.02 -0.04,0.04l-0.01 0.03 -0.01 -0.03c-0.01,-0.02 -0.02,-0.03 -0.04,-0.04l-0.03 -0.01 0.03 -0.01c0.02,-0.01 0.03,-0.02 0.04,-0.04l0.01 -0.03 0.01 0.03c0.01,0.02 0.02,0.03 0.04,0.04z"/>
   <path class="fil0" d="M0.9 0.81l0.03 0.01 -0.03 0.01c-0.02,0.01 -0.03,0.02 -0.04,0.04l-0.01 0.03 -0.01 -0.03c-0.01,-0.02 -0.02,-0.03 -0.04,-0.04l-0.03 -0.01 0.03 -0.01c0.02,-0.01 0.03,-0.02 0.04,-0.04l0.01 -0.03 0.01 0.03c0.01,0.02 0.02,0.03 0.04,0.04z"/>
   <path class="fil0" d="M0.73 0.07l0.03 0.01 -0.03 0.01c-0.02,0.01 -0.03,0.02 -0.04,0.04l-0.01 0.03 -0.01 -0.03c-0.01,-0.02 -0.02,-0.03 -0.04,-0.04l-0.03 -0.01 0.03 -0.01c0.02,-0.01 0.03,-0.02 0.04,-0.04l0.01 -0.03 0.01 0.03c0.01,0.02 0.02,0.03 0.04,0.04z"/>
  </g>
 </g>
</svg>
