<?xml version="1.0" encoding="UTF-8"?>
<!DOCTYPE svg PUBLIC "-//W3C//DTD SVG 1.1//EN" "http://www.w3.org/Graphics/SVG/1.1/DTD/svg11.dtd">
<!-- Creator: CorelDRAW 2019 (64-Bit) -->
<svg xmlns="http://www.w3.org/2000/svg" xml:space="preserve" width="0.0506614in" height="0.0833307in" version="1.1" style="shape-rendering:geometricPrecision; text-rendering:geometricPrecision; image-rendering:optimizeQuality; fill-rule:evenodd; clip-rule:evenodd"
viewBox="0 0 0.98 1.62"
 xmlns:xlink="http://www.w3.org/1999/xlink">
 <defs>
  <style type="text/css">
   <![CDATA[
    .fil0 {fill:black;fill-rule:nonzero}
   ]]>
  </style>
 </defs>
 <g id="Layer_x0020_1">
  <metadata id="CorelCorpID_0Corel-Layer"/>
  <g id="_2317366396480">
   <path class="fil0" d="M0.98 1.04c-0,-0.01 -0,-0.01 -0,-0.02l0 -0.39c0,-0.15 0,-0.3 0,-0.45l0 -0c0,-0.01 0,-0.02 -0,-0.04 -0,-0.01 -0.01,-0.02 -0.01,-0.04 -0,-0 -0,-0.01 -0,-0.01 -0.01,-0.02 -0.01,-0.04 -0.03,-0.05 -0.02,-0.02 -0.05,-0.02 -0.07,-0.02l-0 -0c-0,-0 -0.01,-0 -0.01,-0 -0.01,-0 -0.02,-0 -0.03,-0 -0,-0 -0.01,-0 -0.01,-0 -0,-0 -0.01,-0 -0.01,-0l-0.01 -0c-0.01,-0 -0.02,-0 -0.02,-0 -0.03,-0 -0.05,-0 -0.08,-0 -0.01,0 -0.03,0 -0.04,0l-0.32 0c-0.01,0 -0.01,-0 -0.02,-0 -0.02,-0 -0.05,-0 -0.09,0.01 -0.01,-0 -0.03,-0 -0.04,-0 -0,0 -0.01,0 -0.01,0l-0.01 -0c-0.01,-0 -0.01,-0 -0.02,0 -0.01,0 -0.02,0.01 -0.03,0.01 -0,0 -0,0 -0.01,0 -0.03,0.02 -0.06,0.05 -0.06,0.09 -0,0 -0,0 -0,0.01 -0,0 -0,0.01 -0,0.01 -0,0.01 -0,0.01 -0,0.02 0,0 0,0.01 0,0.01 -0,0.01 -0,0.02 -0.01,0.03 -0,0.01 -0,0.02 -0.01,0.03 -0,0.01 -0,0.02 -0,0.03 -0,0.01 -0,0.01 -0,0.02 -0,0.01 -0,0.02 -0,0.02 -0,0.01 -0,0.01 -0,0.02 -0,0.01 -0,0.03 -0,0.04 0,0 0,0.01 0,0.01 0,0.02 -0,0.04 -0.01,0.06 -0.01,0.02 -0.01,0.04 -0.01,0.06l0 0.38c0,0 -0,0.01 -0,0.01 -0,0.01 -0,0.01 -0,0.02 0,0.01 0,0.02 0,0.03 0,0.01 0,0.01 0,0.02 0,0 0,0.01 0,0.01 0,0.01 0,0.02 0,0.03 0,0.01 0,0.01 0,0.02 0,0.01 0,0.02 0.01,0.02 0,0.02 0,0.05 0,0.07 -0,0.01 -0,0.02 -0,0.02 -0,0.02 0,0.03 0,0.05 0,0.01 0,0.03 0,0.04l0 0c-0,0.02 -0,0.05 0,0.07l0 0c0,0.03 0.01,0.06 0.01,0.09 0,0 -0,0.01 -0,0.01 -0,0.01 -0,0.03 0,0.05 0,0 0,0.01 0,0.02 0,0.01 0,0.02 0,0.03 0.01,0.03 0.02,0.05 0.03,0.07 0.02,0.02 0.03,0.03 0.06,0.04 0.01,0 0.02,0 0.03,0.01 0,0 0.01,0 0.01,0 0.01,0 0.02,0 0.03,0.01 0.01,0 0.02,0 0.03,0l0.01 -0c0.03,-0 0.06,0 0.09,0l0.01 0c0,0 0.01,-0 0.01,-0 0.01,-0 0.01,-0 0.02,-0 0.01,0 0.02,0 0.03,0 0.01,0 0.02,0 0.03,0.01 0.06,0.01 0.13,0 0.19,0l0.04 -0c0.01,0 0.02,0 0.03,0 0.01,0 0.02,0 0.03,0 0.01,0 0.02,-0 0.03,-0l0.01 -0c0.01,-0 0.03,-0 0.04,-0.01 0,-0 0.01,-0 0.01,-0 0,-0 0,-0 0,-0 0.01,-0 0.01,-0 0.02,-0.01 0,-0 0.01,-0 0.01,-0.01 0,-0 0,-0 0,-0 0.01,-0 0.01,-0.01 0.02,-0.01 0.01,-0.01 0.02,-0.02 0.03,-0.03 0.01,-0.01 0.01,-0.02 0.02,-0.03 0.01,-0.02 0.02,-0.04 0.02,-0.05l0 -0.01c0.01,-0.02 0.01,-0.05 0.01,-0.07 -0,-0.02 -0,-0.03 -0,-0.05l0 -0.07c0,-0.03 0,-0.07 -0,-0.1 -0,-0.01 0,-0.03 0,-0.04 0,-0.01 0,-0.02 0,-0.03 0,-0.02 0,-0.04 0,-0.06zm-0.04 0.06l0 0c-0,0.01 -0,0.02 -0,0.02 -0,0.02 -0.01,0.03 -0.01,0.05 0,0.03 0,0.07 0,0.1l-0 0.07c0,0.02 -0,0.03 0,0.05 0,0.02 -0,0.04 -0.01,0.06l-0 0.01c-0,0.02 -0.01,0.03 -0.02,0.04 -0,0.01 -0.01,0.01 -0.01,0.02 -0.01,0.01 -0.01,0.02 -0.02,0.02 -0,0 -0.01,0 -0.01,0.01 -0.01,0 -0.01,0.01 -0.01,0.01 -0,0 -0,0 -0,0 -0,0 -0,0 -0,0 -0,0 -0.01,0 -0.01,0 -0.01,0 -0.01,0 -0.02,0.01 -0.01,0 -0.02,0 -0.03,0l-0.01 0c-0.02,0 -0.04,0 -0.05,0 -0.01,-0 -0.02,-0 -0.03,-0l-0.04 0c-0.06,0 -0.13,0 -0.19,-0 -0.01,-0 -0.02,-0 -0.03,-0 -0.01,-0 -0.02,-0 -0.04,-0.01 -0.01,-0 -0.02,-0 -0.02,0 -0,0 -0.01,0 -0.01,0l-0.01 0c-0.03,0 -0.06,-0 -0.09,0l-0.01 0c-0.01,0 -0.02,0 -0.02,-0 -0.01,-0 -0.02,-0.01 -0.03,-0.01 -0,-0 -0.01,-0 -0.01,-0 -0.01,-0 -0.02,-0 -0.02,-0 -0.02,-0 -0.03,-0.01 -0.04,-0.03 -0.01,-0.01 -0.02,-0.03 -0.03,-0.06 -0,-0 -0,-0.01 -0,-0.02 -0,-0.01 -0,-0.02 -0,-0.03 -0,-0.01 -0,-0.02 -0,-0.03 0,-0 0,-0.01 0,-0.01 -0,-0.03 -0,-0.06 -0.01,-0.09l-0 -0c-0,-0.02 -0,-0.04 -0,-0.07l0 -0c0,-0.02 -0,-0.03 -0,-0.05 -0,-0.01 -0,-0.03 -0,-0.04 0,-0.01 0,-0.01 0,-0.02 0,-0.03 0,-0.05 -0,-0.08 -0,-0.01 -0,-0.02 -0.01,-0.03 -0,-0.01 -0,-0.01 -0,-0.02 -0,-0.01 -0,-0.01 -0,-0.02 0,-0 0,-0.01 -0,-0.01 -0,-0.01 -0,-0.02 -0,-0.03 -0,-0.01 -0,-0.01 -0,-0.02 -0,-0.01 -0,-0.01 0,-0.02 0,-0 0,-0.01 0,-0.01l0 -0.38c-0,-0.02 -0,-0.04 0,-0.05 0.01,-0.02 0.01,-0.04 0.01,-0.07 0,-0 -0,-0.01 -0,-0.01 -0,-0.01 -0,-0.02 0,-0.03 0,-0.01 0,-0.01 0,-0.02 0,-0.01 0,-0.01 0,-0.02 0,-0.01 0,-0.02 0,-0.02 0,-0.01 0,-0.01 0,-0.02 0,-0.01 0,-0.02 0.01,-0.03 0,-0.01 0,-0.02 0.01,-0.03 0,-0.01 0,-0.01 0,-0.02 -0,-0 -0,-0.01 0,-0.01 0,-0 0,-0 0,-0.01 0,-0 0,-0.01 0.01,-0.02 0,-0.02 0.02,-0.05 0.04,-0.06 0,-0 0.01,-0 0.01,-0.01 0,-0 0.01,-0 0.01,-0 0,-0 0.01,-0 0.01,0l0.01 0c0,0 0.01,-0 0.01,-0 0.01,-0 0.02,-0 0.03,0 0,0 0.01,0 0.01,0 0.04,-0.01 0.06,-0.01 0.09,-0.01 0.01,0 0.01,0 0.02,0l0.32 0c0.01,0 0.03,-0 0.04,-0 0.03,-0 0.05,-0 0.08,0 0.01,0 0.01,0 0.02,0l0.01 0c0.01,0 0.01,0 0.02,0 0,0 0,0 0.01,0 0.01,0 0.02,0 0.03,0 0,0 0.01,0 0.01,0l0 0c0.02,0 0.04,0.01 0.05,0.02 0.01,0.01 0.01,0.02 0.02,0.03 0,0 0,0.01 0,0.01 0.01,0.01 0.01,0.02 0.01,0.04 0,0.01 0,0.01 0,0.02l0 0c0,0.15 0,0.3 0,0.45l0 0.39c0,0.01 0,0.01 0,0.02 0,0.02 0,0.04 -0,0.06z"/>
   <path class="fil0" d="M0.9 0.89l0 -0.54c0,-0.03 -0,-0.06 -0.01,-0.1 -0.01,-0.02 -0.01,-0.05 -0.03,-0.07 -0,-0 -0,-0.01 -0.01,-0.01 -0,-0 -0,-0 -0,-0 -0,-0 -0,-0.01 -0.01,-0.01 -0,-0 -0,-0 -0,-0 -0.01,-0 -0.02,-0.01 -0.02,-0.01l-0.01 -0c-0.02,-0 -0.03,-0.01 -0.05,-0.01 -0.03,-0 -0.06,-0 -0.09,-0 -0.02,0 -0.03,0 -0.05,0 -0.13,0 -0.26,0 -0.4,-0 -0,-0 -0,0 -0,0 -0.01,0 -0.01,0 -0.02,0 -0.01,0 -0.01,0 -0.02,0.01l-0.01 0c-0.01,0.01 -0.02,0.01 -0.04,0.03 -0.01,0.01 -0.01,0.02 -0.01,0.02 -0,0.01 -0.01,0.02 -0.01,0.03 -0,0.01 -0.01,0.02 -0.01,0.03 -0,0 -0,0.01 0,0.01 0,0 0,0.01 -0,0.01 -0,0 -0,0 -0,0.01 -0,0 -0,0.01 -0,0.02 -0,0.01 -0,0.01 -0,0.02 0,0 0,0 0,0.01l0 0.32c0,0 0,0.01 0,0.01 0,0 0,0.01 0,0.01 -0,0 -0,0 -0,0 -0,0 -0.01,0 -0.01,0.01 -0.01,0.01 -0.01,0.02 0,0.03 0,0 0,0 0,0 -0,0.01 -0,0.03 -0,0.04 0,0.01 0,0.01 0,0.02 0,0.01 0,0.01 0,0.02 0,0.01 0,0.02 -0,0.03 -0,0 -0,0.01 -0,0.01 -0,0 -0,0.01 -0,0.01 -0,0.01 -0,0.02 -0,0.02 0,0 0,0.01 0,0.01 0,0.01 0,0.01 0,0.02 0,0.02 0,0.03 -0,0.04 -0,0.01 -0,0.01 -0,0.02 -0,0.01 -0,0.02 -0,0.03 -0,0.01 0,0.01 0,0.02l0 0.15c0,0.02 0,0.04 0.01,0.06 0,0 0,0 0,0.01 -0,0 -0,0.01 0,0.01 0,0.01 0,0.01 0,0.02 0,0 0,0 0,0 0,0 0,0.01 0,0.01l0 0.01c0,0.01 0,0.01 0.01,0.02 0,0 0,0 0,0l0 0c0,0 0,0 0,0 0,0 0,0.01 0,0.01 0,0 0,0 0,0 0,0 0,0.01 0.01,0.01 0.01,0.01 0.01,0.02 0.02,0.02l0.01 0.01c0.02,0.02 0.03,0.03 0.06,0.04 0.03,0.01 0.05,0.01 0.08,0.01l0.31 0c0.01,0 0.02,0 0.03,0 0.01,0 0.02,0 0.02,0 0.01,0 0.02,0 0.03,0 0.01,-0 0.03,0 0.04,0l0.02 0c0,0 0,0 0,0 0.02,0 0.03,-0 0.05,-0.01 0,-0 0.01,-0 0.01,-0 0,-0 0.01,-0 0.01,-0 0.01,-0 0.02,-0.01 0.02,-0.01 0,-0 0,-0 0,-0 0.01,-0 0.01,-0.01 0.02,-0.02 0,-0 0,-0.01 0,-0.01l0 -0c0,-0 0,-0 0,-0.01l0 -0.01c0,-0 0,-0.01 0,-0.01 0,-0 0,-0 0,-0.01 0,-0 0,-0 0,-0.01 0,-0 0,-0.01 0.01,-0.02 0,-0.01 0,-0.01 0,-0.01 -0,-0 -0,-0 0,-0.01 0,-0 0,-0.01 0,-0.01 0,-0.01 0,-0.02 0,-0.03 0,-0.01 0,-0.02 0,-0.03 0,-0.02 0,-0.04 0,-0.05 0,-0.02 0,-0.03 0,-0.05 -0,-0.01 -0,-0.02 -0,-0.03 0,-0.01 -0,-0.01 -0,-0.02 -0,-0.02 -0,-0.05 0,-0.07 0,-0.03 0,-0.05 0,-0.07 -0,-0.01 -0,-0.01 -0,-0.02zm-0.04 -0.21l0 0c-0.01,-0.01 -0.02,-0.01 -0.03,0 -0.03,0.03 -0.05,0.06 -0.06,0.09 -0.01,0.02 -0.02,0.03 -0.03,0.05 -0,0 -0,0 -0,0 -0.01,0.02 -0.03,0.03 -0.04,0.05l-0.01 0.01c-0.01,0.02 -0.03,0.04 -0.05,0.05 -0,0 -0,0 -0.01,0.01 0.01,-0.02 0.03,-0.04 0.04,-0.06 0.02,-0.02 0.03,-0.05 0.05,-0.07 0.01,-0.02 0.03,-0.04 0.04,-0.06 0.01,-0.02 0.02,-0.03 0.03,-0.05 0.01,-0.02 0.02,-0.03 0.04,-0.05l0.01 -0.01c0.01,-0.01 0.01,-0.02 0.02,-0.02l0 -0c0,-0 0,-0 0,-0l0 0.06c-0,-0 -0,-0 -0,-0zm0 0.03l0 0 0 0.02c-0,0 -0,0 -0,0 -0,0.01 -0.01,0.01 -0.01,0.02 -0.01,0.01 -0.01,0.02 -0.02,0.04 -0,-0.01 -0,-0.01 -0.01,-0.01 -0,-0 -0.01,-0 -0.01,-0 0.01,-0.02 0.03,-0.05 0.05,-0.07 0,-0 0,-0 0,-0zm-0.02 -0.13l0 0c-0.01,0.01 -0.01,0.02 -0.02,0.03l-0 0c-0.01,0.01 -0.01,0.02 -0.02,0.02l-0.01 0.01c-0.01,0.02 -0.02,0.04 -0.04,0.05 -0.01,0.02 -0.02,0.03 -0.03,0.05 -0.01,0.02 -0.03,0.04 -0.04,0.06 -0.02,0.02 -0.03,0.05 -0.05,0.07 -0.02,0.02 -0.04,0.05 -0.05,0.07 -0.01,0.02 -0.03,0.04 -0.04,0.06 -0.02,0.03 -0.04,0.05 -0.07,0.08l-0 0c0.02,-0.02 0.03,-0.05 0.05,-0.07 0.04,-0.06 0.08,-0.11 0.12,-0.15l0 -0.01c0.01,-0.02 0.03,-0.03 0.04,-0.05 0.01,-0.02 0.02,-0.03 0.03,-0.05l0 -0c0.01,-0.02 0.02,-0.03 0.03,-0.04 0.01,-0.01 0.02,-0.02 0.02,-0.03 0,-0.01 0.01,-0.01 0.01,-0.02 0.01,-0.01 0.01,-0.02 0.02,-0.03 0,-0 0,-0.01 0.01,-0.01 0,-0 0,-0.01 0,-0.01 0,-0 0,-0 0,-0 0,-0 0.01,-0.01 0.01,-0.02 0,-0.01 0,-0.02 -0.01,-0.03 -0.01,-0.01 -0.02,-0 -0.03,0 -0.01,0.01 -0.02,0.02 -0.03,0.03 -0,0 -0,0 -0,0 0,-0 0.01,-0.01 0.01,-0.01l0 -0.01c0.01,-0.01 0.02,-0.02 0.03,-0.04 0.01,-0.01 0.01,-0.01 0.02,-0.02 0,-0 0.01,-0.01 0.01,-0.01 0.01,-0.01 0.01,-0.01 0.01,-0.02 0.01,-0.01 0.01,-0.02 0,-0.03 -0,-0.01 -0.01,-0.01 -0.02,-0.01 0,-0 0,-0 0,-0.01 0,-0 0,-0 0,-0 0,-0 0,-0 0,-0 0.01,-0 0.01,-0.01 0.01,-0.02 -0,-0.01 -0.01,-0.02 -0.02,-0.02 -0.01,0 -0.02,0.01 -0.02,0.02 -0,0 -0,0 -0,0 -0,0 -0,0.01 -0.01,0.01 -0,0 -0,0.01 -0.01,0.01 -0,0 -0.01,0.01 -0.01,0.01 -0,-0 -0,-0 -0,-0.01 -0.01,-0.01 -0.02,-0.01 -0.03,-0l-0.01 0.01c-0.01,0.01 -0.02,0.02 -0.04,0.03 -0.01,0 -0.01,0.01 -0.02,0.01 -0.01,0.01 -0.03,0.02 -0.04,0.03 -0,0 -0.01,0.01 -0.01,0.01 0,-0 0,-0 0,-0 0,-0 0.01,-0.01 0.01,-0.01 0,-0 0.01,-0.01 0.01,-0.01 0.02,-0.02 0.03,-0.03 0.06,-0.05 0.01,-0.01 0.02,-0.01 0.03,-0.02l0.01 -0.01c0.01,-0.01 0.02,-0.01 0.03,-0.02 0,-0 0.01,-0.01 0.01,-0.01 0.01,-0 0.01,-0.01 0.02,-0.01 0.01,-0.01 0.02,-0.01 0.03,-0.02 0,-0 0.01,-0.01 0.01,-0.01 0.01,-0 0.01,-0.01 0.02,-0.01l0 0.21c-0.01,-0 -0.01,0 -0.02,0.01zm-0.22 0.59l0 0c-0,0.01 -0.01,0.01 -0.01,0.02 0,-0 0,-0 0,-0.01 0,-0 0.01,-0.01 0.01,-0.01zm-0.14 -0.2l0 0c0,-0.01 0.01,-0.02 0.02,-0.02 0,-0.01 0.01,-0.01 0.01,-0.02 0.01,-0.01 0.01,-0.01 0.02,-0.02 0.02,-0.02 0.03,-0.04 0.05,-0.06 0.04,-0.05 0.08,-0.09 0.12,-0.13 0,-0 0,-0 0.01,-0.01 -0,0.01 -0.01,0.01 -0.01,0.02l-0 0c-0.01,0.02 -0.02,0.03 -0.03,0.05 -0.01,0.02 -0.03,0.03 -0.04,0.05l-0 0.01c-0.03,0.04 -0.06,0.08 -0.1,0.12 -0,0 -0,0 -0,0 -0.01,0 -0.02,0.01 -0.03,0.01zm0.11 -0.5l0 0c-0,0 -0.01,0 -0.01,0.01 0,-0 -0,-0 -0,-0.01 0,-0 0.01,-0.01 0.01,-0.01 0.03,-0.02 0.06,-0.04 0.08,-0.06 0.01,-0 0.01,-0.01 0.02,-0.01 0.01,-0.01 0.02,-0.01 0.03,-0.02 0,-0 0,-0 0.01,-0 0,-0 0,-0 0.01,-0 0.01,-0 0.01,-0.01 0.02,-0.01 0.01,-0.01 0.01,-0.01 0.02,-0.02 0.01,-0.01 0.02,-0.02 0.03,-0.03 0,-0 0.01,-0 0.01,-0.01 -0.04,0.04 -0.08,0.07 -0.12,0.1l-0.01 0c-0.03,0.02 -0.07,0.04 -0.1,0.07zm0.03 0.07l0 0c-0.01,0.01 -0.01,0.01 -0.02,0.02 0,-0.01 0.01,-0.01 0.01,-0.02l0.01 0zm0.23 -0.28l0 0c0,0 0,0.01 0,0.01 0,0.02 0.01,0.04 0.01,0.05 -0,-0 -0.01,-0 -0.01,0 0,-0 0,-0 0,-0 0.01,-0.01 0.01,-0.02 0,-0.03 -0.01,-0.01 -0.02,-0.01 -0.02,-0 0,-0 0,-0 0,-0l0.01 -0.01c0,-0 0.01,-0.01 0.01,-0.01zm-0.04 -0.03l0 0c0.01,-0 0.01,-0.01 0.02,-0.02 0,0 0,0 0,0 0.01,0.01 0.01,0.02 0.02,0.03 -0.01,-0.01 -0.02,-0.01 -0.03,-0l-0.01 0.01c-0.01,0.01 -0.01,0.01 -0.02,0.02 -0,-0 -0,-0.01 -0,-0.01 -0,-0 -0,-0 -0,-0 0,-0 0.01,-0.01 0.01,-0.01 0.01,-0.01 0.02,-0.02 0.03,-0.02zm-0.09 -0.04l0 0c-0,0 -0,0 -0.01,0.01 -0,-0 -0.01,-0 -0.01,-0.01 0.01,0 0.01,0 0.02,0zm-0 0.05l0 0c0.01,-0.01 0.03,-0.02 0.04,-0.03 0,-0 0.01,-0.01 0.01,-0.02 0.01,0 0.01,0 0.02,0 -0,0 -0,0 -0,0 -0.01,0.01 -0.02,0.02 -0.03,0.03 -0.01,0.01 -0.02,0.02 -0.03,0.04 -0.01,0.01 -0.01,0.01 -0.02,0.02 0,-0.01 0,-0.01 -0,-0.02 -0,-0 -0,-0 -0,-0 0,-0 0.01,-0.01 0.01,-0.01 0.01,-0 0.01,-0.01 0.02,-0.01zm-0.11 -0.01l0 0c0.01,-0 0.01,-0.01 0.02,-0.01l0.01 -0c0,-0 0,-0 0.01,-0 0.01,-0 0.01,-0.01 0.02,-0.01 0,-0 0.01,-0.01 0.01,-0.02 0.01,-0 0.02,-0 0.03,-0 -0.01,0 -0.01,0.01 -0.02,0.01l-0.01 0c-0,0 -0.01,0.01 -0.01,0.01 -0.01,0.01 -0.02,0.02 -0.03,0.02 -0.01,0.01 -0.01,0.01 -0.01,0.01 -0.01,0 -0.02,0.01 -0.02,0.02 -0,0 -0.01,0.01 -0.01,0.01 -0,0 -0.01,0.01 -0.01,0.01 -0.01,0.01 -0.01,0.01 -0.02,0.02 -0,0 -0.01,0.01 -0.01,0.01 -0.02,0.02 -0.04,0.04 -0.06,0.05 -0.01,0.01 -0.02,0.01 -0.03,0.02 0.01,-0.01 0.02,-0.02 0.04,-0.03 0.01,-0.01 0.02,-0.02 0.04,-0.04 0.01,-0.01 0.02,-0.02 0.03,-0.03 0.02,-0.02 0.04,-0.04 0.07,-0.06zm-0.11 0.39l0 0c-0.01,0.02 -0.02,0.03 -0.03,0.05 -0.01,0.01 -0.02,0.01 -0.03,0.02 -0.01,0.01 -0.03,0.03 -0.04,0.04 0.01,-0.01 0.02,-0.03 0.03,-0.04l0 -0.01c0.01,-0.01 0.02,-0.02 0.03,-0.03 0.01,-0.01 0.01,-0.01 0.02,-0.02 0.01,-0.01 0.02,-0.02 0.03,-0.04 0.01,-0.01 0.01,-0.01 0.02,-0.02 0,-0 0.01,-0.01 0.01,-0.01 -0.01,0.02 -0.03,0.04 -0.04,0.05zm0.01 0.07l0 0c-0,0 -0,0 -0,0l-0.02 0.02c-0,0 -0.01,0.01 -0.01,0.01 0,-0 0,-0.01 0.01,-0.01l0.02 -0.01c0,-0 0,-0 0.01,-0.01zm-0.15 -0.04l0 0c0.01,-0.01 0.02,-0.02 0.03,-0.03 0,-0 0,-0 0.01,-0.01 -0.01,0.01 -0.01,0.02 -0.02,0.02 -0.02,0.02 -0.03,0.04 -0.05,0.06 -0.01,0.01 -0.02,0.03 -0.03,0.04 -0,-0 -0,-0.01 -0.01,-0.01 -0,-0 -0.01,-0 -0.01,-0 0.01,-0.01 0.01,-0.01 0.02,-0.02 0.02,-0.02 0.04,-0.04 0.06,-0.06zm-0.05 -0.04l0 0c0,-0 0.01,-0.01 0.01,-0.01 0.01,-0.01 0.01,-0.01 0.02,-0.02 0,0 0,0 0,0 -0.01,0.01 -0.02,0.02 -0.03,0.03zm0.2 -0.43l0 0c-0,0 -0,0 -0.01,0l-0.01 0c-0.01,0.01 -0.01,0.01 -0.02,0.01l-0 0c0,-0.01 0,-0.02 -0,-0.02 -0,-0 -0,-0 -0,-0 0.01,0 0.02,0 0.04,0zm-0.13 0.04l0 0c0,-0 0,-0 0.01,-0.01 0.01,-0.01 0.01,-0.01 0.02,-0.02 0,-0 0,-0 0,-0.01 0.01,0 0.02,0 0.04,0 -0,0 -0,0 -0.01,0l-0.01 0c-0.01,0 -0.01,0.01 -0.02,0.01 -0.01,0.01 -0.03,0.02 -0.04,0.03 0,-0 0.01,-0.01 0.01,-0.01zm0.06 0.01l0 0c-0.01,0 -0.01,0.01 -0.02,0.01 -0.01,0.01 -0.02,0.01 -0.02,0.02 -0.01,0 -0.01,0.01 -0.02,0.01 0,-0 0,-0 0.01,-0.01 0.02,-0.01 0.03,-0.02 0.05,-0.03 0,-0 0,-0 0.01,-0zm-0.06 0.15l0 0c0.01,-0.01 0.02,-0.03 0.04,-0.04l0.01 -0.01c0.02,-0.02 0.04,-0.04 0.07,-0.07 0,-0 0.01,-0.01 0.01,-0.01 0,-0 0.01,-0.01 0.01,-0.01l0.01 -0.01c0.01,-0.01 0.01,-0.01 0.02,-0.01 0,-0 0.01,-0 0.01,-0.01 -0.01,0.01 -0.03,0.03 -0.04,0.04 -0.01,0.01 -0.02,0.02 -0.02,0.03 -0.01,0.01 -0.02,0.02 -0.04,0.04 -0.03,0.03 -0.06,0.06 -0.09,0.08 -0,0 -0,0 -0,0 0.01,-0.01 0.01,-0.02 0.02,-0.03zm-0.04 -0.07l0 0c0,-0 0,-0 0,-0 -0,0 -0,0 -0,0 0,-0 0,-0 0,-0zm-0.04 -0.11l0 0c0,-0.01 0.01,-0.01 0,-0.02 0.01,0 0.02,0 0.03,0 -0.01,0 -0.02,0.01 -0.03,0.02l-0.01 0c-0,0 -0,0 -0,0 0,-0 0,-0 0,-0zm-0.01 0.22l0 0c0.01,-0.01 0.01,-0.01 0.02,-0.02l0.01 -0.01c0.01,-0.01 0.01,-0.01 0.02,-0.02 0.01,-0.01 0.01,-0.01 0.02,-0.02 0,-0 0,-0 0.01,-0.01 -0,0 -0.01,0.01 -0.01,0.01 -0.01,0.01 -0.02,0.02 -0.02,0.03 -0.01,0.01 -0.02,0.02 -0.03,0.03 -0.02,0.02 -0.05,0.05 -0.07,0.07l-0.01 0.01c-0,0 -0.01,0.01 -0.01,0.01 0,-0 0,-0.01 0.01,-0.01 0,-0 0.01,-0.01 0.01,-0.01 0,-0 0.01,-0.01 0.01,-0.02 0.01,-0.01 0.01,-0.01 0.02,-0.02l0.01 -0.01c0,-0.01 0.01,-0.01 0.01,-0.01zm-0.14 0.19l0 0c0.01,-0.01 0.02,-0.01 0.03,-0.02 0,-0 0,-0 0.01,-0.01 0.01,-0.01 0.03,-0.02 0.04,-0.03 0.01,-0.01 0.02,-0.02 0.03,-0.02l0.01 -0.01c0.02,-0.02 0.04,-0.03 0.05,-0.05 -0,0 -0,0 -0,0l0.01 0c-0.01,0.01 -0.01,0.01 -0.02,0.02l-0.01 0.01c-0.01,0.01 -0.02,0.02 -0.03,0.03 -0.01,0.01 -0.01,0.01 -0.02,0.02 -0.02,0.02 -0.03,0.03 -0.05,0.04 -0.01,0.01 -0.03,0.02 -0.04,0.04l-0.02 0.02c-0,0 -0,0 -0,0l0 -0.02c0,-0 0.01,-0 0.01,-0zm-0.01 -0.08l0 0 0 -0.03c0.01,-0 0.01,-0.01 0.01,-0.01 0,-0 0.01,-0.01 0.01,-0.01 0,-0 0.01,-0.01 0.01,-0.01l0 -0c0.01,-0 0.01,-0.01 0.01,-0.01 0,-0 0.01,-0.01 0.01,-0.01 0,-0 0.01,-0.01 0.01,-0.01 0,-0 0.01,-0.01 0.01,-0.01 -0.01,0.01 -0.01,0.01 -0.02,0.02 -0,0 -0.01,0.01 -0.01,0.01 -0,0.01 -0.01,0.01 -0.01,0.02 -0,0 -0.01,0.01 -0.01,0.02l-0 0c-0,0.01 -0.01,0.01 -0.01,0.01 -0,0 -0.01,0.01 -0.01,0.01 -0,0 -0.01,0.01 -0.01,0.02zm0.01 -0.29l0 0c0,-0.01 0.01,-0.01 0.01,-0.02 0,-0 0,-0.01 0,-0.01 0.01,-0.01 0.01,-0.01 0.02,-0.02l0.01 -0c0,-0 0.01,-0 0.01,-0.01 0,-0 0,-0 0.01,-0 0.02,0 0.03,0 0.05,0 -0.01,0.01 -0.01,0.01 -0.02,0.02 -0,0 -0.01,0.01 -0.01,0.01 -0.01,-0 -0.01,-0 -0.02,0 -0.01,0 -0.01,0.01 -0.02,0.01 -0.01,0 -0.01,0.01 -0.02,0.02 -0.01,0.01 -0.01,0.01 -0.02,0.02 -0,0 -0.01,0.01 -0.01,0.01 0,-0.01 0,-0.02 0.01,-0.03zm-0.01 0.15l0 0c0,-0 0,-0 0,-0 0,0 0,0 0,0 0,0 0.01,-0 0.01,-0 -0.01,0.01 -0.01,0.02 -0.02,0.03l0 -0.01c0,-0 0,-0.01 0.01,-0.01zm-0.01 0.33l0 0c0,-0 0,-0.01 0,-0.01 0,-0 0,-0.01 0,-0.01 0,-0 0,-0 0,-0 0.01,-0.01 0.02,-0.01 0.02,-0.02l0.02 -0.02c0.01,-0.01 0.03,-0.02 0.04,-0.03 0.02,-0.01 0.03,-0.03 0.05,-0.04 0.01,-0 0.01,-0.01 0.02,-0.01 0.01,-0.01 0.02,-0.02 0.03,-0.03l0.01 -0.01c0.01,-0.01 0.02,-0.02 0.02,-0.03 0,0 0,0 0,0 0,0 0.01,-0 0.01,-0 0.01,-0.01 0.02,-0.01 0.03,-0.02 -0,0 -0,0 -0,0 -0,0.01 -0,0.02 -0,0.02 -0.01,0.01 -0.01,0.01 -0.02,0.02 -0.01,0.01 -0.02,0.01 -0.03,0.02 -0.02,0.01 -0.04,0.03 -0.06,0.04 -0.02,0.02 -0.03,0.03 -0.05,0.05l-0.01 0.01c-0.01,0.01 -0.01,0.01 -0.02,0.02 -0.01,0.01 -0.02,0.02 -0.03,0.03 -0.01,0.01 -0.01,0.01 -0.02,0.02 -0,0 -0,0 -0,0 -0,0 -0.01,0.01 -0.01,0.01 -0.01,0.01 -0,0.02 0.01,0.03 0,0 0,0 0,0 -0.01,0.01 -0.02,0.01 -0.02,0.02 -0,-0 -0,-0.01 -0,-0.01 -0,-0.01 -0,-0.02 0,-0.04zm0.15 0.06l0 0c-0,0.01 -0.01,0.01 -0.01,0.02 -0,0 -0,0 -0,0 -0.01,0.01 -0.01,0.01 -0.02,0.02 -0.01,0.01 -0.01,0.01 -0.02,0.02 0,-0 0,-0 0.01,-0.01 0,-0.01 0.01,-0.01 0.01,-0.02 0.01,-0.01 0.02,-0.02 0.03,-0.03 0,-0 0,-0 0,-0zm-0.16 0.07l0 0c0,-0 0,-0.01 0,-0.01 0,-0 0,-0.01 0,-0.01 0,-0 0,-0.01 0,-0.01 0,0 0,0 0.01,0 0,0 0,-0 0,-0 0.01,-0 0.02,-0.01 0.02,-0.02 0,-0 0,-0 0,-0l0 -0c0.01,-0.01 0.02,-0.02 0.03,-0.03 0.01,-0.01 0.01,-0.01 0.02,-0.02 -0,0.01 -0.01,0.01 -0.01,0.02 -0.01,0.01 -0.01,0.01 -0.02,0.02 -0.01,0.01 -0.02,0.02 -0.03,0.04l-0.01 0.01c-0,0.01 -0.01,0.01 -0.01,0.02 0,-0 -0,-0 0,-0.01zm0.03 0.04l0 0c-0,0 -0,0 -0,0.01 -0,0 -0.01,0.01 -0.01,0.01 -0,0 -0,0 -0,0 -0,0 -0.01,0.01 -0.01,0.01 0,0 -0,0 -0,0 -0,0 -0.01,0.01 -0.01,0.01 0,-0.01 -0,-0.02 -0,-0.02 -0,-0 -0,-0.01 -0,-0.01 0,0 0.01,0 0.01,0 0.01,0 0.01,-0 0.02,-0.01 0.01,-0.01 0.01,-0.02 0.02,-0.03l0.01 -0.01c-0,0 -0,0.01 -0,0.01 -0,0 -0,0.01 -0.01,0.01 -0,0 -0.01,0.01 -0.01,0.01zm0 0.09l0 0c-0,0 -0,0 -0,0 0,-0 0,-0 0,-0 0,0 0,0 0,0zm-0.03 -0.04l0 0c0,0 0,0 0,0.01 -0,0 -0,0 -0,0.01 0,-0 0,-0.01 0,-0.01zm-0.01 0.15l0 0c0.01,-0 0.01,-0.01 0.02,-0.01 0.01,-0.01 0.02,-0.03 0.03,-0.04 0.02,-0.02 0.04,-0.04 0.06,-0.06 0,0 0.01,0.01 0.01,0.01 0,0 0,0 0,0 -0.01,0.01 -0.03,0.02 -0.04,0.04l-0 0c-0.02,0.02 -0.03,0.04 -0.05,0.06 -0.01,0.01 -0.01,0.02 -0.02,0.03l0 -0.02zm0.02 0.19l0 0c-0,0 -0,0 -0.01,0.01 -0,-0 -0,-0 -0,-0 -0,-0 -0,-0 -0,-0 -0,-0 -0,-0 -0,-0l-0 -0.01c-0,-0.01 -0,-0.01 -0,-0.02 -0,-0 -0,-0.01 -0,-0.01 -0,-0 -0,-0 -0,-0.01 -0,-0 -0,-0 0,-0.01 0,-0 0,-0.01 -0,-0.01 -0,-0.02 -0,-0.04 -0,-0.06l0 -0c0,0 0,0 0,0 0.01,0 0.01,-0 0.02,-0.01l0.01 -0.02c0.01,-0.01 0.01,-0.02 0.02,-0.03 0.01,-0.02 0.03,-0.03 0.05,-0.05l0 -0c0,0 0,0 0,0l-0 0c-0.02,0.02 -0.04,0.04 -0.05,0.06 -0.02,0.02 -0.03,0.04 -0.04,0.06 -0.01,0.01 -0,0.02 0.01,0.03 0,0 0.01,0 0.01,0 0.01,0 0.01,-0 0.02,-0.01 0.01,-0.02 0.02,-0.03 0.03,-0.05 0.02,-0.02 0.03,-0.04 0.05,-0.06l0.01 -0.01c0.02,-0.02 0.03,-0.04 0.04,-0.06l0.01 -0.02c0.01,-0.01 0.01,-0.02 0,-0.02 0.01,-0.01 0.02,-0.02 0.03,-0.03 0.01,-0.01 0.01,-0.01 0.02,-0.02 0.03,-0.02 0.06,-0.05 0.08,-0.07l0.03 -0.03c0.02,-0.02 0.03,-0.04 0.05,-0.05 0,-0 0.01,-0.01 0.01,-0.01 0.01,-0.01 0.02,-0.02 0.03,-0.02 0.01,-0.01 0.02,-0.01 0.02,-0.02 0.01,-0.01 0.03,-0.02 0.04,-0.03 -0.01,0.01 -0.03,0.03 -0.04,0.04l-0.02 0.02c-0.03,0.03 -0.06,0.06 -0.09,0.1 -0.03,0.03 -0.05,0.06 -0.08,0.09 -0,0 -0.01,0.01 -0.01,0.01 -0,0 -0.01,0.01 -0.02,0.01 -0.01,0.01 -0.01,0.01 -0.01,0.02l-0 0c-0,0.01 -0.01,0.01 -0.02,0.02l-0 0c-0.01,0.01 -0.02,0.02 -0.03,0.03 -0.01,0.01 -0.02,0.03 -0.03,0.04 -0.01,0.01 -0.01,0.02 -0.02,0.02 -0.01,0.01 -0.02,0.02 -0.02,0.03l-0.01 0.01c-0.01,0.01 -0.02,0.03 -0.03,0.04 -0.01,0.01 -0.01,0.02 -0.02,0.03 -0,0 -0,0.01 -0.01,0.01 -0,0.01 -0.01,0.01 -0.01,0.02 -0.01,0.01 -0.01,0.02 -0.01,0.04 -0,0 0,0 0,0zm0.3 -0.29l0 0c0,0 0,0 0,0 -0.01,0.01 -0.02,0.01 -0.02,0.02 -0.01,0.01 -0.02,0.02 -0.03,0.03 -0.01,-0 -0.02,-0 -0.02,0 -0.01,0.01 -0.02,0.01 -0.03,0.02 0.02,-0.02 0.04,-0.04 0.06,-0.07 0.01,-0.01 0.02,-0.02 0.02,-0.03 0,-0 0.01,-0.01 0.01,-0.01 -0,0 -0,0 -0,0.01 -0.01,0.01 -0,0.02 0.01,0.03zm0.09 0.38l0 0 -0.26 0c-0.02,0 -0.05,0 -0.07,-0 -0.02,-0 -0.03,-0.01 -0.04,-0.03l-0.01 -0.01c-0,-0 -0,-0 -0,-0 0.01,-0.01 0.02,-0.03 0.03,-0.05 0.01,-0.01 0.02,-0.02 0.03,-0.04 0.01,-0.01 0.01,-0.01 0.02,-0.02 -0.01,0.01 -0.02,0.02 -0.02,0.04l-0 0c-0.01,0.02 -0.02,0.03 -0.03,0.05 -0,0.01 -0,0.02 0.01,0.03 0,0 0.01,0 0.01,0 0.01,0 0.02,-0 0.02,-0.01 0.01,-0.02 0.02,-0.03 0.03,-0.05l0 -0c0.02,-0.04 0.05,-0.08 0.08,-0.11 0.02,-0.02 0.04,-0.05 0.06,-0.07 0.02,-0.02 0.04,-0.04 0.05,-0.05 -0.01,0.01 -0.02,0.02 -0.03,0.04 -0.02,0.03 -0.04,0.06 -0.05,0.08 -0.01,0.02 -0.02,0.04 -0.03,0.05 -0.01,0.02 -0.02,0.04 -0.03,0.06 -0,0 -0,0 -0,0.01 -0.01,0.02 -0.01,0.02 -0.02,0.03 -0.01,0 -0.02,0.01 -0.02,0.02 0,0.01 0,0.01 0.01,0.02 0,0 0.01,0 0.01,0 0,0 0,-0 0.01,-0 0.01,-0 0.02,-0.02 0.04,-0.04 0,0 0.01,0.01 0.02,0.01 0,0 0,0 0,0 0.02,-0 0.03,-0.01 0.04,-0.02 0.02,-0.02 0.04,-0.05 0.06,-0.07 0.01,-0.01 0.02,-0.02 0.03,-0.03 0.01,-0.02 0.03,-0.03 0.04,-0.05 0,0 0,0.01 0.01,0.01 0,0 0,0 0,0 -0,0.01 -0.01,0.01 -0.01,0.02 -0,0 -0,0.01 -0.01,0.01 -0,0 -0,0.01 -0,0.01l-0 0c-0,0 -0.01,0.01 -0.01,0.02 -0,0.01 -0,0.01 0,0.01 -0,0 -0,0 -0,0l-0.01 0.01c-0,0 -0.01,0.01 -0.01,0.01 0,0 0,0 0,0 -0.01,-0 -0.02,0 -0.03,0.01 -0,0.01 -0,0.02 0.01,0.03 0,0 0.01,0.01 0.02,0.01 0,0 0.01,-0 0.01,-0 -0,0.01 -0,0.02 0,0.02 0,0 0.01,0.01 0.01,0.01 0.01,0 0.01,-0 0.01,-0.01l0.01 -0.01c0.01,-0.01 0.01,-0.01 0.02,-0.02 -0,0 -0,0.01 -0,0.01 -0,0.01 -0,0.01 -0.01,0.02 -0,0.01 -0.01,0.02 -0.01,0.02 0,0.01 0.01,0.02 0.02,0.02zm-0.16 -0.12l0 0c-0.01,0.01 -0.01,0.02 -0.02,0.03 -0,0 -0,0 -0,0 0.01,-0.01 0.01,-0.02 0.02,-0.03 0,0 0,0 0.01,0 0,0 0,-0 0,-0zm0.26 0.03l0 0c-0.01,0.02 -0.02,0.04 -0.03,0.06 -0,0.01 -0.01,0.02 -0.01,0.03 -0,0 0,0 0,0 -0.01,0 -0.02,0 -0.02,0l-0.02 0c0,-0 0,-0 0,-0 0.02,-0.02 0.03,-0.03 0.04,-0.05 0.01,-0.01 0.02,-0.02 0.02,-0.03 0,-0 0.01,-0.01 0.01,-0.01 -0,0 -0,0 -0,0.01zm0.1 -0.02l0 0 -0.01 0.01c-0,0.01 -0.01,0.02 -0.01,0.03 -0,0.01 -0.01,0.01 -0.01,0.02 -0,0 -0,0 -0,0 -0,0 -0,0.01 -0,0.01 -0,0.01 -0,0.01 -0,0.01l0 0c0,0.01 0,0.01 0.01,0.01 -0.01,0 -0.01,0 -0.02,0 -0.01,0 -0.01,0 -0.02,0 -0.01,0 -0.01,-0 -0.02,-0 0,-0 0,-0.01 0,-0.01 0,0 0,0 0,0 0.01,0 0.01,-0 0.02,-0.01 0,-0 0.01,-0.01 0.01,-0.01 0.01,-0.01 0.01,-0.01 0.02,-0.02l0.01 -0.01c0.01,-0.01 0.02,-0.02 0.03,-0.04 0,-0 0,-0.01 0.01,-0.01 -0,0 -0,0 -0,0zm-0.08 -0.02l0 0c0,-0.01 0.01,-0.01 0.01,-0.02 0.01,-0.02 0.03,-0.04 0.04,-0.05 0.02,-0.02 0.03,-0.04 0.05,-0.05 -0.01,0.01 -0.02,0.03 -0.03,0.04 -0.01,0.01 -0.01,0.01 -0.02,0.02 -0,0 -0.01,0.01 -0.01,0.01 -0.01,0.01 -0.01,0.01 -0.02,0.02 -0,0 -0.01,0.01 -0.01,0.01 -0,0 -0.01,0.01 -0.01,0.01 -0,0 -0,0 -0.01,0.01zm0.13 0.11l0 0c-0,0 -0.01,0 -0.01,0 -0.01,0 -0.01,0 -0.02,0 -0,0 -0.01,0 -0.01,0 0,-0 0,-0 0,-0l0 -0c0.01,-0.01 0.01,-0.02 0.02,-0.03 0,0 0,0.01 0,0.01 0,0.01 0.01,0.01 0.02,0.01 0,0 0,0 0,0 -0,0 -0,0 -0,0zm0.04 -0.07l0 0c-0,0 -0,0 -0,0.01 -0,0 -0,0.01 -0,0.01 -0,0 -0,0.01 -0,0.01 -0,0 -0,0.01 -0,0.01l-0 0c-0,0 -0,0.01 -0,0.01 0,-0 -0,-0.01 -0,-0.01 -0,-0 -0,-0.01 0,-0.01 0,-0 0,-0 0,-0 0,-0 0,-0 0,-0.01 0,-0.01 0,-0.01 0.01,-0.02l0 -0c0,-0 0,-0.01 0,-0.01 0,0 -0,0 -0,0 0,0 0,0 -0,0.01zm0.01 -0.13l0 0c-0,0.02 -0,0.03 -0,0.05 -0,0.01 -0,0.01 -0,0.02 -0,-0 -0.01,-0.01 -0.01,-0.01 -0.01,-0 -0.02,-0 -0.02,0.01 -0,0 -0,0 -0,0 0,-0 0,-0 0,-0 0.01,-0.02 0.02,-0.03 0.02,-0.05 0,-0.01 0.01,-0.02 0.01,-0.03 0,-0.01 0,-0.02 -0.01,-0.03 -0,-0 -0.01,-0 -0.01,-0 0,-0 0.01,-0.01 0.01,-0.01 0,-0.01 0.01,-0.01 0.01,-0.02 0,0 0,0 0,0 0,0.01 0,0.02 0,0.03 0,0.02 0,0.03 -0,0.05zm0 -0.17l0 0c-0,0 -0,0.01 -0,0.01 -0,0 -0.01,0 -0.01,0.01 -0,0 -0.01,0.01 -0.01,0.01l-0 0c-0.01,0.01 -0.02,0.02 -0.03,0.03l-0.01 0.01c-0.03,0.03 -0.06,0.06 -0.1,0.1 -0.02,0.02 -0.03,0.04 -0.05,0.06 -0,0.01 -0.01,0.01 -0.01,0.02 0.01,-0.02 0.02,-0.03 0.03,-0.05 0.01,-0.02 0.02,-0.03 0.03,-0.05 0.01,-0.02 0.02,-0.03 0.04,-0.05 0.01,-0.02 0.03,-0.04 0.04,-0.06 0.01,-0.01 0.02,-0.02 0.03,-0.03 0.01,-0.01 0.02,-0.02 0.03,-0.04 0.01,-0.01 0,-0.02 -0.01,-0.03 -0.01,-0 -0.01,-0 -0.02,-0 0.01,-0.02 0.02,-0.03 0.04,-0.05 0.01,-0.01 0.01,-0.02 0.02,-0.03l0 -0 0 0.07c0,0.01 0,0.01 0,0.02 0,0.02 0,0.05 -0,0.07z"/>
  </g>
 </g>
</svg>
