<?xml version="1.0" encoding="UTF-8"?>
<!DOCTYPE svg PUBLIC "-//W3C//DTD SVG 1.1//EN" "http://www.w3.org/Graphics/SVG/1.1/DTD/svg11.dtd">
<!-- Creator: CorelDRAW 2019 (64-Bit) -->
<svg xmlns="http://www.w3.org/2000/svg" xml:space="preserve" width="0.0741142in" height="0.0839094in" version="1.1" style="shape-rendering:geometricPrecision; text-rendering:geometricPrecision; image-rendering:optimizeQuality; fill-rule:evenodd; clip-rule:evenodd"
viewBox="0 0 14.79 16.74"
 xmlns:xlink="http://www.w3.org/1999/xlink">
 <defs>
  <style type="text/css">
   <![CDATA[
    .str0 {stroke:black;stroke-width:0.6;stroke-miterlimit:2.61313}
    .fil0 {fill:none;fill-rule:nonzero}
    .fil1 {fill:black;fill-rule:nonzero}
   ]]>
  </style>
 </defs>
 <g id="Layer_x0020_1">
  <metadata id="CorelCorpID_0Corel-Layer"/>
  <g id="_2330440074992">
   <g>
    <path class="fil0 str0" d="M7.08 6.08c-0.06,-0.09 -0.11,-0.28 -0.17,-0.4 -0.27,-0.56 0.01,-0.56 -0.02,-1.56 -0.02,-0.63 -0.18,-1.44 -0.43,-1.95 -0.28,-0.57 -0.64,-0.87 -1.22,-1.17 -0.24,-0.12 -1.53,-0.65 -1.79,-0.57 -0.13,0.08 -0.11,0.29 -0.12,0.45l-0.14 1.56c-0.05,0.68 -0.02,1.39 0.2,2.01 0.31,0.87 1.14,1.26 2.03,1.37 0.46,0.06 0.69,-0.01 1.11,-0.01 0.05,0.15 0.1,0.27 0.14,0.43 0.04,0.16 0.06,0.32 0.08,0.49 0.05,0.44 -0.06,0.67 -0.09,1.07 0.34,-0.07 0.41,-0.06 0.75,-0 0.06,-0.86 0.23,-1.64 0.62,-2.27 0.21,-0.34 0.59,-0.68 0.81,-0.97 0.05,-0.06 0.13,-0.17 0.17,-0.21l1.91 -1.7c0.35,-0.27 1.33,-1.01 1.7,-1.19l-0.56 0.52c-0.06,0.05 -0.1,0.07 -0.15,0.12l-1.29 1.19c-0.58,0.51 -1.58,1.75 -2.05,2.34 -0.08,0.1 -0.19,0.22 -0.24,0.33 0.2,0.13 1.26,0.07 1.55,0.07 1.56,-0.03 2.44,-0.5 3.31,-1.64 0.74,-0.96 1.24,-2.22 1.47,-3.49 0.14,-0.8 0.25,-0.86 -0.63,-0.79 -1.45,0.12 -4.05,0.64 -5.17,1.46 -0.57,0.42 -1.2,1.04 -1.2,2.13 -0,1.3 0.4,0.82 0.02,1.33 -0.28,0.38 -0.38,0.61 -0.58,1.09z"/>
   </g>
   <g>
    <path class="fil0 str0" d="M6.3 8.78c-0.26,0.01 -0.54,-0.01 -0.75,0.11 -0.18,0.1 -0.31,0.32 -0.27,0.61 0.03,0.19 0.2,0.42 0.3,0.56 0.09,0.15 0.3,0.42 0.35,0.55 -0.16,0.07 -0.71,0.49 -0.8,0.59 -0.03,0.03 -0.04,0.06 -0.07,0.09 -0.04,0.04 -0.06,0.04 -0.1,0.09 -0.14,0.14 -0.33,0.43 -0.44,0.61 -0.91,1.5 0.11,2.72 -0.32,3.5 -0.07,0.13 -0.22,0.3 -0.24,0.45 -0.11,0.73 1.11,0.4 1.55,0.48 0.4,0.07 0.73,0.21 1.16,0.24 0.44,0.03 0.86,-0.05 1.28,-0.12 0.46,-0.08 0.76,-0.12 1.25,-0.15 1.29,-0.06 0.41,-0.4 0.32,-1.08 -0.03,-0.23 -0.01,-0.46 0.02,-0.69 0.14,-1.06 0.32,-1.37 -0.11,-2.39 -0.16,-0.38 -0.31,-0.56 -0.56,-0.84 -0.1,-0.12 -0.22,-0.23 -0.36,-0.35 -0.13,-0.11 -0.25,-0.19 -0.41,-0.29 0.07,-0.38 0.37,-1 0.51,-1.36 0.1,-0.27 -0,-0.57 -0.16,-0.69 -0.27,-0.21 -0.47,-0.11 -0.8,-0.06 -0.08,-0.21 -0.36,-0.41 -0.72,-0.37 -0.31,0.04 -0.53,0.26 -0.62,0.49z"/>
   </g>
   <g>
    <path class="fil1" d="M1.73 12.4c0.11,0 0.23,-0 0.34,-0 0.11,-0 0.23,-0 0.34,-0 0,0 0,0 0,0 -0.04,0.04 -0.06,0.07 -0.07,0.07 -0.06,0 -0.12,0 -0.18,0 0.03,0.02 0.04,0.05 0.05,0.08 0.03,-0 0.07,-0 0.1,-0 0.03,-0 0.07,-0 0.1,-0 0,0 0,0 0,0 -0.04,0.05 -0.07,0.07 -0.07,0.07 -0.04,0 -0.09,0 -0.13,0 -0,0.02 -0.02,0.05 -0.05,0.09 -0.04,0.04 -0.08,0.06 -0.12,0.07 -0.03,0.01 -0.07,0.02 -0.1,0.03 -0.03,0.01 -0.07,0.01 -0.1,0.01 0,0 0,0 0,0 0,0 0.03,0.03 0.11,0.09 0.07,0.06 0.18,0.14 0.33,0.25 -0.07,0 -0.13,0 -0.2,0 -0.15,-0.11 -0.25,-0.19 -0.32,-0.25 -0.07,-0.05 -0.1,-0.08 -0.1,-0.08 0,-0.02 0,-0.04 0,-0.07 0,-0 0,-0 0,-0 0.02,0 0.05,0 0.09,0 0.08,-0 0.14,-0.01 0.19,-0.03 0.05,-0.02 0.08,-0.04 0.1,-0.08 0.01,-0.01 0.01,-0.02 0.01,-0.03 -0.07,0 -0.14,0 -0.21,0 -0.07,0 -0.14,0 -0.21,0 -0,0 -0,0 -0,-0 0.05,-0.05 0.07,-0.07 0.07,-0.07 0.05,-0 0.11,-0 0.16,-0 0.05,-0 0.11,-0 0.16,-0 0,0 0,-0 0,-0 -0.02,-0.03 -0.05,-0.05 -0.11,-0.06 -0.04,-0.01 -0.07,-0.01 -0.1,-0.01 -0.06,0 -0.12,0 -0.18,0 0,-0 0,-0 0,-0 0.04,-0.05 0.07,-0.07 0.07,-0.07z"/>
    <g>
     <path class="fil1" d="M2.67 16.46l0.02 0.11 0 0 -0.01 0 -0.01 0 -0.01 0 -0.01 0 -0.01 0 -0.01 0 -0.01 0 -0 0 -0.01 0 -0.01 0 -0.01 0 -0 0 -0 0 -0.01 0 -0 0 -0 0 -0.01 -0 -0.01 -0 -0.01 -0 -0 -0 -0 -0 -0.01 -0.01 -0.01 -0.01 -0 -0 -0.01 -0.01 -0 -0.01 -0 -0 -0 -0 -0 -0.01 -0 -0.01 0 0 -0 -0 0.1 -0.06 0 0 0 0.01 0 0 -0 -0 0 0 0 0 -0 -0 -0 -0 0 0 -0 -0 -0.01 -0.01 0 0 0 0 -0 -0 -0 -0 -0.01 -0 0 0 0 0 -0 0 0 -0 0.01 0 0 -0 0.01 -0 0 0 0.01 -0 0.01 -0 0.01 -0 0.01 -0 0.01 -0 0.01 -0 0.01 -0 0.01 -0 0 0zm0.02 0.11l0 0 0 0 0 0zm0.21 -0.16l0.01 0.11 0 0 -0 0 -0.01 0 -0 0 0 0 -0.01 0 -0 0 0 -0 -0 0 -0.01 0 -0 0 -0.01 0 -0.01 0 -0 0 -0.01 0 -0.01 0 -0.01 0 -0 0 -0.01 0 -0.01 0 -0 0 -0.01 0 -0.01 0 -0.01 0 -0.01 0 -0.01 0 -0.01 0 -0.01 0 -0.01 0 -0.01 0 -0.01 0 -0.01 0 -0.01 0 -0.02 -0.11 0.01 -0 0.01 -0 0.01 -0 0.01 -0 0.01 -0 0.01 -0 0.01 -0 0.01 -0 0.01 -0 0.01 -0 0 -0 0.01 -0 0.01 -0 0 -0 0 -0 0.01 -0 0.01 -0 0.01 -0 0.01 -0 0.01 -0 0 0 0 -0 0.01 -0 0 0 0 -0 0.01 -0 0.01 -0 0 0 0.01 -0 0.01 0 0 -0 0.01 -0 0 0zm0.01 0.11l0 0 0 0 0 0zm0.32 -0.21l0.04 0.11 0 -0 -0.01 0 -0.01 0 -0.01 0 -0.01 0 -0.01 0 -0.01 0 -0.01 0 -0.01 0 -0.01 0 -0.01 0 -0.01 0 -0.01 0 -0.01 0 -0.01 0 -0.01 0 -0.01 0 -0.01 0 -0.01 0 -0.01 0 -0.01 0 -0.01 0 -0.01 0 -0.01 0 -0.01 0 -0.01 0 -0.01 0 -0.01 0 -0.01 0 -0.01 0 -0.01 0 -0.01 0 -0.01 0 -0.01 -0.11 0.01 -0 0.01 -0 0.01 -0 0.01 -0 0.01 -0 0.01 -0 0.01 -0 0.01 -0 0.01 -0 0.01 -0 0.01 -0 0.01 -0 0.01 -0 0.01 -0 0.01 -0 0.01 -0 0.01 -0 0.01 -0 0.01 -0 0.01 -0 0.01 -0 0.01 -0 0.01 -0 0.01 -0 0.01 -0 0.01 -0 0.01 -0 0.01 -0 0.01 -0 0.01 -0 0.01 -0 0.01 -0 0 -0zm0 0l0 -0 0.11 -0.04 -0.11 0.04zm0.32 -0.15l0.07 0.09 0 0 -0.01 0.01 -0.01 0.01 -0.01 0.01 -0.01 0 -0.01 0.01 -0.01 0 -0.01 0.01 -0.01 0.01 -0.01 0 -0.01 0.01 -0.01 0.01 -0.01 0.01 -0.01 0 -0.01 0.01 -0.01 0.01 -0.01 0.01 -0.01 0.01 -0.01 0.01 -0.01 0.01 -0.01 0 -0.01 0.01 -0.01 0 -0.01 0 -0.01 0 -0.01 0 -0.01 0 -0.01 0 -0.01 0 -0.01 0 -0.01 0 -0.01 0 -0.01 0 -0.04 -0.11 0.01 -0 0.01 -0 0.01 -0 0.01 -0 0.01 -0 0.01 -0 0.01 -0 0.01 -0 0.01 -0 0.01 -0 0.01 -0 0.01 -0.01 0.01 -0 0.01 -0 0.01 -0.01 0.01 -0.01 0.01 -0.01 0.01 -0.01 0.01 -0.01 0.01 -0.01 0.01 -0.01 0.01 -0 0.01 -0.01 0.01 -0.01 0.01 -0 0.01 -0.01 0.01 -0 0.01 -0 0.01 -0 0 -0 0.01 -0 0 -0 0 0zm0 0l0 0 0 0 0 0zm0.23 -0.19l0.09 0.07 0 -0 -0.01 0.01 -0.01 0.01 -0.01 0.01 -0.01 0.01 -0.01 0.01 -0.01 0.01 -0.01 0.01 -0.01 0.01 -0.01 0.01 -0.01 0.01 -0.01 0.01 -0.01 0.01 -0.01 0.01 -0.01 0.01 -0.01 0.01 -0.01 0.01 -0.01 0 -0.01 0.01 -0.01 0.01 -0.01 0.01 -0.01 0 -0.01 0 -0.01 0.01 -0.01 0 -0.01 0 -0.01 0.01 -0.01 0 -0.01 0.01 -0.01 0.01 -0.01 0.01 -0.01 0 -0.01 0.01 -0.07 -0.09 0.01 -0.01 0.01 -0.01 0.01 -0.01 0.01 -0 0.01 -0.01 0.01 -0.01 0.01 -0.01 0.01 -0.01 0.01 -0 0.01 -0 0.01 -0.01 0.01 -0 0.01 -0 0.01 -0 0.01 -0.01 0.01 -0.01 0.01 -0.01 0.01 -0.01 0 -0 0.01 -0.01 0.01 -0.01 0.01 -0 0.01 -0.01 0.01 -0.01 0.01 -0.01 0 -0.01 0.01 -0.01 0.01 -0.01 0 -0.01 0.01 -0.01 0.01 -0.01 0.01 -0.01 0 -0zm-0 0l0 -0 0.01 -0.01 -0.01 0.01zm0.14 0.01l-0.05 0.06 -0.09 -0.07 0.05 -0.06 0 -0 0.09 0.07zm-0.09 -0.07l0 -0 0 -0 -0 0zm0.06 -0.11l0.11 0.02 0 0 -0 0 -0 0.01 -0 0 -0 0 -0 0.01 -0 0 -0 0 -0 0 -0 0.01 -0 0 -0 0 -0 0.01 -0 0 -0 0 -0 0.01 -0 0 -0 0.01 -0 0.01 -0 0 -0 0 -0 0 -0 0.01 -0 0.01 -0 0 -0 0 -0 0 -0 0 -0 0.01 -0 0 -0 0 -0.01 0.01 -0 0 -0.09 -0.08 0 -0 0 -0 0 -0 0 -0 0 -0 0 -0 0 -0 0 -0 0 -0 0 -0 0 -0 0 -0 0 -0.01 0 -0.01 0 -0 0 -0 0 -0 0 -0 0 -0 0 -0.01 0 -0 0 -0 0 -0 0 -0 0 -0 0 -0 0 -0 0 -0 0 -0 0 -0.01 0 0 0 -0 0 0zm0 0l0 0 0 0 0 0zm0.02 -0.08l0.11 0.04 -0 0 0 0 -0 0.01 -0 0.01 0 -0 -0 0 -0 0 -0 0.01 -0 0 0 -0.01 -0 0 -0 0 0 0 -0 0 0 -0.01 -0 0.02 -0 0 0 -0.02 0 0 -0 0.02 -0 0 0 -0.01 0 0 0 0 -0 0.01 0 0 0 0 -0 0 0 0 -0 0 0 0 -0 0.01 -0 0 -0.11 -0.02 0 -0.01 0 0 0 -0 0 -0 0 -0 0 -0 0 -0 0 -0 -0 0.01 0 -0 0 -0 0 -0.02 0 -0 -0 0.01 0 -0 0 -0.02 0 -0 -0 0.02 0 -0.02 0 -0 0 -0 0 -0 -0 0 0 -0.01 0 -0 -0 0 0 0 0 -0 0 -0.01 0 -0 0 -0 0 -0.01 -0 0zm0.11 0.04l-0 0 0.02 -0.04 -0.02 0.04zm-0.1 -0.26l0.11 0 0 0 -0 0.01 0 0.01 -0 0.01 0 0.01 0 0.01 0 0.01 -0 0.01 0 0.01 0 0.01 0 0 0 0.01 0 0.01 0 0 0 0.01 0 0.01 0 0.01 0 0.01 -0 0 0 0 0 0.01 -0 0 0 0 -0 0.01 -0 0 -0 0 -0 0.01 -0 0.01 -0 0.01 -0 0.01 -0 0.01 -0 0.01 -0 0.01 -0.11 -0.04 0 -0.01 0 -0.01 0 -0.01 0 -0 0 -0 0 -0 0 -0 0 -0.01 0 -0 0 -0 0 -0 0 -0 0 0 -0 -0 -0 -0.01 0 -0 -0 -0.01 0 -0.01 -0 -0 -0 -0.01 0 -0.01 -0 -0 -0 -0.01 0 -0.01 -0 -0.01 -0 -0.01 0 -0.01 -0 -0.01 0 -0.01 -0 -0.01 0 -0.01 0 -0.01 0 0zm-0 -0.37l0.12 0 0 0 0 0.01 0 0.01 0 0.01 0 0.01 -0 0.01 0 0.01 0 0.01 0 0.01 0 0.01 -0 0.01 0 0.01 0 0.01 0 0.01 0 0.01 -0 0.01 0 0.01 0 0.01 0 0.01 0 0.01 0 0.01 0 0.01 0 0.01 0 0.01 0 0.01 0 0.01 -0 0.01 -0 0.01 0 0.01 -0 0.01 -0 0.01 0 0.01 -0 0.01 -0.11 -0 0 -0.01 0 -0.01 0 -0.01 -0 -0.01 0 -0.01 0 -0.01 -0 -0.01 0 -0.01 0 -0.01 0 -0.01 0 -0.01 0 -0.01 0 -0.01 0 -0.01 0 -0.01 0 -0.01 -0 -0.01 -0 -0.01 0 -0.01 0 -0.01 0 -0.01 -0 -0.01 -0 -0.01 0 -0.01 0 -0.01 0 -0.01 -0 -0.01 -0 -0.01 0 -0.01 0 -0.01 0 -0.01 0 -0.01 0 0zm-0.01 -2.46l0.11 -0.03 0 0 0 0.02 0 0.03 0 0.04 0 0.05 0 0.06 0 0.07 0 0.07 0 0.08 0 0.09 0 0.09 0 0.1 0 0.1 0 0.1 0 0.11 0 0.11 0 0.11 0 0.11 -0 0.11 0 0.11 -0 0.1 0 0.1 -0 0.1 0 0.09 -0 0.09 -0 0.08 0 0.08 -0 0.07 0 0.06 0 0.05 -0 0.04 0 0.03 0 0.02 -0.12 0 0 -0.02 0 -0.03 0 -0.04 0 -0.05 0 -0.06 0 -0.07 0 -0.08 0 -0.08 0 -0.09 0 -0.09 0 -0.1 0 -0.1 0 -0.1 0 -0.11 0 -0.11 0 -0.11 0 -0.11 0 -0.11 0 -0.11 0 -0.1 -0 -0.1 0 -0.1 -0 -0.09 -0 -0.09 0 -0.08 -0 -0.07 -0 -0.07 -0 -0.06 -0 -0.05 -0 -0.04 -0 -0.03 -0 -0.01 0 0zm-0.41 -0.45l0.05 -0.1 0 0 0.02 0.01 0.02 0.01 0.02 0.01 0.02 0.01 0.02 0.01 0.02 0.01 0.02 0.01 0.02 0.01 0.02 0.01 0.02 0.01 0.02 0.01 0.02 0.01 0.02 0.02 0.02 0.01 0.02 0.02 0.02 0.02 0.02 0.02 0.01 0.02 0.02 0.02 0.01 0.02 0.01 0.02 0.01 0.02 0.01 0.02 0.01 0.02 0.01 0.02 0.01 0.02 0.01 0.02 0.01 0.02 0.01 0.02 0.01 0.02 0.01 0.02 0 0.02 -0.11 0.03 -0 -0.02 -0 -0.02 -0 -0.01 -0.01 -0.02 -0.01 -0.02 -0.01 -0.01 -0.01 -0.02 -0.01 -0.02 -0.01 -0.02 -0.01 -0.02 -0.01 -0.01 -0.01 -0.02 -0.01 -0.02 -0.01 -0.01 -0.01 -0.01 -0.01 -0.02 -0.01 -0.01 -0.01 -0.01 -0.02 -0.01 -0.01 -0.01 -0.01 -0.01 -0.02 -0.01 -0.02 -0.01 -0.02 -0.01 -0.02 -0.01 -0.02 -0.01 -0.02 -0.01 -0.02 -0.01 -0.02 -0.01 -0.02 -0.01 -0.02 -0.01 -0.02 -0.01 0 0zm0.05 -0.1l0 0 0 0 0 0zm-0.29 -0.01l0.04 -0.11 0 0 0.01 0 0 0 0.01 0 0.01 0 0.01 0 0.01 0 0.01 0 0.01 0 0.01 0 0.01 0 0.01 0 0.01 0 0.01 0 0.01 0 0.01 0 0.01 0 0.01 0 0.01 0 0.01 0 0.01 0 0.01 0 0.01 0 0.01 0 0.01 0 0.01 0 0.01 0 0.01 0 0.01 0 0.01 0 0.01 0 0.01 0 0.01 0 -0.05 0.1 -0.01 -0 -0.01 -0 -0.01 -0 -0.01 -0 -0.01 -0 -0.01 -0 -0 -0 -0.01 -0 -0.01 -0 -0.01 -0 -0 -0 -0.01 -0 -0.01 -0 -0.01 -0 -0.01 -0 -0.01 -0 -0.01 -0 -0.01 -0 -0.01 -0 -0.01 -0 -0.01 -0 -0.01 -0 -0.01 -0 -0.01 -0 -0.01 -0 -0.01 -0 -0.01 -0 -0.01 -0 -0.01 -0 -0.01 -0 -0.01 -0 -0.01 -0 0 0zm0.04 -0.11l0 0 0 0 0 0zm-2.92 0.31l-0.07 -0.09 0 0 0.07 -0.05 0.07 -0.04 0.08 -0.04 0.08 -0.04 0.09 -0.04 0.09 -0.03 0.09 -0.03 0.09 -0.03 0.1 -0.02 0.1 -0.02 0.1 -0.02 0.1 -0.02 0.1 -0.01 0.1 -0.01 0.1 -0.01 0.1 -0.01 0.1 -0 0.1 -0 0.1 0 0.1 0 0.1 0 0.1 0.01 0.1 0.01 0.1 0.01 0.1 0.01 0.09 0.02 0.09 0.02 0.09 0.02 0.09 0.02 0.08 0.03 0.08 0.03 0.08 0.03 -0.04 0.11 -0.07 -0.03 -0.07 -0.03 -0.08 -0.02 -0.08 -0.02 -0.09 -0.02 -0.09 -0.02 -0.09 -0.01 -0.09 -0.01 -0.1 -0.01 -0.1 -0.01 -0.1 -0.01 -0.1 -0 -0.1 -0 -0.1 0 -0.1 0 -0.1 0 -0.1 0.01 -0.1 0.01 -0.1 0.01 -0.1 0.01 -0.1 0.01 -0.1 0.02 -0.1 0.02 -0.09 0.02 -0.09 0.03 -0.09 0.03 -0.08 0.03 -0.08 0.03 -0.08 0.04 -0.07 0.04 -0.07 0.04 -0.07 0.04 0 0zm0 0l0 0 0 0 0 0zm-0.26 1.08l-0.12 0 0 0 0 -0.05 0 -0.05 -0 -0.05 -0 -0.05 -0 -0.05 -0 -0.04 -0 -0.04 -0 -0.04 -0 -0.04 0 -0.04 0 -0.04 0 -0.04 0 -0.04 0 -0.04 0 -0.04 0 -0.04 0.01 -0.04 0.01 -0.04 0.01 -0.03 0.01 -0.03 0.01 -0.03 0.01 -0.03 0.01 -0.03 0.02 -0.03 0.02 -0.03 0.02 -0.03 0.02 -0.03 0.03 -0.03 0.03 -0.03 0.03 -0.03 0.03 -0.03 0.04 -0.03 0.07 0.09 -0.03 0.02 -0.03 0.02 -0.03 0.02 -0.02 0.02 -0.02 0.03 -0.02 0.03 -0.02 0.03 -0.02 0.03 -0.01 0.03 -0.01 0.03 -0.01 0.03 -0.01 0.03 -0.01 0.03 -0.01 0.03 -0.01 0.03 -0 0.03 -0 0.03 -0 0.03 -0 0.03 -0 0.04 0 0.04 0 0.04 0 0.04 0 0.04 0 0.04 0 0.04 0 0.04 0 0.05 0 0.05 0 0.05 0 0.05 0 0.05 0 0zm-0.12 2.12l0 -2.12 0.12 0 0 2.12 0 0 -0.12 0zm0.12 0l0 0 0 0 0 0zm0.17 0.48l-0.08 0.08 0 0 -0.01 -0.01 -0.01 -0.01 -0.01 -0.01 -0.01 -0.02 -0.01 -0.01 -0.01 -0.01 -0.01 -0.02 -0.01 -0.02 -0.01 -0.02 -0.01 -0.01 -0.01 -0.01 -0.01 -0.02 -0.01 -0.02 -0.01 -0.01 -0.01 -0.02 -0.01 -0.02 -0 -0.02 -0.01 -0.02 -0 -0.02 -0 -0.02 -0 -0.02 -0 -0.02 -0 -0.02 -0 -0.02 -0 -0.02 -0 -0.02 -0 -0.02 -0 -0.02 -0 -0.02 -0 -0.02 -0 -0.02 0 -0.02 0.12 0 0 0.02 -0 0.02 0 0.02 0 0.02 0 0.02 0 0.02 0 0.02 0 0.02 0 0.02 0 0.02 0 0.02 0 0.01 0 0.01 0 0.01 0 0.01 0 0.01 0 0.01 0.01 0.01 0.01 0.01 0.01 0.01 0.01 0.01 0.01 0.01 0.01 0.01 0.01 0.01 0.01 0.01 0.01 0.01 0.01 0.01 0.01 0.01 0.01 0.01 0.01 0.01 0.01 0.01 0.01 0.01 0 0zm0 0l0 0 0 0 0 0zm1.95 0.48l0.01 0.11 0 0 -0.06 0 -0.06 0 -0.06 0 -0.06 0 -0.07 -0 -0.07 -0 -0.07 -0 -0.07 -0 -0.07 -0 -0.07 -0.01 -0.07 -0.01 -0.07 -0.01 -0.07 -0.01 -0.07 -0.01 -0.07 -0.01 -0.07 -0.01 -0.07 -0.02 -0.07 -0.02 -0.07 -0.02 -0.07 -0.02 -0.07 -0.02 -0.06 -0.02 -0.06 -0.02 -0.06 -0.03 -0.06 -0.03 -0.06 -0.03 -0.06 -0.03 -0.05 -0.03 -0.05 -0.04 -0.05 -0.04 -0.05 -0.04 -0.04 -0.04 0.08 -0.08 0.04 0.04 0.04 0.03 0.05 0.03 0.05 0.03 0.05 0.03 0.05 0.03 0.05 0.03 0.06 0.03 0.06 0.02 0.06 0.02 0.06 0.02 0.06 0.02 0.06 0.02 0.07 0.02 0.07 0.01 0.07 0.02 0.07 0.01 0.07 0.01 0.07 0.01 0.07 0.01 0.07 0.01 0.07 0.01 0.07 0.01 0.07 0 0.07 0 0.07 0 0.07 0 0.06 0 0.06 0 0.06 0 0.06 -0 0.06 -0 0 0zm0 0l0 0 0 0 0 0zm0.16 -0.01l0.01 0.11 0 0 -0 0 -0.01 0 -0.01 0 -0 0 -0 0 -0.01 0 -0 0 -0 0 -0.01 0 -0 0 -0 0 0 0 -0.01 0 -0 0 0 0 -0.01 0 -0 0 -0 0 -0 0 0 0 -0.01 0 -0 0 -0 0 -0 0 -0.01 0 -0 0 -0 0 -0 0 -0.01 0 -0 0 -0 0 -0.01 0 -0.01 -0.11 0 0 0 -0 0.01 0 0 -0 0 0 0 -0 0 0 0.01 -0 0 0 0 -0 0 0 0 -0 0.01 -0 0 0 0 -0 0 0 0 -0 0.01 -0 0 0 0 -0 0.01 -0 0 0 0 -0 0.01 0 0 -0 0 0 0.01 -0 0 0 0.01 -0 0.01 0 0.01 -0 0.01 0 0 0zm0.19 -0.02l-0.1 0.06 0.07 0.02 -0 0 -0 0 -0 0 -0.01 0 -0 0 -0 0 0 0 0 -0 -0.01 0.01 0.01 -0.01 0 -0 -0.01 0.01 -0 0 -0.01 0.01 -0.01 0.01 -0 0 0 -0 -0.01 0.01 -0.01 0 -0 0 -0.01 0 -0.01 0 -0.01 0 -0.01 0 -0 0 -0.01 0 -0.01 0 -0.01 0 -0.01 0 -0.01 0 -0.01 0 -0.01 0 -0.01 -0.11 0.01 -0 0.01 -0 0.01 0 0 -0 0.01 -0 0 0 0.01 -0 0.01 -0 0 0 -0 0 0 -0 -0 0 0 -0 0 0 -0.01 0.01 0.01 -0.01 0 -0 -0 0 -0 0 0 -0 -0 0 0.01 -0.01 0.01 -0.01 -0 0 0.01 -0.01 0.01 -0 0.01 -0 0.01 -0 0 -0 0.01 -0 0.01 -0 0.01 -0 0.07 0.02zm-0.07 -0.02l0.05 -0.02 0.03 0.04 -0.07 -0.02zm1.16 -1.2l0 0.36 -0.12 0 0 -0.36 0.04 -0.05 0.08 0.05zm-0.08 -0.05l0.08 -0.03 0 0.08 -0.08 -0.05zm-0.3 0.26l-0.04 -0.11 0 0 0.01 -0 0.01 -0 0.01 -0.01 0.01 -0 0.01 -0.01 0.01 -0.01 0.01 -0 0.01 -0.01 0.01 -0.01 0.01 -0 0.01 -0.01 0.01 -0.01 0.01 -0.01 0.01 -0 0.01 -0.01 0.01 -0.01 0.01 -0.01 0.01 -0 0.01 -0.01 0.01 -0.01 0.01 -0.01 0.01 -0 0.01 -0.01 0.01 -0 0.01 -0 0.01 -0.01 0 -0 0.01 -0 0.01 -0 0.01 -0 0.01 -0 0.01 -0 0.04 0.11 -0 0 -0.01 0 -0 0 -0 0 -0.01 0 -0.01 0 -0.01 0 -0.01 0 -0.01 0 -0.01 0.01 -0.01 0.01 -0.01 0 -0.01 0.01 -0.01 0.01 -0.01 0.01 -0.01 0.01 -0.01 0 -0.01 0.01 -0.01 0.01 -0.01 0.01 -0.01 0.01 -0.01 0.01 -0.01 0.01 -0.01 0.01 -0.01 0.01 -0.01 0.01 -0.01 0.01 -0.01 0.01 -0.01 0 -0.01 0.01 -0.02 0.01 -0.01 0 0 0zm-0.04 -0.11l0 0 0 0 0 0zm-2.71 0.04l0.05 -0.1 0 0 0.07 0.03 0.07 0.03 0.08 0.03 0.08 0.03 0.08 0.02 0.08 0.02 0.08 0.02 0.08 0.02 0.08 0.02 0.08 0.01 0.09 0.01 0.09 0.01 0.09 0.01 0.09 0.01 0.09 0 0.09 0 0.09 0 0.09 -0 0.09 -0 0.09 -0.01 0.09 -0.01 0.09 -0.01 0.09 -0.01 0.09 -0.01 0.08 -0.01 0.08 -0.02 0.08 -0.02 0.08 -0.02 0.08 -0.02 0.08 -0.02 0.08 -0.02 0.07 -0.03 0.04 0.11 -0.08 0.03 -0.08 0.02 -0.08 0.02 -0.08 0.02 -0.08 0.02 -0.08 0.02 -0.09 0.02 -0.09 0.01 -0.09 0.01 -0.09 0.01 -0.09 0.01 -0.09 0.01 -0.09 0.01 -0.09 0 -0.09 0 -0.09 0 -0.09 -0 -0.09 -0 -0.09 -0.01 -0.09 -0.01 -0.09 -0.01 -0.09 -0.01 -0.09 -0.01 -0.09 -0.02 -0.09 -0.02 -0.08 -0.02 -0.08 -0.02 -0.08 -0.03 -0.08 -0.03 -0.08 -0.03 -0.08 -0.03 -0.08 -0.03 0 0zm0.05 -0.1l0 0 0 0 0 0zm-0.14 -0.03l-0.12 0 0.07 -0.06 0.01 0 0.01 0 0.01 0 0.01 0 0 0 0.01 0 0.01 0 0.01 0 0.01 0 0.01 0 0.01 0 0.01 0 0.01 0 0.01 0 0.01 0 0 0 0.01 0 0.01 0 0.01 0 0.01 0 0.01 0 0.01 0 0.01 0 0.01 0 0 0 0 0 0.01 0 0 0 0.01 0 0 0 0 0 0 0 -0.05 0.1 -0.01 -0 -0 -0 -0.01 -0 -0.01 -0 -0 -0 -0.01 -0 -0 -0 -0.01 -0 -0.01 -0 -0.01 -0 -0.01 -0 -0.01 -0 -0.01 -0 -0.01 -0 -0 -0 -0.01 -0 -0.01 -0 -0.01 -0 -0.01 -0 -0 -0 -0.01 -0 -0.01 -0 -0.01 -0 -0.01 -0 -0 -0 -0.01 -0 -0 -0 -0 -0 -0.01 -0 -0 -0 -0.01 -0 -0 -0 0.07 -0.06zm-0.12 0l-0 -0.08 0.07 0.02 -0.07 0.06zm0.12 0.3l-0.12 0 0 0 0 -0.01 0 -0.01 0 -0.01 0 -0.01 0 -0.01 0 -0.01 0 -0.01 0 -0.01 0 -0.01 0 -0.01 0 -0.01 0 -0.01 0 -0.01 0 -0.01 0 -0.01 0 -0.01 0 -0.01 0 -0.01 0 -0.01 0 -0.01 0 -0.01 0 -0.01 0 -0.01 0 -0.01 0 -0.01 0 -0.01 0 -0.01 0 -0.01 0 -0.01 0 -0.01 0 -0.01 0 -0.01 0.12 -0 0 0.01 0 0.01 0 0.01 0 0.01 0 0.01 0 0.01 0 0.01 0 0.01 0 0.01 0 0.01 0 0.01 0 0.01 0 0.01 0 0.01 0 0.01 0 0.01 0 0.01 0 0.01 0 0.01 0 0.01 0 0.01 0 0.01 0 0.01 0 0.01 0 0.01 0 0.01 0 0.01 0 0.01 0 0.01 0 0.01 0 0.01 0 0.01 0 0zm0.04 0.2l-0.08 0.08 0 0 -0.01 -0.01 -0.01 -0.01 -0.01 -0.01 -0 -0.01 -0.01 -0.01 -0 -0.01 -0 -0.01 -0 -0.01 -0.01 -0.01 -0 -0.01 -0 -0.01 -0 -0.01 -0 -0.01 -0 -0.01 -0 -0.01 -0 -0.01 -0 -0.01 -0 -0.01 -0 -0.01 -0 -0.01 -0 -0.01 -0 -0.01 0 -0.01 0 -0.01 -0 -0.01 0 -0.01 0 -0.01 -0 -0.01 0 -0.01 0 -0.01 0 -0.01 0 -0.01 0.12 0 0 0.01 0 0.01 0 0.01 0 0.01 -0 0.01 -0 0.01 0 0 0 0.01 0 0.01 0 0.01 -0 0 0 0 0 0.01 0 0.01 0 0.01 0 0 0 0 0 0.01 0 0 0 0.01 0 0 0 0 0 0 0 0 0 0.01 0 0.01 0 0 0 0 0.01 0.01 0 0.01 0 0 0.01 0.01 0 0zm0.35 0.22l-0.04 0.11 0 0 -0.01 -0.01 -0.01 -0 -0.01 -0.01 -0.01 -0.01 -0.01 -0.01 -0.01 -0.01 -0.01 -0.01 -0.01 -0.01 -0.01 -0.01 -0.01 -0.01 -0.01 -0.01 -0.01 -0.01 -0.01 -0.01 -0.01 -0.01 -0.01 -0.01 -0.01 -0.01 -0.01 -0.01 -0.01 -0.01 -0.01 -0.01 -0.01 -0.01 -0.01 -0.01 -0.01 -0.01 -0.01 -0.01 -0.01 -0.01 -0.01 -0.01 -0.01 -0.01 -0.01 -0.01 -0.01 -0.01 -0.01 -0.01 -0.01 -0.01 -0.01 -0.01 -0.01 -0.01 0.08 -0.08 0.01 0.01 0.01 0.01 0.01 0.01 0.01 0.01 0.01 0.01 0.01 0.01 0.01 0.01 0.01 0.01 0.01 0.01 0.01 0.01 0.01 0.01 0.01 0.01 0.01 0.01 0.01 0.01 0.01 0.01 0.01 0.01 0.01 0.01 0.01 0.01 0.01 0.01 0.01 0.01 0.01 0.01 0.01 0.01 0.01 0.01 0.01 0.01 0.01 0.01 0.01 0.01 0.01 0.01 0.01 0.01 0.01 0 0.01 0.01 0.01 0 0.01 0.01 0 0zm0 0l0 0 0 0 0 0zm2.46 -0.07l0.05 0.1 0 0 -0.06 0.03 -0.07 0.03 -0.07 0.03 -0.07 0.03 -0.07 0.02 -0.08 0.02 -0.08 0.02 -0.08 0.02 -0.08 0.02 -0.08 0.01 -0.08 0.01 -0.09 0.01 -0.09 0.01 -0.09 0.01 -0.09 0 -0.09 0 -0.09 0 -0.09 -0 -0.09 -0 -0.09 -0 -0.09 -0.01 -0.09 -0.01 -0.08 -0.01 -0.08 -0.01 -0.08 -0.01 -0.08 -0.01 -0.08 -0.02 -0.08 -0.02 -0.08 -0.02 -0.07 -0.02 -0.07 -0.02 -0.07 -0.03 0.04 -0.11 0.06 0.02 0.07 0.02 0.07 0.02 0.07 0.02 0.07 0.02 0.07 0.02 0.08 0.01 0.08 0.01 0.08 0.01 0.08 0.01 0.08 0.01 0.08 0.01 0.08 0 0.09 0 0.08 0 0.08 0 0.09 -0 0.09 -0 0.08 -0.01 0.08 -0.01 0.08 -0.01 0.08 -0.01 0.08 -0.01 0.08 -0.02 0.08 -0.02 0.07 -0.02 0.07 -0.02 0.07 -0.02 0.07 -0.02 0.07 -0.03 0.06 -0.03 0.06 -0.03 0 0zm-0 0l0 0 -0.09 0.05 0.09 -0.05zm0.24 -0.28l0.12 0 0 0 -0 0.02 -0 0.02 -0 0.02 -0 0.02 -0 0.02 -0 0.02 -0.01 0.02 -0.01 0.01 -0.01 0.02 -0.01 0.01 -0.01 0.01 -0.01 0.01 -0.01 0.01 -0.01 0.01 -0.01 0.01 -0.01 0.01 -0.01 0.01 -0.01 0.01 -0.01 0.01 -0.01 0.01 -0.01 0.01 -0.01 0.01 -0.01 0.01 -0.01 0.01 -0.01 0.01 -0.01 0.01 -0.01 0.01 -0.01 0.01 -0.01 0.01 -0.01 0.01 -0.01 0.01 -0.01 0.01 -0.05 -0.1 0.01 -0.01 0.01 -0.01 0.01 -0.01 0.01 -0.01 0.01 -0.01 0.01 -0.01 0.01 -0.01 0.01 -0.01 0.01 -0.01 0.01 -0.01 0.01 -0.01 0.01 -0.01 0.01 -0.01 0.01 -0.01 0.01 -0.01 0.01 -0.01 0.01 -0.01 0.01 -0.01 0.01 -0.01 0.01 -0.01 0.01 -0.01 0 -0.01 0.01 -0.01 0 -0.01 0 -0.01 0 -0.01 0 -0.01 0 -0.01 0 -0.01 0 -0.01 0 -0.01 0 -0.01 0 0zm-3.09 -1.31l-0.12 0 0.07 -0.06 0.01 0 0.01 0 0.01 0 0.01 0 0.01 0 0 0 0.01 0 0.01 0 0 0 0.01 0 0.01 0 0 0 0 0 0.01 0 0.01 0 0 0 0.01 0 0.01 0 0.01 0.01 0 0 0.01 0 0.01 0 0.01 0 0.01 0 0 0 0 0 0.01 0 0.01 0 0 0 0.01 0 0.01 0 0 0 -0.05 0.11 -0.01 -0 -0.01 -0 -0.01 -0 -0.01 -0 -0 -0 -0 -0 -0.01 -0 -0.01 -0 -0 -0 -0.01 -0 -0.01 -0 -0.01 -0 -0.01 -0.01 -0 -0 -0 -0 -0.01 -0 -0.01 -0 -0.01 -0 -0 -0 -0.01 -0 -0.01 -0 -0 -0 -0 -0 -0.01 -0 -0.01 -0 -0.01 -0 -0.01 -0 0 0 -0.01 -0 -0.01 -0 -0 -0 -0 -0 0.07 -0.06zm-0.12 0l0 -0.08 0.07 0.02 -0.07 0.06zm0.18 0.52l-0.08 0.08 0 0 -0.01 -0.01 -0.01 -0.01 -0.01 -0.02 -0.01 -0.01 -0.01 -0.02 -0.01 -0.02 -0.01 -0.02 -0.01 -0.02 -0.01 -0.02 -0 -0.02 -0 -0.02 -0 -0.02 -0 -0.02 -0 -0.02 -0 -0.02 -0 -0.02 -0 -0.02 -0 -0.02 -0 -0.02 -0 -0.02 0 -0.02 0 -0.02 0 -0.02 0 -0.02 0 -0.02 0 -0.02 0 -0.02 0 -0.02 0 -0.02 0 -0.02 0 -0.02 -0 -0.02 0.12 0 -0 0.02 -0 0.02 0 0.02 -0 0.02 -0 0.02 -0 0.02 0 0.02 -0 0.02 -0 0.02 0 0.02 -0 0.02 0 0.02 -0 0.02 0 0.02 0 0.02 0 0.02 0 0.02 0 0.01 0 0.02 0 0.02 0 0.01 0 0.01 0 0.01 0 0.01 0 0.01 0 0.01 0 0.01 0.01 0.01 0.01 0.01 0.01 0.01 0.01 0.01 0.01 0.01 0 0zm-0.08 0.08l0 0 0 0 0 0zm3.03 -0.08l0.08 0.08 0 0 -0.06 0.05 -0.07 0.05 -0.07 0.04 -0.08 0.04 -0.08 0.04 -0.09 0.03 -0.1 0.03 -0.1 0.03 -0.1 0.02 -0.11 0.02 -0.11 0.02 -0.11 0.01 -0.11 0.01 -0.12 0.01 -0.12 0.01 -0.12 0 -0.12 -0 -0.12 -0 -0.12 -0.01 -0.12 -0.01 -0.11 -0.01 -0.11 -0.02 -0.11 -0.02 -0.11 -0.02 -0.1 -0.03 -0.1 -0.03 -0.09 -0.03 -0.09 -0.04 -0.08 -0.04 -0.08 -0.04 -0.07 -0.05 -0.06 -0.05 0.08 -0.08 0.05 0.05 0.06 0.04 0.07 0.04 0.07 0.04 0.08 0.04 0.09 0.03 0.09 0.03 0.1 0.03 0.1 0.02 0.11 0.02 0.11 0.02 0.11 0.01 0.11 0.01 0.11 0.01 0.11 0 0.11 0 0.11 -0 0.11 -0.01 0.11 -0.01 0.11 -0.01 0.11 -0.01 0.11 -0.02 0.1 -0.02 0.1 -0.02 0.09 -0.03 0.09 -0.03 0.08 -0.03 0.08 -0.03 0.07 -0.04 0.07 -0.04 0.06 -0.04 0.05 -0.04 0 0zm0.07 -0.19l0.12 -0 0 0 0 0.01 0 0.01 -0 0.01 -0 0.01 0 0.01 -0 0.01 -0 0.01 -0 0.01 -0 0.01 -0 0.01 -0 0.01 -0 0.01 -0 0.01 -0 0.01 -0 0.01 -0 0.01 -0 0.01 -0 0.01 -0 0.01 -0 0.01 -0 0.01 -0.01 0.01 -0 0 -0.01 0.01 -0.01 0.01 -0.01 0.01 -0.01 0.01 -0 0 -0.01 0.01 -0.01 0.01 -0.01 0.01 -0.01 0.01 -0.08 -0.08 0.01 -0.01 0.01 -0.01 0 -0 0 -0 0.01 -0.01 0 -0 0 -0 0 -0 0 -0 0 -0.01 0 -0 0 -0 0 -0.01 0 -0 0 -0 0 -0.01 0 -0.01 0 -0 0 -0 0 -0.01 0 -0.01 0 -0 0 -0 0 -0.01 0 -0.01 0 -0.01 0 -0.01 0 -0.01 0 -0.01 -0 -0.01 0 -0.01 0 -0.01 0 0zm0.08 -0.28l-0.04 -0.11 0.08 0.06 0 0.01 0 0.01 0 0.01 0 0.01 0 0.01 -0 0.01 -0 0.01 0 0.01 0 0.01 0 0.01 0 0.01 0 0.01 0 0.01 0 0.01 0 0.01 0 0.01 0 0.01 0 0.01 0 0.01 0 0.01 0 0.01 0 0.01 0 0.01 0 0.01 -0 0.01 0 0.01 0 0.01 0 0.01 0 0.01 0 0.01 0 0.01 0 0.01 -0.12 0 0 -0.01 0 -0.01 0 -0.01 0 -0.01 0 -0.01 0 -0.01 -0 -0.01 -0 -0.01 0 -0.01 0 -0.01 0 -0.01 0 -0.01 0 -0.01 0 -0.01 0 -0.01 0 -0.01 0 -0.01 0 -0.01 0 -0.01 0 -0.01 0 -0.01 0 -0.01 0 -0.01 0 -0.01 0 -0.01 0 -0.01 -0 -0.01 0 -0.01 0 -0.01 0 -0.01 0 -0.01 0 -0.01 0.08 0.06zm-0.04 -0.11l0.08 -0.03 -0 0.08 -0.08 -0.06zm-0.44 0.32l-0.03 -0.11 0 0 0.02 -0.01 0.02 -0.01 0.02 -0.01 0.02 -0.01 0.02 -0.01 0.02 -0.01 0.02 -0.01 0.02 -0.01 0.02 -0.01 0.02 -0.01 0.02 -0.01 0.02 -0.01 0.02 -0.01 0.02 -0.01 0.02 -0.01 0.01 -0.01 0.01 -0.01 0.01 -0.01 0.01 -0.01 0.01 -0.01 0.01 -0.01 0.01 -0.01 0.01 -0.01 0.01 -0 0.01 -0.01 0.01 -0 0.01 -0.01 0.01 -0 0.01 -0 0.01 -0 0.01 -0 0.01 -0 0.04 0.11 -0 0 -0 0 -0.01 0 -0.01 0 -0.01 0 -0.01 0 -0.01 0 -0.01 0.01 -0.01 0.01 -0.01 0 -0.01 0.01 -0.01 0.01 -0.01 0.01 -0.01 0.01 -0.01 0.01 -0.01 0.01 -0.02 0.01 -0.02 0.01 -0.02 0.01 -0.02 0.01 -0.02 0.01 -0.02 0.01 -0.02 0.01 -0.02 0.01 -0.02 0.01 -0.02 0.01 -0.02 0.01 -0.02 0.01 -0.02 0.01 -0.02 0.01 -0.02 0.01 -0.03 0.01 0 0zm0 0l0 0 0 0 0 0zm-2.57 -0.12l0.05 -0.11 0 0 0.06 0.03 0.07 0.03 0.07 0.03 0.07 0.02 0.07 0.02 0.07 0.02 0.08 0.02 0.08 0.02 0.08 0.02 0.08 0.01 0.08 0.01 0.08 0.01 0.08 0.01 0.08 0.01 0.08 0.01 0.08 0 0.08 0 0.08 0 0.09 0 0.08 -0 0.08 -0 0.08 -0.01 0.08 -0.01 0.08 -0.01 0.08 -0.01 0.08 -0.01 0.08 -0.01 0.08 -0.01 0.07 -0.02 0.07 -0.02 0.07 -0.02 0.07 -0.02 0.03 0.11 -0.07 0.02 -0.07 0.02 -0.08 0.02 -0.08 0.02 -0.08 0.01 -0.08 0.01 -0.08 0.01 -0.08 0.01 -0.08 0.01 -0.09 0.01 -0.09 0.01 -0.09 0 -0.09 0 -0.09 0 -0.09 -0 -0.09 -0 -0.09 -0 -0.09 -0.01 -0.09 -0.01 -0.09 -0.01 -0.08 -0.01 -0.08 -0.01 -0.08 -0.01 -0.08 -0.02 -0.08 -0.02 -0.08 -0.02 -0.08 -0.02 -0.07 -0.02 -0.07 -0.02 -0.07 -0.03 -0.07 -0.03 -0.07 -0.03 0 0zm0.05 -0.11l0 0 -0.03 -0.01 0.03 0.01zm2.93 -0.62l0.12 0 -0 0 -0 0.01 -0 0.01 -0 0.01 -0 0.01 -0 0.01 -0 0.01 -0 0.01 -0 0.01 -0 0.01 -0 0.01 -0.01 0.01 -0 0.01 -0.01 0.01 -0.01 0.01 -0.01 0.01 -0.01 0.01 -0.01 0.01 -0 0.01 -0.01 0.01 -0.01 0.01 -0.01 0.01 -0 0 -0.01 0.01 -0.01 0.01 -0.01 0.01 -0 0 -0.01 0.01 -0.01 0.01 -0 0 -0.01 0.01 -0.01 0.01 -0.01 0.01 -0.07 -0.09 0.01 -0.01 0.01 -0 0.01 -0.01 0.01 -0.01 0 -0 0 -0 0.01 -0.01 0.01 -0.01 0 -0 0 -0 0.01 -0.01 0.01 -0.01 0 -0 0 -0 0 -0.01 0 -0.01 0 -0.01 0 -0.01 0 -0.01 0 -0 0 -0.01 0 -0.01 0 -0.01 0 -0.01 0 -0.01 0 -0.01 0 -0.01 0 -0.01 0 -0.01 0 -0.01 0 -0.01 0 -0.01 -0 0zm0.12 0l-0 0 0 -0.06 -0 0.06zm-0.04 -0.34l-0.05 -0.11 0.08 0.05 0 0.01 0 0.01 0 0.01 0 0.01 0 0.01 0 0.01 0 0.01 0 0.01 0 0.01 0 0.01 -0 0.01 0 0.01 0 0.01 0 0.01 0 0.01 0 0.01 0 0.01 -0 0.01 -0 0.01 0 0.01 0 0.01 0 0.01 -0 0.01 -0 0.01 0 0.01 0 0.01 0 0.01 -0 0.01 -0 0.01 0 0.01 0 0.01 0 0.01 -0.12 0 0 -0.01 0 -0.01 0 -0.01 0 -0.01 -0 -0.01 0 -0.01 0 -0.01 0 -0.01 0 -0.01 -0 -0.01 0 -0.01 0 -0.01 0 -0.01 0 -0.01 -0 -0.01 0 -0.01 0 -0.01 0 -0.01 0 -0.01 0 -0.01 -0 -0.01 -0 -0.01 0 -0.01 -0 -0.01 0 -0.01 -0 -0.01 0 -0.01 -0 -0.01 -0 -0.01 -0 -0.01 -0 -0.01 -0 -0.01 0.08 0.05zm-0.05 -0.11l0.07 -0.03 0.01 0.08 -0.08 -0.05zm-0.29 0.27l-0.04 -0.11 -0 0 0.02 -0.01 0.02 -0.01 0.01 -0.01 0.01 -0.01 0.01 -0.01 0.01 -0.01 0.01 -0 0.01 -0.01 0.01 -0 0.01 -0 0.01 -0 0.01 -0.01 0.01 -0 0.01 -0 0.01 -0 0.01 -0 0.01 -0 0.01 -0 0.01 -0 0.01 -0 0.01 -0.01 0.01 -0 0.01 -0 0.01 -0.01 0.01 -0 0.01 -0 0.01 -0 0.01 -0.01 0.01 -0.01 0.01 -0.01 0.01 -0.01 0.01 -0.01 0.05 0.11 -0.01 0 -0.01 0.01 -0.01 0.01 -0.01 0 -0.01 0.01 -0.01 0 -0.01 0 -0.01 0 -0.01 0 -0.01 0 -0.01 0 -0.01 0 -0.01 0.01 -0.01 0 -0.01 0 -0.01 0.01 -0.01 0 -0.01 0 -0.01 0.01 -0.01 0 -0.01 0 -0.01 0.01 -0.01 0.01 -0.01 0 -0.01 0.01 -0.01 0.01 -0.01 0 -0.01 0.01 -0.02 0.01 -0.01 0.01 -0.02 0.01 -0.02 0.01 -0 0zm0 0l-0 0 0.12 -0.04 -0.12 0.04zm-1.02 0.2l0 -0.12 0 0 0.03 0 0.03 -0 0.03 -0 0.03 -0 0.03 -0 0.03 -0 0.03 -0 0.03 -0 0.03 -0 0.03 -0 0.03 -0.01 0.03 -0.01 0.03 -0 0.03 -0.01 0.03 -0.01 0.03 -0.01 0.03 -0.01 0.03 -0.01 0.03 -0.01 0.03 -0.01 0.03 -0.01 0.03 -0.01 0.03 -0.01 0.03 -0.01 0.03 -0.01 0.03 -0.01 0.03 -0.01 0.03 -0.01 0.03 -0.01 0.03 -0.01 0.03 -0.01 0.03 -0.01 0.04 0.11 -0.03 0.01 -0.03 0.01 -0.03 0.01 -0.03 0.01 -0.03 0.01 -0.03 0.01 -0.03 0.01 -0.03 0.01 -0.03 0.01 -0.03 0.01 -0.03 0.01 -0.03 0.01 -0.03 0.01 -0.03 0.01 -0.03 0.01 -0.04 0.01 -0.03 0.01 -0.03 0.01 -0.03 0.01 -0.03 0.01 -0.03 0.01 -0.03 0.01 -0.03 0 -0.03 0 -0.03 0 -0.03 0 -0.03 0 -0.03 0 -0.03 0 -0.03 0 -0.03 0 -0.03 0 0 0zm-1.14 -0.08l0.02 -0.11 0 0 0.05 0.01 0.05 0.01 0.04 0.01 0.04 0.01 0.04 0.01 0.04 0.01 0.04 0.01 0.04 0.01 0.03 0 0.03 0 0.03 0 0.03 0 0.03 0 0.03 0 0.03 0 0.03 0 0.03 0 0.03 0 0.03 0 0.03 -0 0.03 0 0.03 0 0.03 -0 0.03 0 0.03 -0 0.03 0 0.03 0 0.04 -0 0.04 0 0.04 -0 0.04 0 0.04 0 0 0.12 -0.04 0 -0.04 0 -0.04 0 -0.04 0 -0.04 0 -0.04 0 -0.03 0 -0.03 0 -0.03 0 -0.03 0 -0.03 0 -0.03 0 -0.03 -0 -0.03 -0 -0.03 -0 -0.03 -0 -0.03 -0 -0.03 -0 -0.03 -0 -0.03 -0 -0.03 -0 -0.03 -0 -0.03 -0 -0.04 -0 -0.04 -0.01 -0.04 -0.01 -0.04 -0.01 -0.04 -0.01 -0.04 -0.01 -0.04 -0.01 -0.05 -0.01 -0.05 -0.01 0 0zm-0.58 -0.19l0.05 -0.1 -0 0 0.02 0.01 0.01 0.01 0.02 0.01 0.02 0.01 0.02 0.01 0.02 0.01 0.02 0.01 0.02 0.01 0.02 0.01 0.02 0.01 0.02 0.01 0.02 0.01 0.02 0.01 0.02 0.01 0.02 0.01 0.02 0.01 0.02 0.01 0.02 0.01 0.02 0.01 0.02 0 0.02 0 0.02 0.01 0.02 0 0.02 0.01 0.02 0 0.02 0 0.02 0 0.02 0 0.02 0 0.02 0 0.02 0 0.02 0 -0.02 0.11 -0.02 -0 -0.02 -0 -0.02 -0 -0.02 -0 -0.02 -0 -0.02 -0 -0.02 -0 -0.02 -0 -0.02 -0.01 -0.02 -0 -0.02 -0.01 -0.02 -0 -0.02 -0.01 -0.02 -0.01 -0.02 -0.01 -0.02 -0.01 -0.02 -0.01 -0.02 -0.01 -0.02 -0.01 -0.02 -0.01 -0.02 -0.01 -0.02 -0.01 -0.02 -0.01 -0.02 -0.01 -0.02 -0.01 -0.02 -0.01 -0.02 -0.01 -0.02 -0.01 -0.02 -0.01 -0.02 -0.01 -0.02 -0.01 -0.02 -0.01 -0 0zm0 0l-0 0 -0.05 -0.03 0.05 0.03zm-0.09 -0.13l-0.11 -0.01 0.08 -0.05 0.01 0 0.01 0 0 0 0 0 0.01 0 0.01 0 0 0 0.01 0 0.01 0 0 0 0.01 0 0.01 0 0 0 0.01 0 0.01 0 0 0 0.01 0 0.01 0 0.01 0 0.01 0 0 0 0.01 0 0.01 0 0.01 0 0.01 0 0.01 0 0.01 0 0 0 0.01 0 0.01 0 0.01 0 0.01 0 -0.05 0.1 -0.01 -0 -0.01 -0 -0.01 -0 -0.01 -0 -0.01 -0 -0.01 -0 -0.01 -0 -0.01 -0 -0.01 -0 -0 -0 -0.01 -0 -0.01 -0 -0.01 -0 -0.01 -0 -0.01 -0 -0.01 -0 -0.01 -0 -0 -0 -0 -0 -0.01 -0.01 -0 -0 -0 -0 -0.01 -0 -0 -0 -0 -0 -0.01 -0 -0 -0 -0 0 -0.01 -0 -0 -0 -0 -0 -0 -0 0.08 -0.05zm-0.11 -0.01l0.01 -0.08 0.07 0.03 -0.08 0.05zm0.11 0.46l-0.11 0.03 -0 -0 -0 -0.01 -0 -0.01 -0 -0.01 -0 -0.01 -0 -0.01 -0 -0.01 0 -0.01 -0 -0.01 0 -0.02 -0 -0.02 0 -0.02 -0 -0.02 -0 -0.02 0 -0.02 0 -0.02 0 -0.02 0 -0.02 0 -0.02 0 -0.02 0 -0.02 -0 -0.02 0 -0.02 0 -0.02 0 -0.02 0 -0.02 0 -0.01 0 -0.01 0 -0.01 0 -0.01 0 -0.01 0 -0.01 0 -0.01 0.11 0.01 -0 0.01 -0 0 0 0.01 -0 0.01 -0 0.01 0 0.01 -0 0.02 -0 0.01 0 0.02 -0 0.02 0 0.02 -0 0.02 -0 0.02 0 0.02 0 0.02 0 0.02 0 0.02 0 0.02 0 0.02 -0 0.02 0 0.02 0 0.02 0 0.02 0 0.02 0 0.01 0 0.01 0 0.01 0 0.01 0 0.01 0 0.01 0 0.01 0 0 -0 -0zm-0.11 0.03l-0 -0 -0.01 -0.05 0.01 0.05zm3.07 0.11l0.07 0.09 0 0 -0.06 0.04 -0.07 0.04 -0.08 0.04 -0.09 0.04 -0.09 0.03 -0.1 0.03 -0.11 0.03 -0.11 0.02 -0.12 0.02 -0.12 0.02 -0.12 0.02 -0.12 0.01 -0.13 0.01 -0.13 0.01 -0.13 0 -0.13 0 -0.13 -0 -0.12 -0.01 -0.12 -0.01 -0.12 -0.01 -0.12 -0.02 -0.11 -0.02 -0.11 -0.03 -0.1 -0.03 -0.09 -0.03 -0.09 -0.04 -0.08 -0.04 -0.07 -0.05 -0.06 -0.06 -0.05 -0.06 -0.04 -0.07 -0.03 -0.08 0.11 -0.03 0.02 0.05 0.03 0.05 0.04 0.05 0.05 0.05 0.06 0.04 0.07 0.04 0.08 0.04 0.09 0.03 0.09 0.03 0.1 0.02 0.11 0.02 0.11 0.02 0.12 0.01 0.12 0.01 0.12 0.01 0.12 0 0.12 0 0.12 -0 0.12 -0.01 0.12 -0.01 0.12 -0.01 0.12 -0.02 0.12 -0.02 0.11 -0.02 0.11 -0.02 0.1 -0.03 0.1 -0.03 0.09 -0.03 0.08 -0.03 0.07 -0.03 0.06 -0.04 0.05 -0.04 0 0zm0 0l0 0 0 0 0 0zm-1.88 -1.61l-0.01 -0.11 -0 0 0.01 -0 0.01 -0 0.01 -0 0.01 -0 0.01 -0 0.01 -0 0.01 0 0.01 -0 0.01 -0 0.01 -0 0.01 0 0.01 -0 0.01 -0 0.01 0 0.01 -0 0.01 -0 0.01 0 0.01 -0 0.01 -0 0.01 0 0.01 -0 0.01 -0 0.01 0 0.01 -0 0.01 -0 0.01 0 0.01 -0 0.01 -0 0.01 -0 0.01 -0 0.01 -0 0.01 -0 0.02 0.11 -0.01 0 -0.01 0 -0.01 0 -0.01 0 -0.01 0 -0.01 0 -0.01 0 -0.01 0 -0.01 0 -0.01 0 -0.01 -0 -0.01 0 -0.01 0 -0.01 -0 -0.01 0 -0.01 0 -0.01 -0 -0.01 0 -0.01 0 -0.01 -0 -0.01 0 -0.01 0 -0.01 -0 -0.01 0 -0.01 0 -0.01 0 -0.01 0 -0.01 0 -0.01 0 -0.01 0 -0.01 0 -0.01 0 -0 0zm0 0l-0 0 0.03 -0 -0.03 0zm-0.64 0.15l-0.04 -0.11 0 0 0.02 -0.01 0.02 -0.01 0.02 -0.01 0.02 -0.01 0.02 -0.01 0.02 -0.01 0.02 -0.01 0.02 -0.01 0.02 -0.01 0.02 -0.01 0.02 -0.01 0.02 -0 0.02 -0.01 0.02 -0.01 0.02 -0 0.02 -0 0.02 -0 0.02 -0 0.02 -0 0.02 -0 0.02 -0 0.02 -0 0.02 -0 0.02 -0 0.02 -0 0.02 -0 0.02 -0 0.02 -0 0.02 -0 0.02 -0 0.02 -0 0.02 -0 0.01 0.11 -0.02 0 -0.02 0 -0.02 0 -0.02 0 -0.02 0 -0.02 0 -0.02 0 -0.02 0 -0.02 0 -0.02 0 -0.02 0 -0.02 0 -0.02 0 -0.02 0 -0.02 0 -0.02 0 -0.02 0 -0.02 0 -0.02 0 -0.02 0.01 -0.02 0 -0.02 0.01 -0.02 0.01 -0.02 0.01 -0.02 0.01 -0.02 0 -0.02 0.01 -0.02 0.01 -0.02 0.01 -0.02 0.01 -0.02 0.01 -0.02 0.01 0 0zm2.2 0.66l0.04 0.11 0 0 -0.13 0.04 -0.14 0.04 -0.14 0.03 -0.14 0.03 -0.15 0.02 -0.15 0.01 -0.15 0.01 -0.15 0 -0.15 -0 -0.15 -0.01 -0.14 -0.01 -0.14 -0.02 -0.13 -0.02 -0.13 -0.03 -0.12 -0.03 -0.12 -0.03 -0.11 -0.04 -0.1 -0.04 -0.09 -0.04 -0.08 -0.05 -0.07 -0.05 -0.06 -0.05 -0.04 -0.06 -0.03 -0.06 -0.01 -0.07 0.01 -0.07 0.04 -0.07 0.05 -0.06 0.07 -0.06 0.09 -0.06 0.11 -0.06 0.13 -0.06 0.04 0.11 -0.13 0.05 -0.1 0.05 -0.08 0.05 -0.06 0.05 -0.04 0.05 -0.02 0.04 -0.01 0.04 0 0.04 0.02 0.04 0.03 0.04 0.04 0.04 0.06 0.04 0.07 0.04 0.08 0.04 0.09 0.04 0.1 0.04 0.11 0.03 0.12 0.03 0.12 0.03 0.13 0.02 0.13 0.02 0.14 0.01 0.14 0.01 0.14 0 0.14 0 0.14 -0.01 0.14 -0.01 0.14 -0.02 0.14 -0.02 0.13 -0.03 0.13 -0.04 0.12 -0.04 0 0zm0.04 0.11l0 0 -0.21 0.08 0.21 -0.08zm0.35 -0.55l0.08 -0.08 0 0 0.02 0.03 0.02 0.03 0.02 0.03 0.01 0.03 0.01 0.03 0 0.03 0 0.03 -0 0.03 -0.01 0.03 -0.01 0.03 -0.01 0.03 -0.01 0.02 -0.02 0.02 -0.02 0.02 -0.02 0.02 -0.02 0.02 -0.02 0.02 -0.02 0.02 -0.02 0.02 -0.03 0.02 -0.03 0.01 -0.03 0.01 -0.03 0.01 -0.03 0.01 -0.03 0.01 -0.02 0.01 -0.03 0.01 -0.02 0.01 -0.02 0.01 -0.02 0.01 -0.02 0.01 -0.02 0.01 -0.04 -0.11 0.02 -0.01 0.02 -0.01 0.02 -0.01 0.02 -0.01 0.02 -0.01 0.02 -0.01 0.02 -0.01 0.02 -0.01 0.02 -0.01 0.02 -0.01 0.02 -0.01 0.02 -0.01 0.02 -0.01 0.02 -0.01 0.02 -0.01 0.02 -0.02 0.02 -0.01 0.02 -0.02 0.01 -0.02 0.01 -0.01 0.01 -0.02 0.01 -0.01 0.01 -0.01 0 -0.01 0 -0.01 0 -0.01 -0 -0.01 -0 -0.02 -0.01 -0.02 -0.01 -0.02 -0.01 -0.02 -0.02 -0.02 0 0zm-1.69 -0.39l-0.02 -0.11 -0 0 0.04 -0 0.04 -0 0.05 -0 0.05 -0 0.05 -0 0.05 0 0.06 0 0.06 0 0.06 0 0.06 0.01 0.06 0.01 0.07 0.01 0.06 0.01 0.07 0.01 0.07 0.01 0.07 0.01 0.07 0.01 0.07 0.01 0.06 0.02 0.06 0.02 0.06 0.02 0.06 0.02 0.06 0.02 0.06 0.02 0.06 0.02 0.05 0.02 0.05 0.03 0.05 0.03 0.05 0.03 0.04 0.03 0.04 0.03 0.04 0.04 -0.08 0.08 -0.03 -0.03 -0.03 -0.03 -0.04 -0.03 -0.04 -0.03 -0.04 -0.03 -0.05 -0.02 -0.05 -0.02 -0.05 -0.02 -0.05 -0.02 -0.06 -0.02 -0.06 -0.02 -0.06 -0.02 -0.06 -0.02 -0.06 -0.01 -0.06 -0.01 -0.06 -0.01 -0.06 -0.01 -0.06 -0.01 -0.06 -0.01 -0.06 -0.01 -0.06 -0.01 -0.06 -0.01 -0.06 -0.01 -0.06 -0 -0.06 -0 -0.05 -0 -0.05 0 -0.05 0 -0.05 0 -0.04 0 -0.04 0 -0.04 0 -0 0zm0 0l-0 0 0.03 -0 -0.02 0z"/>
    </g>
   </g>
   <g>
    <path class="fil0 str0" d="M5.92 12.11l2.36 0 0 0c-0.14,0.21 -0.22,0.33 -0.23,0.34l-0.63 0c0.09,0.1 0.15,0.22 0.18,0.37l0.67 0c0.01,0 0.01,0 0.01,0.01 -0.15,0.23 -0.23,0.34 -0.23,0.34l-0.44 0c-0.01,0.12 -0.07,0.26 -0.17,0.42 -0.13,0.17 -0.26,0.27 -0.39,0.32 -0.23,0.11 -0.45,0.16 -0.66,0.16l0 0c0,0.02 0.47,0.58 1.42,1.69l-0.63 0c-0.92,-1.07 -1.38,-1.61 -1.38,-1.62l0 -0.33 0 -0.01c0.08,0.01 0.18,0.02 0.29,0.02 0.52,0 0.84,-0.17 0.97,-0.5 0.02,-0.05 0.03,-0.1 0.03,-0.15l-1.4 0c-0.01,0 -0.01,-0 -0.01,-0.01 0.16,-0.23 0.24,-0.34 0.24,-0.34l1.11 0 0 -0c-0.06,-0.13 -0.19,-0.23 -0.37,-0.3 -0.13,-0.04 -0.25,-0.06 -0.35,-0.06l-0.62 0 0 -0.01c0.15,-0.22 0.23,-0.34 0.23,-0.34z"/>
   </g>
  </g>
 </g>
</svg>
