<?xml version="1.0" encoding="UTF-8"?>
<!DOCTYPE svg PUBLIC "-//W3C//DTD SVG 1.1//EN" "http://www.w3.org/Graphics/SVG/1.1/DTD/svg11.dtd">
<!-- Creator: CorelDRAW 2019 (64-Bit) -->
<svg xmlns="http://www.w3.org/2000/svg" xml:space="preserve" width="0.0708819in" height="0.0833307in" version="1.1" style="shape-rendering:geometricPrecision; text-rendering:geometricPrecision; image-rendering:optimizeQuality; fill-rule:evenodd; clip-rule:evenodd"
viewBox="0 0 0.68 0.8"
 xmlns:xlink="http://www.w3.org/1999/xlink">
 <defs>
  <style type="text/css">
   <![CDATA[
    .fil0 {fill:black;fill-rule:nonzero}
   ]]>
  </style>
 </defs>
 <g id="Layer_x0020_1">
  <metadata id="CorelCorpID_0Corel-Layer"/>
  <g id="_2330510172208">
   <path class="fil0" d="M0.16 0.16l-0 0.03c-0,0.01 -0,0.01 0,0.02 0,0 0,0 0,0 0,0 0,0.01 0,0.01 0,0 0,0 0,0.01 0,0 0,0 0,0.01 0,0.01 0.01,0.02 0.01,0.02 0,0 0,0.01 0.01,0.01 0,0 0,0.01 0.01,0.01 0,0 0,0.01 0.01,0.01 0,0 0,0 0,0 0,0 0,0 0,0 0,0 0,0 0,0.01 0,0 0,0 0.01,0.01 0,0 0,0 0.01,0.01 0,0 0,0 0.01,0.01 0,0 0,0 0,0 0,0 0,0 0,0 0,0 0.01,0 0.01,0l0 0c0,0 0,0 0,0 0,0 0,0 0.01,0 0,0 0.01,0 0.01,0 0,0 0.01,0 0.01,0l0 0c0,0 0.01,0 0.02,0 0,0 0,0 0.01,-0 0,-0 0.01,-0 0.01,0 0.01,0 0.02,0 0.03,0l0 -0c0,0 0.01,0 0.01,0 0,0 0.01,0 0.01,0 0,0 0.01,-0 0.01,-0 0.01,-0 0.01,-0 0.01,-0l0 -0c0,-0 0.01,-0 0.01,-0 0,-0 0,-0 0.01,-0 0,-0 0.01,-0 0.01,-0 0,-0 0,-0 0.01,-0 0,-0 0,-0 0.01,-0 0,-0 0.01,-0 0.01,-0 0.01,-0 0.02,-0.01 0.02,-0.02l0.01 -0c0.01,-0.01 0.02,-0.01 0.02,-0.02 0.01,-0.01 0.01,-0.02 0.01,-0.02 0,-0 0,-0 0,-0.01 0,-0.01 0.01,-0.02 0.01,-0.04 -0,-0.01 0,-0.02 0,-0.03 0,-0.01 0,-0.03 -0,-0.04 -0,-0.01 -0.01,-0.02 -0.01,-0.03l-0 -0c-0,-0.01 -0.01,-0.02 -0.02,-0.03 -0,-0 -0,-0.01 -0.01,-0.01 -0,-0 -0,-0.01 -0.01,-0.01 -0,-0 -0.01,-0.01 -0.01,-0.01 -0,-0 -0,-0 -0,-0 -0.01,-0.01 -0.03,-0.03 -0.05,-0.03 -0.01,-0 -0.01,-0.01 -0.02,-0.01 -0,-0 -0.01,-0 -0.01,-0 -0,-0 -0,-0 -0.01,-0 -0.01,-0 -0.02,-0.01 -0.03,-0.01 -0,-0 -0.01,-0 -0.01,-0 -0.01,-0 -0.01,-0 -0.02,-0 -0.01,0 -0.02,0 -0.03,0l-0 0c-0,0 -0,0 -0,0 -0,0 -0.01,0 -0.01,0 -0,0 -0,0 -0.01,0 -0,0 -0.01,0 -0.01,0.01 -0.01,0 -0.01,0.01 -0.02,0.01 -0.01,0 -0.01,0.01 -0.02,0.01 -0.02,0.01 -0.03,0.02 -0.04,0.04 -0.01,0.01 -0.01,0.02 -0.01,0.03 -0,0 -0,0.01 -0,0.01 -0,0.01 -0,0.02 -0,0.02 0,0 0,0 0,0.01zm0.02 -0.02l0 0c0,-0 0,-0.01 0,-0.01 0,-0.01 0,-0.02 0.01,-0.03 0.01,-0.02 0.03,-0.03 0.04,-0.04 0.01,-0 0.01,-0.01 0.02,-0.01 0.01,-0 0.01,-0.01 0.02,-0.01 0,-0 0.01,-0 0.01,-0.01 0,-0 0.01,-0 0.01,-0 0,-0 0,-0 0,-0 0,-0 0.01,-0 0.01,-0 0.01,-0 0.01,-0 0.02,-0 0,-0 0.01,0 0.01,0 0,0 0.01,0 0.01,0 0.01,0 0.02,0 0.03,0.01 0,0 0,0 0.01,0 0,0 0.01,0 0.01,0 0.01,0 0.01,0 0.02,0.01 0.02,0.01 0.03,0.02 0.04,0.03 0,0 0,0 0.01,0.01 0,0 0,0 0.01,0.01 0,0 0,0.01 0.01,0.01 0,0 0,0.01 0.01,0.01 0.01,0.01 0.01,0.02 0.01,0.03l0 0c0,0.01 0.01,0.02 0.01,0.03 0,0.01 0,0.03 0,0.04 -0,0.01 -0,0.02 -0,0.03 0,0.01 -0,0.02 -0.01,0.03 -0,0 -0,0.01 -0,0.01 -0,0.01 -0,0.01 -0.01,0.02 -0,0.01 -0.01,0.01 -0.02,0.01l-0.01 0c-0.01,0.01 -0.01,0.01 -0.02,0.01 -0,0 -0,0 -0.01,0 -0,0 -0,0 -0.01,0 -0,0 -0,0 -0.01,0 -0,0 -0.01,0 -0.01,0 -0,0 -0,0 -0,0 -0,0 -0.01,0 -0.01,0 -0,0 -0,0 -0,0 -0,0 -0.01,0 -0.01,0 -0.01,0 -0.01,0 -0.02,0 -0,-0 -0.01,-0 -0.01,-0l-0 0c-0.01,-0 -0.02,0 -0.02,-0 -0,-0 -0.01,-0 -0.01,-0 -0,0 -0,0 -0,0 -0,-0 -0.01,-0 -0.01,-0l-0 -0c-0,-0 -0.01,-0 -0.01,-0 -0,-0 -0.01,-0 -0.01,-0 -0,-0 -0,-0 -0,-0 -0,-0 -0.01,-0 -0.01,-0l-0 -0c-0,-0 -0,-0 -0,-0 -0,-0 -0,-0 -0,-0 -0,-0 -0,-0 -0.01,-0l-0 -0c-0,-0 -0,-0 -0.01,-0.01 -0,-0 -0,-0 -0.01,-0.01 -0,-0 -0,-0 -0,-0 -0,-0 -0,-0 -0,-0.01 -0,-0 -0,-0 -0,-0 -0,-0 -0,-0 -0,-0.01 -0,-0 -0.01,-0.01 -0.01,-0.01 -0,-0 -0,-0.01 -0.01,-0.01 -0,-0.01 -0.01,-0.01 -0.01,-0.02 -0,-0 -0,-0.01 -0,-0.01 -0,-0 -0,-0 -0,-0.01 -0,-0 -0,-0 -0,-0.01 -0,-0 -0,-0 -0,-0.01 -0,-0 -0,-0.01 -0,-0.01l0 -0.03c0,-0 -0,-0 -0,-0.01 -0,-0.01 -0,-0.01 0,-0.02z"/>
   <path class="fil0" d="M0.68 0.75c-0,-0 -0,-0 -0,-0 -0.01,-0.02 -0.01,-0.03 -0.02,-0.05 -0,-0 -0,-0.01 -0.01,-0.01 -0,-0.01 -0.01,-0.02 -0.01,-0.03 -0,-0.01 -0,-0.01 -0.01,-0.02 -0,-0.01 -0.01,-0.02 -0.02,-0.03 -0,-0.01 -0.01,-0.01 -0.01,-0.02 -0,-0.01 -0.01,-0.01 -0.01,-0.02 -0,-0.01 -0.01,-0.01 -0.01,-0.02 -0,-0 -0.01,-0.01 -0.01,-0.01 -0,-0.01 -0.01,-0.01 -0.01,-0.02 -0,-0 -0.01,-0.01 -0.01,-0.01 -0,-0 -0.01,-0.01 -0.01,-0.01 -0.01,-0.01 -0.01,-0.02 -0.02,-0.02 -0.01,-0.01 -0.01,-0.01 -0.02,-0.02 -0,-0 -0.01,-0.01 -0.02,-0.01 -0,-0 -0,-0 -0.01,-0 -0,-0 -0.01,-0 -0.01,-0 -0,-0 -0,-0 -0,-0 -0,-0 -0.01,-0.01 -0.01,-0.01 -0,-0 -0.01,-0 -0.01,-0l-0 -0c-0,-0 -0,-0 -0.01,-0 -0,-0 -0,-0 -0.01,-0 -0,-0 -0,-0 -0,-0 -0,-0 -0,-0 -0.01,-0 -0.01,-0 -0.01,-0 -0.02,-0 -0,0 -0,0 -0.01,0l-0.03 0c-0,0 -0,-0 -0.01,-0 -0,-0 -0.01,-0 -0.01,0 -0,0 -0.01,0 -0.01,0 -0,0 -0,0 -0.01,0 -0.01,0 -0.02,0 -0.02,0 -0.01,-0 -0.01,-0 -0.02,-0 -0.01,-0 -0.02,-0 -0.02,0 -0.01,0 -0.02,0 -0.02,0.01 -0.01,0 -0.02,0.01 -0.02,0.01 -0.01,0 -0.03,0.01 -0.04,0.01l-0 0c-0.01,0 -0.03,0.01 -0.04,0.02 -0,0 -0.01,0.01 -0.01,0.01 -0,0 -0.01,0.01 -0.01,0.01 -0.01,0.01 -0.02,0.02 -0.03,0.03l-0 0c-0,0.01 -0.01,0.01 -0.01,0.02 -0.01,0.01 -0.01,0.02 -0.02,0.02 -0.01,0.02 -0.02,0.03 -0.03,0.05l-0 0.01c-0,0.01 -0.01,0.01 -0.01,0.02 -0,0.01 -0,0.01 -0.01,0.02l-0 0c-0,0.01 -0.01,0.02 -0.01,0.03 -0,0 -0,0.01 -0,0.01 -0,0.01 -0,0.01 -0,0.02 -0,0.01 -0,0.02 -0,0.02 -0,0 -0,0.01 -0,0.01l-0 0 0 0c0,0 0,0 0,0 0,0 0,0.01 0,0.01l0 0.01 0.01 0c0,0 0.01,0 0.01,0 0,0 0.01,-0 0.01,-0 0,-0 0.01,-0 0.01,-0l0.26 0c0.02,-0 0.04,-0 0.06,0 0.02,0 0.03,-0 0.05,-0 0.01,-0 0.03,-0 0.04,-0 0,0 0.01,0 0.01,0 0.04,0 0.09,-0 0.12,-0.01 0.02,-0 0.03,-0 0.05,-0 0.01,0 0.01,0 0.02,0 0.01,0 0.01,0 0.02,-0 0,-0 0.01,-0 0.01,-0.01 0,-0.01 -0,-0.02 -0,-0.02zm-0.02 0.01l0 0c-0.01,-0 -0.02,-0 -0.02,-0 -0.02,-0 -0.04,-0 -0.05,0 -0.04,0.01 -0.08,0.01 -0.12,0.01 -0,-0 -0.01,-0 -0.01,-0 -0.01,-0 -0.03,-0 -0.05,0 -0.02,0 -0.03,0 -0.05,0 -0.02,-0 -0.04,-0 -0.06,0l-0.26 0c-0,0 -0.01,0 -0.01,0 -0,0 -0.01,0 -0.01,0 -0,-0 -0,-0 -0,-0.01 0,-0 0,-0.01 0,-0.01 0,-0.01 0,-0.02 0,-0.03 0,-0.01 0,-0.01 0,-0.02 0,-0 0,-0.01 0,-0.01 0,-0.01 0,-0.02 0.01,-0.03l0 -0c0,-0.01 0,-0.01 0.01,-0.02 0,-0.01 0,-0.01 0.01,-0.02l0 -0.01c0.01,-0.02 0.02,-0.03 0.03,-0.05 0.01,-0.01 0.01,-0.02 0.02,-0.02 0,-0.01 0.01,-0.01 0.01,-0.02l0 -0c0.01,-0.01 0.01,-0.02 0.02,-0.03 0,-0 0.01,-0.01 0.01,-0.01 0,-0 0.01,-0.01 0.01,-0.01 0.01,-0.01 0.02,-0.01 0.03,-0.02l0 -0c0.01,-0 0.02,-0.01 0.03,-0.01 0.01,-0 0.02,-0 0.03,-0.01 0.01,-0 0.02,-0 0.02,-0.01 0.01,-0 0.01,-0 0.02,-0 0.01,0 0.01,0 0.02,0 0.01,0 0.02,0 0.02,-0 0,-0 0.01,-0 0.01,-0 0,-0 0,-0 0.01,-0 0,-0 0.01,-0 0.01,0 0,0 0,0 0.01,0l0.03 0c0,0 0,-0 0.01,-0 0,-0 0.01,-0 0.01,0 0,0 0,0 0,0 0,0 0,0 0.01,0 0,0 0,0 0,0 0,0 0.01,0 0.01,0l0 0c0,0 0,0 0.01,0 0,0 0,0 0.01,0 0,0 0,0 0,0 0,0 0.01,0 0.01,0.01 0,0 0,0 0.01,0 0,0 0.01,0.01 0.01,0.01 0.01,0 0.01,0.01 0.02,0.01 0.01,0.01 0.01,0.01 0.02,0.02 0,0.01 0.01,0.01 0.01,0.01 0,0 0.01,0 0.01,0.01 0,0 0.01,0.01 0.01,0.01 0,0.01 0.01,0.01 0.01,0.02 0,0 0.01,0.01 0.01,0.01 0,0.01 0.01,0.01 0.01,0.02 0,0.01 0.01,0.01 0.01,0.02 0.01,0.01 0.01,0.02 0.02,0.03 0,0.01 0,0.01 0.01,0.02 0,0.01 0.01,0.02 0.01,0.03 0,0.01 0,0.01 0.01,0.02 0.01,0.02 0.01,0.03 0.02,0.05 0,0 0,0 0,0 0,0 0,0 0,0.01 -0,0 -0,0 -0.01,-0z"/>
   <path class="fil0" d="M0.19 0.6c0,-0.01 0.01,-0.01 0.01,-0.01 0,-0 0.01,-0.01 0.01,-0.01 0.01,-0.01 0.01,-0.01 0.01,-0.02 0,-0 0,-0.01 0.01,-0.01 0.01,-0.01 0.02,-0.02 0.03,-0.04 0.01,-0.01 0.01,-0.02 0.02,-0.02l0 -0c0.01,-0.01 0.01,-0.01 0.01,-0.01l-0.01 -0.02c-0.01,0 -0.02,0.01 -0.02,0.02l-0 0c-0.01,0.01 -0.01,0.02 -0.02,0.03 -0.01,0.01 -0.02,0.02 -0.03,0.04 -0,0 -0,0.01 -0.01,0.01 -0,0.01 -0.01,0.01 -0.01,0.02 -0,0 -0.01,0.01 -0.01,0.01 -0,0.01 -0.01,0.01 -0.01,0.02l-0.01 0.01c-0.01,0.02 -0.02,0.03 -0.03,0.05l-0 0.01c-0.01,0.02 -0.02,0.03 -0.03,0.05 -0,0 -0,0 -0.01,0.01 -0,0 -0,0 -0,0 0,-0 0,-0 0,-0.01 0,-0 0,-0 0,-0 0,-0 0,-0.01 0.01,-0.01 0,-0.01 0,-0.01 0.01,-0.02 0,-0 0.01,-0.01 0.01,-0.01 0,-0.01 0.01,-0.01 0.01,-0.02 0.01,-0.01 0.01,-0.02 0.02,-0.04 0,-0 0,-0 0,-0.01 0,-0 0,-0.01 0.01,-0.01 0,-0 0,-0 0.01,-0.01 0,-0 0.01,-0.01 0.01,-0.01 0,-0.01 0.01,-0.01 0.01,-0.02 0,-0.01 0.01,-0.01 0.01,-0.02 0.01,-0.01 0.01,-0.02 0.02,-0.03l-0.01 -0.02c-0.01,0.01 -0.02,0.02 -0.03,0.03 -0,0.01 -0.01,0.01 -0.01,0.02 -0,0.01 -0.01,0.01 -0.01,0.02 -0,0 -0,0.01 -0.01,0.01 -0,0 -0,0 -0.01,0.01 -0,0 -0.01,0.01 -0.01,0.01 -0,0 -0,0 -0,0.01 -0.01,0.01 -0.01,0.02 -0.02,0.03 -0,0.01 -0.01,0.01 -0.01,0.02 -0,0 -0.01,0.01 -0.01,0.01 -0.01,0.01 -0.01,0.02 -0.01,0.02 -0,0 -0,0.01 -0,0.01 -0,0 -0,0.01 -0,0.01 -0,0 -0,0 -0,0l0.01 0.01c-0,0 -0,0 -0,0 -0,0 -0,0 -0,0l-0 0.02c0,0 0,0 0,0 0.01,0 0.01,-0 0.02,-0.01 0.01,-0 0.01,-0.01 0.02,-0.02 0,-0 0,-0 0.01,-0.01 0.01,-0.02 0.02,-0.03 0.04,-0.05l0 -0.01c0.01,-0.02 0.02,-0.03 0.03,-0.05l0.01 -0.01z"/>
   <path class="fil0" d="M0.19 0.69c0,-0 0,-0.01 0,-0.01 0,-0 0.01,-0.01 0.01,-0.02l0 -0c0.01,-0.02 0.02,-0.04 0.04,-0.06 0.01,-0.01 0.02,-0.03 0.03,-0.04 0,-0 0,-0.01 0.01,-0.01 0.01,-0.01 0.01,-0.02 0.02,-0.03 0.01,-0.01 0.01,-0.02 0.01,-0.03l-0.02 -0.01c-0,0.01 -0.01,0.02 -0.01,0.03 -0,0.01 -0.01,0.02 -0.02,0.03 -0,0 -0,0.01 -0.01,0.01 -0.01,0.01 -0.02,0.03 -0.03,0.04 -0.01,0.02 -0.03,0.04 -0.04,0.06l-0 0c-0,0.01 -0.01,0.02 -0.01,0.03 -0,0 -0,0 -0,0.01 -0,0.01 -0,0.01 -0,0.02l0.02 -0c-0,-0 0,-0.01 0,-0.01z"/>
   <path class="fil0" d="M0.58 0.72c-0,-0 -0,-0 -0,-0l0 -0c0,-0.01 -0,-0.02 -0,-0.03l-0 -0.01 -0 -0c-0,-0 -0.01,-0.01 -0.02,-0l-0 0c-0,0 -0.01,0 -0.01,0.01 -0,0 -0.01,0 -0.01,0 -0,0 -0.01,0 -0.01,0 -0.01,0 -0.01,0.01 -0.02,0.01l-0 0c-0,0 -0,0 -0,0 -0,-0 -0,-0 -0,-0.01 0,-0 0,-0.01 0,-0.01 0,-0 0,-0.01 0,-0.02 0,-0 0,-0.01 0,-0.01 0,-0 0,-0.01 0,-0.01 0.01,-0.02 0.01,-0.04 0.01,-0.06l0 -0.01 -0.01 0c-0.01,0 -0.01,0.01 -0.02,0.02 -0,0 -0,0 -0,0 -0.01,0.01 -0.01,0.02 -0.02,0.03 -0.01,0.01 -0.02,0.03 -0.03,0.04l-0 0.01c-0,0.01 -0.01,0.01 -0.01,0.02 -0,0.01 -0.01,0.01 -0.01,0.02 -0,0 -0,0.01 -0,0.01 -0,0 -0,0.01 -0,0.01 -0,0 -0,0.01 -0,0.01 -0,-0 0,-0.01 0,-0.01 0,-0 0,-0 0,-0.01 -0,-0.01 0,-0.01 0,-0.01 0,-0 0,-0.01 0,-0.01 0,-0 0,-0.01 0,-0.01 0.01,-0.01 0.01,-0.03 0.02,-0.04l0 -0c0,-0 0,-0.01 0,-0.01 0.01,-0.01 0.01,-0.02 0.01,-0.03l0 -0c0,-0.01 0,-0.01 0.01,-0.01 0,-0.01 0.01,-0.01 0.01,-0.02 0,-0.01 0,-0.03 0,-0.04l-0.02 0c0,-0 0.01,-0.01 0.01,-0.01l-0.02 -0.01c0,-0 0,-0 0,-0 -0,0 -0,0 -0,0 -0,0 -0,0 -0,0.01 -0,0 -0.01,0.01 -0.01,0.01 -0,0 -0.01,0.01 -0.01,0.01l-0 0c-0.01,0.01 -0.01,0.02 -0.02,0.03l-0 0c-0.02,0.02 -0.03,0.04 -0.04,0.06 -0,0.01 -0.01,0.01 -0.01,0.02 -0.01,0.01 -0.01,0.02 -0.02,0.03 -0,0.01 -0.01,0.02 -0.01,0.03 0,-0 0,-0 0,-0 0,-0 0,-0 0,-0.01 0,-0.01 0,-0.01 0.01,-0.02 0,-0.01 0.01,-0.01 0.01,-0.02 0,-0 0,-0.01 0,-0.01 0,-0.01 0,-0.01 0,-0.01 0,-0.01 0,-0.01 0.01,-0.02 0,-0 0,-0 0,-0.01 0,-0 0,-0.01 0.01,-0.01 0,-0.01 0.01,-0.01 0.01,-0.02 0,-0.01 0.01,-0.02 0.02,-0.03 0.01,-0.01 0.02,-0.03 0.02,-0.05l-0.01 -0c0,-0 0,-0 0,-0 0,-0 0,-0 0,-0 0,-0 0,-0.01 0.01,-0.01 0,0 -0,0 -0,0l-0 -0.02c-0.01,0 -0.01,0.01 -0.02,0.01 -0,0 -0,0 -0,0 -0.01,0.01 -0.01,0.02 -0.02,0.02 -0,0 -0.01,0.01 -0.02,0.02 -0,0 -0,0.01 -0.01,0.01 -0,0 -0,0 -0,0.01 -0,0 -0.01,0.01 -0.01,0.01 -0,0.01 -0.01,0.01 -0.01,0.02 -0.01,0.01 -0.01,0.02 -0.02,0.02 -0.01,0.01 -0.01,0.02 -0.02,0.03 -0.01,0.01 -0.01,0.02 -0.02,0.02 -0.01,0.01 -0.01,0.01 -0.02,0.02 -0.01,0.01 -0.02,0.03 -0.03,0.04 -0,0 -0,0 -0,0 -0,0 -0.01,0.01 -0.01,0.01 0,-0 0,-0 0,0l-0.01 0.02c0,0 0,0 0.01,0 0.01,0 0.02,-0.01 0.03,-0.02 0,-0 0,-0 0,-0 0.01,-0.01 0.03,-0.03 0.04,-0.04 0,-0.01 0.01,-0.01 0.02,-0.02 0.01,-0.01 0.01,-0.02 0.02,-0.03 0.01,-0.01 0.01,-0.02 0.02,-0.03 0.01,-0.01 0.01,-0.02 0.02,-0.03 0,-0.01 0.01,-0.01 0.01,-0.02 0,-0 0.01,-0.01 0.01,-0.01 0,-0 0,-0.01 0,-0.01 0,-0 0,-0 0,-0.01 0,-0.01 0.01,-0.01 0.01,-0.01 0,-0 0,-0 0.01,-0.01 -0,0.01 -0.01,0.02 -0.01,0.02 -0.01,0.01 -0.01,0.02 -0.02,0.03 -0,0.01 -0.01,0.01 -0.01,0.02 -0,0 -0,0.01 -0.01,0.02 -0,0 -0,0 -0,0.01 -0,0.01 -0.01,0.01 -0.01,0.02 -0,0.01 -0,0.01 -0,0.02 -0,0 -0,0.01 -0,0.01 -0,0.01 -0,0.01 -0.01,0.02 -0,0.01 -0.01,0.02 -0.01,0.03 -0,0 -0,0 -0,0.01 -0,0.01 -0,0.01 -0,0.02 0,0 -0,0 -0,0 -0,0 -0,0.01 -0,0.01 0,0 0,0.02 0.01,0.02l0.01 0 0 -0.01c0.01,-0.01 0.01,-0.02 0.01,-0.03 0,-0.01 0.01,-0.02 0.01,-0.03 0,-0.01 0.01,-0.02 0.02,-0.03 0,-0.01 0.01,-0.01 0.01,-0.02 0.01,-0.02 0.02,-0.04 0.04,-0.05l0 -0c0.01,-0.01 0.02,-0.02 0.02,-0.03l0 -0c0,-0 0.01,-0.01 0.01,-0.01 0,-0 0.01,-0.01 0.01,-0.01 0,-0 0,-0 0,-0 0,0 0,0 0,0 -0,0.01 -0,0.02 -0,0.03 -0,0 -0,0.01 -0.01,0.01 -0,0.01 -0.01,0.01 -0.01,0.02l-0 0c-0,0.01 -0.01,0.02 -0.01,0.03 -0,0 -0,0.01 -0,0.01l-0 0c-0.01,0.01 -0.01,0.03 -0.02,0.05 -0,0 -0,0.01 -0,0.01 -0,0 -0,0.01 -0,0.01 -0,0.01 -0,0.01 -0,0.02 0,0 -0,0 -0,0.01 -0,0.01 -0,0.02 0,0.02 0,0.01 0.01,0.01 0.02,0.01 0,0 0,-0 0.01,-0 0.01,-0 0.01,-0.01 0.01,-0.01l0 -0c0,-0 0,-0.01 0.01,-0.01 0,-0 0,-0.01 0,-0.01 0,-0 0,-0.01 0,-0.01 0,-0.01 0.01,-0.01 0.01,-0.02 0,-0.01 0.01,-0.01 0.01,-0.02l0 -0.01c0.01,-0.01 0.02,-0.03 0.03,-0.04 0,-0 0,-0.01 0.01,-0.01 -0,0 -0,0 -0,0 -0,0.01 -0,0.01 -0,0.02 -0,0 -0,0.01 -0,0.01 -0,0 -0,0.01 -0,0.01 -0,0.01 -0,0.01 -0,0.02 -0,0.01 0,0.01 0,0.02 0.01,0.01 0.01,0.01 0.02,0.01l0 -0c0.01,-0 0.02,-0 0.03,-0.01 0,-0 0.01,-0 0.01,-0 0,-0 0.01,-0 0.01,-0 0,-0 0.01,-0 0.01,-0 0,0.01 0,0.01 0,0.02l0 0c-0,0 -0,0.01 0,0.01 0,0.01 0.01,0.01 0.02,0.01 0,0 0,0 0,0l0.01 -0.02c-0,-0 -0,-0 -0.01,-0 -0,-0 -0.01,-0 -0.01,-0z"/>
  </g>
 </g>
</svg>
